<svg id="svg" version="1.1" xmlns="http://www.w3.org/2000/svg" xmlns:xlink="http://www.w3.org/1999/xlink" width="400" height="431.7708333333333" viewBox="0, 0, 400,431.7708333333333"><g id="svgg"><path id="path0" d="M305.467 200.267 C 305.320 200.413,305.200 201.924,305.200 203.624 C 305.200 223.197,297.355 245.506,284.284 263.100 C 280.838 267.740,281.354 267.893,277.600 261.117 C 276.932 259.910,269.083 246.312,267.747 244.046 C 267.278 243.251,264.512 238.460,261.599 233.400 C 258.686 228.340,255.974 223.660,255.572 223.000 C 255.170 222.340,253.798 219.955,252.524 217.700 C 250.429 213.991,249.600 212.932,249.600 213.963 C 249.600 214.163,243.083 220.805,235.118 228.722 L 220.636 243.118 222.144 245.659 C 222.973 247.057,223.821 248.470,224.029 248.800 C 224.236 249.130,224.719 250.030,225.102 250.800 C 225.486 251.570,225.896 252.290,226.014 252.400 C 226.132 252.510,227.415 254.670,228.865 257.200 C 231.562 261.903,241.120 278.436,242.394 280.600 C 250.267 293.975,250.045 292.758,245.055 295.153 C 217.933 308.168,185.229 308.552,157.184 296.183 C 150.905 293.414,150.644 295.422,159.200 280.651 C 159.750 279.701,162.090 275.640,164.400 271.626 C 166.710 267.612,168.960 263.738,169.400 263.016 C 172.136 258.532,180.000 244.371,180.000 243.929 C 180.000 243.071,150.071 213.366,149.655 213.811 C 149.455 214.025,147.225 217.800,144.698 222.200 C 140.489 229.531,130.888 246.135,129.202 249.000 C 128.813 249.660,126.134 254.295,123.248 259.300 C 120.362 264.305,115.686 272.405,112.857 277.300 C 97.190 304.413,87.410 321.348,83.807 327.600 C 72.602 347.044,70.190 351.090,69.361 351.833 C 68.849 352.292,68.243 353.102,68.012 353.633 C 67.782 354.165,67.059 355.500,66.405 356.600 C 65.752 357.700,64.849 359.230,64.400 360.000 C 63.951 360.770,63.048 362.300,62.393 363.400 C 61.739 364.500,61.081 365.670,60.931 366.000 C 60.781 366.330,60.546 366.690,60.408 366.800 C 60.271 366.910,59.841 367.630,59.453 368.400 C 59.066 369.170,58.226 370.700,57.587 371.800 C 56.947 372.900,56.296 374.070,56.139 374.400 C 55.850 375.009,55.201 376.034,53.736 378.200 C 53.289 378.860,52.680 380.075,52.382 380.900 C 52.083 381.725,51.698 382.400,51.525 382.400 C 51.352 382.400,50.935 382.985,50.598 383.700 C 49.775 385.447,48.665 387.351,48.316 387.614 C 48.159 387.732,47.741 388.523,47.386 389.372 C 47.031 390.222,46.484 391.173,46.170 391.487 C 45.525 392.132,45.292 428.800,45.932 428.800 C 46.115 428.800,46.506 429.251,46.802 429.803 C 48.289 432.583,56.432 430.658,60.729 426.510 C 61.019 426.230,61.501 426.000,61.800 426.000 C 62.099 426.000,62.599 425.743,62.913 425.430 C 63.227 425.116,64.095 424.570,64.842 424.216 C 65.589 423.862,66.920 423.135,67.800 422.602 C 70.525 420.950,71.582 420.382,71.851 420.426 C 71.994 420.449,72.221 420.298,72.355 420.090 C 72.668 419.606,75.304 418.209,75.700 418.318 C 75.865 418.363,76.000 418.201,76.000 417.957 C 76.000 417.714,76.279 417.622,76.621 417.753 C 76.962 417.884,77.161 417.858,77.063 417.695 C 76.964 417.533,77.135 417.168,77.442 416.884 C 77.749 416.601,78.000 416.493,78.000 416.646 C 78.000 416.799,78.315 416.670,78.700 416.359 C 79.085 416.048,80.030 415.474,80.800 415.084 C 81.782 414.586,82.606 413.632,83.562 411.887 C 84.312 410.519,85.032 409.310,85.162 409.200 C 85.493 408.922,86.659 406.872,87.438 405.200 C 87.796 404.430,88.217 403.710,88.373 403.600 C 88.529 403.490,90.069 400.880,91.796 397.800 C 93.523 394.720,95.086 392.140,95.270 392.066 C 95.454 391.992,95.503 391.767,95.379 391.566 C 95.255 391.365,95.324 391.200,95.533 391.200 C 95.742 391.200,96.023 390.763,96.157 390.228 C 96.291 389.693,96.628 389.018,96.905 388.728 C 97.183 388.438,97.639 387.750,97.921 387.200 C 98.202 386.650,98.968 385.300,99.623 384.200 C 100.279 383.100,101.088 381.660,101.422 381.000 C 101.757 380.340,102.549 378.990,103.184 378.000 C 103.818 377.010,104.351 375.998,104.369 375.750 C 104.397 375.343,105.531 373.262,107.251 370.460 C 107.609 369.877,110.023 365.710,112.615 361.200 C 115.207 356.690,117.614 352.520,117.964 351.933 C 118.727 350.654,125.053 339.737,126.233 337.664 C 126.691 336.859,127.454 335.570,127.929 334.800 C 128.403 334.030,129.189 332.635,129.676 331.700 C 130.772 329.592,130.734 329.590,135.314 331.900 C 140.063 334.295,140.616 334.543,145.000 336.239 C 146.980 337.005,148.960 337.796,149.400 337.998 C 150.143 338.338,153.056 339.312,158.400 341.009 C 161.643 342.038,166.460 343.178,171.098 344.013 C 173.352 344.419,175.350 344.846,175.538 344.962 C 175.726 345.078,179.462 345.568,183.840 346.049 C 204.619 348.337,226.195 346.157,245.200 339.850 C 251.618 337.720,253.789 336.949,255.400 336.226 C 256.060 335.930,257.916 335.116,259.524 334.419 C 261.133 333.721,264.090 332.351,266.095 331.375 C 270.600 329.182,270.563 329.181,271.802 331.500 C 272.361 332.545,273.219 334.046,273.709 334.836 C 274.199 335.625,276.031 338.775,277.780 341.836 C 279.529 344.896,281.083 347.490,281.233 347.600 C 281.383 347.710,281.842 348.466,282.253 349.281 C 282.664 350.095,284.530 353.396,286.400 356.617 C 288.270 359.837,290.174 363.131,290.632 363.936 C 291.090 364.741,291.833 366.030,292.283 366.800 C 295.744 372.714,300.624 381.212,301.127 382.200 C 301.463 382.860,301.865 383.490,302.021 383.600 C 302.178 383.710,302.642 384.463,303.053 385.274 C 303.464 386.085,305.960 390.495,308.600 395.073 C 311.240 399.652,313.472 403.578,313.560 403.799 C 313.648 404.020,313.852 404.290,314.013 404.400 C 314.174 404.510,314.642 405.252,315.053 406.048 C 316.946 409.716,317.638 410.733,318.874 411.664 C 320.587 412.955,328.181 417.200,328.777 417.200 C 329.028 417.200,329.610 417.551,330.071 417.980 C 330.531 418.409,331.424 418.873,332.054 419.012 C 332.684 419.150,333.200 419.439,333.200 419.653 C 333.200 419.867,333.740 420.230,334.400 420.460 C 335.060 420.690,335.600 421.007,335.600 421.164 C 335.600 421.322,336.230 421.698,337.000 422.000 C 337.770 422.302,338.400 422.678,338.400 422.836 C 338.400 422.993,338.940 423.310,339.600 423.540 C 340.260 423.770,340.800 424.119,340.800 424.315 C 340.800 424.511,341.529 424.912,342.420 425.206 C 343.310 425.500,344.165 425.954,344.320 426.214 C 344.474 426.474,345.275 426.906,346.100 427.174 C 346.925 427.443,347.600 427.828,347.600 428.031 C 347.600 428.579,349.938 428.478,350.646 427.900 C 352.447 426.428,353.600 424.990,353.600 424.217 C 353.600 423.878,353.780 423.600,354.000 423.600 C 354.260 423.600,354.400 418.167,354.399 408.100 L 354.398 392.600 353.032 390.334 C 352.280 389.088,351.771 387.963,351.899 387.834 C 352.028 387.705,351.923 387.600,351.667 387.600 C 351.410 387.600,351.200 387.403,351.200 387.162 C 351.200 386.921,350.795 386.159,350.300 385.470 C 349.080 383.771,348.559 382.868,347.777 381.100 C 347.412 380.275,346.965 379.600,346.784 379.600 C 346.602 379.600,346.331 379.195,346.181 378.700 C 346.031 378.205,345.524 377.380,345.054 376.868 C 344.584 376.355,344.264 375.852,344.341 375.751 C 344.607 375.404,343.508 373.209,343.173 373.417 C 342.989 373.530,342.616 372.879,342.344 371.970 C 342.071 371.061,341.613 370.226,341.324 370.116 C 341.036 370.005,340.800 369.688,340.800 369.411 C 340.800 369.134,340.440 368.450,340.000 367.891 C 339.560 367.331,339.200 366.587,339.200 366.237 C 339.200 365.887,338.885 365.280,338.500 364.888 C 338.115 364.496,337.536 363.641,337.214 362.988 C 336.892 362.335,336.290 361.299,335.877 360.686 C 335.463 360.073,335.091 359.341,335.050 359.060 C 334.983 358.601,333.971 357.103,332.765 355.675 C 332.521 355.386,332.146 354.514,331.932 353.737 C 331.717 352.961,331.450 352.417,331.338 352.529 C 330.858 353.009,329.284 350.675,324.880 342.958 C 322.306 338.447,319.907 334.271,319.549 333.678 C 319.192 333.085,317.188 329.627,315.096 325.994 C 313.005 322.361,310.868 318.658,310.347 317.766 C 305.485 309.434,303.146 305.165,303.262 304.834 C 303.338 304.618,304.947 302.856,306.838 300.920 C 324.459 282.875,338.001 257.450,343.652 231.800 C 345.730 222.367,347.880 202.750,347.068 200.633 C 346.815 199.973,306.119 199.614,305.467 200.267 " stroke="none" fill="#e4eaea" fill-rule="evenodd"></path><path id="path1" d="M188.000 0.212 C 187.450 0.291,183.809 0.569,179.909 0.831 C 176.010 1.093,172.915 1.463,173.033 1.653 C 173.151 1.844,172.562 2.003,171.724 2.007 C 170.179 2.015,163.034 2.976,161.200 3.423 C 160.650 3.558,158.760 3.935,157.000 4.261 C 155.240 4.588,153.440 5.015,153.000 5.212 C 152.560 5.408,151.075 5.779,149.700 6.036 C 148.325 6.294,147.200 6.628,147.200 6.779 C 147.200 6.930,145.985 7.286,144.500 7.571 C 143.015 7.857,141.440 8.309,141.000 8.577 C 140.560 8.845,139.075 9.300,137.700 9.587 C 136.325 9.874,135.200 10.245,135.200 10.410 C 135.200 10.576,134.525 10.835,133.700 10.986 C 132.875 11.137,131.480 11.589,130.600 11.990 C 128.326 13.028,122.520 15.200,122.020 15.200 C 121.789 15.200,121.600 15.357,121.600 15.548 C 121.600 15.739,120.790 16.123,119.800 16.400 C 118.810 16.677,118.000 17.061,118.000 17.252 C 118.000 17.443,117.735 17.600,117.412 17.600 C 117.089 17.600,116.234 17.930,115.512 18.333 C 114.790 18.735,113.349 19.389,112.308 19.784 C 111.155 20.222,110.516 20.678,110.672 20.951 C 110.813 21.198,110.795 21.280,110.632 21.134 C 110.312 20.848,107.812 21.777,107.059 22.463 C 106.658 22.827,104.823 23.813,99.200 26.685 C 98.430 27.078,97.710 27.491,97.600 27.601 C 97.490 27.712,96.590 28.325,95.600 28.964 C 94.610 29.602,93.312 30.457,92.716 30.863 C 92.120 31.268,91.467 31.600,91.265 31.600 C 91.063 31.600,90.688 31.853,90.431 32.163 C 90.174 32.473,89.341 33.021,88.582 33.382 C 87.822 33.743,87.200 34.187,87.200 34.370 C 87.200 34.553,86.662 34.926,86.005 35.198 C 85.348 35.470,84.897 35.833,85.002 36.004 C 85.108 36.175,84.762 36.423,84.233 36.556 C 83.270 36.798,81.884 37.810,80.203 39.500 C 79.711 39.995,79.113 40.400,78.874 40.400 C 78.635 40.400,78.296 40.644,78.120 40.942 C 77.944 41.239,77.350 41.714,76.800 41.997 C 75.792 42.515,75.123 43.052,73.432 44.700 C 72.924 45.195,72.401 45.600,72.270 45.600 C 72.139 45.600,71.309 46.309,70.426 47.175 C 69.542 48.041,68.562 48.896,68.248 49.075 C 67.933 49.254,66.489 50.525,65.038 51.900 C 63.586 53.275,62.280 54.400,62.135 54.400 C 61.770 54.400,59.600 56.867,59.600 57.282 C 59.600 57.468,59.150 57.791,58.600 58.000 C 58.050 58.209,57.600 58.551,57.600 58.759 C 57.600 59.179,55.486 61.400,55.086 61.400 C 54.947 61.400,54.376 62.019,53.818 62.776 C 53.260 63.532,52.037 64.912,51.101 65.841 C 50.166 66.770,49.003 68.041,48.517 68.665 C 47.299 70.231,45.773 72.066,42.774 75.572 C 42.128 76.327,41.600 77.138,41.600 77.376 C 41.600 77.613,41.240 78.032,40.800 78.307 C 40.360 78.582,40.000 79.032,40.000 79.307 C 40.000 79.582,39.640 80.032,39.200 80.307 C 38.760 80.582,38.400 81.075,38.400 81.403 C 38.400 81.732,38.225 82.000,38.012 82.000 C 37.798 82.000,37.265 82.765,36.826 83.700 C 36.388 84.635,36.023 85.233,36.015 85.030 C 36.007 84.826,35.380 85.546,34.622 86.630 C 33.865 87.713,33.074 88.797,32.865 89.038 C 32.656 89.278,32.171 90.088,31.787 90.838 C 31.403 91.587,30.978 92.290,30.844 92.400 C 30.709 92.510,30.329 93.135,29.999 93.788 C 29.670 94.441,29.085 95.296,28.700 95.688 C 28.315 96.080,28.000 96.670,28.000 97.000 C 28.000 97.330,27.842 97.600,27.649 97.600 C 27.455 97.600,27.057 98.185,26.763 98.900 C 26.469 99.615,25.818 100.810,25.315 101.556 C 24.812 102.302,24.400 103.277,24.400 103.722 C 24.400 104.168,24.281 104.415,24.137 104.270 C 23.992 104.125,23.362 104.995,22.737 106.203 C 22.111 107.411,21.062 109.435,20.405 110.700 C 19.748 111.965,19.208 113.315,19.205 113.700 C 19.202 114.085,19.027 114.400,18.816 114.400 C 18.605 114.400,18.216 115.120,17.953 116.000 C 17.689 116.880,17.329 117.600,17.152 117.600 C 16.975 117.600,16.627 118.365,16.378 119.300 C 16.129 120.235,15.627 121.334,15.263 121.742 C 14.898 122.150,14.656 122.510,14.725 122.542 C 14.964 122.653,13.833 126.400,13.560 126.400 C 13.410 126.400,13.164 126.889,13.014 127.486 C 12.864 128.083,12.411 129.298,12.007 130.186 C 11.603 131.074,11.146 132.475,10.992 133.300 C 10.837 134.125,10.580 134.800,10.419 134.800 C 10.128 134.800,8.984 139.132,9.125 139.700 C 9.166 139.865,9.009 140.000,8.776 140.000 C 8.543 140.000,8.456 140.168,8.583 140.372 C 8.709 140.577,8.642 140.850,8.433 140.979 C 8.225 141.108,7.849 142.246,7.600 143.507 C 7.350 144.768,6.906 146.340,6.614 147.000 C 6.321 147.660,5.957 149.145,5.804 150.300 C 5.650 151.454,5.378 152.490,5.198 152.601 C 5.019 152.712,4.664 154.107,4.410 155.701 C 4.156 157.296,3.845 158.870,3.719 159.200 C 3.592 159.530,3.452 160.070,3.406 160.400 C 3.361 160.730,3.124 161.990,2.880 163.200 C 2.636 164.410,2.316 166.660,2.169 168.200 C 2.023 169.740,1.761 171.180,1.587 171.400 C -0.258 173.740,-0.246 224.369,1.600 228.600 C 1.895 229.275,2.787 235.981,2.806 237.668 C 2.811 238.083,2.891 238.075,3.173 237.630 C 3.414 237.248,3.488 237.545,3.397 238.530 C 3.322 239.339,3.397 240.000,3.563 240.000 C 3.730 240.000,3.867 240.243,3.867 240.541 C 3.867 241.636,4.940 247.406,5.179 247.600 C 5.315 247.710,5.662 248.970,5.949 250.400 C 6.236 251.830,6.605 253.180,6.769 253.400 C 6.934 253.620,7.298 254.880,7.579 256.200 C 7.861 257.520,8.200 258.780,8.334 259.000 C 8.468 259.220,8.619 259.580,8.669 259.800 C 9.147 261.892,10.115 264.929,10.599 265.856 C 10.927 266.485,11.202 267.270,11.211 267.600 C 11.220 267.930,11.575 268.920,12.000 269.800 C 12.425 270.680,12.779 271.547,12.786 271.726 C 12.794 271.905,13.250 273.035,13.800 274.237 C 14.350 275.440,14.800 276.648,14.800 276.923 C 14.800 277.197,15.050 277.779,15.355 278.214 C 15.660 278.650,16.139 279.770,16.418 280.703 C 16.698 281.637,17.059 282.400,17.220 282.400 C 17.381 282.400,17.635 282.895,17.784 283.500 C 17.932 284.105,18.350 285.050,18.711 285.600 C 19.073 286.150,19.402 286.807,19.443 287.059 C 19.484 287.312,19.795 288.032,20.135 288.659 C 20.475 289.287,21.053 290.475,21.420 291.300 C 21.787 292.125,22.247 292.800,22.443 292.800 C 22.640 292.800,22.800 293.072,22.800 293.405 C 22.800 294.004,23.572 295.613,24.044 296.000 C 24.457 296.338,25.769 298.982,25.682 299.300 C 25.637 299.465,25.744 299.600,25.920 299.600 C 26.095 299.600,26.467 300.230,26.746 301.000 C 27.024 301.770,27.398 302.400,27.577 302.400 C 27.756 302.400,28.127 302.940,28.400 303.600 C 28.673 304.260,29.022 304.800,29.174 304.800 C 29.326 304.800,29.699 305.434,30.003 306.209 C 30.307 306.983,30.881 307.911,31.278 308.271 C 31.675 308.630,32.000 309.172,32.000 309.475 C 32.000 309.777,32.270 310.129,32.600 310.255 C 32.930 310.382,33.200 310.698,33.200 310.958 C 33.200 311.218,33.733 312.053,34.384 312.815 C 35.035 313.577,35.575 314.425,35.584 314.700 C 35.593 314.975,35.772 315.200,35.981 315.200 C 36.191 315.200,36.641 315.785,36.980 316.500 C 37.320 317.215,38.229 318.508,38.999 319.373 C 39.770 320.238,40.400 321.080,40.400 321.244 C 40.400 321.408,40.673 321.816,41.007 322.150 C 41.340 322.483,42.266 323.611,43.063 324.655 C 44.832 326.973,45.133 327.344,46.400 328.768 C 46.950 329.386,48.386 331.041,49.591 332.446 C 53.401 336.888,68.370 351.612,69.052 351.587 C 69.578 351.568,70.290 350.444,74.828 342.464 C 77.123 338.429,79.360 334.540,79.800 333.823 C 80.240 333.105,82.940 328.427,85.800 323.426 C 88.660 318.426,91.290 313.855,91.645 313.268 C 92.000 312.680,94.405 308.510,96.990 304.000 C 99.575 299.490,101.985 295.322,102.345 294.739 C 102.705 294.155,104.980 290.227,107.400 286.010 C 109.820 281.793,112.192 277.681,112.672 276.871 C 113.152 276.062,113.894 274.770,114.320 274.000 C 116.428 270.197,121.774 260.976,121.974 260.800 C 122.098 260.690,122.516 259.970,122.903 259.200 C 123.290 258.430,124.010 257.152,124.503 256.359 C 124.996 255.567,127.350 251.517,129.732 247.359 C 132.115 243.202,136.021 236.470,138.412 232.400 C 140.804 228.330,143.032 224.460,143.365 223.800 C 143.698 223.140,144.515 221.700,145.180 220.600 C 145.845 219.500,147.135 217.275,148.046 215.657 L 149.704 212.713 143.239 206.239 L 136.775 199.766 136.893 158.983 C 137.025 113.190,136.822 116.230,140.037 111.891 C 144.421 105.974,146.221 105.480,164.100 105.289 L 178.800 105.132 178.800 90.816 C 178.800 82.942,178.913 75.938,179.050 75.250 L 179.300 74.000 200.250 74.000 L 221.200 74.000 221.200 89.578 L 221.200 105.155 236.110 105.278 L 251.019 105.400 253.708 106.724 C 257.346 108.516,260.079 111.264,261.806 114.869 L 263.200 117.777 263.200 159.005 L 263.200 200.232 256.679 206.709 C 251.588 211.767,250.260 213.298,250.620 213.693 C 250.874 213.972,252.574 216.810,254.396 220.000 C 256.219 223.190,258.001 226.283,258.355 226.873 C 259.139 228.179,265.776 239.674,272.169 250.800 C 274.760 255.310,277.874 260.661,279.089 262.690 L 281.297 266.380 283.246 263.890 C 284.317 262.521,285.331 261.220,285.498 261.000 C 285.800 260.601,289.206 255.278,290.616 253.000 C 292.849 249.391,298.795 236.791,298.799 235.660 C 298.799 235.364,299.060 234.554,299.379 233.860 C 301.239 229.807,303.467 218.970,304.469 209.100 L 305.393 200.000 326.559 200.000 L 347.724 200.000 347.478 205.991 C 347.180 213.267,346.127 221.990,344.629 229.600 C 343.462 235.531,339.810 248.328,338.407 251.400 C 338.206 251.840,337.563 253.460,336.978 255.000 C 331.034 270.641,319.101 289.056,306.503 302.028 L 303.563 305.055 307.239 311.428 C 315.579 325.884,319.743 333.079,320.548 334.427 C 321.016 335.212,323.380 339.329,325.800 343.577 C 330.893 352.516,330.611 352.283,333.283 349.748 C 338.264 345.024,347.636 335.549,350.008 332.839 C 351.434 331.211,352.966 329.472,353.413 328.975 C 353.860 328.478,354.670 327.487,355.213 326.772 C 355.756 326.058,356.382 325.277,356.604 325.037 C 357.721 323.831,361.835 318.308,363.000 316.450 C 363.220 316.099,363.715 315.574,364.100 315.283 C 364.485 314.993,364.800 314.573,364.800 314.351 C 364.800 314.128,365.250 313.357,365.800 312.636 C 366.350 311.914,366.800 311.199,366.800 311.045 C 366.800 310.892,366.977 310.549,367.194 310.283 C 368.942 308.139,369.528 307.280,369.771 306.502 C 369.926 306.009,370.274 305.379,370.546 305.102 C 370.817 304.826,371.648 303.520,372.393 302.200 C 373.138 300.880,373.865 299.710,374.009 299.600 C 374.153 299.490,374.605 298.635,375.013 297.700 C 375.420 296.765,375.863 296.000,375.997 296.000 C 376.130 296.000,376.481 295.325,376.776 294.500 C 377.071 293.675,377.449 292.910,377.615 292.800 C 377.997 292.547,380.800 286.580,380.800 286.018 C 380.800 285.788,380.980 285.600,381.200 285.600 C 381.420 285.600,381.600 285.397,381.600 285.149 C 381.600 284.902,382.140 283.636,382.800 282.338 C 383.460 281.039,384.000 279.711,384.000 279.388 C 384.000 279.065,384.146 278.800,384.324 278.800 C 384.503 278.800,384.982 277.675,385.389 276.300 C 385.797 274.925,386.252 273.710,386.401 273.600 C 386.550 273.490,386.992 272.500,387.383 271.400 C 390.137 263.651,390.776 261.718,390.788 261.100 C 390.794 260.715,390.938 260.400,391.106 260.400 C 391.275 260.400,391.756 258.915,392.176 257.100 C 392.597 255.285,393.069 253.620,393.227 253.400 C 393.384 253.180,393.722 251.920,393.977 250.600 C 394.233 249.280,394.597 247.840,394.787 247.400 C 394.978 246.960,395.336 245.430,395.584 244.000 C 395.832 242.570,396.208 240.950,396.419 240.400 C 396.630 239.850,397.153 236.970,397.581 234.000 C 398.009 231.030,398.532 227.570,398.744 226.311 C 400.472 216.017,400.097 169.623,398.300 171.431 C 398.135 171.597,398.000 171.151,398.000 170.439 C 398.000 168.560,396.813 160.339,396.405 159.400 C 396.215 158.960,395.842 157.340,395.577 155.800 C 395.311 154.260,394.955 152.820,394.785 152.600 C 394.614 152.380,394.347 151.300,394.191 150.200 C 394.036 149.100,393.675 147.660,393.391 147.000 C 393.107 146.340,392.563 144.450,392.182 142.800 C 391.802 141.150,391.356 139.620,391.192 139.400 C 391.027 139.180,390.761 138.370,390.601 137.600 C 390.441 136.830,389.970 135.445,389.555 134.522 C 389.140 133.599,388.799 132.609,388.798 132.322 C 388.796 132.035,388.546 131.322,388.241 130.739 C 387.937 130.155,387.462 128.985,387.186 128.139 C 386.910 127.292,386.566 126.510,386.423 126.400 C 386.279 126.290,385.827 125.075,385.417 123.700 C 385.008 122.325,384.522 121.200,384.337 121.200 C 384.152 121.200,384.000 120.968,384.000 120.685 C 384.000 120.401,383.644 119.471,383.209 118.617 C 382.774 117.764,382.220 116.466,381.978 115.733 C 381.736 115.000,381.407 114.400,381.248 114.400 C 381.089 114.400,380.619 113.455,380.205 112.300 C 379.791 111.145,378.878 109.210,378.176 108.000 C 377.474 106.790,376.775 105.395,376.623 104.900 C 376.471 104.405,376.203 104.000,376.027 104.000 C 375.852 104.000,375.399 103.190,375.021 102.200 C 374.643 101.210,374.188 100.400,374.010 100.400 C 373.832 100.400,373.582 99.983,373.454 99.474 C 373.326 98.964,372.857 98.127,372.411 97.613 C 371.965 97.098,371.600 96.444,371.600 96.159 C 371.600 95.873,371.375 95.496,371.099 95.320 C 370.824 95.144,370.329 94.460,369.999 93.800 C 369.670 93.140,368.860 91.816,368.200 90.857 C 366.741 88.738,366.292 88.070,364.035 84.664 C 363.065 83.199,362.120 82.000,361.935 82.000 C 361.751 82.000,361.600 81.732,361.600 81.403 C 361.600 81.075,361.240 80.582,360.800 80.307 C 360.360 80.032,360.000 79.591,360.000 79.326 C 360.000 79.062,359.685 78.610,359.300 78.323 C 358.915 78.035,358.360 77.333,358.066 76.762 C 357.772 76.192,356.735 74.842,355.761 73.762 C 354.786 72.683,353.854 71.620,353.689 71.400 C 352.274 69.518,349.845 66.718,347.918 64.749 C 346.643 63.446,345.600 62.293,345.600 62.186 C 345.600 61.918,337.602 54.213,334.200 51.205 C 332.660 49.844,330.635 48.025,329.699 47.165 C 328.764 46.304,327.859 45.600,327.688 45.600 C 327.518 45.600,327.094 45.285,326.746 44.900 C 325.515 43.536,320.964 40.000,320.439 40.000 C 320.245 40.000,319.982 39.730,319.855 39.400 C 319.729 39.070,319.358 38.800,319.032 38.800 C 318.706 38.800,318.296 38.575,318.120 38.300 C 317.944 38.025,316.720 37.082,315.400 36.205 C 314.080 35.328,312.910 34.517,312.800 34.402 C 312.389 33.972,308.373 31.377,306.372 30.248 C 305.639 29.835,304.792 29.250,304.491 28.948 C 304.190 28.647,303.695 28.400,303.391 28.400 C 303.088 28.400,302.696 28.175,302.520 27.900 C 302.201 27.401,301.677 27.101,296.000 24.156 C 294.350 23.300,292.910 22.510,292.800 22.400 C 292.690 22.290,291.160 21.511,289.400 20.669 C 287.640 19.827,285.508 18.792,284.662 18.369 C 283.816 17.946,282.871 17.600,282.562 17.600 C 282.253 17.600,282.000 17.440,282.000 17.244 C 282.000 17.048,281.190 16.649,280.200 16.357 C 279.210 16.065,278.400 15.685,278.400 15.513 C 278.400 15.341,278.211 15.200,277.980 15.200 C 277.480 15.200,271.674 13.028,269.400 11.990 C 268.520 11.589,267.125 11.137,266.300 10.986 C 265.475 10.835,264.800 10.580,264.800 10.419 C 264.800 10.259,263.765 9.898,262.500 9.617 C 261.235 9.336,259.750 8.878,259.200 8.599 C 258.650 8.320,257.120 7.871,255.800 7.602 C 254.480 7.333,253.220 6.980,253.000 6.817 C 252.780 6.653,251.430 6.286,250.000 6.000 C 248.570 5.714,247.220 5.348,247.000 5.186 C 246.780 5.024,245.250 4.675,243.600 4.410 C 241.950 4.145,239.700 3.685,238.600 3.388 C 237.500 3.090,234.530 2.624,232.000 2.352 C 229.470 2.080,227.310 1.734,227.200 1.582 C 226.599 0.755,192.531 -0.436,188.000 0.212 M195.391 142.803 C 170.767 147.267,166.089 180.705,188.543 191.754 C 208.683 201.665,231.177 183.153,225.153 161.626 C 221.537 148.703,208.462 140.434,195.391 142.803 M176.083 252.310 C 173.461 256.869,168.975 264.650,166.116 269.600 C 163.256 274.550,159.253 281.480,157.220 285.000 C 155.187 288.520,153.270 291.889,152.959 292.487 L 152.393 293.574 155.774 295.165 C 161.007 297.628,164.966 299.080,172.600 301.333 C 187.913 305.854,212.087 305.854,227.400 301.333 C 234.882 299.124,238.971 297.634,244.317 295.167 L 247.634 293.636 246.854 292.106 C 246.220 290.864,242.678 284.672,237.983 276.600 C 235.119 271.677,227.279 258.099,223.721 251.900 C 221.353 247.775,219.313 244.400,219.186 244.400 C 219.060 244.400,217.257 246.070,215.178 248.112 C 203.366 259.715,196.808 259.787,185.325 248.441 L 180.850 244.020 176.083 252.310 M130.212 331.703 C 129.779 332.416,129.133 333.540,128.776 334.200 C 128.419 334.860,125.823 339.360,123.007 344.200 C 120.191 349.040,115.914 356.420,113.502 360.600 C 108.593 369.110,108.247 369.704,106.397 372.800 C 105.035 375.080,104.560 376.800,105.293 376.800 C 105.526 376.800,107.026 377.430,108.627 378.200 C 110.228 378.970,111.732 379.600,111.969 379.600 C 112.206 379.600,112.400 379.751,112.400 379.936 C 112.400 380.121,113.114 380.508,113.987 380.796 C 114.859 381.084,115.476 381.477,115.357 381.670 C 115.238 381.862,115.289 381.973,115.470 381.915 C 115.830 381.800,117.654 382.469,120.286 383.681 C 121.213 384.108,122.065 384.452,122.179 384.444 C 122.293 384.436,123.334 384.872,124.493 385.411 C 125.652 385.951,126.915 386.394,127.300 386.396 C 127.685 386.398,128.000 386.563,128.000 386.763 C 128.000 386.963,128.900 387.357,130.000 387.639 C 131.100 387.921,132.000 388.275,132.000 388.426 C 132.000 388.577,133.069 388.937,134.376 389.227 C 135.683 389.517,136.663 389.898,136.555 390.073 C 136.447 390.248,136.640 390.283,136.984 390.151 C 137.329 390.019,137.833 390.091,138.105 390.311 C 138.377 390.531,139.635 390.940,140.900 391.219 C 142.165 391.499,143.200 391.850,143.200 391.999 C 143.200 392.149,144.460 392.509,146.000 392.800 C 147.540 393.091,148.800 393.444,148.800 393.585 C 148.800 393.725,150.195 394.082,151.900 394.377 C 153.605 394.673,155.180 395.050,155.400 395.215 C 155.794 395.512,159.693 396.233,163.196 396.657 C 164.184 396.777,165.276 397.027,165.624 397.213 C 165.971 397.399,168.223 397.755,170.628 398.004 C 173.032 398.254,175.630 398.631,176.400 398.843 C 181.288 400.187,222.437 400.157,224.200 398.808 C 224.420 398.639,225.860 398.390,227.400 398.253 C 232.346 397.813,234.182 397.560,235.000 397.204 C 235.440 397.012,237.325 396.647,239.189 396.393 C 241.052 396.138,243.302 395.695,244.189 395.407 C 245.075 395.119,247.060 394.659,248.600 394.384 C 250.140 394.108,251.490 393.768,251.600 393.628 C 251.710 393.488,252.970 393.074,254.400 392.708 C 259.452 391.416,263.402 390.240,263.600 389.970 C 263.710 389.819,264.835 389.466,266.100 389.185 C 267.365 388.903,268.400 388.521,268.400 388.336 C 268.400 388.151,268.665 388.000,268.988 388.000 C 269.312 388.000,270.560 387.550,271.763 387.000 C 272.965 386.450,274.168 386.000,274.436 386.000 C 274.704 386.000,275.846 385.563,276.974 385.029 C 278.103 384.496,279.515 383.936,280.113 383.786 C 280.711 383.636,281.200 383.381,281.200 383.220 C 281.200 383.059,281.949 382.702,282.864 382.428 C 283.779 382.154,284.782 381.676,285.092 381.365 C 285.403 381.054,286.010 380.800,286.441 380.800 C 286.872 380.800,287.329 380.530,287.455 380.200 C 287.582 379.870,287.981 379.589,288.343 379.576 C 288.704 379.563,289.810 379.126,290.800 378.604 C 291.790 378.082,293.185 377.382,293.900 377.048 C 295.624 376.243,295.621 376.228,292.450 370.858 C 289.693 366.190,286.542 360.727,276.496 343.200 C 273.532 338.030,270.625 333.058,270.034 332.152 L 268.960 330.504 265.116 332.352 C 250.828 339.220,239.539 342.818,223.600 345.583 C 214.442 347.171,197.125 347.723,186.200 346.775 C 175.675 345.861,162.979 343.192,153.600 339.922 C 151.730 339.270,149.480 338.497,148.600 338.204 C 145.852 337.291,139.170 334.402,135.080 332.358 C 130.440 330.040,131.162 330.138,130.212 331.703 " stroke="none" fill="#87ba4e" fill-rule="evenodd"></path><path id="path2" d="M179.050 75.250 C 178.913 75.938,178.800 82.942,178.800 90.816 L 178.800 105.132 164.100 105.289 C 146.221 105.480,144.421 105.974,140.037 111.891 C 136.821 116.231,137.024 113.185,136.900 159.000 L 136.789 199.800 163.494 226.507 C 194.745 257.759,193.300 256.579,200.197 256.495 C 207.015 256.413,204.942 258.122,237.100 226.064 L 263.200 200.046 263.200 158.912 L 263.200 117.777 261.806 114.869 C 260.079 111.264,257.346 108.516,253.708 106.724 L 251.019 105.400 236.110 105.278 L 221.200 105.155 221.200 89.578 L 221.200 74.000 200.250 74.000 L 179.300 74.000 179.050 75.250 M208.231 143.798 C 228.493 150.599,232.459 177.394,215.038 189.782 C 197.872 201.988,174.000 189.518,174.000 168.345 C 174.000 150.721,191.491 138.178,208.231 143.798 M118.976 383.413 C 119.404 383.736,119.933 384.000,120.153 384.000 C 120.373 384.000,120.204 383.736,119.776 383.413 C 119.349 383.090,118.820 382.825,118.600 382.825 C 118.380 382.825,118.549 383.090,118.976 383.413 M136.800 390.169 C 137.914 390.841,138.791 391.016,138.180 390.445 C 137.971 390.250,137.350 389.972,136.800 389.828 L 135.800 389.567 136.800 390.169 " stroke="none" fill="#6d6f6e" fill-rule="evenodd"></path><path id="path3" d="M347.350 204.200 C 347.351 206.620,347.416 207.558,347.496 206.285 C 347.576 205.012,347.575 203.032,347.494 201.885 C 347.414 200.738,347.349 201.780,347.350 204.200 M304.893 205.600 C 304.893 206.370,304.975 206.685,305.076 206.300 C 305.176 205.915,305.176 205.285,305.076 204.900 C 304.975 204.515,304.893 204.830,304.893 205.600 M304.514 209.800 C 304.517 210.900,304.595 211.303,304.687 210.695 C 304.779 210.086,304.777 209.186,304.682 208.695 C 304.587 208.203,304.511 208.700,304.514 209.800 M346.920 211.600 C 346.920 212.810,346.995 213.305,347.087 212.700 C 347.178 212.095,347.178 211.105,347.087 210.500 C 346.995 209.895,346.920 210.390,346.920 211.600 M304.093 213.200 C 304.093 213.970,304.175 214.285,304.276 213.900 C 304.376 213.515,304.376 212.885,304.276 212.500 C 304.175 212.115,304.093 212.430,304.093 213.200 M145.814 219.435 C 145.441 220.004,145.205 220.538,145.289 220.622 C 145.373 220.707,145.758 220.241,146.144 219.588 C 147.006 218.128,146.748 218.009,145.814 219.435 M144.553 221.700 C 143.176 224.036,143.086 224.235,143.787 223.400 C 144.600 222.432,145.300 221.200,145.038 221.200 C 144.933 221.200,144.715 221.425,144.553 221.700 M345.400 223.600 C 345.245 224.728,345.202 225.736,345.306 225.839 C 345.409 225.942,345.616 225.100,345.767 223.967 C 345.917 222.834,345.959 221.826,345.861 221.728 C 345.763 221.629,345.555 222.472,345.400 223.600 M343.800 232.000 C 343.648 232.691,343.607 233.341,343.709 233.442 C 343.811 233.544,344.009 233.053,344.150 232.350 C 344.291 231.647,344.331 230.998,344.241 230.908 C 344.150 230.817,343.952 231.309,343.800 232.000 M299.179 234.255 C 298.958 234.836,298.852 235.385,298.943 235.476 C 299.033 235.567,299.299 235.092,299.533 234.420 C 300.053 232.928,299.739 232.782,299.179 234.255 M342.040 239.040 C 341.810 239.873,341.694 240.627,341.782 240.715 C 341.870 240.803,342.130 240.193,342.360 239.360 C 342.590 238.527,342.706 237.773,342.618 237.685 C 342.530 237.597,342.270 238.207,342.040 239.040 M134.102 239.700 C 133.884 239.975,133.492 240.650,133.231 241.200 C 132.678 242.363,133.680 241.290,134.443 239.900 C 134.889 239.090,134.681 238.968,134.102 239.700 M267.149 242.600 C 267.365 243.040,267.834 243.760,268.193 244.200 L 268.844 245.000 268.451 244.200 C 268.235 243.760,267.766 243.040,267.407 242.600 L 266.756 241.800 267.149 242.600 M295.665 243.017 C 294.995 244.488,295.123 244.802,295.847 243.465 C 296.186 242.840,296.388 242.254,296.296 242.163 C 296.205 242.071,295.921 242.456,295.665 243.017 M131.786 243.700 L 131.152 245.000 131.967 244.000 C 132.752 243.037,133.008 242.400,132.610 242.400 C 132.506 242.400,132.135 242.985,131.786 243.700 M219.200 243.753 C 219.200 244.182,220.390 246.400,220.621 246.400 C 220.731 246.400,220.523 245.815,220.159 245.100 C 219.417 243.640,219.200 243.336,219.200 243.753 M340.080 245.480 C 339.830 246.294,339.692 247.026,339.773 247.106 C 339.854 247.187,340.136 246.599,340.400 245.800 C 340.664 245.001,340.802 244.269,340.707 244.174 C 340.612 244.078,340.330 244.666,340.080 245.480 M130.200 246.400 C 129.859 247.060,129.669 247.600,129.779 247.600 C 129.889 247.600,130.259 247.060,130.600 246.400 C 130.941 245.740,131.131 245.200,131.021 245.200 C 130.911 245.200,130.541 245.740,130.200 246.400 M338.486 250.261 C 338.239 251.065,338.196 251.560,338.390 251.361 C 338.782 250.961,339.389 248.800,339.110 248.800 C 339.014 248.800,338.732 249.458,338.486 250.261 M125.014 255.435 C 124.641 256.004,124.405 256.538,124.489 256.622 C 124.573 256.707,124.958 256.241,125.344 255.588 C 126.206 254.128,125.948 254.009,125.014 255.435 M226.200 256.400 C 226.541 257.060,226.911 257.600,227.021 257.600 C 227.131 257.600,226.941 257.060,226.600 256.400 C 226.259 255.740,225.889 255.200,225.779 255.200 C 225.669 255.200,225.859 255.740,226.200 256.400 M123.702 257.700 C 123.136 258.415,122.340 260.000,122.546 260.000 C 122.642 260.000,123.093 259.370,123.547 258.600 C 124.373 257.201,124.449 256.757,123.702 257.700 M335.265 258.217 C 334.595 259.688,334.723 260.002,335.447 258.665 C 335.786 258.040,335.988 257.454,335.896 257.363 C 335.805 257.271,335.521 257.656,335.265 258.217 M333.665 261.817 C 332.995 263.288,333.123 263.602,333.847 262.265 C 334.186 261.640,334.388 261.054,334.296 260.963 C 334.205 260.871,333.921 261.256,333.665 261.817 M119.800 264.400 C 119.459 265.060,119.269 265.600,119.379 265.600 C 119.489 265.600,119.859 265.060,120.200 264.400 C 120.541 263.740,120.731 263.200,120.621 263.200 C 120.511 263.200,120.141 263.740,119.800 264.400 M231.800 266.000 C 232.141 266.660,232.511 267.200,232.621 267.200 C 232.731 267.200,232.541 266.660,232.200 266.000 C 231.859 265.340,231.489 264.800,231.379 264.800 C 231.269 264.800,231.459 265.340,231.800 266.000 M118.200 267.200 C 117.859 267.860,117.669 268.400,117.779 268.400 C 117.889 268.400,118.259 267.860,118.600 267.200 C 118.941 266.540,119.131 266.000,119.021 266.000 C 118.911 266.000,118.541 266.540,118.200 267.200 M233.400 268.800 C 233.741 269.460,234.111 270.000,234.221 270.000 C 234.331 270.000,234.141 269.460,233.800 268.800 C 233.459 268.140,233.089 267.600,232.979 267.600 C 232.869 267.600,233.059 268.140,233.400 268.800 M115.014 272.635 C 114.641 273.204,114.427 273.761,114.539 273.872 C 114.650 273.983,115.029 273.518,115.381 272.837 C 116.159 271.333,115.944 271.215,115.014 272.635 M112.955 276.212 C 112.590 276.769,112.370 277.304,112.467 277.400 C 112.563 277.497,112.958 277.041,113.344 276.388 C 114.198 274.942,113.881 274.799,112.955 276.212 M111.702 278.500 C 111.136 279.215,110.340 280.800,110.546 280.800 C 110.642 280.800,111.093 280.170,111.547 279.400 C 112.373 278.001,112.449 277.557,111.702 278.500 M109.400 282.400 C 109.059 283.060,108.869 283.600,108.979 283.600 C 109.089 283.600,109.459 283.060,109.800 282.400 C 110.141 281.740,110.331 281.200,110.221 281.200 C 110.111 281.200,109.741 281.740,109.400 282.400 M315.667 291.177 C 314.970 292.044,314.400 292.867,314.400 293.007 C 314.400 293.236,315.233 292.280,316.758 290.300 C 317.852 288.882,316.892 289.652,315.667 291.177 M246.974 292.349 C 247.301 292.981,247.440 293.640,247.284 293.813 C 247.128 293.987,247.224 293.999,247.499 293.841 C 247.974 293.568,247.151 291.200,246.579 291.200 C 246.469 291.200,246.647 291.717,246.974 292.349 M101.508 296.100 C 100.633 297.449,99.848 299.056,100.287 298.600 C 100.848 298.017,102.498 295.200,102.279 295.200 C 102.176 295.200,101.829 295.605,101.508 296.100 M310.778 297.100 L 309.400 298.600 310.900 297.222 C 312.296 295.938,312.584 295.600,312.278 295.600 C 312.212 295.600,311.537 296.275,310.778 297.100 M306.400 301.800 C 304.761 303.450,303.510 304.800,303.620 304.800 C 303.730 304.800,305.161 303.450,306.800 301.800 C 308.439 300.150,309.690 298.800,309.580 298.800 C 309.470 298.800,308.039 300.150,306.400 301.800 M99.000 300.400 C 98.659 301.060,98.469 301.600,98.579 301.600 C 98.689 301.600,99.059 301.060,99.400 300.400 C 99.741 299.740,99.931 299.200,99.821 299.200 C 99.711 299.200,99.341 299.740,99.000 300.400 M97.400 303.200 C 97.059 303.860,96.869 304.400,96.979 304.400 C 97.089 304.400,97.459 303.860,97.800 303.200 C 98.141 302.540,98.331 302.000,98.221 302.000 C 98.111 302.000,97.741 302.540,97.400 303.200 M190.300 304.682 C 190.795 304.778,191.605 304.778,192.100 304.682 C 192.595 304.587,192.190 304.509,191.200 304.509 C 190.210 304.509,189.805 304.587,190.300 304.682 M207.705 304.687 C 208.314 304.779,209.214 304.777,209.705 304.682 C 210.197 304.587,209.700 304.511,208.600 304.514 C 207.500 304.517,207.097 304.595,207.705 304.687 M95.800 306.000 C 95.459 306.660,95.269 307.200,95.379 307.200 C 95.489 307.200,95.859 306.660,96.200 306.000 C 96.541 305.340,96.731 304.800,96.621 304.800 C 96.511 304.800,96.141 305.340,95.800 306.000 M196.700 305.098 C 198.515 305.172,201.485 305.172,203.300 305.098 C 205.115 305.023,203.630 304.963,200.000 304.963 C 196.370 304.963,194.885 305.023,196.700 305.098 M94.200 308.800 C 93.859 309.460,93.669 310.000,93.779 310.000 C 93.889 310.000,94.259 309.460,94.600 308.800 C 94.941 308.140,95.131 307.600,95.021 307.600 C 94.911 307.600,94.541 308.140,94.200 308.800 M92.214 312.235 C 91.841 312.804,91.605 313.338,91.689 313.422 C 91.773 313.507,92.158 313.041,92.544 312.388 C 93.406 310.928,93.148 310.809,92.214 312.235 M90.200 315.600 C 89.859 316.260,89.669 316.800,89.779 316.800 C 89.889 316.800,90.259 316.260,90.600 315.600 C 90.941 314.940,91.131 314.400,91.021 314.400 C 90.911 314.400,90.541 314.940,90.200 315.600 M88.600 318.400 C 88.259 319.060,88.069 319.600,88.179 319.600 C 88.289 319.600,88.659 319.060,89.000 318.400 C 89.341 317.740,89.531 317.200,89.421 317.200 C 89.311 317.200,88.941 317.740,88.600 318.400 M87.000 321.200 C 86.659 321.860,86.469 322.400,86.579 322.400 C 86.689 322.400,87.059 321.860,87.400 321.200 C 87.741 320.540,87.931 320.000,87.821 320.000 C 87.711 320.000,87.341 320.540,87.000 321.200 M268.176 330.622 C 267.431 331.219,267.436 331.227,268.300 330.808 C 268.795 330.568,269.200 330.524,269.200 330.709 C 269.200 330.895,269.479 331.396,269.819 331.824 C 270.366 332.509,270.365 332.448,269.809 331.300 C 269.076 329.786,269.171 329.825,268.176 330.622 M265.500 331.829 C 264.005 332.640,264.096 332.978,265.600 332.200 C 266.260 331.859,266.800 331.494,266.800 331.390 C 266.800 331.132,266.757 331.147,265.500 331.829 M319.160 332.600 C 319.834 333.905,320.388 334.628,320.385 334.200 C 320.383 333.980,320.014 333.350,319.564 332.800 C 319.021 332.136,318.885 332.069,319.160 332.600 M78.200 336.400 C 77.859 337.060,77.669 337.600,77.779 337.600 C 77.889 337.600,78.259 337.060,78.600 336.400 C 78.941 335.740,79.131 335.200,79.021 335.200 C 78.911 335.200,78.541 335.740,78.200 336.400 M320.815 335.400 C 320.817 335.620,321.186 336.250,321.636 336.800 C 322.179 337.464,322.315 337.531,322.040 337.000 C 321.366 335.695,320.812 334.972,320.815 335.400 M253.000 337.414 C 252.000 337.896,251.966 337.951,252.800 337.748 C 253.933 337.471,255.207 336.821,254.600 336.830 C 254.380 336.833,253.660 337.096,253.000 337.414 M323.000 339.200 C 323.341 339.860,323.711 340.400,323.821 340.400 C 323.931 340.400,323.741 339.860,323.400 339.200 C 323.059 338.540,322.689 338.000,322.579 338.000 C 322.469 338.000,322.659 338.540,323.000 339.200 M243.000 340.800 C 242.496 341.017,242.422 341.144,242.800 341.144 C 243.130 341.144,243.760 340.989,244.200 340.800 C 244.704 340.583,244.778 340.456,244.400 340.456 C 244.070 340.456,243.440 340.611,243.000 340.800 M75.000 342.000 C 74.659 342.660,74.469 343.200,74.579 343.200 C 74.689 343.200,75.059 342.660,75.400 342.000 C 75.741 341.340,75.931 340.800,75.821 340.800 C 75.711 340.800,75.341 341.340,75.000 342.000 M324.600 342.000 C 324.941 342.660,325.311 343.200,325.421 343.200 C 325.531 343.200,325.341 342.660,325.000 342.000 C 324.659 341.340,324.289 340.800,324.179 340.800 C 324.069 340.800,324.259 341.340,324.600 342.000 M73.400 344.800 C 73.059 345.460,72.869 346.000,72.979 346.000 C 73.089 346.000,73.459 345.460,73.800 344.800 C 74.141 344.140,74.331 343.600,74.221 343.600 C 74.111 343.600,73.741 344.140,73.400 344.800 M218.600 346.000 C 217.239 346.244,217.179 346.292,218.200 346.320 C 218.860 346.339,220.120 346.205,221.000 346.023 C 223.093 345.590,221.002 345.570,218.600 346.000 M180.900 346.276 C 181.285 346.376,181.915 346.376,182.300 346.276 C 182.685 346.175,182.370 346.093,181.600 346.093 C 180.830 346.093,180.515 346.175,180.900 346.276 M189.700 347.076 C 190.085 347.176,190.715 347.176,191.100 347.076 C 191.485 346.975,191.170 346.893,190.400 346.893 C 189.630 346.893,189.315 346.975,189.700 347.076 M208.900 347.076 C 209.285 347.176,209.915 347.176,210.300 347.076 C 210.685 346.975,210.370 346.893,209.600 346.893 C 208.830 346.893,208.515 346.975,208.900 347.076 M281.149 351.400 C 281.365 351.840,281.834 352.560,282.193 353.000 L 282.844 353.800 282.451 353.000 C 282.235 352.560,281.766 351.840,281.407 351.400 L 280.756 350.600 281.149 351.400 M291.549 369.400 C 291.765 369.840,292.234 370.560,292.593 371.000 L 293.244 371.800 292.851 371.000 C 292.635 370.560,292.166 369.840,291.807 369.400 L 291.156 368.600 291.549 369.400 " stroke="none" fill="#aec891" fill-rule="evenodd"></path><path id="path4" d="M346.909 208.000 C 346.909 208.990,346.987 209.395,347.082 208.900 C 347.178 208.405,347.178 207.595,347.082 207.100 C 346.987 206.605,346.909 207.010,346.909 208.000 M164.981 228.388 L 180.185 243.576 179.727 244.788 C 179.152 246.312,179.394 246.359,180.163 244.871 L 180.747 243.743 165.471 228.471 C 157.070 220.072,150.102 213.200,149.987 213.200 C 149.872 213.200,156.620 220.035,164.981 228.388 M234.700 228.309 C 226.395 236.613,219.600 243.571,219.600 243.771 C 219.600 244.069,226.380 256.198,228.849 260.317 C 229.642 261.640,238.140 276.344,243.885 286.334 C 247.588 292.773,248.174 293.597,248.688 293.083 C 249.270 292.501,248.496 290.966,242.394 280.600 C 241.120 278.436,231.562 261.903,228.865 257.200 C 227.415 254.670,226.132 252.510,226.014 252.400 C 225.896 252.290,225.486 251.570,225.102 250.800 C 224.719 250.030,224.236 249.130,224.029 248.800 C 223.821 248.470,222.973 247.057,222.144 245.659 L 220.636 243.118 234.913 228.859 C 250.658 213.133,250.596 213.197,250.129 213.206 C 249.948 213.209,243.005 220.006,234.700 228.309 M252.600 218.000 C 252.941 218.660,253.311 219.200,253.421 219.200 C 253.531 219.200,253.341 218.660,253.000 218.000 C 252.659 217.340,252.289 216.800,252.179 216.800 C 252.069 216.800,252.259 217.340,252.600 218.000 M254.200 220.800 C 254.541 221.460,254.911 222.000,255.021 222.000 C 255.131 222.000,254.941 221.460,254.600 220.800 C 254.259 220.140,253.889 219.600,253.779 219.600 C 253.669 219.600,253.859 220.140,254.200 220.800 M343.850 230.450 C 343.709 231.153,343.669 231.802,343.759 231.892 C 343.850 231.983,344.048 231.491,344.200 230.800 C 344.352 230.109,344.393 229.459,344.291 229.358 C 344.189 229.256,343.991 229.747,343.850 230.450 M342.446 236.467 C 342.421 236.834,342.296 237.464,342.170 237.867 C 341.952 238.562,341.963 238.563,342.397 237.887 C 342.648 237.496,342.773 236.866,342.673 236.487 C 342.511 235.868,342.488 235.866,342.446 236.467 M267.615 243.800 C 267.617 244.020,267.986 244.650,268.436 245.200 C 268.979 245.864,269.115 245.931,268.840 245.400 C 268.166 244.095,267.612 243.372,267.615 243.800 M337.244 252.844 C 336.998 253.551,336.866 254.200,336.952 254.285 C 337.038 254.371,337.309 253.862,337.556 253.156 C 337.802 252.449,337.934 251.800,337.848 251.715 C 337.762 251.629,337.491 252.138,337.244 252.844 M175.000 253.200 C 174.659 253.860,174.469 254.400,174.579 254.400 C 174.689 254.400,175.059 253.860,175.400 253.200 C 175.741 252.540,175.931 252.000,175.821 252.000 C 175.711 252.000,175.341 252.540,175.000 253.200 M277.600 260.986 C 277.600 261.405,279.206 264.000,279.465 264.000 C 279.575 264.000,279.259 263.325,278.763 262.500 C 277.658 260.662,277.600 260.587,277.600 260.986 M169.814 262.235 C 169.441 262.804,169.205 263.338,169.289 263.422 C 169.373 263.507,169.758 263.041,170.144 262.388 C 171.006 260.928,170.748 260.809,169.814 262.235 M331.781 265.237 C 331.429 265.918,331.212 266.545,331.299 266.632 C 331.386 266.719,331.756 266.162,332.122 265.395 C 332.944 263.670,332.659 263.538,331.781 265.237 M167.800 265.600 C 167.459 266.260,167.269 266.800,167.379 266.800 C 167.489 266.800,167.859 266.260,168.200 265.600 C 168.541 264.940,168.731 264.400,168.621 264.400 C 168.511 264.400,168.141 264.940,167.800 265.600 M280.392 265.900 C 280.917 266.982,281.321 267.031,282.051 266.100 C 282.551 265.463,282.536 265.450,281.887 265.959 C 281.265 266.448,281.098 266.422,280.565 265.759 C 279.987 265.039,279.978 265.047,280.392 265.900 M166.200 268.400 C 165.859 269.060,165.669 269.600,165.779 269.600 C 165.889 269.600,166.259 269.060,166.600 268.400 C 166.941 267.740,167.131 267.200,167.021 267.200 C 166.911 267.200,166.541 267.740,166.200 268.400 M330.200 268.400 C 329.859 269.060,329.669 269.600,329.779 269.600 C 329.889 269.600,330.259 269.060,330.600 268.400 C 330.941 267.740,331.131 267.200,331.021 267.200 C 330.911 267.200,330.541 267.740,330.200 268.400 M159.814 279.435 C 159.441 280.004,159.205 280.538,159.289 280.622 C 159.373 280.707,159.758 280.241,160.144 279.588 C 161.006 278.128,160.748 278.009,159.814 279.435 M318.723 286.700 C 317.960 287.589,317.495 288.400,317.749 288.400 C 317.857 288.400,318.330 287.860,318.800 287.200 C 319.732 285.891,319.684 285.581,318.723 286.700 M306.243 301.557 C 304.380 303.430,303.192 304.934,303.321 305.257 C 303.491 305.686,303.543 305.675,303.568 305.209 C 303.586 304.884,304.991 303.219,306.691 301.509 C 308.390 299.799,309.691 298.400,309.581 298.400 C 309.471 298.400,307.969 299.821,306.243 301.557 M269.448 329.923 C 269.338 330.100,269.662 330.955,270.168 331.823 C 271.026 333.295,273.716 337.949,286.740 360.500 C 289.567 365.395,292.638 370.696,293.563 372.280 C 294.488 373.863,295.334 375.646,295.442 376.240 C 295.549 376.835,295.989 377.769,296.419 378.315 C 296.848 378.861,297.200 379.452,297.200 379.627 C 297.200 379.930,299.572 383.976,299.999 384.400 C 300.109 384.510,300.538 385.230,300.952 386.000 C 302.366 388.634,303.467 390.600,304.233 391.863 C 304.655 392.557,306.516 395.797,308.369 399.063 C 310.221 402.328,311.852 405.090,311.991 405.200 C 312.131 405.310,312.482 405.985,312.771 406.700 C 313.060 407.415,313.414 408.000,313.557 408.000 C 313.700 408.000,314.509 409.345,315.355 410.990 C 317.201 414.577,317.498 414.859,321.468 416.796 C 322.386 417.243,323.196 417.742,323.268 417.905 C 323.341 418.067,324.030 418.519,324.800 418.908 C 325.570 419.298,326.920 420.052,327.800 420.583 C 330.689 422.329,331.846 422.989,333.433 423.800 C 334.295 424.240,335.090 424.690,335.200 424.800 C 335.425 425.025,336.046 425.388,340.600 427.959 C 342.360 428.953,343.890 429.880,344.000 430.020 C 345.488 431.907,353.200 431.786,353.200 429.875 C 353.200 429.692,353.470 429.273,353.800 428.943 C 354.486 428.256,354.661 423.600,354.000 423.600 C 353.780 423.600,353.600 423.878,353.600 424.217 C 353.600 424.990,352.447 426.428,350.646 427.900 C 349.938 428.478,347.600 428.579,347.600 428.031 C 347.600 427.828,346.925 427.443,346.100 427.174 C 345.275 426.906,344.474 426.474,344.320 426.214 C 344.165 425.954,343.310 425.500,342.420 425.206 C 341.529 424.912,340.800 424.511,340.800 424.315 C 340.800 424.119,340.260 423.770,339.600 423.540 C 338.940 423.310,338.400 422.993,338.400 422.836 C 338.400 422.678,337.770 422.302,337.000 422.000 C 336.230 421.698,335.600 421.322,335.600 421.164 C 335.600 421.007,335.060 420.690,334.400 420.460 C 333.740 420.230,333.200 419.867,333.200 419.653 C 333.200 419.439,332.684 419.150,332.054 419.012 C 331.424 418.873,330.531 418.409,330.071 417.980 C 329.610 417.551,329.028 417.200,328.777 417.200 C 328.181 417.200,320.587 412.955,318.874 411.664 C 317.638 410.733,316.946 409.716,315.053 406.048 C 314.642 405.252,314.174 404.510,314.013 404.400 C 313.852 404.290,313.648 404.020,313.560 403.799 C 313.472 403.578,311.240 399.652,308.600 395.073 C 305.960 390.495,303.464 386.085,303.053 385.274 C 302.642 384.463,302.178 383.710,302.021 383.600 C 301.865 383.490,301.463 382.860,301.127 382.200 C 300.624 381.212,295.744 372.714,292.283 366.800 C 291.833 366.030,291.090 364.741,290.632 363.936 C 290.174 363.131,288.270 359.837,286.400 356.617 C 284.530 353.396,282.664 350.095,282.253 349.281 C 281.842 348.466,281.383 347.710,281.233 347.600 C 281.083 347.490,279.529 344.896,277.780 341.836 C 276.031 338.775,274.199 335.625,273.709 334.836 C 273.219 334.046,272.361 332.545,271.802 331.500 C 270.866 329.749,269.939 329.128,269.448 329.923 M131.233 330.149 C 131.645 330.517,134.000 331.600,134.000 331.421 C 134.000 331.190,131.782 330.000,131.353 330.000 C 131.196 330.000,131.142 330.067,131.233 330.149 M260.000 334.200 C 259.450 334.514,259.180 334.772,259.400 334.772 C 259.620 334.772,260.250 334.514,260.800 334.200 C 261.350 333.886,261.620 333.628,261.400 333.628 C 261.180 333.628,260.550 333.886,260.000 334.200 M126.787 336.621 C 126.304 337.403,125.977 338.111,126.061 338.194 C 126.145 338.278,126.620 337.638,127.118 336.773 C 128.247 334.813,127.980 334.690,126.787 336.621 M144.000 336.200 C 144.550 336.514,145.180 336.772,145.400 336.772 C 145.620 336.772,145.350 336.514,144.800 336.200 C 144.250 335.886,143.620 335.628,143.400 335.628 C 143.180 335.628,143.450 335.886,144.000 336.200 M147.200 337.334 C 147.200 337.437,147.781 337.724,148.491 337.972 C 149.201 338.219,149.606 338.257,149.391 338.056 C 148.935 337.629,147.200 337.058,147.200 337.334 M251.200 337.800 C 250.650 338.114,250.380 338.372,250.600 338.372 C 250.820 338.372,251.450 338.114,252.000 337.800 C 252.550 337.486,252.820 337.228,252.600 337.228 C 252.380 337.228,251.750 337.486,251.200 337.800 M152.000 339.133 C 152.330 339.336,153.050 339.624,153.600 339.771 C 154.295 339.957,154.417 339.925,154.000 339.667 C 153.670 339.464,152.950 339.176,152.400 339.029 C 151.705 338.843,151.583 338.875,152.000 339.133 M164.833 342.944 C 164.925 343.023,165.540 343.208,166.200 343.356 C 167.076 343.552,167.238 343.515,166.800 343.218 C 166.260 342.853,164.432 342.598,164.833 342.944 M233.200 343.218 C 232.762 343.515,232.924 343.552,233.800 343.356 C 235.271 343.027,235.590 342.798,234.567 342.806 C 234.145 342.809,233.530 342.995,233.200 343.218 M171.200 344.350 C 172.642 344.813,175.978 345.244,175.000 344.841 C 174.560 344.659,173.300 344.402,172.200 344.270 C 170.969 344.122,170.584 344.153,171.200 344.350 M225.200 344.800 C 223.856 345.231,225.308 345.231,227.000 344.800 C 228.078 344.526,228.098 344.494,227.200 344.487 C 226.650 344.483,225.750 344.624,225.200 344.800 M184.400 346.402 C 186.232 346.747,189.870 346.922,189.567 346.651 C 189.475 346.570,187.870 346.404,186.000 346.283 C 183.530 346.124,183.092 346.157,184.400 346.402 M212.400 346.400 C 210.201 346.670,210.201 346.670,212.000 346.705 C 212.990 346.725,214.610 346.597,215.600 346.420 C 217.946 346.003,215.753 345.989,212.400 346.400 M192.500 347.087 C 193.105 347.178,194.095 347.178,194.700 347.087 C 195.305 346.995,194.810 346.920,193.600 346.920 C 192.390 346.920,191.895 346.995,192.500 347.087 M205.300 347.087 C 205.905 347.178,206.895 347.178,207.500 347.087 C 208.105 346.995,207.610 346.920,206.400 346.920 C 205.190 346.920,204.695 346.995,205.300 347.087 M107.814 369.435 C 107.441 370.004,107.205 370.538,107.289 370.622 C 107.373 370.707,107.758 370.241,108.144 369.588 C 109.006 368.128,108.748 368.009,107.814 369.435 M106.510 371.700 C 106.296 371.975,105.760 372.920,105.317 373.800 C 103.132 378.145,102.640 379.048,102.141 379.631 C 101.843 379.979,101.600 380.432,101.600 380.639 C 101.600 380.845,101.134 381.700,100.564 382.538 C 99.995 383.376,99.635 384.168,99.764 384.298 C 100.070 384.604,100.030 384.661,101.818 381.400 C 102.662 379.860,103.473 378.510,103.620 378.400 C 103.767 378.290,104.133 377.480,104.434 376.600 C 104.735 375.720,105.358 374.370,105.819 373.600 C 106.279 372.830,106.789 371.975,106.952 371.700 C 107.114 371.425,107.169 371.200,107.073 371.200 C 106.977 371.200,106.723 371.425,106.510 371.700 M98.223 386.489 C 97.326 387.769,97.455 388.289,98.400 387.200 C 99.146 386.340,99.434 385.600,99.023 385.600 C 98.925 385.600,98.565 386.000,98.223 386.489 M96.464 389.419 C 95.911 390.633,95.895 390.800,96.336 390.800 C 96.627 390.800,97.600 389.092,97.600 388.581 C 97.600 388.005,96.859 388.552,96.464 389.419 M93.212 395.265 C 92.700 396.176,92.489 396.792,92.743 396.635 C 93.283 396.301,94.533 394.000,94.301 393.767 C 94.214 393.680,93.723 394.354,93.212 395.265 M90.389 400.267 C 89.452 401.975,88.441 403.617,88.142 403.915 C 87.553 404.504,87.420 405.205,87.900 405.191 C 88.293 405.180,92.533 397.599,92.284 397.351 C 92.180 397.246,91.327 398.558,90.389 400.267 M86.491 406.949 C 85.529 408.353,85.287 409.198,86.100 408.313 C 86.777 407.576,87.688 405.954,87.519 405.785 C 87.444 405.710,86.981 406.234,86.491 406.949 M83.684 411.605 C 82.961 412.922,82.534 414.000,82.736 414.000 C 82.938 414.000,83.327 413.460,83.600 412.800 C 83.873 412.140,84.216 411.600,84.361 411.600 C 84.506 411.600,84.828 411.060,85.078 410.400 C 85.828 408.412,85.085 409.055,83.684 411.605 M78.804 416.196 C 78.532 416.523,78.150 416.693,77.955 416.572 C 77.760 416.451,77.600 416.543,77.600 416.776 C 77.600 417.310,77.729 417.306,78.981 416.736 C 79.542 416.480,80.000 416.120,80.000 415.936 C 80.000 415.403,79.343 415.545,78.804 416.196 M72.800 419.600 C 72.483 419.796,72.356 420.089,72.518 420.252 C 72.681 420.414,73.023 420.337,73.280 420.080 C 73.884 419.476,73.547 419.138,72.800 419.600 M70.263 421.053 C 69.417 421.606,68.815 422.148,68.925 422.258 C 69.173 422.506,71.988 420.711,71.995 420.300 C 72.002 419.907,72.040 419.890,70.263 421.053 M66.744 423.194 L 65.800 423.988 67.100 423.555 C 67.815 423.317,68.400 422.959,68.400 422.761 C 68.400 422.176,67.755 422.344,66.744 423.194 M63.161 425.254 C 62.633 425.723,62.470 425.994,62.800 425.854 C 63.130 425.715,63.715 425.489,64.100 425.354 C 64.485 425.218,64.800 424.948,64.800 424.753 C 64.800 424.163,64.174 424.354,63.161 425.254 M60.851 426.360 C 60.549 426.551,60.374 426.922,60.461 427.184 C 60.564 427.493,60.887 427.367,61.372 426.831 C 62.136 425.987,61.849 425.728,60.851 426.360 M58.262 428.047 C 57.416 428.493,56.822 428.955,56.941 429.075 C 57.153 429.287,60.000 427.698,60.000 427.367 C 60.000 427.133,59.978 427.142,58.262 428.047 M54.600 430.190 C 53.720 430.732,53.180 431.180,53.400 431.186 C 53.876 431.199,56.400 429.702,56.400 429.406 C 56.400 429.095,56.324 429.128,54.600 430.190 " stroke="none" fill="#b4c4ac" fill-rule="evenodd"></path></g></svg>