<svg id="svg" version="1.1" xmlns="http://www.w3.org/2000/svg" xmlns:xlink="http://www.w3.org/1999/xlink" width="400" height="272.05882352941177" viewBox="0, 0, 400,272.05882352941177"><g id="svgg"><path id="path0" d="M249.524 81.098 C 247.952 81.207,245.695 81.556,244.507 81.873 C 243.319 82.190,241.910 82.449,241.377 82.450 C 240.844 82.451,240.007 82.696,239.516 82.995 C 239.026 83.294,238.046 83.660,237.340 83.809 C 236.200 84.049,234.467 84.773,232.381 85.881 C 232.007 86.079,231.395 86.381,231.020 86.551 C 229.486 87.249,228.659 87.677,227.748 88.245 C 227.220 88.574,226.384 89.088,225.890 89.388 C 223.716 90.704,222.366 91.664,221.224 92.701 C 220.551 93.313,219.256 94.471,218.347 95.274 C 217.437 96.077,215.849 97.714,214.817 98.912 C 213.784 100.109,212.793 101.181,212.615 101.294 C 212.332 101.472,210.626 103.668,209.581 105.200 C 208.856 106.263,207.887 107.924,207.458 108.839 C 207.214 109.360,206.792 110.070,206.519 110.416 C 206.247 110.763,205.939 111.438,205.835 111.918 C 205.732 112.397,205.432 113.095,205.170 113.469 C 204.908 113.844,204.605 114.578,204.497 115.102 C 204.389 115.626,204.063 116.468,203.772 116.973 C 203.481 117.479,203.071 118.790,202.861 119.888 C 202.651 120.986,202.361 122.105,202.217 122.374 C 199.920 126.665,200.800 145.923,203.570 152.000 C 203.850 152.613,204.157 153.532,204.253 154.041 C 204.415 154.900,205.700 157.978,206.285 158.912 C 206.426 159.136,206.727 159.748,206.954 160.272 C 207.622 161.812,207.865 162.260,208.581 163.265 C 208.955 163.789,209.379 164.401,209.525 164.626 C 212.371 169.011,218.146 175.415,220.246 176.514 C 220.992 176.905,222.532 177.968,223.412 178.698 C 225.211 180.194,225.826 180.626,226.579 180.928 C 227.055 181.118,227.655 181.508,227.914 181.794 C 228.172 182.079,228.593 182.313,228.849 182.313 C 229.105 182.313,229.629 182.560,230.014 182.863 C 230.398 183.165,231.235 183.597,231.874 183.823 C 232.512 184.048,233.226 184.406,233.460 184.618 C 233.695 184.830,234.495 185.140,235.238 185.306 C 235.982 185.473,236.776 185.775,237.002 185.978 C 237.229 186.181,238.101 186.473,238.939 186.626 C 239.777 186.780,240.941 187.147,241.524 187.442 C 242.176 187.772,243.688 188.100,245.442 188.292 C 247.014 188.464,249.072 188.781,250.017 188.996 C 252.307 189.518,258.858 189.519,260.913 188.998 C 261.758 188.784,263.695 188.487,265.219 188.339 C 266.935 188.172,268.488 187.849,269.300 187.490 C 270.021 187.171,271.162 186.843,271.836 186.761 C 272.510 186.679,273.367 186.398,273.741 186.138 C 274.116 185.877,275.059 185.512,275.837 185.325 C 276.615 185.139,277.395 184.814,277.570 184.603 C 277.745 184.392,278.483 184.043,279.210 183.827 C 279.937 183.611,280.791 183.192,281.109 182.896 C 281.427 182.601,282.003 182.279,282.390 182.182 C 282.776 182.085,283.436 181.738,283.855 181.411 C 289.220 177.225,288.390 176.935,297.846 186.309 L 300.367 188.808 300.228 191.343 C 300.037 194.837,300.697 195.727,310.095 204.638 C 311.128 205.618,312.484 206.965,313.108 207.631 C 313.733 208.298,314.384 208.966,314.555 209.116 C 314.727 209.265,315.379 209.907,316.005 210.541 C 326.706 221.384,342.422 236.784,343.490 237.472 C 344.990 238.439,346.029 238.579,347.878 238.066 C 349.508 237.613,358.210 228.800,358.660 227.146 C 359.083 225.594,358.646 223.174,357.778 222.256 C 357.429 221.886,356.714 221.079,356.190 220.463 C 355.667 219.846,355.147 219.337,355.037 219.331 C 354.878 219.322,351.056 215.526,349.481 213.812 C 349.307 213.624,347.960 212.274,346.487 210.813 C 345.015 209.352,343.373 207.699,342.838 207.140 C 342.304 206.580,341.325 205.625,340.662 205.017 C 339.998 204.409,338.343 202.756,336.982 201.343 C 335.622 199.931,333.357 197.648,331.948 196.270 C 330.540 194.893,329.247 193.607,329.075 193.413 C 328.904 193.220,327.557 191.885,326.082 190.448 C 324.608 189.011,322.881 187.296,322.246 186.638 C 321.102 185.453,317.584 182.118,315.536 180.275 C 314.062 178.949,312.023 178.890,310.748 180.136 C 309.531 181.326,308.318 180.715,307.640 178.571 C 307.533 178.235,307.335 177.959,307.198 177.959 C 307.062 177.959,306.121 177.103,305.108 176.057 C 304.094 175.011,303.039 173.921,302.762 173.635 C 302.485 173.350,302.151 173.012,302.020 172.884 C 301.197 172.087,300.408 171.024,300.408 170.714 C 300.408 170.514,300.102 170.274,299.728 170.180 C 298.887 169.969,298.757 168.610,299.538 168.192 C 299.807 168.048,300.507 166.998,301.093 165.859 C 301.679 164.719,302.377 163.589,302.644 163.348 C 302.911 163.106,303.129 162.761,303.129 162.581 C 303.129 162.400,303.405 161.838,303.741 161.330 C 304.078 160.823,304.524 159.918,304.732 159.320 C 304.940 158.721,305.197 158.170,305.303 158.095 C 306.226 157.443,308.549 150.431,309.360 145.850 C 309.505 145.027,309.761 143.680,309.928 142.857 C 310.384 140.614,310.589 132.431,310.246 130.204 C 310.085 129.156,309.817 127.442,309.651 126.395 C 309.485 125.347,309.245 123.787,309.117 122.927 C 308.990 122.068,308.701 120.994,308.475 120.541 C 308.248 120.088,307.921 119.030,307.747 118.190 C 307.572 117.350,307.135 116.110,306.776 115.434 C 306.417 114.758,306.122 114.002,306.122 113.754 C 306.122 113.506,305.816 112.888,305.442 112.381 C 305.068 111.874,304.762 111.255,304.762 111.006 C 304.762 110.756,304.468 110.119,304.109 109.590 C 303.750 109.061,303.368 108.339,303.261 107.987 C 303.154 107.635,302.848 107.102,302.580 106.803 C 302.312 106.503,301.904 105.799,301.673 105.238 C 301.441 104.677,301.133 104.218,300.988 104.218 C 300.842 104.218,300.644 103.856,300.547 103.415 C 300.450 102.973,299.706 101.866,298.893 100.955 C 298.080 100.045,297.415 99.117,297.415 98.895 C 297.415 98.672,297.109 98.374,296.735 98.231 C 296.361 98.089,296.054 97.783,296.054 97.552 C 296.054 97.321,295.748 96.992,295.374 96.821 C 295.000 96.651,294.694 96.283,294.694 96.004 C 294.694 95.717,294.406 95.387,294.030 95.244 C 293.665 95.106,293.237 94.750,293.078 94.453 C 292.919 94.157,292.551 93.839,292.259 93.746 C 291.967 93.653,291.655 93.345,291.565 93.061 C 291.474 92.777,291.131 92.460,290.802 92.357 C 290.473 92.254,289.932 91.878,289.600 91.522 C 289.268 91.165,288.632 90.801,288.186 90.712 C 287.632 90.601,287.350 90.367,287.294 89.969 C 287.244 89.618,286.982 89.355,286.632 89.305 C 286.314 89.260,285.782 88.933,285.449 88.578 C 284.977 88.077,284.650 87.966,283.971 88.076 C 283.136 88.211,280.450 87.112,275.918 84.780 C 275.245 84.433,274.028 83.994,273.214 83.804 C 272.400 83.614,271.359 83.243,270.901 82.979 C 270.443 82.716,269.272 82.412,268.299 82.304 C 267.327 82.197,265.980 81.939,265.306 81.731 C 262.776 80.952,255.696 80.667,249.524 81.098 M87.279 87.091 C 87.017 87.247,86.803 87.533,86.803 87.726 C 86.803 87.920,86.558 88.301,86.259 88.571 C 85.663 89.110,85.369 164.652,85.961 165.018 C 86.097 165.102,88.358 163.014,90.986 160.378 L 95.764 155.584 95.604 153.098 C 95.243 147.467,97.907 144.896,103.271 145.701 C 105.364 146.015,108.640 150.139,108.214 151.923 C 108.136 152.250,107.888 153.164,107.664 153.955 L 107.255 155.392 113.595 161.756 C 118.271 166.449,120.015 168.039,120.240 167.815 C 120.657 167.398,120.675 89.709,120.259 88.513 C 119.705 86.924,119.919 86.945,103.129 86.873 C 92.846 86.829,87.597 86.901,87.279 87.091 M261.905 93.480 C 262.952 93.705,264.722 94.080,265.837 94.314 C 266.952 94.547,268.299 94.956,268.830 95.221 C 269.361 95.487,270.193 95.779,270.679 95.872 C 271.756 96.077,276.726 98.533,277.944 99.462 C 278.429 99.833,278.910 100.136,279.012 100.136 C 279.699 100.136,283.764 103.647,287.113 107.132 C 287.658 107.699,288.423 108.486,288.814 108.880 C 289.204 109.275,289.524 109.715,289.524 109.858 C 289.524 110.002,289.779 110.351,290.090 110.633 C 290.402 110.915,290.837 111.575,291.056 112.100 C 291.275 112.624,291.680 113.300,291.955 113.602 C 292.229 113.903,292.544 114.456,292.654 114.830 C 292.764 115.204,293.024 115.705,293.233 115.944 C 294.102 116.937,296.469 123.749,296.872 126.419 C 297.028 127.453,297.290 128.850,297.453 129.524 C 297.881 131.284,298.058 137.024,297.725 138.341 C 297.571 138.954,297.305 140.680,297.134 142.177 C 296.964 143.673,296.540 145.816,296.192 146.939 C 295.844 148.061,295.478 149.347,295.378 149.796 C 295.278 150.245,295.038 150.796,294.846 151.020 C 294.654 151.245,294.278 152.014,294.010 152.730 C 293.743 153.446,293.424 154.094,293.301 154.170 C 293.178 154.246,292.823 154.824,292.514 155.453 C 290.862 158.813,288.929 161.502,286.212 164.218 C 286.063 164.367,285.491 164.979,284.943 165.576 C 282.722 167.996,279.247 170.884,278.556 170.884 C 278.421 170.884,277.946 171.190,277.501 171.565 C 277.057 171.939,276.506 172.245,276.277 172.245 C 276.048 172.245,275.503 172.546,275.065 172.915 C 274.627 173.283,273.830 173.706,273.293 173.854 C 272.756 174.002,272.108 174.312,271.853 174.543 C 271.598 174.774,270.786 175.034,270.048 175.121 C 269.311 175.208,268.279 175.451,267.755 175.662 C 267.231 175.873,266.068 176.165,265.170 176.310 C 264.272 176.455,262.440 176.772,261.099 177.014 C 256.869 177.776,246.078 176.985,243.673 175.735 C 243.224 175.502,242.184 175.153,241.361 174.961 C 240.537 174.768,239.407 174.323,238.849 173.972 C 238.291 173.621,237.664 173.333,237.457 173.333 C 237.250 173.333,236.788 173.104,236.431 172.824 C 236.074 172.543,234.879 171.930,233.774 171.460 C 231.937 170.679,230.732 169.873,229.242 168.428 C 228.938 168.133,228.566 167.891,228.417 167.891 C 228.116 167.891,223.911 163.456,222.601 161.757 C 222.144 161.165,221.539 160.385,221.256 160.025 C 220.972 159.664,219.979 157.828,219.048 155.943 C 218.116 154.059,217.184 152.192,216.976 151.795 C 216.769 151.398,216.599 150.931,216.599 150.757 C 216.599 150.584,216.306 149.807,215.948 149.031 C 215.590 148.254,215.217 146.967,215.120 146.170 C 215.022 145.373,214.699 144.104,214.402 143.350 C 213.647 141.437,213.486 129.347,214.197 128.027 C 214.439 127.578,214.782 126.231,214.960 125.034 C 215.138 123.837,215.459 122.582,215.674 122.247 C 215.889 121.911,216.261 120.871,216.500 119.936 C 216.740 119.002,217.155 118.083,217.423 117.896 C 217.691 117.708,217.995 117.055,218.098 116.445 C 218.201 115.835,218.451 115.273,218.653 115.195 C 218.855 115.118,219.237 114.483,219.502 113.786 C 219.766 113.088,220.354 111.988,220.808 111.342 C 221.261 110.696,221.878 109.762,222.178 109.266 C 222.712 108.383,224.210 106.747,226.667 104.363 C 229.026 102.074,229.426 101.768,231.924 100.353 C 232.373 100.098,232.822 99.759,232.920 99.601 C 233.311 98.968,239.019 96.153,240.408 95.908 C 241.007 95.802,241.864 95.496,242.313 95.227 C 242.762 94.959,243.906 94.599,244.856 94.427 C 245.806 94.256,246.908 93.987,247.305 93.829 C 249.338 93.020,258.722 92.796,261.905 93.480 M103.466 157.765 C 102.010 158.121,101.491 158.130,99.897 157.829 L 98.032 157.477 91.743 163.767 L 85.454 170.057 85.628 173.124 C 85.828 176.629,86.111 177.230,88.117 178.406 L 89.319 179.110 103.503 178.926 C 117.191 178.748,117.731 178.721,118.955 178.162 L 120.223 177.582 120.414 175.170 C 120.519 173.844,120.560 172.710,120.506 172.651 C 120.028 172.129,106.766 158.847,106.075 158.198 L 105.170 157.348 103.466 157.765 " stroke="none" fill="#1a709a" fill-rule="evenodd"></path><path id="path1" d="M137.823 43.834 C 137.374 43.971,136.701 44.320,136.327 44.611 L 135.646 45.139 135.510 105.498 L 135.374 165.856 132.969 168.294 L 130.564 170.732 126.514 170.765 C 122.489 170.799,122.459 170.795,121.787 170.093 C 121.416 169.705,120.988 169.265,120.837 169.116 C 109.979 158.373,107.248 155.378,107.501 154.497 C 108.325 151.622,107.677 149.092,105.599 147.075 L 104.197 145.714 101.497 145.714 L 98.798 145.714 97.419 147.071 C 95.698 148.766,95.391 149.783,95.604 153.098 L 95.764 155.584 90.986 160.377 C 88.359 163.013,86.098 165.170,85.962 165.170 C 85.826 165.170,85.714 165.363,85.714 165.598 C 85.714 166.021,57.140 194.735,55.931 195.527 C 55.440 195.849,54.984 195.886,53.807 195.702 C 49.083 194.961,45.921 197.225,45.872 201.384 C 45.851 203.093,46.777 205.268,47.697 205.672 C 47.815 205.724,48.275 206.072,48.720 206.447 C 50.818 208.212,57.143 206.883,57.143 204.675 C 57.143 204.443,57.408 203.706,57.732 203.036 C 58.270 201.924,58.291 201.711,57.967 200.569 C 57.179 197.796,56.016 199.257,70.959 184.258 C 78.436 176.753,84.636 170.612,84.737 170.612 C 84.838 170.612,87.868 167.657,91.472 164.044 L 98.023 157.476 99.895 157.829 C 101.435 158.120,102.046 158.119,103.333 157.825 C 104.194 157.628,104.991 157.456,105.104 157.441 C 105.217 157.427,108.747 160.844,112.948 165.034 L 120.586 172.653 120.411 175.009 C 120.028 180.143,123.020 183.127,127.849 182.427 C 131.202 181.941,132.787 179.180,132.287 174.694 L 132.059 172.653 133.172 171.633 C 135.063 169.899,135.510 170.310,135.510 173.778 C 135.510 178.665,135.738 178.776,145.796 178.776 C 150.415 178.776,153.228 178.674,153.333 178.503 C 153.438 178.334,155.996 178.231,160.104 178.231 C 166.996 178.231,169.252 177.921,169.252 176.973 C 169.252 176.758,169.435 176.511,169.660 176.425 C 170.018 176.288,170.068 173.805,170.070 156.365 C 170.071 134.408,170.033 134.919,171.774 133.296 C 172.949 132.200,173.238 132.168,175.070 132.933 C 175.624 133.164,176.142 133.182,176.839 132.994 C 179.731 132.215,179.785 132.233,182.343 134.887 C 185.286 137.940,185.029 135.790,185.061 157.653 C 185.091 178.348,185.006 177.256,186.675 178.214 L 187.891 178.912 202.177 178.839 C 216.044 178.769,216.500 178.750,217.728 178.193 C 219.877 177.219,219.785 176.468,217.207 173.921 C 214.052 170.804,211.644 167.891,209.525 164.626 C 209.379 164.401,208.953 163.789,208.578 163.265 C 208.202 162.741,207.706 161.884,207.475 161.361 C 206.880 160.012,206.572 159.380,206.282 158.912 C 206.142 158.687,205.586 157.546,205.044 156.375 L 204.060 154.247 202.866 154.947 C 201.424 155.791,200.854 155.815,199.434 155.091 C 195.922 153.299,196.830 148.865,200.802 148.415 C 202.197 148.257,202.449 148.152,202.302 147.786 C 200.572 143.501,200.513 125.559,202.217 122.374 C 202.361 122.105,202.651 120.986,202.861 119.888 C 203.071 118.790,203.481 117.479,203.772 116.973 C 204.063 116.468,204.389 115.626,204.497 115.102 C 204.605 114.578,204.908 113.844,205.170 113.469 C 205.432 113.095,205.732 112.397,205.835 111.918 C 205.939 111.438,206.247 110.763,206.519 110.416 C 206.792 110.070,207.214 109.360,207.458 108.839 C 208.177 107.305,209.269 105.569,210.839 103.465 C 211.338 102.796,211.643 102.147,211.518 102.021 C 211.110 101.613,188.527 101.362,187.140 101.750 C 184.980 102.355,185.034 101.947,185.034 117.674 C 185.034 132.808,185.082 132.245,183.790 132.245 C 182.352 132.245,181.382 130.680,181.962 129.294 C 182.931 126.974,181.665 122.958,179.655 121.979 C 179.246 121.780,178.605 121.439,178.231 121.221 C 177.211 120.626,174.300 120.685,173.684 121.312 C 172.145 122.880,170.817 123.340,170.350 122.467 C 170.159 122.111,170.068 109.640,170.068 84.024 L 170.068 46.108 169.267 45.231 L 168.466 44.354 161.273 44.354 C 155.495 44.354,153.888 44.273,153.103 43.946 C 151.981 43.477,139.304 43.385,137.823 43.834 M347.763 47.115 C 344.993 47.770,343.851 50.110,344.149 54.519 C 344.310 56.908,344.548 56.465,341.530 59.390 C 340.874 60.025,339.221 61.690,337.856 63.090 C 336.491 64.490,335.221 65.776,335.033 65.947 C 334.846 66.118,333.499 67.456,332.040 68.920 C 330.581 70.385,328.959 72.008,328.435 72.528 C 325.574 75.369,322.006 78.931,321.769 79.183 C 321.619 79.342,320.976 79.954,320.340 80.542 C 319.119 81.670,318.883 82.569,319.464 83.865 C 319.727 84.451,320.546 83.689,332.673 71.565 L 345.602 58.639 348.949 58.639 C 352.668 58.639,352.075 58.879,354.841 56.259 L 355.918 55.239 355.918 53.079 C 355.918 48.298,352.705 45.948,347.763 47.115 M351.820 49.621 C 354.756 51.754,353.578 56.334,350.095 56.325 C 347.212 56.317,345.465 53.775,346.654 51.318 C 347.824 48.903,349.895 48.222,351.820 49.621 M178.622 124.335 C 180.061 125.838,180.031 128.724,178.566 129.682 C 178.158 129.949,177.661 130.329,177.464 130.526 C 175.924 132.060,171.943 129.038,172.334 126.631 C 172.802 123.748,176.697 122.326,178.622 124.335 M103.673 148.719 C 104.045 148.827,105.030 150.481,105.398 151.614 C 105.825 152.929,103.301 155.646,101.652 155.646 C 98.442 155.646,96.643 149.365,99.668 148.721 C 100.000 148.651,100.517 148.537,100.816 148.469 C 101.347 148.349,102.855 148.481,103.673 148.719 M128.448 173.476 C 130.737 174.660,130.507 178.520,128.071 179.810 C 124.982 181.446,121.746 177.894,123.405 174.687 C 124.190 173.169,126.693 172.568,128.448 173.476 M53.528 198.089 C 57.095 199.812,56.156 204.528,52.188 204.822 C 50.517 204.945,49.141 204.271,48.701 203.111 C 47.382 199.642,50.350 196.554,53.528 198.089 " stroke="none" fill="#ebb130" fill-rule="evenodd"></path><path id="path2" d="M0.000 136.054 L 0.000 272.109 200.000 272.109 L 400.000 272.109 400.000 136.054 L 400.000 0.000 200.000 0.000 L 0.000 0.000 0.000 136.054 M168.608 43.558 C 169.413 44.019,170.224 44.662,170.410 44.987 C 170.673 45.448,170.778 53.992,170.884 83.651 C 170.984 111.485,171.103 121.751,171.326 121.825 C 171.495 121.881,172.039 121.585,172.536 121.168 C 173.394 120.446,173.577 120.408,176.183 120.408 L 178.927 120.408 180.212 121.461 C 180.918 122.041,181.497 122.633,181.497 122.778 C 181.497 122.923,181.772 123.265,182.109 123.538 C 182.679 124.000,182.723 124.258,182.743 127.255 C 182.768 130.878,182.980 131.828,183.581 131.007 C 183.874 130.606,183.946 127.895,183.946 117.235 L 183.946 103.961 184.816 102.727 C 186.065 100.955,186.061 100.956,199.769 100.954 L 211.919 100.952 213.356 99.252 C 215.755 96.414,219.687 92.712,220.884 92.165 C 221.221 92.011,221.497 91.718,221.497 91.514 C 221.497 91.310,221.826 91.018,222.228 90.865 C 222.631 90.712,223.127 90.348,223.332 90.055 C 223.537 89.763,223.864 89.524,224.060 89.524 C 224.255 89.524,224.877 89.156,225.442 88.707 C 226.007 88.259,226.676 87.891,226.929 87.891 C 227.181 87.891,227.663 87.599,227.999 87.241 C 228.335 86.884,228.981 86.517,229.434 86.426 C 229.887 86.335,230.623 85.955,231.068 85.580 C 231.514 85.205,232.170 84.898,232.527 84.898 C 232.884 84.898,233.404 84.653,233.683 84.354 C 233.974 84.041,234.873 83.675,235.802 83.490 C 236.689 83.314,237.729 82.940,238.114 82.659 C 238.528 82.356,239.471 82.090,240.427 82.006 C 241.314 81.928,242.504 81.618,243.069 81.318 C 245.540 80.007,264.741 80.012,267.944 81.324 C 268.663 81.619,269.784 81.934,270.435 82.026 C 271.085 82.117,272.186 82.495,272.881 82.865 C 273.577 83.235,274.544 83.537,275.032 83.537 C 275.575 83.537,276.144 83.763,276.500 84.119 C 276.820 84.439,277.585 84.814,278.201 84.952 C 278.816 85.090,279.594 85.461,279.929 85.775 C 280.338 86.160,280.918 86.355,281.697 86.371 L 282.857 86.395 283.013 72.653 C 283.182 57.685,283.164 57.883,284.533 56.558 L 285.476 55.646 299.541 55.646 C 317.964 55.646,316.751 55.551,318.025 57.104 L 319.048 58.352 319.184 69.018 C 319.326 80.210,319.344 80.384,320.249 79.478 C 320.561 79.167,320.987 78.912,321.195 78.912 C 321.403 78.912,321.647 78.636,321.737 78.299 C 321.827 77.963,322.329 77.320,322.853 76.871 C 323.377 76.422,328.276 71.607,333.740 66.172 C 344.564 55.404,344.219 55.856,343.210 53.740 C 342.812 52.906,342.796 52.643,343.098 51.894 C 343.291 51.413,343.562 50.561,343.699 49.999 C 343.930 49.052,345.742 46.815,346.295 46.793 C 346.424 46.788,347.020 46.548,347.619 46.259 C 348.896 45.641,351.206 45.550,351.980 46.086 C 352.275 46.290,352.819 46.552,353.188 46.667 C 354.989 47.230,356.745 50.015,356.792 52.381 C 356.842 54.902,356.177 56.364,354.251 57.966 L 352.625 59.320 349.387 59.320 L 346.149 59.320 332.669 72.797 L 319.188 86.274 319.118 131.585 L 319.048 176.897 317.755 178.101 C 316.412 179.352,316.106 180.291,316.939 180.604 C 317.315 180.745,319.601 182.856,321.881 185.170 C 322.248 185.542,323.170 186.464,323.553 186.841 C 323.727 187.012,324.717 188.022,325.753 189.086 C 326.790 190.150,327.748 191.020,327.882 191.020 C 328.017 191.020,328.207 191.273,328.305 191.581 C 328.402 191.890,328.776 192.276,329.134 192.439 C 329.492 192.602,329.857 192.962,329.945 193.239 C 330.033 193.515,330.254 193.741,330.436 193.741 C 330.618 193.741,330.984 194.109,331.249 194.558 C 331.514 195.007,331.894 195.374,332.093 195.374 C 332.292 195.374,332.655 195.680,332.900 196.054 C 333.145 196.429,333.507 196.735,333.704 196.735 C 333.901 196.735,334.202 197.041,334.372 197.415 C 334.543 197.789,334.872 198.095,335.103 198.095 C 335.334 198.095,335.636 198.391,335.773 198.752 C 335.911 199.114,336.275 199.489,336.582 199.587 C 336.890 199.684,337.213 200.051,337.301 200.401 C 337.389 200.751,337.705 201.101,338.002 201.179 C 338.300 201.256,338.607 201.563,338.685 201.859 C 338.762 202.156,339.058 202.459,339.342 202.534 C 339.625 202.608,339.972 202.971,340.113 203.341 C 340.257 203.720,340.673 204.089,341.069 204.188 C 341.454 204.285,341.769 204.548,341.769 204.774 C 341.769 204.999,342.087 205.304,342.475 205.452 C 342.864 205.600,343.246 205.964,343.323 206.262 C 343.401 206.559,343.626 206.803,343.823 206.803 C 344.020 206.803,344.261 207.054,344.358 207.360 C 344.561 208.000,347.888 211.429,348.306 211.429 C 348.458 211.429,348.716 211.721,348.879 212.079 C 349.042 212.436,349.468 212.862,349.826 213.025 C 350.184 213.188,350.476 213.443,350.476 213.592 C 350.476 213.945,355.306 218.776,355.659 218.776 C 355.808 218.776,356.063 219.068,356.226 219.426 C 356.389 219.783,356.815 220.209,357.173 220.372 C 357.531 220.535,357.823 220.820,357.823 221.004 C 357.823 221.189,358.139 221.592,358.525 221.900 C 359.144 222.394,359.244 222.713,359.373 224.631 C 359.608 228.121,359.184 229.002,355.766 232.141 C 355.176 232.683,353.809 234.030,352.728 235.134 C 349.762 238.165,349.191 238.557,347.411 238.779 C 345.193 239.056,343.537 238.745,342.592 237.873 C 342.157 237.471,341.245 236.653,340.565 236.054 C 339.885 235.456,339.327 234.833,339.324 234.670 C 339.322 234.506,339.014 234.234,338.639 234.063 C 338.265 233.893,337.959 233.575,337.959 233.358 C 337.959 233.140,337.707 232.882,337.398 232.784 C 337.090 232.686,336.703 232.310,336.538 231.949 C 336.374 231.588,336.129 231.293,335.993 231.293 C 335.645 231.293,330.612 226.219,330.612 225.868 C 330.612 225.709,330.495 225.578,330.352 225.578 C 330.144 225.578,327.826 223.330,324.451 219.854 C 324.280 219.678,323.576 218.993,322.886 218.331 C 322.197 217.670,321.633 217.009,321.633 216.864 C 321.633 216.718,321.476 216.599,321.285 216.599 C 321.094 216.599,320.616 216.262,320.222 215.850 C 319.829 215.439,319.377 214.980,319.218 214.830 C 319.060 214.680,317.776 213.364,316.365 211.905 C 314.954 210.446,313.669 209.252,313.508 209.252 C 313.348 209.252,313.087 209.010,312.928 208.713 C 312.770 208.417,312.337 207.872,311.966 207.501 C 311.596 207.131,311.293 206.699,311.293 206.543 C 311.293 206.387,311.152 206.259,310.979 206.259 C 310.807 206.259,310.013 205.616,309.214 204.830 C 307.225 202.874,306.632 202.359,305.991 202.034 C 305.689 201.881,305.404 201.490,305.357 201.166 C 305.305 200.802,305.045 200.545,304.677 200.493 C 304.309 200.441,304.050 200.184,303.998 199.822 C 303.949 199.474,303.657 199.170,303.282 199.076 C 302.935 198.989,302.583 198.662,302.502 198.350 C 302.420 198.038,302.103 197.717,301.798 197.638 C 301.492 197.558,301.161 197.237,301.062 196.925 C 300.963 196.612,300.622 196.147,300.305 195.890 C 299.787 195.471,299.718 195.094,299.636 192.231 L 299.543 189.039 296.299 185.812 C 294.515 184.037,292.954 182.585,292.830 182.585 C 292.706 182.585,292.465 182.279,292.294 181.905 C 292.124 181.531,291.818 181.224,291.614 181.224 C 291.410 181.224,291.110 180.931,290.946 180.571 C 290.379 179.326,287.832 179.378,286.548 180.662 C 286.247 180.964,285.681 181.291,285.290 181.389 C 284.900 181.487,284.290 181.857,283.935 182.212 C 283.580 182.567,283.110 182.857,282.890 182.857 C 282.671 182.857,282.139 183.153,281.709 183.515 C 281.280 183.876,280.482 184.256,279.938 184.358 C 279.393 184.460,278.736 184.776,278.479 185.061 C 278.222 185.345,277.816 185.579,277.577 185.579 C 277.338 185.580,276.432 185.934,275.563 186.367 C 274.694 186.800,273.409 187.239,272.706 187.342 C 272.003 187.446,271.222 187.716,270.970 187.941 C 270.718 188.167,269.323 188.528,267.871 188.745 C 266.418 188.961,265.011 189.255,264.743 189.398 C 262.837 190.418,249.113 190.453,246.663 189.444 C 245.917 189.136,244.388 188.804,243.265 188.706 C 242.132 188.607,240.801 188.303,240.272 188.024 C 239.748 187.747,238.646 187.373,237.823 187.192 C 237.000 187.011,236.020 186.653,235.646 186.397 C 235.272 186.141,234.543 185.850,234.027 185.750 C 233.510 185.651,232.837 185.338,232.530 185.054 C 232.224 184.771,231.472 184.406,230.860 184.243 C 230.247 184.081,229.524 183.702,229.253 183.403 C 228.981 183.103,228.543 182.857,228.278 182.857 C 228.013 182.857,227.451 182.573,227.028 182.227 C 226.605 181.880,225.861 181.436,225.374 181.241 C 224.888 181.046,224.490 180.718,224.490 180.511 C 224.490 180.305,224.318 180.136,224.107 180.136 C 223.897 180.136,223.225 179.738,222.613 179.252 C 219.906 177.099,219.872 177.078,219.712 177.494 C 219.629 177.710,218.969 178.271,218.246 178.740 L 216.931 179.592 202.323 179.592 L 187.716 179.592 186.529 178.896 C 185.876 178.513,185.058 177.748,184.712 177.195 L 184.082 176.190 183.946 156.845 L 183.810 137.500 181.930 135.621 C 180.090 133.781,180.024 133.743,178.801 133.831 C 175.597 134.061,174.216 133.983,173.533 133.536 C 172.863 133.097,172.823 133.104,172.399 133.751 C 172.158 134.120,171.795 134.422,171.592 134.422 C 170.932 134.422,170.884 135.883,170.884 156.048 C 170.884 178.320,170.986 177.174,168.897 178.423 L 167.465 179.279 152.644 179.368 L 137.823 179.456 136.563 178.574 C 135.076 177.534,134.975 177.239,134.970 173.962 C 134.966 171.566,134.656 170.535,134.287 171.696 C 134.192 171.997,133.815 172.318,133.451 172.410 C 132.656 172.609,132.531 174.056,133.199 175.337 C 133.670 176.241,133.714 176.957,133.340 177.623 C 133.193 177.883,132.945 178.585,132.789 179.184 C 132.317 180.986,130.795 182.381,128.503 183.112 L 126.531 183.742 124.563 183.109 C 122.324 182.389,120.455 180.770,120.124 179.264 C 119.953 178.486,119.899 178.446,119.589 178.869 C 118.925 179.778,117.510 179.864,103.217 179.864 C 88.073 179.864,88.194 179.874,86.556 178.452 C 85.086 177.176,84.918 176.717,84.908 173.946 C 84.902 172.561,84.846 171.429,84.783 171.429 C 84.569 171.429,82.989 173.106,82.708 173.630 C 82.555 173.916,82.259 174.150,82.050 174.150 C 81.840 174.150,81.589 174.402,81.491 174.710 C 81.393 175.019,81.018 175.406,80.657 175.570 C 80.296 175.735,80.000 176.029,80.000 176.225 C 80.000 176.420,79.779 176.698,79.510 176.842 C 78.796 177.224,75.766 180.220,75.398 180.908 C 75.225 181.232,74.912 181.497,74.703 181.497 C 74.494 181.497,74.242 181.749,74.144 182.057 C 74.046 182.366,73.671 182.753,73.310 182.917 C 72.949 183.082,72.653 183.346,72.653 183.503 C 72.653 183.838,72.800 183.681,67.469 189.048 C 65.202 191.330,63.172 193.197,62.959 193.197 C 62.746 193.197,62.459 193.493,62.322 193.854 C 62.184 194.216,61.839 194.585,61.553 194.676 C 61.268 194.766,60.897 195.144,60.727 195.515 C 60.558 195.887,60.242 196.190,60.024 196.190 C 59.807 196.190,59.549 196.442,59.451 196.750 C 59.353 197.058,58.961 197.429,58.580 197.574 C 57.901 197.832,57.897 197.848,58.392 198.394 C 59.191 199.277,59.289 202.533,58.548 203.536 C 58.237 203.956,57.902 204.625,57.802 205.022 C 57.702 205.420,57.304 205.952,56.918 206.205 C 56.533 206.458,55.955 206.927,55.635 207.247 C 54.928 207.954,52.823 208.292,50.816 208.021 C 43.852 207.081,43.068 197.214,49.781 194.987 C 52.193 194.187,52.725 194.139,53.477 194.652 C 54.831 195.575,54.976 195.492,59.149 191.422 C 61.338 189.286,63.129 187.411,63.129 187.254 C 63.129 187.098,63.355 186.810,63.630 186.614 C 63.906 186.419,64.278 185.983,64.456 185.646 C 64.635 185.310,64.903 185.034,65.053 185.034 C 65.385 185.034,70.476 179.927,70.476 179.594 C 70.476 179.463,70.715 179.281,71.006 179.188 C 71.298 179.096,71.611 178.787,71.701 178.503 C 71.791 178.219,72.114 177.908,72.418 177.811 C 72.722 177.715,75.655 174.943,78.935 171.653 L 84.898 165.670 84.898 127.238 L 84.898 88.806 85.764 87.679 C 86.307 86.974,86.937 86.485,87.450 86.372 C 87.900 86.273,88.437 86.023,88.643 85.817 C 88.952 85.508,91.461 85.442,102.844 85.442 L 116.670 85.442 118.521 86.139 C 122.200 87.524,121.905 83.716,121.905 129.759 C 121.905 175.000,121.594 170.990,125.023 170.038 C 125.826 169.815,126.600 169.824,128.051 170.072 L 130.001 170.406 131.803 168.595 C 132.795 167.599,133.605 166.688,133.605 166.570 C 133.605 166.453,133.912 166.090,134.286 165.765 L 134.966 165.174 134.966 105.485 C 134.966 43.919,134.959 44.293,136.045 43.949 C 136.314 43.863,136.812 43.552,137.152 43.257 C 137.751 42.738,138.235 42.721,152.457 42.721 L 167.145 42.721 168.608 43.558 M348.403 50.363 C 347.542 50.613,347.223 51.397,347.214 53.286 C 347.209 54.346,348.616 55.510,349.902 55.510 C 351.980 55.510,353.124 53.621,352.486 51.242 C 352.215 50.231,350.288 49.817,348.403 50.363 M254.354 95.510 C 253.673 95.938,253.765 96.447,254.606 96.893 C 256.689 97.998,258.127 102.358,257.129 104.547 C 256.827 105.210,257.435 107.211,257.938 107.211 C 258.071 107.211,259.325 108.383,260.723 109.815 C 262.121 111.248,263.790 112.932,264.432 113.557 C 268.000 117.035,269.522 118.573,270.337 119.526 C 271.266 120.611,273.287 120.984,275.106 120.407 C 275.393 120.316,276.319 120.369,277.164 120.525 C 278.969 120.859,278.871 120.903,281.340 118.659 L 283.265 116.909 283.265 111.102 C 283.265 104.264,282.703 102.765,279.751 101.736 C 279.289 101.575,278.912 101.339,278.912 101.211 C 278.912 101.083,278.391 100.747,277.755 100.465 C 277.119 100.183,276.431 99.749,276.225 99.500 C 276.020 99.251,275.620 99.048,275.337 99.048 C 274.830 99.048,273.997 98.663,273.197 98.059 C 272.973 97.890,271.932 97.541,270.884 97.284 C 269.837 97.027,268.857 96.717,268.707 96.596 C 267.502 95.622,255.609 94.723,254.354 95.510 M243.514 97.403 C 243.127 97.520,242.515 97.805,242.153 98.036 C 241.792 98.267,240.978 98.608,240.345 98.794 C 239.711 98.979,238.988 99.357,238.738 99.634 C 238.488 99.910,238.088 100.138,237.849 100.141 C 237.610 100.144,236.876 100.511,236.218 100.957 C 235.559 101.404,234.862 101.769,234.668 101.769 C 234.475 101.769,234.157 101.984,233.961 102.246 C 233.765 102.509,233.054 103.077,232.381 103.510 C 231.166 104.291,223.946 111.420,223.946 111.839 C 223.946 111.959,223.517 112.570,222.993 113.197 C 222.469 113.824,222.041 114.493,222.041 114.683 C 222.041 114.873,221.805 115.328,221.517 115.694 C 220.123 117.467,219.391 128.706,220.644 129.104 C 221.216 129.286,243.284 107.510,244.076 105.982 C 244.436 105.290,244.446 105.057,244.145 104.486 C 243.466 103.200,243.828 100.360,244.854 98.932 C 246.053 97.262,245.618 96.765,243.514 97.403 M249.796 99.239 C 247.581 100.152,247.029 102.715,248.697 104.344 C 250.376 105.983,251.998 105.667,253.541 103.399 C 254.769 101.595,251.875 98.382,249.796 99.239 M253.212 108.634 C 252.939 108.787,251.721 108.894,250.507 108.871 C 249.293 108.848,247.909 108.824,247.432 108.816 C 246.485 108.801,221.212 133.646,220.472 135.319 C 220.226 135.877,220.136 138.685,220.136 145.853 C 220.136 156.560,220.203 157.064,221.911 159.304 C 222.282 159.790,222.585 160.322,222.585 160.486 C 222.585 160.651,222.824 160.953,223.116 161.158 C 223.409 161.362,223.773 161.859,223.926 162.262 C 224.079 162.664,224.394 162.993,224.625 162.993 C 224.856 162.993,225.179 163.286,225.342 163.643 C 225.505 164.001,225.931 164.427,226.289 164.590 C 226.646 164.753,226.939 165.064,226.939 165.282 C 226.939 165.500,227.191 165.758,227.499 165.855 C 227.806 165.953,228.171 166.329,228.308 166.690 C 228.452 167.068,228.779 167.347,229.078 167.347 C 229.363 167.347,229.798 167.653,230.043 168.027 C 230.288 168.401,230.623 168.707,230.787 168.707 C 230.951 168.707,231.510 169.081,232.030 169.538 C 233.663 170.971,233.599 171.550,233.676 154.560 C 233.725 143.591,233.836 138.853,234.049 138.597 C 234.470 138.089,268.555 138.052,269.061 138.558 C 269.309 138.805,269.388 143.196,269.388 156.653 C 269.388 175.945,269.331 175.256,270.807 173.881 C 271.127 173.583,271.826 173.260,272.361 173.161 C 272.896 173.063,273.679 172.694,274.103 172.342 C 274.526 171.989,275.088 171.701,275.353 171.701 C 275.617 171.701,276.181 171.402,276.605 171.038 C 277.030 170.673,277.686 170.297,278.063 170.202 C 278.440 170.108,279.014 169.763,279.338 169.437 C 279.663 169.111,280.446 168.476,281.079 168.027 C 283.410 166.374,283.265 167.967,283.265 143.956 C 283.265 120.906,283.315 121.639,281.869 123.307 C 281.186 124.095,281.222 124.394,282.177 125.808 C 283.169 127.277,283.167 127.111,282.195 128.453 C 281.756 129.059,281.321 129.900,281.229 130.322 C 281.013 131.304,280.255 132.001,278.272 133.042 C 275.209 134.649,272.250 133.855,270.037 130.832 L 268.980 129.388 268.980 126.217 L 268.980 123.046 262.035 116.149 C 254.453 108.618,253.972 108.208,253.212 108.634 M273.473 124.831 C 272.019 126.284,271.971 127.452,273.307 128.909 C 276.030 131.881,280.186 127.998,277.592 124.905 C 276.388 123.469,274.862 123.441,273.473 124.831 M174.483 124.627 C 172.436 126.534,173.927 130.359,176.438 129.643 C 178.510 129.052,179.035 128.463,179.044 126.726 C 179.054 124.747,175.908 123.300,174.483 124.627 M99.744 149.790 C 98.096 151.136,98.693 153.723,100.772 154.246 C 103.206 154.859,104.218 154.032,104.218 151.431 C 104.218 149.248,101.587 148.283,99.744 149.790 M199.586 149.324 C 196.984 151.192,198.584 154.959,201.701 154.303 L 202.585 154.117 202.498 152.229 C 202.375 149.542,201.080 148.251,199.586 149.324 M125.141 174.181 C 123.369 174.831,123.372 177.982,125.145 178.899 C 127.602 180.169,129.881 178.105,128.993 175.414 C 128.546 174.061,126.901 173.535,125.141 174.181 M50.974 198.871 C 48.380 199.648,48.994 204.088,51.693 204.078 C 53.066 204.073,53.802 203.826,53.995 203.308 C 54.088 203.060,54.353 202.516,54.584 202.099 C 55.647 200.185,53.374 198.152,50.974 198.871 " stroke="none" fill="#fafafa" fill-rule="evenodd"></path><path id="path3" d="M285.578 55.761 C 284.835 56.084,283.661 57.404,283.381 58.231 C 283.254 58.605,283.084 65.095,283.004 72.653 L 282.857 86.395 281.697 86.371 C 280.918 86.355,280.338 86.160,279.929 85.775 C 279.594 85.461,278.816 85.090,278.201 84.952 C 277.585 84.814,276.820 84.439,276.500 84.119 C 276.144 83.763,275.575 83.537,275.032 83.537 C 274.544 83.537,273.577 83.235,272.881 82.865 C 272.186 82.495,271.085 82.117,270.435 82.026 C 269.784 81.934,268.663 81.619,267.944 81.324 C 264.741 80.012,245.540 80.007,243.069 81.318 C 242.504 81.618,241.314 81.928,240.427 82.006 C 239.471 82.090,238.528 82.356,238.114 82.659 C 237.729 82.940,236.689 83.314,235.802 83.490 C 234.873 83.675,233.974 84.041,233.683 84.354 C 233.404 84.653,232.884 84.898,232.527 84.898 C 232.170 84.898,231.514 85.205,231.068 85.580 C 230.623 85.955,229.887 86.335,229.434 86.426 C 228.981 86.517,228.335 86.884,227.999 87.241 C 227.663 87.599,227.181 87.891,226.929 87.891 C 226.676 87.891,226.007 88.259,225.442 88.707 C 224.877 89.156,224.255 89.524,224.060 89.524 C 223.864 89.524,223.537 89.763,223.332 90.055 C 223.127 90.348,222.631 90.712,222.228 90.865 C 221.826 91.018,221.497 91.310,221.497 91.514 C 221.497 91.718,221.221 92.011,220.884 92.165 C 218.941 93.053,211.586 100.675,212.139 101.228 C 212.478 101.566,212.673 101.397,214.816 98.912 C 215.849 97.714,217.437 96.077,218.347 95.274 C 219.256 94.471,220.551 93.313,221.224 92.701 C 222.366 91.664,223.716 90.704,225.890 89.388 C 226.384 89.088,227.220 88.574,227.748 88.245 C 228.276 87.916,229.136 87.444,229.660 87.197 C 230.184 86.949,230.918 86.580,231.293 86.375 C 231.667 86.171,232.279 85.867,232.653 85.700 C 233.027 85.534,233.946 85.101,234.694 84.739 C 235.442 84.377,236.633 83.958,237.340 83.809 C 238.046 83.660,239.026 83.294,239.516 82.995 C 240.007 82.696,240.845 82.451,241.379 82.450 C 241.913 82.449,243.260 82.201,244.372 81.898 C 248.817 80.686,261.626 80.582,265.306 81.727 C 265.980 81.937,267.327 82.197,268.299 82.304 C 269.272 82.412,270.443 82.716,270.901 82.979 C 271.359 83.243,272.400 83.614,273.214 83.804 C 274.028 83.994,275.245 84.433,275.918 84.780 C 280.450 87.112,283.136 88.211,283.971 88.076 C 284.650 87.966,284.977 88.077,285.449 88.578 C 285.782 88.933,286.314 89.260,286.632 89.305 C 286.982 89.355,287.244 89.618,287.294 89.969 C 287.350 90.367,287.632 90.601,288.186 90.712 C 288.632 90.801,289.268 91.165,289.600 91.522 C 289.932 91.878,290.473 92.254,290.802 92.357 C 291.131 92.460,291.474 92.777,291.565 93.061 C 291.655 93.345,291.967 93.653,292.259 93.746 C 292.551 93.839,292.919 94.157,293.078 94.453 C 293.237 94.750,293.665 95.106,294.030 95.244 C 294.406 95.387,294.694 95.717,294.694 96.004 C 294.694 96.283,295.000 96.651,295.374 96.821 C 295.748 96.992,296.054 97.321,296.054 97.552 C 296.054 97.783,296.361 98.089,296.735 98.231 C 297.109 98.374,297.415 98.672,297.415 98.895 C 297.415 99.117,298.080 100.045,298.893 100.955 C 299.706 101.866,300.450 102.973,300.547 103.415 C 300.644 103.856,300.842 104.218,300.988 104.218 C 301.133 104.218,301.441 104.677,301.673 105.238 C 301.904 105.799,302.312 106.503,302.580 106.803 C 302.848 107.102,303.154 107.635,303.261 107.987 C 303.368 108.339,303.750 109.061,304.109 109.590 C 304.468 110.119,304.762 110.756,304.762 111.006 C 304.762 111.255,305.068 111.874,305.442 112.381 C 305.816 112.888,306.122 113.506,306.122 113.754 C 306.122 114.002,306.417 114.758,306.776 115.434 C 307.135 116.110,307.572 117.350,307.747 118.190 C 307.921 119.030,308.248 120.088,308.474 120.541 C 308.700 120.993,309.007 122.190,309.156 123.199 C 309.305 124.208,309.545 125.769,309.690 126.667 C 309.834 127.565,310.085 129.156,310.246 130.204 C 310.589 132.431,310.384 140.614,309.928 142.857 C 309.761 143.680,309.505 145.027,309.360 145.850 C 308.549 150.431,306.226 157.443,305.303 158.095 C 305.197 158.170,304.940 158.721,304.732 159.320 C 304.524 159.918,304.078 160.823,303.741 161.330 C 303.405 161.838,303.129 162.400,303.129 162.581 C 303.129 162.761,302.911 163.106,302.644 163.348 C 302.377 163.589,301.679 164.719,301.093 165.859 C 300.507 166.998,299.807 168.048,299.538 168.192 C 298.757 168.610,298.887 169.969,299.728 170.180 C 300.102 170.274,300.408 170.514,300.408 170.714 C 300.408 171.024,301.197 172.087,302.020 172.884 C 302.151 173.012,302.485 173.350,302.762 173.635 C 303.039 173.921,304.094 175.011,305.108 176.057 C 306.121 177.103,307.062 177.959,307.198 177.959 C 307.335 177.959,307.533 178.235,307.640 178.571 C 308.318 180.715,309.531 181.326,310.748 180.136 C 312.023 178.890,314.062 178.949,315.536 180.275 C 317.584 182.118,321.102 185.453,322.246 186.638 C 322.881 187.296,324.608 189.011,326.082 190.448 C 327.557 191.885,328.904 193.220,329.075 193.413 C 329.247 193.607,330.540 194.893,331.948 196.270 C 333.357 197.648,335.622 199.931,336.982 201.343 C 338.343 202.756,339.998 204.409,340.662 205.017 C 341.325 205.625,342.304 206.580,342.838 207.140 C 343.373 207.699,345.015 209.352,346.487 210.813 C 347.960 212.274,349.307 213.624,349.481 213.812 C 351.056 215.526,354.878 219.322,355.037 219.331 C 355.147 219.337,355.667 219.846,356.190 220.463 C 356.714 221.079,357.429 221.886,357.778 222.256 C 358.646 223.174,359.083 225.594,358.660 227.146 C 358.210 228.800,349.508 237.613,347.878 238.066 C 346.029 238.579,344.990 238.439,343.490 237.472 C 342.422 236.784,326.706 221.384,316.005 210.541 C 315.379 209.907,314.727 209.265,314.555 209.116 C 314.384 208.966,313.733 208.298,313.108 207.631 C 312.484 206.965,311.128 205.618,310.095 204.638 C 300.697 195.727,300.037 194.837,300.228 191.343 L 300.367 188.808 297.846 186.309 C 288.808 177.349,288.975 177.431,285.395 180.224 C 283.378 181.796,283.035 182.020,282.385 182.183 C 282.001 182.280,281.427 182.601,281.109 182.896 C 280.791 183.192,279.937 183.611,279.210 183.827 C 278.483 184.043,277.745 184.392,277.570 184.603 C 277.395 184.814,276.615 185.139,275.837 185.325 C 275.059 185.512,274.116 185.877,273.741 186.138 C 273.367 186.398,272.510 186.679,271.836 186.761 C 271.162 186.843,270.021 187.171,269.300 187.490 C 268.488 187.849,266.935 188.172,265.219 188.339 C 263.695 188.487,261.758 188.784,260.913 188.998 C 258.858 189.519,252.307 189.518,250.017 188.996 C 249.072 188.781,247.014 188.464,245.442 188.292 C 243.688 188.100,242.176 187.772,241.524 187.442 C 240.941 187.147,239.777 186.780,238.939 186.626 C 238.101 186.473,237.229 186.181,237.002 185.978 C 236.776 185.775,235.982 185.473,235.238 185.306 C 234.495 185.140,233.695 184.830,233.460 184.618 C 233.226 184.406,232.512 184.048,231.874 183.823 C 231.235 183.597,230.398 183.165,230.014 182.863 C 229.629 182.560,229.105 182.313,228.849 182.313 C 228.593 182.313,228.172 182.079,227.914 181.794 C 227.655 181.508,227.055 181.118,226.579 180.928 C 225.820 180.624,224.745 179.861,223.401 178.673 C 222.156 177.571,220.004 176.313,219.900 176.626 C 219.838 176.814,220.165 177.283,220.627 177.667 C 222.647 179.349,223.758 180.136,224.111 180.136 C 224.319 180.136,224.490 180.305,224.490 180.511 C 224.490 180.718,224.888 181.046,225.374 181.241 C 225.861 181.436,226.605 181.880,227.028 182.227 C 227.451 182.573,228.013 182.857,228.278 182.857 C 228.543 182.857,228.981 183.103,229.253 183.403 C 229.524 183.702,230.247 184.081,230.860 184.243 C 231.472 184.406,232.224 184.771,232.530 185.054 C 232.837 185.338,233.510 185.651,234.027 185.750 C 234.543 185.850,235.272 186.141,235.646 186.397 C 236.020 186.653,237.000 187.011,237.823 187.192 C 238.646 187.373,239.748 187.747,240.272 188.024 C 240.801 188.303,242.132 188.607,243.265 188.706 C 244.388 188.804,245.917 189.136,246.663 189.444 C 249.113 190.453,262.837 190.418,264.743 189.398 C 265.011 189.255,266.418 188.961,267.871 188.745 C 269.323 188.528,270.718 188.167,270.970 187.941 C 271.222 187.716,272.003 187.446,272.706 187.342 C 273.409 187.239,274.694 186.800,275.563 186.367 C 276.432 185.934,277.338 185.580,277.577 185.579 C 277.816 185.579,278.222 185.345,278.479 185.061 C 278.736 184.776,279.393 184.460,279.938 184.358 C 280.482 184.256,281.280 183.876,281.709 183.515 C 282.139 183.153,282.671 182.857,282.890 182.857 C 283.110 182.857,283.580 182.567,283.935 182.212 C 284.290 181.857,284.900 181.487,285.290 181.389 C 285.681 181.291,286.247 180.964,286.548 180.662 C 287.832 179.378,290.379 179.326,290.946 180.571 C 291.110 180.931,291.410 181.224,291.614 181.224 C 291.818 181.224,292.124 181.531,292.294 181.905 C 292.465 182.279,292.706 182.585,292.830 182.585 C 292.954 182.585,294.515 184.037,296.299 185.812 L 299.543 189.039 299.636 192.231 C 299.718 195.094,299.787 195.471,300.305 195.890 C 300.622 196.147,300.963 196.612,301.062 196.925 C 301.161 197.237,301.492 197.558,301.798 197.638 C 302.103 197.717,302.420 198.038,302.502 198.350 C 302.583 198.662,302.935 198.989,303.282 199.076 C 303.657 199.170,303.949 199.474,303.998 199.822 C 304.050 200.184,304.309 200.441,304.677 200.493 C 305.045 200.545,305.305 200.802,305.357 201.166 C 305.404 201.490,305.689 201.881,305.991 202.034 C 306.632 202.359,307.225 202.874,309.214 204.830 C 310.013 205.616,310.807 206.259,310.979 206.259 C 311.152 206.259,311.293 206.387,311.293 206.543 C 311.293 206.699,311.596 207.131,311.966 207.501 C 312.337 207.872,312.770 208.417,312.928 208.713 C 313.087 209.010,313.348 209.252,313.508 209.252 C 313.669 209.252,314.954 210.446,316.365 211.905 C 317.776 213.364,319.060 214.680,319.218 214.830 C 319.377 214.980,319.829 215.439,320.222 215.850 C 320.616 216.262,321.094 216.599,321.285 216.599 C 321.476 216.599,321.633 216.718,321.633 216.864 C 321.633 217.009,322.179 217.652,322.847 218.292 C 323.515 218.932,324.219 219.618,324.412 219.815 C 328.039 223.538,330.142 225.578,330.352 225.578 C 330.495 225.578,330.612 225.709,330.612 225.868 C 330.612 226.219,335.645 231.293,335.993 231.293 C 336.129 231.293,336.374 231.588,336.538 231.949 C 336.703 232.310,337.090 232.686,337.398 232.784 C 337.707 232.882,337.959 233.140,337.959 233.358 C 337.959 233.575,338.265 233.893,338.639 234.063 C 339.014 234.234,339.322 234.506,339.324 234.670 C 339.327 234.833,339.885 235.456,340.565 236.054 C 341.245 236.653,342.157 237.471,342.592 237.873 C 343.537 238.745,345.193 239.056,347.411 238.779 C 349.191 238.557,349.762 238.165,352.728 235.134 C 353.809 234.030,355.176 232.683,355.766 232.141 C 359.184 229.002,359.608 228.121,359.373 224.631 C 359.244 222.713,359.144 222.394,358.525 221.900 C 358.139 221.592,357.823 221.189,357.823 221.004 C 357.823 220.820,357.531 220.535,357.173 220.372 C 356.815 220.209,356.389 219.783,356.226 219.426 C 356.063 219.068,355.808 218.776,355.659 218.776 C 355.306 218.776,350.476 213.945,350.476 213.592 C 350.476 213.443,350.184 213.188,349.826 213.025 C 349.468 212.862,349.042 212.436,348.879 212.079 C 348.716 211.721,348.458 211.429,348.306 211.429 C 347.888 211.429,344.561 208.000,344.358 207.360 C 344.261 207.054,344.020 206.803,343.823 206.803 C 343.626 206.803,343.401 206.559,343.323 206.262 C 343.246 205.964,342.864 205.600,342.475 205.452 C 342.087 205.304,341.769 204.999,341.769 204.774 C 341.769 204.548,341.454 204.285,341.069 204.188 C 340.673 204.089,340.257 203.720,340.113 203.341 C 339.972 202.971,339.625 202.608,339.342 202.534 C 339.058 202.459,338.762 202.156,338.685 201.859 C 338.607 201.563,338.300 201.256,338.002 201.179 C 337.705 201.101,337.389 200.751,337.301 200.401 C 337.213 200.051,336.890 199.684,336.582 199.587 C 336.275 199.489,335.911 199.114,335.773 198.752 C 335.636 198.391,335.334 198.095,335.103 198.095 C 334.872 198.095,334.543 197.789,334.372 197.415 C 334.202 197.041,333.901 196.735,333.704 196.735 C 333.507 196.735,333.145 196.429,332.900 196.054 C 332.655 195.680,332.292 195.374,332.093 195.374 C 331.894 195.374,331.514 195.007,331.249 194.558 C 330.984 194.109,330.618 193.741,330.436 193.741 C 330.254 193.741,330.033 193.515,329.945 193.239 C 329.857 192.962,329.492 192.602,329.134 192.439 C 328.776 192.276,328.402 191.890,328.305 191.581 C 328.207 191.273,328.017 191.020,327.882 191.020 C 327.748 191.020,326.790 190.150,325.753 189.086 C 324.717 188.022,323.745 187.030,323.594 186.882 C 323.261 186.554,322.345 185.639,321.922 185.211 C 319.553 182.811,317.319 180.746,316.939 180.604 C 316.131 180.301,316.398 179.338,317.581 178.279 C 318.197 177.729,318.808 176.998,318.940 176.655 C 319.075 176.303,319.157 156.263,319.129 130.669 C 319.102 105.719,319.085 84.204,319.091 82.857 C 319.098 81.510,319.115 75.510,319.130 69.524 C 319.159 57.781,319.242 58.496,317.644 56.665 L 316.871 55.780 301.497 55.652 C 293.041 55.582,285.878 55.631,285.578 55.761 M88.643 85.817 C 88.437 86.023,87.900 86.273,87.450 86.372 C 86.937 86.485,86.307 86.974,85.764 87.679 L 84.898 88.806 84.898 126.844 C 84.898 160.543,84.945 164.863,85.306 164.724 C 85.666 164.586,85.714 160.122,85.714 126.816 C 85.714 89.410,85.719 89.059,86.259 88.571 C 86.558 88.301,86.803 87.919,86.803 87.723 C 86.803 86.835,87.835 86.781,103.199 86.860 C 120.182 86.947,119.773 86.904,120.286 88.684 C 120.475 89.341,120.541 102.435,120.488 128.707 L 120.408 167.755 121.088 168.394 L 121.769 169.032 121.848 130.026 C 121.942 83.784,122.226 87.533,118.521 86.139 L 116.670 85.442 102.844 85.442 C 91.461 85.442,88.952 85.508,88.643 85.817 M249.524 93.337 C 248.701 93.450,247.702 93.671,247.305 93.829 C 246.908 93.987,245.806 94.256,244.856 94.427 C 243.906 94.599,242.762 94.959,242.313 95.227 C 241.864 95.496,241.007 95.802,240.408 95.908 C 239.019 96.153,233.311 98.968,232.920 99.601 C 232.822 99.759,232.373 100.098,231.924 100.353 C 229.426 101.768,229.026 102.074,226.667 104.363 C 224.210 106.747,222.712 108.383,222.178 109.266 C 221.878 109.762,221.260 110.696,220.803 111.342 C 219.711 112.890,219.535 113.389,220.017 113.574 C 220.311 113.687,220.414 114.287,220.433 115.978 C 220.454 117.936,220.493 118.108,220.726 117.295 C 220.874 116.780,221.230 116.059,221.518 115.693 C 221.806 115.328,222.041 114.873,222.041 114.683 C 222.041 114.493,222.469 113.824,222.993 113.197 C 223.517 112.570,223.946 111.959,223.946 111.839 C 223.946 111.420,231.166 104.291,232.381 103.510 C 233.054 103.077,233.765 102.509,233.961 102.246 C 234.157 101.984,234.475 101.769,234.668 101.769 C 234.862 101.769,235.559 101.404,236.218 100.957 C 236.876 100.511,237.610 100.144,237.849 100.141 C 238.088 100.138,238.488 99.910,238.738 99.634 C 238.988 99.357,239.711 98.978,240.345 98.791 C 240.978 98.604,241.901 98.204,242.396 97.902 C 242.890 97.599,243.853 97.317,244.534 97.274 C 245.386 97.221,246.210 96.912,247.172 96.286 C 248.519 95.410,248.658 95.379,250.884 95.459 C 252.156 95.504,253.503 95.517,253.878 95.487 C 259.303 95.051,267.564 95.669,268.707 96.596 C 268.857 96.717,269.837 97.027,270.884 97.284 C 271.932 97.541,272.973 97.890,273.197 98.059 C 273.997 98.663,274.830 99.048,275.337 99.048 C 275.620 99.048,276.020 99.251,276.225 99.500 C 276.431 99.749,277.119 100.183,277.755 100.465 C 278.391 100.747,278.912 101.083,278.912 101.211 C 278.912 101.339,279.289 101.575,279.751 101.736 C 280.781 102.095,281.728 102.941,282.603 104.280 C 283.473 105.613,283.648 116.405,282.815 117.326 C 282.420 117.762,282.416 117.823,282.786 117.823 C 283.672 117.823,283.886 121.061,283.061 121.991 C 282.712 122.385,282.676 122.560,282.925 122.647 C 283.193 122.741,283.265 127.254,283.265 143.979 C 283.265 167.964,283.410 166.374,281.079 168.027 C 280.446 168.476,279.663 169.111,279.338 169.437 C 279.014 169.763,278.440 170.108,278.063 170.202 C 277.686 170.297,277.030 170.673,276.605 171.038 C 276.181 171.402,275.617 171.701,275.353 171.701 C 275.088 171.701,274.526 171.989,274.103 172.342 C 273.679 172.694,272.896 173.063,272.361 173.161 C 271.826 173.260,271.127 173.583,270.807 173.881 C 270.488 174.178,270.091 174.422,269.924 174.422 C 269.757 174.422,269.417 174.626,269.167 174.876 C 268.545 175.497,271.156 175.174,271.853 174.543 C 272.108 174.312,272.756 174.002,273.293 173.854 C 273.830 173.706,274.627 173.283,275.065 172.915 C 275.503 172.546,276.048 172.245,276.277 172.245 C 276.506 172.245,277.057 171.939,277.501 171.565 C 277.946 171.190,278.421 170.884,278.556 170.884 C 279.247 170.884,282.722 167.996,284.943 165.576 C 285.491 164.979,286.063 164.367,286.212 164.218 C 288.929 161.502,290.862 158.813,292.514 155.453 C 292.823 154.824,293.178 154.246,293.301 154.170 C 293.424 154.094,293.743 153.446,294.010 152.730 C 294.278 152.014,294.654 151.245,294.846 151.020 C 295.038 150.796,295.278 150.245,295.378 149.796 C 295.478 149.347,295.844 148.061,296.192 146.939 C 296.540 145.816,296.964 143.673,297.134 142.177 C 297.305 140.680,297.571 138.954,297.725 138.341 C 298.058 137.024,297.881 131.284,297.453 129.524 C 297.290 128.850,297.028 127.453,296.872 126.419 C 296.469 123.749,294.102 116.937,293.233 115.944 C 293.024 115.705,292.764 115.204,292.654 114.830 C 292.544 114.456,292.229 113.903,291.955 113.602 C 291.680 113.300,291.275 112.624,291.056 112.100 C 290.837 111.575,290.402 110.915,290.090 110.633 C 289.779 110.351,289.524 110.002,289.524 109.858 C 289.524 109.715,289.204 109.275,288.814 108.880 C 288.423 108.486,287.658 107.699,287.113 107.132 C 283.764 103.647,279.699 100.136,279.012 100.136 C 278.910 100.136,278.429 99.833,277.944 99.462 C 276.726 98.533,271.756 96.077,270.679 95.872 C 270.193 95.779,269.361 95.487,268.830 95.221 C 268.299 94.956,266.952 94.547,265.837 94.314 C 264.722 94.080,262.952 93.705,261.905 93.480 C 259.865 93.042,252.322 92.955,249.524 93.337 M282.449 127.211 C 282.449 127.617,282.566 127.851,282.721 127.755 C 282.871 127.663,282.993 127.418,282.993 127.211 C 282.993 127.004,282.871 126.759,282.721 126.667 C 282.566 126.571,282.449 126.805,282.449 127.211 M202.131 149.054 C 201.728 149.137,201.719 149.230,202.050 149.880 C 202.256 150.283,202.522 151.405,202.641 152.373 L 202.857 154.134 203.367 153.352 C 203.844 152.620,203.848 152.520,203.435 151.821 C 203.192 151.409,202.985 150.785,202.974 150.434 C 202.945 149.461,202.633 148.951,202.131 149.054 M219.328 156.553 C 219.319 156.796,221.032 159.795,221.495 160.346 C 221.649 160.530,222.148 161.165,222.603 161.757 C 223.902 163.446,228.115 167.891,228.417 167.891 C 228.566 167.891,228.938 168.133,229.242 168.428 C 231.340 170.462,233.741 171.851,233.741 171.031 C 233.741 170.808,233.404 170.452,232.993 170.239 C 232.581 170.026,232.011 169.594,231.726 169.280 C 231.441 168.965,231.046 168.707,230.848 168.707 C 230.651 168.707,230.288 168.401,230.043 168.027 C 229.798 167.653,229.363 167.347,229.078 167.347 C 228.779 167.347,228.452 167.068,228.308 166.690 C 228.171 166.329,227.806 165.953,227.499 165.855 C 227.191 165.758,226.939 165.500,226.939 165.282 C 226.939 165.064,226.646 164.753,226.289 164.590 C 225.931 164.427,225.505 164.001,225.342 163.643 C 225.179 163.286,224.856 162.993,224.625 162.993 C 224.394 162.993,224.079 162.664,223.926 162.262 C 223.773 161.859,223.409 161.362,223.116 161.158 C 222.824 160.953,222.585 160.651,222.585 160.486 C 222.585 160.322,222.272 159.778,221.890 159.277 C 221.508 158.776,221.066 157.995,220.908 157.542 C 220.686 156.905,220.540 156.785,220.264 157.013 C 219.998 157.235,219.836 157.185,219.622 156.818 C 219.465 156.548,219.333 156.428,219.328 156.553 M85.094 171.324 C 84.763 171.654,84.892 176.418,85.248 177.033 C 85.710 177.831,87.390 179.246,88.274 179.582 C 89.260 179.957,117.042 179.965,118.389 179.590 C 118.971 179.429,119.511 179.046,119.728 178.640 C 120.221 177.719,120.007 177.606,118.895 178.202 C 118.034 178.663,116.806 178.720,103.638 178.906 L 89.317 179.109 88.116 178.405 C 86.201 177.283,85.718 176.422,85.695 174.093 C 85.676 172.060,85.440 170.977,85.094 171.324 " stroke="none" fill="#96cbe3" fill-rule="evenodd"></path><path id="path4" d="M137.152 43.257 C 136.812 43.552,136.314 43.863,136.045 43.949 C 134.959 44.293,134.966 43.919,134.966 105.485 L 134.966 165.174 134.286 165.765 C 133.912 166.090,133.605 166.453,133.605 166.570 C 133.605 166.688,132.793 167.601,131.799 168.599 L 129.993 170.414 128.162 170.087 C 126.707 169.827,125.984 169.831,124.635 170.110 C 123.039 170.440,122.916 170.428,122.568 169.924 C 122.365 169.629,122.065 169.265,121.902 169.116 C 121.739 168.966,121.401 168.629,121.150 168.367 C 120.437 167.620,119.944 167.742,120.322 168.571 C 120.492 168.946,120.733 169.252,120.858 169.252 C 120.982 169.252,121.394 169.600,121.774 170.025 L 122.463 170.799 126.520 170.765 L 130.578 170.731 133.044 168.211 L 135.510 165.690 135.514 105.906 C 135.518 40.842,135.425 45.165,136.834 44.289 C 138.153 43.468,151.266 43.178,153.064 43.929 C 153.898 44.277,155.372 44.354,161.273 44.354 L 168.466 44.354 169.267 45.231 L 170.068 46.108 170.068 84.024 C 170.068 109.640,170.159 122.111,170.350 122.467 C 170.817 123.340,172.145 122.880,173.684 121.312 C 174.300 120.685,177.211 120.626,178.231 121.221 C 178.605 121.439,179.246 121.780,179.655 121.979 C 181.665 122.958,182.931 126.974,181.962 129.294 C 181.382 130.680,182.352 132.245,183.790 132.245 C 185.082 132.245,185.034 132.808,185.034 117.674 C 185.034 101.947,184.980 102.355,187.140 101.750 C 188.164 101.464,208.487 101.548,211.565 101.851 C 211.891 101.883,212.109 101.741,212.109 101.497 C 212.109 100.998,188.472 100.738,186.694 101.217 C 185.967 101.413,185.448 101.830,184.817 102.725 L 183.946 103.961 183.946 117.235 C 183.946 127.895,183.874 130.606,183.581 131.007 C 182.980 131.828,182.768 130.878,182.743 127.255 C 182.723 124.258,182.679 124.000,182.109 123.538 C 181.772 123.265,181.497 122.923,181.497 122.778 C 181.497 122.633,180.918 122.041,180.212 121.461 L 178.927 120.408 176.183 120.408 C 173.577 120.408,173.394 120.446,172.536 121.168 C 172.039 121.585,171.495 121.881,171.326 121.825 C 171.103 121.751,170.984 111.485,170.884 83.651 C 170.778 53.992,170.673 45.448,170.410 44.987 C 170.224 44.662,169.413 44.019,168.608 43.558 L 167.145 42.721 152.457 42.721 C 138.235 42.721,137.751 42.738,137.152 43.257 M347.619 46.259 C 347.020 46.548,346.424 46.788,346.295 46.793 C 345.742 46.815,343.930 49.052,343.699 49.999 C 343.562 50.561,343.291 51.413,343.098 51.894 C 342.796 52.643,342.812 52.906,343.210 53.740 C 344.219 55.856,344.564 55.404,333.740 66.172 C 328.276 71.607,323.377 76.422,322.853 76.871 C 322.329 77.320,321.827 77.963,321.737 78.299 C 321.647 78.636,321.399 78.912,321.186 78.912 C 319.978 78.912,318.912 80.733,318.912 82.796 C 318.912 86.805,318.015 87.461,332.901 72.568 L 346.143 59.320 349.384 59.320 L 352.625 59.320 354.251 57.966 C 356.234 56.316,356.155 56.442,356.509 54.356 C 357.132 50.680,355.743 47.466,353.188 46.667 C 352.819 46.552,352.275 46.290,351.980 46.086 C 351.206 45.550,348.896 45.641,347.619 46.259 M352.979 47.376 C 355.040 48.479,355.918 50.183,355.918 53.079 L 355.918 55.239 354.841 56.259 C 352.075 58.879,352.668 58.639,348.949 58.639 L 345.602 58.639 332.673 71.565 C 320.546 83.689,319.727 84.451,319.464 83.865 C 318.883 82.569,319.119 81.670,320.340 80.542 C 320.976 79.954,321.619 79.342,321.769 79.183 C 322.006 78.931,325.574 75.369,328.435 72.528 C 328.959 72.008,330.581 70.385,332.040 68.920 C 333.499 67.456,334.846 66.118,335.033 65.947 C 335.221 65.776,336.491 64.490,337.856 63.090 C 339.221 61.690,340.874 60.025,341.530 59.390 C 344.548 56.465,344.310 56.908,344.149 54.519 C 343.767 48.870,345.714 46.610,350.679 46.941 C 351.613 47.003,352.648 47.199,352.979 47.376 M348.383 49.417 C 344.856 51.544,346.038 56.314,350.095 56.325 C 353.578 56.334,354.756 51.754,351.820 49.621 C 350.355 48.557,349.858 48.527,348.383 49.417 M351.497 50.357 C 353.922 51.203,352.589 55.510,349.902 55.510 C 347.878 55.510,346.975 54.118,347.386 51.631 C 347.615 50.244,349.498 49.661,351.497 50.357 M248.980 95.426 C 248.160 95.591,245.714 97.133,245.714 97.484 C 245.714 97.622,245.320 98.283,244.838 98.955 C 243.828 100.360,243.471 103.210,244.145 104.486 C 244.446 105.057,244.436 105.290,244.076 105.982 C 243.238 107.598,221.212 129.285,220.606 129.092 C 220.072 128.923,220.062 128.736,220.166 121.286 C 220.274 113.552,220.129 112.332,219.332 114.256 C 219.148 114.700,218.838 115.124,218.642 115.200 C 218.446 115.275,218.201 115.835,218.098 116.445 C 217.995 117.055,217.691 117.708,217.423 117.896 C 217.155 118.083,216.740 119.002,216.500 119.936 C 216.261 120.871,215.889 121.911,215.674 122.247 C 215.459 122.582,215.138 123.837,214.960 125.034 C 214.782 126.231,214.439 127.578,214.197 128.027 C 213.486 129.347,213.647 141.437,214.402 143.350 C 214.699 144.104,215.022 145.373,215.120 146.170 C 215.217 146.967,215.590 148.254,215.948 149.031 C 216.306 149.807,216.599 150.573,216.599 150.732 C 216.599 150.892,216.844 151.479,217.143 152.038 C 217.442 152.596,217.687 153.177,217.687 153.329 C 217.687 153.728,219.831 157.156,220.030 157.075 C 220.121 157.037,220.176 152.312,220.152 146.574 C 220.118 138.578,220.190 135.956,220.458 135.350 C 221.209 133.654,246.475 108.801,247.432 108.816 C 247.909 108.824,249.293 108.848,250.507 108.871 C 251.721 108.894,252.939 108.787,253.212 108.634 C 253.972 108.208,254.453 108.618,262.035 116.149 L 268.980 123.046 268.980 126.217 L 268.980 129.388 270.037 130.832 C 272.250 133.855,275.209 134.649,278.272 133.042 C 280.001 132.134,281.088 131.246,281.088 130.741 C 281.088 130.565,281.395 129.845,281.769 129.142 C 282.590 127.597,282.637 126.299,281.905 125.368 C 281.140 124.396,281.212 124.040,282.449 122.688 C 283.425 121.620,283.537 121.351,283.537 120.090 C 283.537 117.452,282.894 117.158,281.032 118.943 C 279.110 120.786,278.945 120.854,277.182 120.528 C 276.327 120.370,275.393 120.316,275.106 120.407 C 273.287 120.984,271.266 120.611,270.337 119.526 C 269.522 118.573,268.000 117.035,264.432 113.557 C 263.790 112.932,262.121 111.248,260.723 109.815 C 259.325 108.383,258.071 107.211,257.938 107.211 C 257.435 107.211,256.827 105.210,257.129 104.547 C 258.127 102.358,256.689 97.998,254.606 96.893 C 254.205 96.680,253.878 96.357,253.878 96.174 C 253.878 95.603,250.587 95.101,248.980 95.426 M252.830 100.346 C 254.465 102.016,254.282 103.298,252.187 104.850 C 249.490 106.848,246.212 102.861,248.503 100.369 C 250.019 98.720,251.232 98.714,252.830 100.346 M173.361 124.633 C 171.732 126.659,172.015 128.490,174.200 130.073 C 175.405 130.946,176.842 131.145,177.464 130.526 C 177.661 130.329,178.158 129.949,178.566 129.682 C 180.031 128.724,180.061 125.838,178.622 124.335 C 177.324 122.980,174.563 123.136,173.361 124.633 M277.592 124.905 C 280.186 127.998,276.030 131.881,273.307 128.909 C 271.971 127.452,272.019 126.284,273.473 124.831 C 274.862 123.441,276.388 123.469,277.592 124.905 M178.104 125.025 C 179.493 126.414,179.373 128.414,177.859 129.097 C 175.770 130.038,174.173 129.673,173.635 128.132 C 172.564 125.060,175.853 122.773,178.104 125.025 M171.774 133.296 C 170.033 134.919,170.071 134.408,170.070 156.365 C 170.068 173.805,170.018 176.288,169.660 176.425 C 169.435 176.511,169.252 176.758,169.252 176.973 C 169.252 177.921,166.996 178.231,160.104 178.231 C 155.996 178.231,153.438 178.334,153.333 178.503 C 153.228 178.674,150.415 178.776,145.796 178.776 C 135.738 178.776,135.510 178.665,135.510 173.778 C 135.510 170.310,135.063 169.899,133.172 171.633 L 132.059 172.653 132.287 174.694 C 132.910 180.286,130.304 183.104,125.144 182.420 C 123.389 182.187,121.671 180.759,120.905 178.897 C 120.353 177.556,120.000 177.342,120.000 178.350 C 120.000 180.344,121.804 182.222,124.576 183.113 L 126.531 183.742 128.503 183.112 C 130.795 182.381,132.317 180.986,132.789 179.184 C 132.945 178.585,133.193 177.883,133.340 177.623 C 133.714 176.957,133.670 176.241,133.199 175.337 C 132.531 174.056,132.656 172.609,133.451 172.410 C 133.815 172.318,134.192 171.997,134.287 171.696 C 134.656 170.535,134.966 171.566,134.970 173.962 C 134.975 177.239,135.076 177.534,136.563 178.574 L 137.823 179.456 152.644 179.368 L 167.465 179.279 168.897 178.423 C 170.986 177.174,170.884 178.320,170.884 156.048 C 170.884 135.883,170.932 134.422,171.592 134.422 C 171.795 134.422,172.158 134.120,172.399 133.751 C 172.823 133.104,172.863 133.097,173.533 133.536 C 174.216 133.983,175.597 134.061,178.801 133.831 C 180.024 133.743,180.090 133.781,181.930 135.621 L 183.810 137.500 183.946 156.845 L 184.082 176.190 184.712 177.195 C 185.058 177.748,185.876 178.513,186.529 178.896 L 187.716 179.592 202.323 179.592 L 216.931 179.592 218.269 178.725 C 219.633 177.841,220.195 176.821,219.630 176.256 C 219.407 176.033,219.282 176.173,219.160 176.786 C 218.776 178.703,218.323 178.757,202.177 178.839 L 187.891 178.912 186.675 178.214 C 185.006 177.256,185.091 178.348,185.061 157.653 C 185.029 135.790,185.286 137.940,182.343 134.887 C 179.785 132.233,179.731 132.215,176.839 132.994 C 176.142 133.182,175.624 133.164,175.070 132.933 C 173.238 132.168,172.949 132.200,171.774 133.296 M234.053 138.592 C 233.818 138.875,233.603 160.761,233.735 170.966 C 233.739 171.272,234.124 171.616,234.757 171.881 C 235.316 172.114,236.067 172.537,236.427 172.819 C 236.786 173.102,237.250 173.333,237.457 173.333 C 237.664 173.333,238.291 173.621,238.849 173.972 C 239.407 174.323,240.537 174.768,241.361 174.961 C 242.184 175.153,243.224 175.502,243.673 175.735 C 246.078 176.985,256.869 177.776,261.099 177.014 C 262.440 176.772,264.272 176.456,265.170 176.312 C 266.068 176.168,267.384 175.785,268.095 175.461 L 269.388 174.873 269.388 156.879 C 269.388 143.246,269.309 138.805,269.061 138.558 C 268.559 138.056,234.470 138.089,234.053 138.592 M100.816 148.469 C 100.517 148.537,100.000 148.651,99.668 148.721 C 96.643 149.365,98.442 155.646,101.652 155.646 C 103.301 155.646,105.825 152.929,105.398 151.614 C 105.030 150.481,104.045 148.827,103.673 148.719 C 102.855 148.481,101.347 148.349,100.816 148.469 M199.772 148.570 C 196.694 149.298,196.472 153.580,199.434 155.091 C 200.848 155.812,201.425 155.791,202.832 154.966 C 203.470 154.593,204.090 154.378,204.211 154.490 C 204.440 154.702,204.137 153.162,203.905 152.930 C 203.832 152.857,203.560 153.078,203.301 153.422 C 201.729 155.506,197.681 153.943,198.303 151.492 C 198.743 149.754,199.500 149.125,201.156 149.120 C 202.122 149.117,202.449 149.012,202.449 148.707 C 202.449 148.255,201.343 148.198,199.772 148.570 M103.654 149.833 C 104.759 151.237,104.328 153.805,102.914 154.239 C 100.636 154.938,98.943 153.897,98.943 151.798 C 98.943 149.351,102.204 147.990,103.654 149.833 M107.759 151.753 C 107.762 152.698,107.837 152.948,108.027 152.653 C 108.373 152.118,108.373 150.826,108.027 150.612 C 107.860 150.509,107.757 150.949,107.759 151.753 M84.921 165.245 C 84.605 166.077,73.163 177.575,72.415 177.812 C 72.112 177.908,71.791 178.219,71.701 178.503 C 71.611 178.787,71.298 179.096,71.006 179.188 C 70.715 179.281,70.476 179.463,70.476 179.594 C 70.476 179.927,65.385 185.034,65.053 185.034 C 64.903 185.034,64.635 185.310,64.456 185.646 C 64.278 185.983,63.906 186.419,63.630 186.614 C 63.355 186.810,63.129 187.098,63.129 187.254 C 63.129 187.411,61.338 189.286,59.149 191.422 C 54.976 195.492,54.831 195.575,53.477 194.652 C 52.725 194.139,52.193 194.187,49.781 194.987 C 43.068 197.214,43.852 207.081,50.816 208.021 C 52.823 208.292,54.928 207.954,55.635 207.247 C 55.955 206.927,56.533 206.458,56.918 206.205 C 57.304 205.952,57.702 205.420,57.802 205.022 C 57.902 204.625,58.237 203.956,58.548 203.536 C 59.289 202.533,59.191 199.277,58.392 198.394 C 57.897 197.848,57.901 197.832,58.580 197.574 C 58.961 197.429,59.353 197.058,59.451 196.750 C 59.549 196.442,59.807 196.190,60.024 196.190 C 60.242 196.190,60.558 195.887,60.727 195.515 C 60.897 195.144,61.268 194.766,61.553 194.676 C 61.839 194.585,62.184 194.216,62.322 193.854 C 62.459 193.493,62.746 193.197,62.959 193.197 C 63.172 193.197,65.202 191.330,67.469 189.048 C 72.800 183.681,72.653 183.838,72.653 183.503 C 72.653 183.346,72.949 183.082,73.310 182.917 C 73.671 182.753,74.046 182.366,74.144 182.057 C 74.242 181.749,74.494 181.497,74.703 181.497 C 74.912 181.497,75.225 181.232,75.398 180.908 C 75.766 180.220,78.796 177.224,79.510 176.842 C 79.779 176.698,80.000 176.408,80.000 176.199 C 80.000 175.990,80.252 175.739,80.561 175.641 C 80.869 175.543,81.256 175.167,81.421 174.806 C 81.585 174.445,81.880 174.150,82.075 174.150 C 82.270 174.150,82.555 173.916,82.708 173.630 C 83.076 172.942,84.490 171.539,85.021 171.335 C 85.253 171.246,85.442 170.990,85.442 170.765 C 85.442 169.853,83.971 171.225,70.927 184.304 C 56.019 199.253,57.179 197.796,57.967 200.569 C 58.291 201.711,58.270 201.924,57.732 203.036 C 57.408 203.706,57.143 204.443,57.143 204.675 C 57.143 206.883,50.818 208.212,48.720 206.447 C 48.275 206.072,47.815 205.724,47.697 205.672 C 46.777 205.268,45.851 203.093,45.872 201.384 C 45.921 197.225,49.083 194.961,53.807 195.702 C 54.984 195.886,55.440 195.849,55.931 195.527 C 57.140 194.735,85.714 166.021,85.714 165.598 C 85.714 165.363,85.723 165.081,85.735 164.973 C 85.789 164.447,85.143 164.663,84.921 165.245 M124.561 173.487 C 122.278 174.726,122.535 178.510,124.990 179.810 C 128.072 181.442,131.077 178.263,129.659 174.870 C 128.962 173.203,126.377 172.502,124.561 173.487 M127.837 174.171 C 129.545 174.767,129.705 177.797,128.080 178.787 C 125.530 180.343,122.866 177.878,124.121 175.124 C 124.618 174.033,126.244 173.616,127.837 174.171 M50.120 198.259 C 46.778 200.262,48.306 205.109,52.188 204.822 C 56.156 204.528,57.095 199.812,53.528 198.089 C 52.073 197.386,51.532 197.413,50.120 198.259 M53.019 198.808 C 54.268 199.058,55.193 201.002,54.584 202.099 C 54.353 202.516,54.088 203.060,53.995 203.308 C 53.582 204.417,50.987 204.371,49.993 203.237 C 48.051 201.024,49.980 198.200,53.019 198.808 " stroke="none" fill="#e4b28e" fill-rule="evenodd"></path></g></svg>