<?xml version="1.0" standalone="no"?>
<!DOCTYPE svg PUBLIC "-//W3C//DTD SVG 20010904//EN"
 "http://www.w3.org/TR/2001/REC-SVG-20010904/DTD/svg10.dtd">
<svg version="1.0" xmlns="http://www.w3.org/2000/svg"
 width="176.000000pt" height="286.000000pt" viewBox="0 0 176.000000 286.000000"
 preserveAspectRatio="xMidYMid meet">

<g transform="translate(0.000000,286.000000) scale(0.100000,-0.100000)"
fill="#000000" stroke="none">
<path d="M397 2850 c-153 -39 -269 -175 -284 -332 -15 -161 87 -322 237 -375
l50 -18 0 -105 0 -106 -67 -22 c-340 -111 -441 -550 -185 -794 62 -59 154
-112 215 -123 l38 -7 -3 -115 -3 -115 -52 -20 c-75 -28 -155 -104 -195 -186
-30 -60 -33 -75 -33 -157 0 -76 4 -99 27 -147 135 -291 534 -297 675 -10 25
51 28 68 28 157 0 89 -3 106 -28 157 -47 95 -128 164 -239 201 -16 6 -18 21
-18 120 l0 114 35 6 c56 9 158 63 210 112 27 25 51 45 54 45 3 0 42 -26 85
-58 l79 -57 1 -105 c1 -92 4 -112 28 -162 69 -147 239 -237 393 -209 87 16
157 54 214 116 67 74 94 146 94 250 0 103 -27 176 -93 248 -137 150 -363 162
-520 29 l-35 -30 -86 60 -87 60 14 51 c18 66 18 158 1 224 l-14 52 76 54 c42
29 82 57 89 61 8 5 28 -6 54 -29 69 -63 118 -80 233 -80 93 0 105 2 167 33
182 89 258 316 166 496 -34 66 -112 141 -181 172 -53 24 -75 28 -147 28 -153
0 -267 -69 -332 -202 -31 -62 -33 -74 -34 -171 l-1 -105 -82 -58 -82 -59 -55
50 c-55 51 -151 103 -211 116 l-33 7 0 109 c0 87 3 109 14 109 34 0 111 43
160 90 131 124 154 329 53 476 -41 59 -116 118 -177 139 -56 20 -163 27 -213
15z m159 -199 c94 -43 133 -162 83 -251 -32 -57 -90 -90 -158 -90 -78 0 -127
32 -166 109 -39 76 4 189 87 230 53 26 100 26 154 2z m912 -522 c105 -51 132
-188 54 -281 -52 -61 -153 -77 -227 -35 -98 56 -116 207 -33 284 57 54 135 66
206 32z m-883 -463 c55 -25 110 -81 131 -132 20 -48 17 -151 -5 -199 -40 -89
-133 -149 -231 -148 -68 1 -115 20 -168 67 -139 126 -92 359 85 422 59 21 131
17 188 -10z m847 -586 c73 -21 138 -102 138 -175 0 -43 -32 -106 -68 -137 -60
-51 -133 -58 -204 -22 -106 55 -119 227 -22 300 53 41 96 50 156 34z m-850
-555 c103 -68 103 -232 0 -299 -74 -49 -151 -43 -219 17 -82 72 -84 186 -5
260 64 61 152 69 224 22z"/>
</g>
</svg>
