<svg version="1.1" id="Layer_1" xmlns="http://www.w3.org/2000/svg" xmlns:xlink="http://www.w3.org/1999/xlink" x="0px" y="0px"
	 width="100%" viewBox="0 0 999 996" enable-background="new 0 0 999 996" xml:space="preserve">
<path fill="none" opacity="1.000000" stroke="#000000" stroke-linecap="round" stroke-linejoin="round" stroke-width="12.000000"
	d="
M299.500000,583.500000 
	C299.500000,601.833313 299.497223,620.166687 299.501373,638.500000 
	C299.503021,645.845886 300.154144,646.498657 307.500000,646.498718 
	C442.000000,646.500488 576.500183,646.413574 710.999451,646.730042 
	C718.503662,646.747681 725.995361,646.241211 733.501343,646.453430 
	C740.995300,646.665405 748.500061,646.513733 756.000000,646.495972 
	C762.701355,646.480042 763.495117,645.701294 763.495483,639.000000 
	C763.501770,522.333313 763.490112,405.666656 763.526978,289.000000 
	C763.528992,282.690521 762.309509,281.471741 756.000000,281.473206 
	C606.333313,281.507721 456.666656,281.507751 307.000000,281.473206 
	C300.690552,281.471771 299.379761,282.689148 299.475677,289.000366 
	C299.582062,295.998749 299.509186,303.000031 299.493927,310.000000 
	C299.489838,311.885956 299.570251,313.709686 298.547241,315.526611 
	C296.044250,319.972260 298.092377,323.715454 301.038574,326.965027 
	C304.201080,330.453247 307.666687,333.666656 311.000000,337.000000 
	C329.833344,355.833344 348.441406,374.900360 367.614746,393.380951 
	C374.926727,400.428772 381.662903,407.999115 388.967194,415.034058 
	C396.944855,422.717529 404.609802,430.724854 412.531372,438.467926 
	C415.243744,441.119171 417.708893,443.921478 421.366302,445.765198 
	C423.757080,446.970428 424.664337,450.798340 426.957703,453.043213 
	C436.558075,462.440674 445.957367,472.043274 455.528046,481.471527 
	C458.131256,484.036072 459.883972,486.916321 460.500000,490.500000 
"/>
<path fill="none" opacity="1.000000" stroke="#000000" stroke-linecap="round" stroke-linejoin="round" stroke-width="12.000000"
	d="
M255.500000,495.500000 
	C255.500000,557.666687 255.500000,619.833313 255.500000,682.000000 
	C255.500000,690.007629 255.992355,690.500000 264.000000,690.500000 
	C291.500000,690.500000 319.000061,690.528015 346.499908,690.461365 
	C349.632690,690.453796 352.622223,690.766663 355.500000,692.000000 
"/>
<path fill="none" opacity="1.000000" stroke="#000000" stroke-linecap="round" stroke-linejoin="round" stroke-width="12.000000"
	d="
M224.000000,255.000000 
	C222.091721,258.064606 221.450897,261.367767 221.453949,265.000031 
	C221.515457,338.333344 221.520889,411.666656 221.468857,484.999969 
	C221.463440,492.633026 222.365784,493.661560 230.000427,493.523407 
	C236.331680,493.408813 242.768204,492.804230 248.969482,493.709167 
	C254.419571,494.504517 259.428925,494.234131 264.497498,492.492706 
	C267.347229,491.513611 269.636627,493.838379 272.509125,493.620331 
	C277.977631,493.205231 283.502930,493.386505 288.999298,493.527832 
	C296.390198,493.717804 303.721863,495.108246 311.089813,492.229919 
	C313.323578,491.357300 316.479553,493.631165 319.501404,493.571228 
	C329.164276,493.379425 338.842712,493.761108 348.496918,493.414490 
	C355.762390,493.153625 363.000061,492.110352 370.000000,495.000000 
	C380.108185,491.374908 390.845825,495.440399 400.992157,492.473206 
	C404.001068,491.593231 406.303864,493.643250 408.996948,494.021637 
	C410.513855,494.234802 412.142853,495.241943 413.477753,494.910431 
	C425.905853,491.824493 438.651947,495.174805 450.948059,493.179871 
	C458.396637,491.971436 465.333344,492.704254 472.500000,493.500000 
"/>
<path fill="none" opacity="1.000000" stroke="#000000" stroke-linecap="round" stroke-linejoin="round" stroke-width="11.000000"
	d="
M413.000000,495.500000 
	C414.787933,509.509521 424.256378,517.360779 435.478241,524.036560 
	C459.914948,538.573914 492.768616,528.171875 505.462616,502.981171 
	C515.023865,484.007263 512.139648,460.669922 497.064636,444.938049 
	C487.380554,434.831940 475.702972,429.338287 461.994019,428.612976 
	C449.345367,427.943756 437.987305,432.243713 428.028015,440.035828 
	C426.001038,441.621674 424.333344,443.666656 422.500000,445.500000 
"/>
<path fill="none" opacity="1.000000" stroke="#000000" stroke-linecap="round" stroke-linejoin="round" stroke-width="12.000000"
	d="
M726.500000,364.000000 
	C728.107788,361.388092 728.600464,358.552094 728.532898,355.499268 
	C728.414917,350.168549 728.527649,344.833160 728.492126,339.500061 
	C728.457764,334.345428 727.015747,332.680939 721.997070,332.022217 
	C720.850159,331.871674 719.666687,332.000000 718.500000,332.000000 
	C682.500000,332.000000 646.500000,332.023590 610.500000,331.982178 
	C602.265320,331.972717 601.001770,334.096191 601.526978,340.997955 
	C602.084717,348.328308 600.276245,355.729858 602.808716,363.066040 
	C603.585266,365.315643 601.400696,368.136017 601.428284,371.000702 
	C601.578796,386.665894 601.559143,402.333679 601.471069,417.999847 
	C601.435608,424.310272 602.700195,425.862000 608.997437,425.459778 
	C615.999878,425.012482 623.044861,426.583252 630.074219,424.220886 
	C632.417603,423.433380 635.485413,425.580872 638.500305,425.568085 
	C665.833130,425.451904 693.166687,425.502045 720.500000,425.498627 
	C727.845886,425.497711 728.496399,424.845856 728.498657,417.500000 
	C728.503174,402.833344 728.450134,388.166351 728.539856,373.500244 
	C728.559021,370.366486 728.233337,367.377777 727.000000,364.500000 
"/>
<path fill="none" opacity="1.000000" stroke="#000000" stroke-linecap="round" stroke-linejoin="round" stroke-width="11.000000"
	d="
M521.500000,332.500000 
	C463.002777,331.363403 404.499573,332.309723 345.999908,332.021484 
	C345.000732,332.016571 344.000000,332.333313 343.000000,332.500000 
"/>
<path fill="none" opacity="1.000000" stroke="#000000" stroke-linecap="round" stroke-linejoin="round" stroke-width="11.000000"
	d="
M678.000000,712.000000 
	C671.404907,719.440735 663.056885,724.286377 653.973328,727.933594 
	C651.929749,728.754150 650.514587,729.875916 648.856323,731.336975 
	C642.202759,737.199890 634.739380,742.030945 626.492920,745.483032 
	C623.941589,746.551025 621.213989,747.059570 618.944153,748.932312 
	C617.196655,750.373962 614.833984,750.530334 612.500000,750.528625 
	C562.166687,750.491028 511.830994,750.756775 461.501892,750.293579 
	C450.822205,750.195312 440.179810,751.018372 429.496307,750.593018 
	C418.846527,750.168945 408.055511,751.439148 397.536194,750.194275 
	C389.538971,749.247864 381.359772,750.598083 373.357208,746.263611 
	C357.549072,737.701355 349.337067,717.821533 354.507324,701.002258 
	C354.615326,700.650940 354.831146,700.332214 355.000366,700.000183 
	C356.361176,697.330017 354.581940,694.149780 356.930969,691.440125 
	C363.519226,683.840576 370.788666,677.296082 380.511597,674.034546 
	C381.760315,673.615601 383.363922,673.156616 384.467682,673.583557 
	C391.107269,676.151978 397.374878,671.954468 404.022888,672.825317 
	C410.249359,673.640991 416.666656,673.000000 423.000000,673.000000 
	C429.500000,673.000000 436.000031,672.987976 442.500000,673.004700 
	C446.066376,673.013916 449.679565,672.578552 453.027588,674.450684 
	C453.668701,674.809204 454.387207,675.207886 455.548981,674.592468 
	C460.254028,672.099915 465.467712,673.027710 470.500031,673.023438 
	C517.166687,672.983765 563.833313,673.015381 610.500000,672.973267 
	C614.603394,672.969543 617.917175,674.588318 621.631958,676.194885 
	C627.639832,678.793152 633.534485,681.378174 639.019287,684.970520 
	C643.127991,687.661743 647.349792,690.172791 651.000000,693.500000 
"/>
<path fill="none" opacity="1.000000" stroke="#000000" stroke-linecap="round" stroke-linejoin="round" stroke-width="11.000000"
	d="
M534.000000,425.250000 
	C540.770325,435.355835 545.953064,446.112701 549.149963,457.959534 
	C551.102234,465.194275 549.323608,465.654266 559.000122,465.508942 
	C562.666016,465.453888 566.333496,465.521545 569.999939,465.494019 
	C573.721985,465.466064 575.524780,467.278046 575.507019,471.000031 
	C575.480042,476.666565 575.468262,482.333588 575.511230,487.999908 
	C575.539734,491.754639 573.754639,493.544800 569.999878,493.510681 
	C565.166992,493.466736 560.333313,493.506805 555.500000,493.497009 
	C553.220093,493.492371 551.121826,493.682648 550.490906,496.497955 
	C547.605347,509.375000 542.435303,521.306030 535.506653,532.504089 
	C535.233276,532.945984 535.057495,533.448242 534.800293,533.999390 
	C539.254150,540.641602 546.279358,544.821777 550.575928,551.450806 
	C550.822449,551.831116 552.166687,551.500000 553.000000,551.500000 
"/>
<path fill="none" opacity="1.000000" stroke="#000000" stroke-linecap="round" stroke-linejoin="round" stroke-width="11.000000"
	d="
M369.500000,552.000000 
	C373.717438,558.391724 379.802979,563.033875 385.076172,568.425476 
	C386.881958,570.271790 389.533783,569.868164 391.483551,567.982971 
	C395.041412,564.542847 398.625610,561.114685 401.959259,557.462830 
	C404.501465,554.677979 406.846313,554.451965 410.029694,556.452759 
	C419.448792,562.372925 429.286346,567.296997 440.486755,569.083008 
	C444.274933,569.687012 446.438232,572.138306 446.070740,576.505981 
	C445.736511,580.477844 445.908264,584.502625 446.022827,588.499329 
	C446.172272,593.713257 447.898529,595.414917 453.000183,595.486206 
	C457.665924,595.551453 462.334076,595.551453 466.999817,595.486206 
	C472.101471,595.414917 473.831299,593.713318 473.976562,588.499329 
	C474.092529,584.335876 474.148254,580.159790 473.954285,576.002136 
	C473.791809,572.519958 475.061279,570.188599 478.505463,569.528503 
	C490.286713,567.270569 500.949249,562.378967 510.995667,555.993164 
	C513.493530,554.405457 515.510193,554.856079 517.526245,556.975037 
	C521.099426,560.730591 524.779968,564.389038 528.522156,567.976868 
	C530.443848,569.819275 533.017883,570.429810 534.938171,568.440308 
	C540.176880,563.012634 546.282532,558.391724 550.500000,552.000000 
"/>
<path fill="none" opacity="1.000000" stroke="#000000" stroke-linecap="round" stroke-linejoin="round" stroke-width="11.000000"
	d="
M532.000000,389.500000 
	C528.533936,390.682800 526.529968,393.666992 524.003235,396.003510 
	C520.882751,398.888977 518.285583,402.358429 514.276550,404.619659 
	C506.450562,401.295013 499.477539,395.807068 491.004974,393.481873 
	C487.142365,392.421814 483.386902,390.922058 479.485138,390.067841 
	C475.476562,389.190308 473.847260,386.979767 473.971100,382.999115 
	C474.100616,378.836487 474.092133,374.664093 473.976685,370.500641 
	C473.833069,365.320953 472.067932,363.584229 466.999817,363.513794 
	C462.334045,363.448914 457.665955,363.448914 453.000183,363.513794 
	C447.932068,363.584259 446.163452,365.320923 446.023926,370.500641 
	C445.907257,374.830841 445.926086,379.168335 446.023834,383.499451 
	C446.099304,386.842346 444.621948,389.322601 441.485474,389.924316 
	C430.059448,392.116364 419.625061,396.540802 409.983368,402.975098 
	C409.445190,403.334229 408.644440,403.274567 408.006012,403.515869 
	C407.312286,403.778046 406.665497,404.164246 405.668213,404.660614 
	C399.121338,399.958557 393.901123,393.607849 388.000000,388.000000 
"/>
<path fill="none" opacity="1.000000" stroke="#000000" stroke-linecap="round" stroke-linejoin="round" stroke-width="10.000000"
	d="
M408.500000,873.500000 
	C408.755188,882.498352 407.940460,891.516418 408.995087,900.500549 
	C409.033661,900.829346 409.052124,901.176453 408.991760,901.498474 
	C408.441986,904.431519 408.302979,908.313599 405.419617,909.253418 
	C402.436859,910.225708 400.508209,906.872925 399.040710,904.475098 
	C394.594788,897.210693 390.108521,889.952271 386.128906,882.431763 
	C384.835785,879.988037 383.157104,877.983154 381.405762,876.087036 
	C379.774567,874.320923 377.632935,874.111389 376.213135,876.981750 
	C374.770264,879.898621 374.745544,882.975220 375.054108,885.994446 
	C375.922668,894.493530 375.267303,903.001282 375.500000,911.500000 
"/>
<path fill="none" opacity="1.000000" stroke="#000000" stroke-linecap="round" stroke-linejoin="round" stroke-width="10.000000"
	d="
M694.500000,873.500000 
	C694.803162,882.664185 694.066895,891.833374 694.891785,901.009705 
	C695.169128,904.094666 694.460022,908.160217 691.409485,909.245667 
	C688.484253,910.286560 686.496521,906.878296 685.043152,904.473938 
	C680.755554,897.380310 676.547302,890.232117 672.564087,882.964844 
	C671.149902,880.384766 669.443054,878.066284 667.428284,876.072449 
	C665.702026,874.364014 663.586670,874.086365 662.223511,876.987549 
	C661.086731,879.406799 660.749268,881.913879 661.016785,884.498291 
	C661.947571,893.487793 661.302734,902.500549 661.500000,911.500000 
"/>
<path fill="none" opacity="1.000000" stroke="#000000" stroke-linecap="round" stroke-linejoin="round" stroke-width="12.000000"
	d="
M277.000000,358.000000 
	C275.091736,361.064606 274.436249,364.366791 274.451508,368.000214 
	C274.547302,390.833130 274.497650,413.666656 274.501373,436.500000 
	C274.502563,443.845856 275.160065,444.674622 282.498047,444.439453 
	C288.009430,444.262848 293.524872,445.229706 299.085236,443.237976 
	C301.384705,442.414307 304.482941,444.601166 307.500732,444.570251 
	C322.499146,444.416382 337.500763,444.418945 352.499451,444.558197 
	C356.151001,444.592072 359.211212,442.719727 362.533081,442.219788 
	C365.469727,441.777832 367.883057,445.852417 371.500000,444.750000 
"/>
<path fill="none" opacity="1.000000" stroke="#000000" stroke-linecap="round" stroke-linejoin="round" stroke-width="9.000000"
	d="
M502.500000,873.500000 
	C496.616821,871.922180 490.777344,870.942505 484.993347,873.987366 
	C476.273834,878.577454 473.314087,886.193726 474.338531,896.516052 
	C475.725616,910.492371 487.411102,915.150757 498.504974,912.017578 
	C501.619293,911.137939 503.613190,909.654663 503.037811,905.994080 
	C502.807739,904.530212 503.000000,903.000000 503.000000,901.500000 
	C503.000000,894.450500 502.599365,894.049377 495.500000,894.000854 
	C494.666687,893.995178 493.833344,894.000000 493.000000,894.000000 
"/>
<path fill="none" opacity="1.000000" stroke="#000000" stroke-linecap="round" stroke-linejoin="round" stroke-width="12.000000"
	d="
M719.500000,648.500000 
	C719.500000,660.166687 719.524353,671.833374 719.489746,683.500000 
	C719.472229,689.418945 718.418945,690.475952 712.500000,690.489624 
	C698.500061,690.521851 684.500000,690.509583 670.500000,690.490234 
	C668.270752,690.487122 665.990540,690.323303 664.014771,691.524292 
	C661.176880,693.249268 658.314392,693.944031 654.988403,693.042908 
	C650.866272,691.925964 649.316101,695.281250 649.151489,698.009155 
	C648.537170,708.189087 646.784912,718.491455 650.500000,728.500000 
"/>
<path fill="none" opacity="1.000000" stroke="#000000" stroke-linecap="round" stroke-linejoin="round" stroke-width="12.000000"
	d="
M726.000000,364.000000 
	C724.166687,363.833344 722.333496,363.523529 720.500000,363.521454 
	C693.166687,363.490387 665.822449,363.050629 638.505066,363.710754 
	C626.807983,363.993408 615.166687,362.643311 603.500000,363.500000 
"/>
<path fill="none" opacity="1.000000" stroke="#000000" stroke-linecap="round" stroke-linejoin="round" stroke-width="12.000000"
	d="
M699.000000,460.000000 
	C698.127319,481.327820 698.717407,502.667175 698.477295,523.999756 
	C698.416199,529.431824 699.454956,535.043640 696.039001,540.026733 
	C695.062927,541.450684 696.251770,543.091858 696.597046,544.475769 
	C698.844116,553.480896 699.623779,562.403992 697.028442,571.508118 
	C690.273926,595.202759 659.660461,603.633423 641.991577,586.508728 
	C641.733521,586.258606 641.348145,586.139893 640.833069,585.855286 
	C632.191284,593.163940 624.468018,601.471252 616.585022,609.582642 
	C613.618835,612.634827 610.566101,613.644531 606.498718,613.566162 
	C596.169250,613.367004 585.833313,613.500000 575.500000,613.500000 
"/>
<path fill="none" opacity="1.000000" stroke="#000000" stroke-linecap="round" stroke-linejoin="round" stroke-width="11.000000"
	d="
M539.000000,794.000000 
	C539.311218,803.330750 538.655151,812.660278 539.410828,822.007202 
	C540.063843,830.084351 549.098999,833.915710 554.962769,832.803772 
	C564.097290,831.071716 568.186584,828.105774 568.021851,816.999695 
	C567.908142,809.334656 568.000000,801.666687 568.000000,794.000000 
"/>
<path fill="none" opacity="1.000000" stroke="#000000" stroke-linecap="round" stroke-linejoin="round" stroke-width="10.000000"
	d="
M308.500000,911.500000 
	C308.500000,902.166687 308.500000,892.833313 308.500000,883.500000 
	C308.500000,882.500000 308.696960,881.450439 308.460327,880.509949 
	C307.912170,878.331055 307.953278,875.540771 304.991180,875.053528 
	C302.512848,874.645813 301.465424,876.779663 300.530975,878.516663 
	C296.468414,886.068115 295.005035,894.558838 292.069153,902.525513 
	C290.963257,905.526367 289.759277,908.228394 287.039124,910.163696 
	C281.310577,906.376587 281.783813,899.754211 279.580780,894.466370 
	C277.845245,890.300598 276.728638,885.861877 275.535461,881.490295 
	C274.687805,878.384827 273.291412,874.761963 270.041962,875.268982 
	C266.215729,875.866028 265.803925,880.218933 266.092468,883.491821 
	C266.915955,892.831909 266.226044,902.168579 266.500000,911.500000 
"/>
<path fill="none" opacity="1.000000" stroke="#000000" stroke-linecap="round" stroke-linejoin="round" stroke-width="10.000000"
	d="
M602.500000,911.500000 
	C602.666687,902.166687 602.799744,892.832520 603.023987,883.500549 
	C603.079041,881.208435 602.773499,879.050720 601.750671,876.999634 
	C600.484375,874.460083 598.323608,874.204895 596.515137,876.511841 
	C593.176086,880.771484 592.260925,886.069153 590.507446,891.002686 
	C588.971863,895.323303 587.330444,899.617859 586.063721,904.018311 
	C585.307678,906.644714 584.091125,908.559387 581.356934,909.649353 
	C578.625244,907.805420 577.459412,904.955872 576.509338,901.997009 
	C574.478821,895.673462 572.491089,889.336060 570.518555,882.994202 
	C570.376770,882.538330 570.710022,881.833618 570.466675,881.526367 
	C568.556946,879.115295 568.129883,874.248291 564.062561,875.253174 
	C561.051453,875.997192 560.950500,879.944336 561.002197,882.999939 
	C561.162964,892.500061 561.333374,902.000000 561.500000,911.500000 
"/>
<path fill="none" opacity="1.000000" stroke="#000000" stroke-linecap="round" stroke-linejoin="round" stroke-width="10.000000"
	d="
M616.500000,792.500000 
	C614.358582,792.994934 612.225708,793.863098 610.002991,792.992371 
	C601.205383,789.546082 590.380920,794.277710 588.153076,807.026733 
	C587.305359,811.878113 587.455200,817.102234 589.019409,821.993774 
	C591.493591,829.731323 599.587952,834.247986 607.981934,832.417175 
	C610.401123,831.889465 613.784607,832.644165 614.750000,829.000000 
"/>
<path fill="none" opacity="1.000000" stroke="#000000" stroke-linecap="round" stroke-linejoin="round" stroke-width="12.000000"
	d="
M454.500000,675.500000 
	C454.500000,699.833313 454.500000,724.166687 454.500000,748.500000 
"/>
<path fill="none" opacity="1.000000" stroke="#000000" stroke-linecap="round" stroke-linejoin="round" stroke-width="12.000000"
	d="
M389.500000,675.500000 
	C389.500000,697.666687 389.513855,719.833313 389.478210,741.999939 
	C389.474731,744.166931 389.166656,746.333313 389.000000,748.500000 
"/>
<path fill="none" opacity="1.000000" stroke="#000000" stroke-linecap="round" stroke-linejoin="round" stroke-width="11.000000"
	d="
M220.750000,244.500000 
	C222.012756,249.400269 222.694580,254.622711 228.986893,256.057495 
	C231.390457,256.605560 232.814178,258.828796 234.493652,260.506348 
	C252.337204,278.329437 270.169312,296.164032 287.997009,314.002991 
	C290.526398,316.533997 292.991730,319.148224 297.000000,319.000000 
"/>
<path fill="none" opacity="1.000000" stroke="#000000" stroke-linecap="round" stroke-linejoin="round" stroke-width="11.000000"
	d="
M622.000000,677.500000 
	C620.378296,680.993042 619.913635,684.637207 619.945496,688.500427 
	C620.076050,704.332703 620.045471,720.166931 619.966064,735.999817 
	C619.947693,739.675232 620.212708,743.213440 622.000000,746.500000 
"/>
<path fill="none" opacity="1.000000" stroke="#000000" stroke-linecap="round" stroke-linejoin="round" stroke-width="12.000000"
	d="
M698.500000,484.500000 
	C665.666687,484.500000 632.833313,484.500000 600.000000,484.500000 
"/>
<path fill="none" opacity="1.000000" stroke="#000000" stroke-linecap="round" stroke-linejoin="round" stroke-width="11.000000"
	d="
M274.500000,346.500000 
	C274.107819,349.735291 275.247101,352.637878 276.522888,355.489777 
	C276.856415,356.235291 276.581116,357.294525 277.991974,357.545166 
	C284.374054,358.679077 287.794312,363.927307 291.961517,368.039001 
	C295.802307,371.828552 299.355927,375.635071 301.875580,380.817383 
	C303.817902,384.812134 310.048401,385.563354 313.630402,389.377533 
	C324.435852,400.883392 335.833313,411.833374 347.000000,423.000000 
	C350.833313,426.833344 354.672302,430.661072 358.497742,434.502228 
	C360.563171,436.576111 362.135559,438.892303 362.000000,442.000000 
"/>
<path fill="none" opacity="1.000000" stroke="#000000" stroke-linecap="round" stroke-linejoin="round" stroke-width="11.000000"
	d="
M695.000000,540.500000 
	C691.373840,539.691284 688.650146,537.382080 686.007751,534.991455 
	C674.308044,524.406616 653.757324,525.011963 642.503662,535.503906 
	C641.642212,536.307129 640.947449,537.713318 639.982178,537.914673 
	C631.176758,539.751892 631.184570,547.249451 630.680298,553.514526 
	C629.780151,564.696777 630.644104,575.761108 640.000000,584.000000 
"/>
<path fill="none" opacity="1.000000" stroke="#000000" stroke-linecap="round" stroke-linejoin="round" stroke-width="12.000000"
	d="
M302.000000,383.000000 
	C300.091736,386.064606 299.425934,389.366089 299.450714,393.000336 
	C299.563232,409.499573 299.500000,426.000000 299.500000,442.500000 
"/>
<path fill="none" opacity="1.000000" stroke="#000000" stroke-linecap="round" stroke-linejoin="round" stroke-width="12.000000"
	d="
M630.500000,365.500000 
	C630.500000,384.833344 630.500000,404.166656 630.500000,423.500000 
"/>
<path fill="none" opacity="1.000000" stroke="#000000" stroke-linecap="round" stroke-linejoin="round" stroke-width="9.000000"
	d="
M359.500000,912.250000 
	C358.772247,911.554321 357.886047,911.434143 357.354187,910.056274 
	C354.688416,903.150330 352.308929,896.184326 350.449829,889.013000 
	C349.394196,884.941040 347.923462,880.966614 346.458893,877.015259 
	C345.807404,875.257568 345.127045,873.534302 342.505371,873.397156 
	C339.851105,873.258301 338.290436,874.201416 337.522766,876.507568 
	C335.208282,883.460388 332.889465,890.404236 330.865814,897.461548 
	C329.157379,903.419434 328.403290,910.218262 322.000000,913.750000 
"/>
<path fill="none" opacity="1.000000" stroke="#000000" stroke-linecap="round" stroke-linejoin="round" stroke-width="9.000000"
	d="
M462.000000,913.750000 
	C458.907593,912.288513 457.778412,909.627930 456.295013,906.600464 
	C452.044800,897.925964 451.459473,888.201355 447.652039,879.433960 
	C446.736023,877.324646 445.810150,875.168213 444.384216,873.605652 
	C442.838135,871.911377 438.450226,874.036438 437.557495,877.017212 
	C435.377350,884.296692 432.774384,891.423157 431.002655,898.881836 
	C429.978394,903.193909 428.781403,908.862488 424.500000,912.250000 
"/>
<path fill="none" opacity="1.000000" stroke="#000000" stroke-linecap="round" stroke-linejoin="round" stroke-width="12.000000"
	d="
M630.500000,459.000000 
	C630.500000,482.833344 630.530090,506.666748 630.468506,530.499939 
	C630.458923,534.204285 631.100952,537.586365 633.500000,540.500000 
"/>
<path fill="none" opacity="1.000000" stroke="#000000" stroke-linecap="round" stroke-linejoin="round" stroke-width="11.000000"
	d="
M352.500000,815.000000 
	C357.330292,814.622681 362.336029,816.036194 366.984009,813.964172 
	C372.456360,811.524597 374.784912,806.462891 373.500000,800.500000 
	C372.500092,795.859863 368.357574,793.035400 362.500000,793.000000 
	C351.000000,792.930542 351.000000,792.930542 351.000000,804.500000 
	C351.000000,813.333313 351.000000,822.166687 351.000000,831.000000 
"/>
<path fill="none" opacity="1.000000" stroke="#000000" stroke-linecap="round" stroke-linejoin="round" stroke-width="11.000000"
	d="
M407.000000,814.500000 
	C408.833344,813.000000 410.654083,811.484253 412.502686,810.003357 
	C415.994385,807.206238 415.996796,803.248230 415.381439,799.519592 
	C414.830627,796.182007 409.996979,793.252563 406.000000,793.000061 
	C393.372772,792.202271 393.000000,792.546265 393.000000,805.000000 
	C393.000000,813.666687 393.000000,822.333313 393.000000,831.000000 
"/>
<path fill="none" opacity="1.000000" stroke="#000000" stroke-linecap="round" stroke-linejoin="round" stroke-width="12.000000"
	d="
M299.500000,495.500000 
	C299.416656,510.000000 299.333344,524.500000 299.250000,539.000000 
"/>
<path fill="none" opacity="1.000000" stroke="#000000" stroke-linecap="round" stroke-linejoin="round" stroke-width="11.000000"
	d="
M370.500000,495.500000 
	C370.764893,506.117249 375.074127,515.411743 380.005463,524.497009 
	C381.712952,527.642822 384.028168,530.467651 385.058655,534.209717 
	C380.745880,540.641602 373.720673,544.821777 369.424042,551.450745 
	C369.177490,551.831116 367.833344,551.500000 367.000000,551.500000 
"/>
<path fill="none" opacity="1.000000" stroke="#000000" stroke-linecap="round" stroke-linejoin="round" stroke-width="10.000000"
	d="
M640.500000,795.500000 
	C640.500000,807.500000 640.500000,819.500000 640.500000,831.500000 
"/>
<path fill="none" opacity="1.000000" stroke="#000000" stroke-linecap="round" stroke-linejoin="round" stroke-width="10.000000"
	d="
M724.500000,875.500000 
	C724.500000,887.500000 724.500000,899.500000 724.500000,911.500000 
"/>
<path fill="none" opacity="1.000000" stroke="#000000" stroke-linecap="round" stroke-linejoin="round" stroke-width="10.000000"
	d="
M543.000000,873.000000 
	C536.998474,873.394958 530.874573,872.026794 524.551086,874.221924 
	C524.633423,879.500000 523.567688,884.896423 525.175476,889.944092 
	C526.113403,892.888916 523.845642,894.840820 524.388184,897.522644 
	C524.906555,900.084412 524.478516,902.833496 524.504578,905.499939 
	C524.555115,910.670837 525.644287,911.820679 531.000671,911.976990 
	C534.997253,912.093567 539.000000,912.000000 543.000000,912.000000 
"/>
<path fill="none" opacity="1.000000" stroke="#000000" stroke-linecap="round" stroke-linejoin="round" stroke-width="9.000000"
	d="
M643.000000,873.000000 
	C638.833313,873.000000 634.666687,872.995117 630.500000,873.001404 
	C626.512451,873.007385 624.427307,874.906433 624.494385,879.000122 
	C624.564392,883.265869 625.908569,887.564331 625.997498,891.511353 
	C626.084656,895.377380 624.343018,899.735046 624.536133,903.998352 
	C624.871704,911.407349 625.589050,911.991333 633.000000,911.999329 
	C636.333313,912.002991 639.666687,912.000000 643.000000,912.000000 
"/>
<path fill="none" opacity="1.000000" stroke="#000000" stroke-linecap="round" stroke-linejoin="round" stroke-width="12.000000"
	d="
M699.500000,484.000000 
	C709.000000,484.697418 718.500000,484.915070 728.000000,484.000000 
"/>
<path fill="none" opacity="1.000000" stroke="#000000" stroke-linecap="round" stroke-linejoin="round" stroke-width="9.000000"
	d="
M394.500000,814.000000 
	C403.111725,812.471130 408.765625,815.377991 412.204010,823.917847 
	C414.300842,829.125610 418.095032,833.876892 424.500000,835.000000 
"/>
<path fill="none" opacity="1.000000" stroke="#000000" stroke-linecap="round" stroke-linejoin="round" stroke-width="11.000000"
	d="
M660.000000,694.500000 
	C661.642029,699.857971 666.390015,702.288696 670.618408,704.800659 
	C672.523621,705.932495 675.105774,707.173035 675.768860,708.606873 
	C677.488831,712.326111 680.279907,711.402527 683.000000,711.500000 
"/>
<path fill="none" opacity="1.000000" stroke="#000000" stroke-linecap="round" stroke-linejoin="round" stroke-width="11.000000"
	d="
M664.000000,562.000000 
	C656.666687,569.333313 649.333313,576.666687 642.000000,584.000000 
"/>
<path fill="none" opacity="1.000000" stroke="#000000" stroke-linecap="round" stroke-linejoin="round" stroke-width="9.000000"
	d="
M332.000000,899.500000 
	C338.666656,901.779602 345.333344,901.779602 352.000000,899.500000 
"/>
<path fill="none" opacity="1.000000" stroke="#000000" stroke-linecap="round" stroke-linejoin="round" stroke-width="9.000000"
	d="
M432.000000,899.500000 
	C438.666656,901.779602 445.333344,901.779602 452.000000,899.500000 
"/>
<path fill="none" opacity="1.000000" stroke="#000000" stroke-linecap="round" stroke-linejoin="round" stroke-width="11.000000"
	d="
M532.000000,388.000000 
	C537.653748,394.661346 545.083374,399.636475 550.014771,406.990082 
	C550.762512,408.105042 552.013062,407.254944 553.000000,407.500000 
"/>
<path fill="none" opacity="1.000000" stroke="#000000" stroke-linecap="round" stroke-linejoin="round" stroke-width="9.000000"
	d="
M654.000000,793.000000 
	C649.801880,793.237976 645.433411,792.153503 641.508606,794.514343 
	C640.287720,795.248779 639.408142,794.341675 638.517822,793.958618 
	C634.762390,792.342957 630.840881,793.246277 627.000000,793.000000 
"/>
<path fill="none" opacity="1.000000" stroke="#000000" stroke-linecap="round" stroke-linejoin="round" stroke-width="9.000000"
	d="
M738.000000,873.000000 
	C733.801880,873.237976 729.433472,872.153564 725.508667,874.514465 
	C724.287720,875.248779 723.408081,874.341736 722.517761,873.958740 
	C718.762390,872.343018 714.840881,873.246277 711.000000,873.000000 
"/>
<path fill="none" opacity="1.000000" stroke="#000000" stroke-linecap="round" stroke-linejoin="round" stroke-width="11.000000"
	d="
M494.500000,793.000000 
	C490.962036,793.471497 489.781586,795.314209 489.900421,799.003235 
	C490.200806,808.326843 490.070160,817.667603 489.951874,826.999390 
	C489.921417,829.403992 490.479645,830.758728 492.981171,831.558899 
	C501.520874,834.290405 514.673706,829.950317 517.360901,822.450195 
	C520.897400,812.579590 520.086365,800.389709 510.042206,794.922485 
	C505.126160,792.246521 500.041901,793.352417 495.000000,793.000000 
"/>
<path fill="none" opacity="1.000000" stroke="#000000" stroke-linecap="round" stroke-linejoin="round" stroke-width="10.000000"
	d="
M449.500000,792.000000 
	C442.903320,793.372009 437.866516,796.892517 436.089600,803.523987 
	C433.922302,811.612610 433.907135,819.973816 439.135773,826.897461 
	C443.773102,833.038147 450.881531,833.846680 457.979004,831.922607 
	C464.381683,830.186951 467.695190,825.677002 469.170227,819.037842 
	C470.411469,813.450745 469.990479,808.198547 468.420044,803.024292 
	C466.034821,795.165527 460.369751,792.000000 450.000000,792.000000 
"/>
</svg>