<svg version="1.1" id="Layer_1" xmlns="http://www.w3.org/2000/svg" xmlns:xlink="http://www.w3.org/1999/xlink" x="0px" y="0px"
	 width="100%" viewBox="0 0 225 225" enable-background="new 0 0 225 225" xml:space="preserve">
<path fill="#0995FD" opacity="1.000000" stroke="none" 
	d="
M1.000000,119.000000 
	C1.000000,119.000000 1.000000,118.500000 1.342219,118.232208 
	C10.992572,107.938644 20.300707,97.912865 29.928024,88.097015 
	C37.049335,90.903702 43.851460,93.500458 50.913918,96.361267 
	C67.272606,102.811012 83.443161,108.818321 99.426910,115.287209 
	C104.459000,117.323784 108.912971,117.592888 114.141823,115.998207 
	C137.584732,108.848671 161.146271,102.088036 185.072479,95.117905 
	C192.804749,92.940407 200.129532,90.832054 207.742584,88.890884 
	C214.020584,100.372032 220.010284,111.686020 226.000000,123.000000 
	C226.000000,123.000000 226.000000,123.500000 225.613663,123.671463 
	C219.793472,125.709702 214.359634,127.576477 208.678207,129.539459 
	C208.283981,129.734909 208.137344,129.834152 207.604233,129.951416 
	C203.470215,131.311020 199.722672,132.652618 195.713593,134.007965 
	C195.286926,134.078903 195.121765,134.136063 194.669220,134.169464 
	C193.892868,134.395889 193.403900,134.646088 192.531708,134.929688 
	C174.772522,140.811996 157.361603,146.560638 140.051956,152.599655 
	C136.830399,153.723602 135.029114,153.251266 133.000122,150.586624 
	C129.903549,146.519943 126.357689,142.795380 122.896912,138.609909 
	C117.451874,131.970352 112.112511,125.646431 106.497307,118.995811 
	C101.227303,126.172234 96.158142,133.075165 90.825150,140.193542 
	C87.169479,144.913269 83.777649,149.417511 80.283333,154.057861 
	C67.827354,148.602921 55.536736,143.220398 43.073135,137.597900 
	C42.326511,137.255920 41.752876,137.153946 40.902061,136.824982 
	C36.407387,134.759628 32.189896,132.921295 27.782055,130.972900 
	C27.591709,130.862823 27.167402,130.746567 26.926748,130.497330 
	C18.124063,126.498726 9.562031,122.749367 1.000000,119.000000 
z"/>
<path fill="#FDFEFE" opacity="1.000000" stroke="none" 
	d="
M29.608841,87.887085 
	C20.300707,97.912865 10.992572,107.938644 1.342219,117.982208 
	C1.000000,79.079140 1.000000,40.158276 1.000000,1.000000 
	C33.687180,1.000000 66.374931,1.000000 99.436142,1.341716 
	C95.016144,4.084878 95.583069,8.812403 95.034027,12.972608 
	C94.400635,17.771997 92.617622,18.908173 88.103813,17.009493 
	C86.881042,16.495152 85.686272,15.914482 84.465912,15.394140 
	C78.558525,12.875307 75.938896,13.739498 72.550720,19.407106 
	C69.911324,23.822191 67.336502,28.275862 64.729752,32.710484 
	C60.434196,40.018124 60.688309,42.567757 67.694664,47.029377 
	C74.088684,51.101059 73.710327,53.915581 67.684723,57.712593 
	C60.860477,62.012871 60.445213,64.823814 64.444077,71.633530 
	C65.232101,72.975487 65.950409,74.358383 66.882439,76.052414 
	C62.095192,77.455597 57.786873,78.618553 53.543583,79.983627 
	C45.545551,82.556610 37.584980,85.246048 29.608841,87.887085 
z"/>
<path fill="#FDFEFE" opacity="1.000000" stroke="none" 
	d="
M226.000000,122.531342 
	C220.010284,111.686020 214.020584,100.372032 207.551346,88.583664 
	C201.478180,86.057487 195.920486,83.900291 190.282776,81.977707 
	C180.969955,78.801834 171.605499,75.777390 162.188675,72.664619 
	C166.145523,64.730629 166.082932,62.135403 160.868790,58.832066 
	C151.903763,53.152409 152.807770,50.571945 161.008774,45.867268 
	C164.992096,43.582153 166.333038,39.884430 163.938507,35.629982 
	C160.515289,29.547825 156.983444,23.519806 153.280746,17.604652 
	C151.190521,14.265498 148.074570,13.078510 144.230331,14.728186 
	C142.552063,15.448378 140.878830,16.180317 139.201157,16.901873 
	C134.389450,18.971357 132.475952,17.914772 131.992599,12.802889 
	C131.569244,8.325326 131.134583,3.890807 127.000000,1.000000 
	C159.934555,1.000000 192.869095,1.000000 226.000000,1.000000 
	C226.000000,41.354015 226.000000,81.708351 226.000000,122.531342 
z"/>
<path fill="#404E6D" opacity="1.000000" stroke="none" 
	d="
M126.531342,1.000000 
	C131.134583,3.890807 131.569244,8.325326 131.992599,12.802889 
	C132.475952,17.914772 134.389450,18.971357 139.201157,16.901873 
	C140.878830,16.180317 142.552063,15.448378 144.230331,14.728186 
	C148.074570,13.078510 151.190521,14.265498 153.280746,17.604652 
	C156.983444,23.519806 160.515289,29.547825 163.938507,35.629982 
	C166.333038,39.884430 164.992096,43.582153 161.008774,45.867268 
	C152.807770,50.571945 151.903763,53.152409 160.868790,58.832066 
	C166.082932,62.135403 166.145523,64.730629 162.188675,72.664619 
	C171.605499,75.777390 180.969955,78.801834 190.282776,81.977707 
	C195.920486,83.900291 201.478180,86.057487 207.263062,88.416489 
	C200.129532,90.832054 192.804749,92.940407 184.725983,95.024307 
	C175.157166,92.081123 166.367828,89.079796 157.497375,86.341255 
	C156.299286,85.971375 154.119156,86.446167 153.375595,87.343468 
	C150.098480,91.298195 146.567886,91.165413 142.255402,89.259048 
	C133.144775,85.231644 133.017090,85.395485 131.552002,95.078117 
	C131.477402,95.571190 131.400253,96.063927 131.318314,96.555832 
	C130.444901,101.799179 128.282166,103.795128 123.041107,103.897583 
	C118.053337,103.995071 113.062225,103.922348 108.072586,103.923592 
	C97.453323,103.926239 96.021385,102.643738 95.029266,92.243652 
	C94.523201,86.938675 92.799675,85.844673 88.044464,87.823593 
	C83.812836,89.584641 79.705025,92.358490 74.929855,89.160889 
	C74.506721,88.877563 73.620743,89.129074 73.004471,89.314301 
	C65.548203,91.555397 58.102234,93.830765 50.653587,96.097214 
	C43.851460,93.500458 37.049335,90.903702 29.928024,88.097015 
	C37.584980,85.246048 45.545551,82.556610 53.543583,79.983627 
	C57.786873,78.618553 62.095192,77.455597 66.882439,76.052414 
	C65.950409,74.358383 65.232101,72.975487 64.444077,71.633530 
	C60.445213,64.823814 60.860477,62.012871 67.684723,57.712593 
	C73.710327,53.915581 74.088684,51.101059 67.694664,47.029377 
	C60.688309,42.567757 60.434196,40.018124 64.729752,32.710484 
	C67.336502,28.275862 69.911324,23.822191 72.550720,19.407106 
	C75.938896,13.739498 78.558525,12.875307 84.465912,15.394140 
	C85.686272,15.914482 86.881042,16.495152 88.103813,17.009493 
	C92.617622,18.908173 94.400635,17.771997 95.034027,12.972608 
	C95.583069,8.812403 95.016144,4.084878 99.904800,1.341716 
	C108.687561,1.000000 117.375130,1.000000 126.531342,1.000000 
M129.902985,72.904335 
	C134.981094,68.456627 139.515244,73.028618 144.374863,74.057343 
	C145.697235,71.794022 146.917786,69.704971 148.351135,67.251701 
	C141.620682,64.231712 139.913605,59.449589 139.753830,52.380402 
	C139.586731,44.987484 142.153961,40.490948 148.325439,37.311237 
	C146.720993,34.709026 145.459320,32.662777 143.970367,30.247919 
	C137.882538,34.467854 132.920242,33.718834 126.734329,30.230629 
	C120.408897,26.663742 117.221367,22.587574 117.747208,15.499397 
	C114.511993,15.499397 111.932190,15.499397 109.382935,15.499397 
	C107.982918,27.154259 97.796822,35.393063 87.533157,32.458282 
	C86.017204,31.868662 84.501251,31.279041 82.689888,30.574524 
	C81.340469,32.886200 80.115730,34.984295 78.667397,37.465439 
	C85.209190,40.502747 87.092682,45.172012 87.235947,52.272957 
	C87.385300,59.676041 84.882828,64.191391 78.709663,67.428986 
	C80.222610,69.976662 81.458618,72.057976 82.941391,74.554840 
	C88.951065,70.529579 93.901817,70.981133 100.145630,74.493546 
	C106.509956,78.073761 109.677086,82.102608 109.134232,89.205185 
	C112.315605,89.205185 114.895172,89.205185 117.956924,89.205185 
	C117.044281,81.571106 120.307938,76.859482 127.315567,74.680405 
	C128.036301,74.456284 128.579987,73.662796 129.902985,72.904335 
z"/>
<path fill="#3F4D6C" opacity="1.000000" stroke="none" 
	d="
M27.972401,131.082962 
	C32.189896,132.921295 36.407387,134.759628 40.859291,136.887634 
	C41.093708,137.177277 40.952591,137.124664 40.857121,137.218842 
	C40.637592,137.573746 40.694904,137.808823 41.052032,138.009628 
	C41.170475,138.001007 41.404510,137.960495 41.340195,138.427521 
	C41.352612,152.574356 41.429344,166.254166 41.409546,180.341675 
	C40.501877,184.626816 41.982021,186.651505 45.845409,188.026001 
	C57.416252,192.142654 68.831093,196.697693 80.307640,201.079514 
	C86.400871,203.405914 92.495758,205.727966 99.160179,208.269485 
	C99.160179,195.609131 99.160179,183.805328 99.614426,172.000824 
	C101.900360,171.999786 103.758797,172.200424 105.558594,171.960724 
	C110.555443,171.295227 112.349098,173.175629 112.108299,178.331757 
	C111.712563,186.805588 111.901070,195.313568 112.083992,203.801956 
	C112.121964,205.563828 113.210136,207.303070 114.209915,208.996216 
	C139.710098,201.661102 164.782516,194.267715 189.950180,187.214218 
	C194.263351,186.005402 195.705399,184.075165 194.742737,179.491760 
	C194.790680,164.343674 194.754333,149.654343 194.817444,134.987610 
	C194.916931,135.010208 195.120438,135.024460 195.291595,134.878006 
	C195.671265,134.511978 195.842041,134.266205 195.975113,133.994217 
	C199.722672,132.652618 203.470215,131.311020 207.727722,130.150787 
	C208.424591,130.586334 208.646652,130.804825 208.988937,131.450272 
	C209.083893,150.734543 209.100540,169.556152 209.100098,188.377777 
	C209.099930,195.413666 207.995407,196.906281 201.105743,198.899719 
	C182.278137,204.347275 163.420197,209.690643 144.610458,215.198883 
	C132.706772,218.684738 120.867928,222.392029 109.000000,226.000000 
	C107.611107,226.000000 106.222221,226.000000 104.201752,225.710449 
	C80.210457,216.454987 56.862900,207.457138 33.479206,198.554230 
	C29.539101,197.054108 26.926386,194.863739 26.949381,190.288559 
	C27.047070,170.851746 27.083790,151.414627 27.306828,131.853912 
	C27.674091,131.542389 27.841265,131.326645 27.972401,131.082962 
z"/>
<path fill="#FDFEFE" opacity="1.000000" stroke="none" 
	d="
M27.142776,131.977631 
	C27.083790,151.414627 27.047070,170.851746 26.949381,190.288559 
	C26.926386,194.863739 29.539101,197.054108 33.479206,198.554230 
	C56.862900,207.457138 80.210457,216.454987 103.785080,225.710449 
	C69.738327,226.000000 35.476662,226.000000 1.000000,226.000000 
	C1.000000,190.646057 1.000000,155.291687 1.000000,119.468658 
	C9.562031,122.749367 18.124063,126.498726 26.867958,130.804321 
	C27.080809,131.566254 27.111792,131.771942 27.142776,131.977631 
z"/>
<path fill="#FDFDFD" opacity="1.000000" stroke="none" 
	d="
M109.468658,226.000000 
	C120.867928,222.392029 132.706772,218.684738 144.610458,215.198883 
	C163.420197,209.690643 182.278137,204.347275 201.105743,198.899719 
	C207.995407,196.906281 209.099930,195.413666 209.100098,188.377777 
	C209.100540,169.556152 209.083893,150.734543 209.048767,131.064941 
	C208.990906,129.959061 208.958344,129.701157 208.925781,129.443253 
	C214.359634,127.576477 219.793472,125.709702 225.613663,123.921463 
	C226.000000,157.931946 226.000000,191.863907 226.000000,226.000000 
	C187.312683,226.000000 148.625000,226.000000 109.468658,226.000000 
z"/>
<path fill="#E3E4E6" opacity="1.000000" stroke="none" 
	d="
M194.658463,179.950500 
	C195.705399,184.075165 194.263351,186.005402 189.950180,187.214218 
	C164.782516,194.267715 139.710098,201.661102 114.045837,208.548080 
	C113.486168,195.586136 113.486168,183.015823 113.486168,170.187683 
	C108.916534,170.187683 105.102791,170.092743 101.301697,170.269669 
	C100.562584,170.304092 99.872742,171.396912 99.160179,172.001526 
	C99.160179,183.805328 99.160179,195.609131 99.160179,208.269485 
	C92.495758,205.727966 86.400871,203.405914 80.307640,201.079514 
	C68.831093,196.697693 57.416252,192.142654 45.845409,188.026001 
	C41.982021,186.651505 40.501877,184.626816 41.829643,180.348328 
	C49.286163,178.697998 56.507416,178.276917 63.109673,176.033859 
	C78.748177,170.720856 86.956581,158.344742 91.647339,143.233398 
	C91.938210,142.296356 91.296692,141.069901 91.088974,139.978088 
	C96.158142,133.075165 101.227303,126.172234 106.497307,118.995811 
	C112.112511,125.646431 117.451874,131.970352 122.704704,138.898163 
	C123.355980,164.298615 146.335403,184.764679 169.588455,182.981827 
	C177.973297,182.338928 186.303391,180.981735 194.658463,179.950500 
M113.405685,148.780777 
	C113.306252,147.339355 113.206825,145.897934 113.109840,144.491913 
	C108.293449,144.491913 103.884117,144.491913 99.293732,144.491913 
	C99.293732,148.974274 99.293732,153.172668 99.293732,157.602020 
	C103.985504,157.602020 108.390892,157.602020 113.405937,157.602020 
	C113.405937,154.889618 113.405937,152.279343 113.405685,148.780777 
z"/>
<path fill="#FDFDFE" opacity="1.000000" stroke="none" 
	d="
M194.742737,179.491760 
	C186.303391,180.981735 177.973297,182.338928 169.588455,182.981827 
	C146.335403,184.764679 123.355980,164.298615 122.810371,139.213806 
	C126.357689,142.795380 129.903549,146.519943 133.000122,150.586624 
	C135.029114,153.251266 136.830399,153.723602 140.051956,152.599655 
	C157.361603,146.560638 174.772522,140.811996 192.829254,134.974548 
	C193.912689,134.978989 194.315338,134.971985 194.717987,134.964996 
	C194.754333,149.654343 194.790680,164.343674 194.742737,179.491760 
z"/>
<path fill="#FAFBFD" opacity="1.000000" stroke="none" 
	d="
M50.913918,96.361259 
	C58.102234,93.830765 65.548203,91.555397 73.004471,89.314301 
	C73.620743,89.129074 74.506721,88.877563 74.929855,89.160889 
	C79.705025,92.358490 83.812836,89.584641 88.044464,87.823593 
	C92.799675,85.844673 94.523201,86.938675 95.029266,92.243652 
	C96.021385,102.643738 97.453323,103.926239 108.072586,103.923592 
	C113.062225,103.922348 118.053337,103.995071 123.041107,103.897583 
	C128.282166,103.795128 130.444901,101.799179 131.318314,96.555832 
	C131.400253,96.063927 131.477402,95.571190 131.552002,95.078117 
	C133.017090,85.395485 133.144775,85.231644 142.255402,89.259048 
	C146.567886,91.165413 150.098480,91.298195 153.375595,87.343468 
	C154.119156,86.446167 156.299286,85.971375 157.497375,86.341255 
	C166.367828,89.079796 175.157166,92.081123 184.318481,95.093460 
	C161.146271,102.088036 137.584732,108.848671 114.141823,115.998207 
	C108.912971,117.592888 104.459000,117.323784 99.426910,115.287209 
	C83.443161,108.818321 67.272606,102.811012 50.913918,96.361259 
z"/>
<path fill="#FCFDFE" opacity="1.000000" stroke="none" 
	d="
M90.825142,140.193542 
	C91.296692,141.069901 91.938210,142.296356 91.647339,143.233398 
	C86.956581,158.344742 78.748177,170.720856 63.109673,176.033859 
	C56.507416,178.276917 49.286163,178.697998 41.926174,179.940613 
	C41.429344,166.254166 41.352612,152.574356 41.648773,138.448059 
	C42.429817,137.947021 42.837967,137.892441 43.246117,137.837875 
	C55.536736,143.220398 67.827354,148.602921 80.283333,154.057861 
	C83.777649,149.417511 87.169479,144.913269 90.825142,140.193542 
z"/>
<path fill="#E3E4E6" opacity="1.000000" stroke="none" 
	d="
M194.817459,134.987610 
	C194.315338,134.971985 193.912689,134.978989 193.212494,134.941132 
	C193.403900,134.646088 193.892868,134.395889 194.686615,134.381882 
	C194.991394,134.618057 195.120438,135.024460 195.120438,135.024460 
	C195.120438,135.024460 194.916931,135.010208 194.817459,134.987610 
z"/>
<path fill="#E3E4E6" opacity="1.000000" stroke="none" 
	d="
M43.073132,137.597900 
	C42.837967,137.892441 42.429817,137.947021 41.713089,137.981049 
	C41.404510,137.960495 41.170475,138.001007 41.109009,137.787354 
	C41.047546,137.573685 40.952591,137.124664 40.952591,137.124664 
	C40.952591,137.124664 41.093708,137.177277 41.136475,137.114624 
	C41.752876,137.153946 42.326511,137.255920 43.073132,137.597900 
z"/>
<path fill="#374769" opacity="1.000000" stroke="none" 
	d="
M208.678207,129.539459 
	C208.958344,129.701157 208.990906,129.959061 208.963654,130.602295 
	C208.646652,130.804825 208.424591,130.586334 208.114166,130.132782 
	C208.137344,129.834152 208.283981,129.734909 208.678207,129.539459 
z"/>
<path fill="#2B3F63" opacity="1.000000" stroke="none" 
	d="
M27.306828,131.853912 
	C27.111792,131.771942 27.080809,131.566254 27.108612,131.053558 
	C27.167402,130.746567 27.591709,130.862823 27.782055,130.972900 
	C27.841265,131.326645 27.674091,131.542389 27.306828,131.853912 
z"/>
<path fill="#2A3E62" opacity="1.000000" stroke="none" 
	d="
M195.291595,134.878006 
	C195.120438,135.024460 194.991394,134.618057 194.973999,134.405640 
	C195.121765,134.136063 195.286926,134.078903 195.713593,134.007965 
	C195.842041,134.266205 195.671265,134.511978 195.291595,134.878006 
z"/>
<path fill="#FBFBFC" opacity="1.000000" stroke="none" 
	d="
M87.999031,33.007050 
	C97.796822,35.393063 107.982918,27.154259 109.382935,15.499397 
	C111.932190,15.499397 114.511993,15.499397 117.747208,15.499397 
	C117.221367,22.587574 120.408897,26.663742 126.734329,30.230629 
	C132.920242,33.718834 137.882538,34.467854 143.970367,30.247919 
	C145.459320,32.662777 146.720993,34.709026 148.325439,37.311237 
	C142.153961,40.490948 139.586731,44.987484 139.753830,52.380402 
	C139.913605,59.449589 141.620682,64.231712 148.351135,67.251701 
	C146.917786,69.704971 145.697235,71.794022 144.374863,74.057343 
	C139.515244,73.028618 134.981094,68.456627 129.234070,72.862381 
	C124.380501,69.631973 120.195839,66.443535 116.350220,63.130692 
	C119.142418,60.522533 122.558357,58.452728 123.842407,55.466293 
	C126.293312,49.766033 122.712494,43.726692 116.781288,41.800488 
	C110.443062,39.742100 105.198547,42.838100 102.122696,50.083694 
	C97.202965,44.269722 92.600998,38.638386 87.999031,33.007050 
z"/>
<path fill="#E2E3E5" opacity="1.000000" stroke="none" 
	d="
M87.766098,32.732666 
	C92.600998,38.638386 97.202965,44.269722 102.137444,50.456589 
	C102.909576,59.977432 106.464203,63.191265 116.011177,63.255089 
	C120.195839,66.443535 124.380501,69.631973 128.885483,72.976959 
	C128.579987,73.662796 128.036301,74.456284 127.315567,74.680405 
	C120.307938,76.859482 117.044281,81.571106 117.956924,89.205185 
	C114.895172,89.205185 112.315605,89.205185 109.134232,89.205185 
	C109.677086,82.102608 106.509956,78.073761 100.145630,74.493546 
	C93.901817,70.981133 88.951065,70.529579 82.941391,74.554840 
	C81.458618,72.057976 80.222610,69.976662 78.709663,67.428986 
	C84.882828,64.191391 87.385300,59.676041 87.235947,52.272957 
	C87.092682,45.172012 85.209190,40.502747 78.667397,37.465439 
	C80.115730,34.984295 81.340469,32.886200 82.689888,30.574524 
	C84.501251,31.279041 86.017204,31.868662 87.766098,32.732666 
z"/>
<path fill="#3F4E6D" opacity="1.000000" stroke="none" 
	d="
M99.614426,172.000824 
	C99.872742,171.396912 100.562584,170.304092 101.301697,170.269669 
	C105.102791,170.092743 108.916534,170.187683 113.486168,170.187683 
	C113.486168,183.015823 113.486168,195.586136 113.650238,208.604584 
	C113.210136,207.303070 112.121964,205.563828 112.083992,203.801956 
	C111.901070,195.313568 111.712563,186.805588 112.108299,178.331757 
	C112.349098,173.175629 110.555443,171.295227 105.558594,171.960724 
	C103.758797,172.200424 101.900360,171.999786 99.614426,172.000824 
z"/>
<path fill="#2E4063" opacity="1.000000" stroke="none" 
	d="
M40.857121,137.218842 
	C40.952591,137.124664 41.047546,137.573685 40.990566,137.795959 
	C40.694904,137.808823 40.637592,137.573746 40.857121,137.218842 
z"/>
<path fill="#43516F" opacity="1.000000" stroke="none" 
	d="
M113.405807,149.224915 
	C113.405937,152.279343 113.405937,154.889618 113.405937,157.602020 
	C108.390892,157.602020 103.985504,157.602020 99.293732,157.602020 
	C99.293732,153.172668 99.293732,148.974274 99.293732,144.491913 
	C103.884117,144.491913 108.293449,144.491913 113.109840,144.491913 
	C113.206825,145.897934 113.306252,147.339355 113.405807,149.224915 
z"/>
<path fill="#0B95FD" opacity="1.000000" stroke="none" 
	d="
M116.350220,63.130695 
	C106.464203,63.191265 102.909576,59.977432 102.455200,50.639229 
	C105.198547,42.838100 110.443062,39.742100 116.781288,41.800488 
	C122.712494,43.726692 126.293312,49.766033 123.842407,55.466293 
	C122.558357,58.452728 119.142418,60.522533 116.350220,63.130695 
z"/>
</svg>