<svg version="1.1" id="Layer_1" xmlns="http://www.w3.org/2000/svg" xmlns:xlink="http://www.w3.org/1999/xlink" x="0px" y="0px"
	 width="100%" viewBox="0 0 268 188" enable-background="new 0 0 268 188" xml:space="preserve">
<path fill="#F7F7F7" opacity="1.000000" stroke="none" 
	d="
M198.000000,189.000000 
	C132.000015,189.000000 66.500015,189.000000 1.000018,189.000000 
	C1.000012,126.333351 1.000012,63.666698 1.000006,1.000034 
	C90.333305,1.000023 179.666611,1.000023 268.999939,1.000011 
	C268.999939,63.666630 268.999939,126.333260 268.999969,188.999939 
	C245.500000,189.000000 222.000000,189.000000 198.000000,189.000000 
M126.858978,120.000259 
	C128.571915,120.000771 130.284866,120.001282 132.000839,120.848694 
	C131.911987,123.107735 131.891129,125.148193 135.179031,125.017563 
	C139.071762,124.862900 137.697632,122.021919 138.877014,120.000206 
	C140.916733,120.001083 142.956436,120.001961 144.997482,120.773262 
	C145.053726,121.871254 145.109970,122.969246 145.174286,124.224686 
	C148.273956,124.026756 151.645126,124.763908 151.840378,120.000732 
	C154.081238,120.456314 156.322083,120.911903 158.562943,121.367493 
	C158.560196,121.993675 158.557465,122.619858 158.554733,123.246048 
	C161.360519,121.472588 164.166321,119.699127 167.204422,117.079704 
	C167.067642,106.916763 164.743484,103.426056 155.452957,99.671051 
	C152.837433,98.613922 150.138931,97.762184 147.478745,96.815521 
	C141.700394,94.759209 141.163483,93.172958 143.741058,87.661446 
	C147.027481,80.634140 149.399124,73.360085 146.977997,65.507034 
	C145.371506,60.296307 141.276413,58.123871 134.166611,58.355602 
	C127.957245,58.557980 124.182747,61.139439 122.968208,66.309547 
	C121.116142,74.193573 123.325394,81.444206 126.858963,88.388115 
	C129.256577,93.099724 128.714218,94.641663 123.731552,96.558014 
	C119.245270,98.283447 114.604393,99.735542 110.368645,101.952095 
	C104.729782,104.902878 102.187675,112.042046 104.134308,118.769470 
	C106.870331,120.941566 109.575478,122.937622 113.465439,121.504112 
	C115.542740,120.738594 117.810066,120.488716 120.001587,120.821129 
	C121.055260,121.877724 122.108925,122.934326 123.162598,123.990921 
	C124.109406,122.661400 125.056213,121.331886 126.858978,120.000259 
M143.457047,174.271057 
	C149.892685,169.720352 152.055679,164.395676 150.195206,157.683578 
	C148.548218,151.741669 143.365143,147.420822 137.306747,146.939194 
	C130.830170,146.424347 125.470833,149.856674 122.383125,156.344025 
	C121.769623,157.633026 120.741875,158.724854 120.349167,159.279968 
	C122.847557,171.690506 128.702682,179.603470 143.457047,174.271057 
M90.261047,66.074638 
	C98.472061,62.297901 102.166115,54.622791 99.376961,47.134579 
	C96.627922,39.754044 88.509346,35.730309 81.224007,38.137589 
	C73.621056,40.649818 69.430511,48.291168 71.478149,55.908897 
	C73.671585,64.069031 80.597641,68.062691 90.261047,66.074638 
M205.458374,109.000488 
	C207.325653,107.959259 209.411728,107.178963 211.020706,105.829720 
	C216.701111,101.066238 217.489746,92.857933 213.090805,86.457954 
	C208.978912,80.475609 200.527145,78.566292 194.046509,82.155693 
	C187.504669,85.778992 184.840805,94.011795 187.913956,101.108650 
	C190.720123,107.589035 198.154449,111.154640 205.458374,109.000488 
M78.607483,152.111252 
	C87.942436,156.223282 97.192200,152.338455 99.640709,143.277451 
	C101.613213,135.977936 98.285278,129.088150 91.714371,125.842377 
	C85.994843,123.017159 77.241951,124.540169 73.155563,131.282257 
	C68.916283,138.276596 70.567543,146.078888 78.607483,152.111252 
M171.221497,55.781197 
	C171.745056,56.996948 172.144974,58.285809 172.813217,59.416012 
	C175.985641,64.781502 180.759247,67.408997 186.947601,66.789841 
	C193.358292,66.148430 197.711761,62.485138 199.513779,56.331570 
	C201.251617,50.397198 199.661926,45.125179 194.932236,41.060249 
	C190.015320,36.834423 184.475357,36.234779 178.723877,39.150299 
	C172.234650,42.439785 170.387268,48.126816 171.221497,55.781197 
M76.283707,108.014290 
	C84.465027,102.569397 86.451035,94.216560 81.371101,86.617546 
	C76.744759,79.697060 67.892921,78.194374 60.828884,83.130302 
	C54.999046,87.203850 53.115421,95.322510 56.499557,101.790215 
	C60.184280,108.832397 67.214745,111.251419 76.283707,108.014290 
M180.680145,153.078888 
	C182.145523,153.347153 183.604706,153.802017 185.077377,153.851059 
	C191.128220,154.052673 196.580414,150.537598 198.968033,145.040817 
	C201.332977,139.596237 200.118530,133.002579 195.982864,128.833344 
	C191.784073,124.600449 185.427032,123.293259 179.870132,125.660439 
	C174.513504,127.942291 171.316833,132.025711 170.955154,137.859085 
	C170.525864,144.782684 173.406281,149.961746 180.680145,153.078888 
M125.788193,18.260216 
	C120.144089,25.088661 119.710770,34.248466 125.932877,39.095451 
	C138.715408,49.052959 146.388748,41.491169 152.668045,29.059677 
	C149.900208,25.151009 147.416809,19.597721 143.197021,16.202587 
	C137.914963,11.952769 131.617813,13.413881 125.788193,18.260216 
z"/>
<path fill="#4A5159" opacity="1.000000" stroke="none" 
	d="
M103.995766,118.071716 
	C102.187675,112.042046 104.729782,104.902878 110.368645,101.952095 
	C114.604393,99.735542 119.245270,98.283447 123.731552,96.558014 
	C128.714218,94.641663 129.256577,93.099724 126.858963,88.388115 
	C123.325394,81.444206 121.116142,74.193573 122.968208,66.309547 
	C124.182747,61.139439 127.957245,58.557980 134.166611,58.355602 
	C141.276413,58.123871 145.371506,60.296307 146.977997,65.507034 
	C149.399124,73.360085 147.027481,80.634140 143.741058,87.661446 
	C141.163483,93.172958 141.700394,94.759209 147.478745,96.815521 
	C150.138931,97.762184 152.837433,98.613922 155.452957,99.671051 
	C164.743484,103.426056 167.067642,106.916763 166.623352,117.491417 
	C161.029892,117.956459 156.017471,118.009789 150.583252,117.968430 
	C148.439255,117.936279 146.717041,117.998833 144.561371,117.999756 
	C142.086990,117.979218 140.046082,118.020302 137.583221,117.967392 
	C135.439102,117.936600 133.716934,117.999794 131.570770,117.996307 
	C129.432953,117.974106 127.719124,118.018600 125.583488,117.968407 
	C123.439415,117.936935 121.717148,118.000160 119.532486,117.996017 
	C114.045319,117.976341 109.020546,118.024033 103.995766,118.071716 
z"/>
<path fill="#3E4854" opacity="1.000000" stroke="none" 
	d="
M143.140686,174.500641 
	C128.702682,179.603470 122.847557,171.690506 120.349167,159.279968 
	C120.741875,158.724854 121.769623,157.633026 122.383125,156.344025 
	C125.470833,149.856674 130.830170,146.424347 137.306747,146.939194 
	C143.365143,147.420822 148.548218,151.741669 150.195206,157.683578 
	C152.055679,164.395676 149.892685,169.720352 143.140686,174.500641 
M132.098969,161.302521 
	C132.188721,161.344025 132.278473,161.385544 132.368225,161.427048 
	C132.264511,161.270325 132.160812,161.113602 131.957489,160.400314 
	C131.643631,160.090271 131.329758,159.780228 131.015884,159.470200 
	C130.835785,159.677719 130.655701,159.885254 130.475601,160.092773 
	C130.971069,160.412064 131.466537,160.731339 132.098969,161.302521 
M135.022995,165.829544 
	C134.903732,164.878082 134.784485,163.926636 134.665222,162.975189 
	C134.480148,162.987869 134.295090,163.000565 134.110016,163.013260 
	C134.047653,164.246277 133.985291,165.479309 134.055344,167.438675 
	C134.145782,167.667557 134.236237,167.896439 134.200363,168.831192 
	C134.958908,169.804565 135.717453,170.777939 136.476013,171.751312 
	C137.084717,170.575974 137.693436,169.400620 138.597168,167.927567 
	C138.514374,168.033066 138.431564,168.138550 137.543823,168.162659 
	C136.741379,168.071930 135.938934,167.981186 135.154312,167.191986 
	C135.117493,166.961945 135.080688,166.731903 135.022995,165.829544 
M130.762619,157.012817 
	C132.067291,155.840698 133.371948,154.668564 134.676620,153.496445 
	C134.251312,153.108673 133.826019,152.720886 133.400711,152.333115 
	C132.448929,153.700424 131.497131,155.067719 130.762619,157.012817 
M140.908798,159.763916 
	C143.167114,158.131653 143.167114,158.131653 140.252182,156.306046 
	C140.448837,157.260788 140.653915,158.256424 140.908798,159.763916 
M138.694839,162.529694 
	C138.591293,163.490631 138.487732,164.451569 138.384186,165.412521 
	C138.849564,165.390564 139.314941,165.368607 139.780319,165.346649 
	C139.637878,164.409988 139.495422,163.473328 138.694839,162.529694 
M137.623291,153.535416 
	C137.885590,153.818710 138.147873,154.102005 138.410172,154.385300 
	C138.511230,154.284042 138.708420,154.104172 138.699310,154.093018 
	C138.465225,153.806793 138.209625,153.538208 137.623291,153.535416 
z"/>
<path fill="#F58548" opacity="1.000000" stroke="none" 
	d="
M89.876244,66.185135 
	C80.597641,68.062691 73.671585,64.069031 71.478149,55.908897 
	C69.430511,48.291168 73.621056,40.649818 81.224007,38.137589 
	C88.509346,35.730309 96.627922,39.754044 99.376961,47.134579 
	C102.166115,54.622791 98.472061,62.297901 89.876244,66.185135 
M84.344254,50.078041 
	C82.815491,52.740486 81.166000,55.345188 79.845116,58.107052 
	C79.525452,58.775463 80.290680,59.962734 80.557030,60.911407 
	C81.543564,60.615776 83.181953,60.572369 83.409920,59.983219 
	C84.797958,56.395969 85.865166,52.684582 87.746887,48.939968 
	C89.100197,47.020096 90.583755,45.172386 91.715408,43.129715 
	C91.999039,42.617771 91.373001,41.104195 90.757896,40.741611 
	C90.217064,40.422802 88.578262,40.820320 88.336220,41.332447 
	C87.049706,44.054527 86.050339,46.912319 84.344254,50.078041 
z"/>
<path fill="#F4BD46" opacity="1.000000" stroke="none" 
	d="
M205.095322,109.087723 
	C198.154449,111.154640 190.720123,107.589035 187.913956,101.108650 
	C184.840805,94.011795 187.504669,85.778992 194.046509,82.155693 
	C200.527145,78.566292 208.978912,80.475609 213.090805,86.457954 
	C217.489746,92.857933 216.701111,101.066238 211.020706,105.829720 
	C209.411728,107.178963 207.325653,107.959259 205.095322,109.087723 
M195.931091,101.864822 
	C199.962631,101.826508 203.994186,101.788193 208.539795,101.820862 
	C208.690292,101.547554 208.840790,101.274254 209.085709,100.295441 
	C209.672913,98.951653 210.260101,97.607864 210.357391,97.385223 
	C209.050171,94.276024 208.207474,91.786720 206.956909,89.522713 
	C206.414566,88.540825 205.062485,87.459160 204.025574,87.403519 
	C201.284912,87.256439 198.515518,87.645218 195.123779,87.861023 
	C195.315750,89.640152 195.516541,91.500877 195.720474,93.390923 
	C194.383926,94.262932 192.953934,95.195923 191.520386,96.131218 
	C192.585159,97.769592 193.314178,98.891357 193.708710,100.387085 
	C194.143265,100.840866 194.577820,101.294655 195.931091,101.864822 
z"/>
<path fill="#59B2DC" opacity="1.000000" stroke="none" 
	d="
M78.270248,151.938156 
	C70.567543,146.078888 68.916283,138.276596 73.155563,131.282257 
	C77.241951,124.540169 85.994843,123.017159 91.714371,125.842377 
	C98.285278,129.088150 101.613213,135.977936 99.640709,143.277451 
	C97.192200,152.338455 87.942436,156.223282 78.270248,151.938156 
M89.493919,130.474182 
	C86.275124,130.739319 83.056328,131.004471 79.310036,131.864166 
	C79.205544,136.162766 78.939598,140.467743 79.108963,144.755524 
	C79.151833,145.840836 80.395706,147.537872 81.405602,147.821381 
	C89.389893,150.062729 92.078812,147.941666 92.084297,139.741714 
	C92.085739,137.584061 92.263771,135.402863 91.988358,133.280807 
	C91.884018,132.476852 90.729202,131.809235 89.493919,130.474182 
z"/>
<path fill="#58B3DD" opacity="1.000000" stroke="none" 
	d="
M171.144836,55.372898 
	C170.387268,48.126816 172.234650,42.439785 178.723877,39.150299 
	C184.475357,36.234779 190.015320,36.834423 194.932236,41.060249 
	C199.661926,45.125179 201.251617,50.397198 199.513779,56.331570 
	C197.711761,62.485138 193.358292,66.148430 186.947601,66.789841 
	C180.759247,67.408997 175.985641,64.781502 172.813217,59.416012 
	C172.144974,58.285809 171.745056,56.996948 171.144836,55.372898 
M177.129715,53.163395 
	C179.415222,58.782822 182.243973,60.812164 187.101654,60.047665 
	C191.229111,59.398087 193.540955,56.750488 194.046356,52.700367 
	C194.644211,47.909370 191.242462,43.709671 186.570068,43.172653 
	C181.595825,42.600933 177.974197,46.102489 177.129715,53.163395 
z"/>
<path fill="#F2BE47" opacity="1.000000" stroke="none" 
	d="
M75.946320,108.189796 
	C67.214745,111.251419 60.184280,108.832397 56.499557,101.790215 
	C53.115421,95.322510 54.999046,87.203850 60.828884,83.130302 
	C67.892921,78.194374 76.744759,79.697060 81.371101,86.617546 
	C86.451035,94.216560 84.465027,102.569397 75.946320,108.189796 
M77.648079,98.860786 
	C77.724289,98.254852 77.800499,97.648926 78.018593,96.279716 
	C77.971260,95.507896 77.923927,94.736076 77.975113,93.259468 
	C77.640083,92.483681 77.305046,91.707893 77.268036,90.285286 
	C76.959450,89.548393 76.670273,88.180115 76.339348,88.169937 
	C71.851799,88.031990 67.355583,88.006248 62.869915,88.175613 
	C62.256977,88.198753 61.689537,89.426933 60.687405,90.800797 
	C60.513660,93.524132 60.339916,96.247475 60.237793,99.620987 
	C61.170414,100.298843 62.103035,100.976700 63.950367,101.792229 
	C68.290024,101.746399 72.629677,101.700569 77.393219,101.756584 
	C77.495560,101.653694 77.597893,101.550797 77.700233,101.447906 
	C77.476913,101.277863 77.253593,101.107819 77.065361,100.327820 
	C77.092697,99.921768 77.120033,99.515724 77.097717,99.065697 
	C77.097717,99.065697 77.074638,99.127022 77.648079,98.860786 
z"/>
<path fill="#F3854A" opacity="1.000000" stroke="none" 
	d="
M180.303238,152.960785 
	C173.406281,149.961746 170.525864,144.782684 170.955154,137.859085 
	C171.316833,132.025711 174.513504,127.942291 179.870132,125.660439 
	C185.427032,123.293259 191.784073,124.600449 195.982864,128.833344 
	C200.118530,133.002579 201.332977,139.596237 198.968033,145.040817 
	C196.580414,150.537598 191.128220,154.052673 185.077377,153.851059 
	C183.604706,153.802017 182.145523,153.347153 180.303238,152.960785 
M193.021439,144.341080 
	C193.021439,139.603333 193.021439,134.865601 193.021439,130.560242 
	C188.081406,130.560242 183.801926,130.560242 179.063995,130.560242 
	C179.063995,135.226639 179.063995,140.311478 178.959198,146.185638 
	C178.683746,149.446884 181.099228,149.101822 182.966537,148.899017 
	C186.333725,148.533325 189.666946,147.843811 192.994278,147.187759 
	C193.074417,147.171951 192.918335,145.957947 193.021439,144.341080 
z"/>
<path fill="#3E4856" opacity="1.000000" stroke="none" 
	d="
M126.052086,18.002026 
	C131.617813,13.413881 137.914963,11.952769 143.197021,16.202587 
	C147.416809,19.597721 149.900208,25.151009 152.668045,29.059677 
	C146.388748,41.491169 138.715408,49.052959 125.932877,39.095451 
	C119.710770,34.248466 120.144089,25.088661 126.052086,18.002026 
M127.185371,32.657047 
	C128.400818,37.839306 133.675690,39.740871 136.872589,39.153461 
	C145.525803,37.563492 148.042389,31.151222 145.184799,22.890963 
	C141.123199,18.470661 135.981918,17.238365 129.738464,19.911108 
	C129.489899,20.416260 129.160614,21.755161 128.337585,22.629025 
	C126.117706,24.985975 125.467537,29.154943 127.185371,32.657047 
z"/>
<path fill="#EBF1F3" opacity="1.000000" stroke="none" 
	d="
M104.065033,118.420593 
	C109.020546,118.024033 114.045319,117.976341 119.535294,118.319763 
	C119.997543,119.142616 119.994591,119.574371 119.991638,120.006126 
	C117.810066,120.488716 115.542740,120.738594 113.465439,121.504112 
	C109.575478,122.937622 106.870331,120.941566 104.065033,118.420593 
z"/>
<path fill="#EBF1F3" opacity="1.000000" stroke="none" 
	d="
M151.005066,118.063126 
	C156.017471,118.009789 161.029892,117.956459 166.507202,117.914398 
	C164.166321,119.699127 161.360519,121.472588 158.554733,123.246048 
	C158.557465,122.619858 158.560196,121.993675 158.562943,121.367493 
	C156.322083,120.911903 154.081238,120.456314 151.419861,119.678406 
	C151.001251,118.925095 151.003159,118.494110 151.005066,118.063126 
z"/>
<path fill="#E0E8EB" opacity="1.000000" stroke="none" 
	d="
M131.994766,118.062996 
	C133.716934,117.999794 135.439102,117.936600 137.580292,118.290619 
	C138.000824,119.139496 138.002335,119.571167 138.003845,120.002838 
	C137.697632,122.021919 139.071762,124.862900 135.179031,125.017563 
	C131.891129,125.148193 131.911987,123.107735 132.000961,120.102081 
	C131.998978,118.924644 131.996872,118.493820 131.994766,118.062996 
z"/>
<path fill="#E0E8EB" opacity="1.000000" stroke="none" 
	d="
M150.583252,117.968430 
	C151.003159,118.494110 151.001251,118.925095 151.001404,119.679382 
	C151.645126,124.763908 148.273956,124.026756 145.174286,124.224686 
	C145.109970,122.969246 145.053726,121.871254 144.998932,120.064240 
	C144.998535,118.923943 144.996689,118.492661 144.994843,118.061386 
	C146.717041,117.998833 148.439255,117.936279 150.583252,117.968430 
z"/>
<path fill="#E0E8EB" opacity="1.000000" stroke="none" 
	d="
M119.996613,120.413628 
	C119.994591,119.574371 119.997543,119.142616 119.997681,118.387115 
	C121.717148,118.000160 123.439415,117.936935 125.580444,118.291580 
	C126.000473,119.140419 126.001747,119.571388 126.003021,120.002365 
	C125.056213,121.331886 124.109406,122.661400 123.162598,123.990921 
	C122.108925,122.934326 121.055260,121.877724 119.996613,120.413628 
z"/>
<path fill="#EBF1F3" opacity="1.000000" stroke="none" 
	d="
M144.561371,117.999756 
	C144.996689,118.492661 144.998535,118.923943 144.998260,119.679031 
	C142.956436,120.001961 140.916733,120.001083 138.440430,120.001526 
	C138.002335,119.571167 138.000824,119.139496 138.002228,118.384605 
	C140.046082,118.020302 142.086990,117.979218 144.561371,117.999756 
z"/>
<path fill="#EBF1F3" opacity="1.000000" stroke="none" 
	d="
M126.431000,120.001312 
	C126.001747,119.571388 126.000473,119.140419 126.002243,118.386269 
	C127.719124,118.018600 129.432953,117.974106 131.570770,117.996307 
	C131.996872,118.493820 131.998978,118.924644 131.999451,119.678635 
	C130.284866,120.001282 128.571915,120.000771 126.431000,120.001312 
z"/>
<path fill="#E0E8EB" opacity="1.000000" stroke="none" 
	d="
M138.302155,168.225281 
	C137.693436,169.400620 137.084717,170.575974 136.476013,171.751312 
	C135.717453,170.777939 134.958908,169.804565 134.479904,168.467621 
	C134.759445,168.104034 135.136490,167.890457 135.136490,167.890442 
	C135.938934,167.981186 136.741379,168.071930 137.941376,168.176208 
	C138.338928,168.189774 138.302155,168.225281 138.302155,168.225281 
z"/>
<path fill="#414B57" opacity="1.000000" stroke="none" 
	d="
M130.653992,156.723923 
	C131.497131,155.067719 132.448929,153.700424 133.400711,152.333115 
	C133.826019,152.720886 134.251312,153.108673 134.676620,153.496445 
	C133.371948,154.668564 132.067291,155.840698 130.653992,156.723923 
z"/>
<path fill="#414B57" opacity="1.000000" stroke="none" 
	d="
M140.883896,159.507996 
	C140.653915,158.256424 140.448837,157.260788 140.252182,156.306046 
	C143.167114,158.131653 143.167114,158.131653 140.883896,159.507996 
z"/>
<path fill="#414B57" opacity="1.000000" stroke="none" 
	d="
M139.023911,162.533173 
	C139.495422,163.473328 139.637878,164.409988 139.780319,165.346649 
	C139.314941,165.368607 138.849564,165.390564 138.384186,165.412521 
	C138.487732,164.451569 138.591293,163.490631 139.023911,162.533173 
z"/>
<path fill="#414B57" opacity="1.000000" stroke="none" 
	d="
M133.922928,166.712326 
	C133.985291,165.479309 134.047653,164.246277 134.110016,163.013260 
	C134.295090,163.000565 134.480148,162.987869 134.665222,162.975189 
	C134.784485,163.926636 134.903732,164.878082 134.759796,166.254181 
	C134.305374,166.690002 134.114151,166.701172 133.922928,166.712326 
z"/>
<path fill="#414B57" opacity="1.000000" stroke="none" 
	d="
M131.962006,161.050629 
	C131.466537,160.731339 130.971069,160.412064 130.475601,160.092773 
	C130.655701,159.885254 130.835785,159.677719 131.015884,159.470200 
	C131.329758,159.780228 131.643631,160.090271 131.981812,160.700287 
	C132.006119,161.000275 131.962006,161.050629 131.962006,161.050629 
z"/>
<path fill="#414B57" opacity="1.000000" stroke="none" 
	d="
M137.790527,153.400986 
	C138.209625,153.538208 138.465225,153.806793 138.699310,154.093018 
	C138.708420,154.104172 138.511230,154.284042 138.410172,154.385300 
	C138.147873,154.102005 137.885590,153.818710 137.790527,153.400986 
z"/>
<path fill="#414B57" opacity="1.000000" stroke="none" 
	d="
M132.031616,160.978577 
	C132.160812,161.113602 132.264511,161.270325 132.368225,161.427048 
	C132.278473,161.385544 132.188721,161.344025 132.030487,161.176575 
	C131.962006,161.050629 132.006119,161.000275 132.031616,160.978577 
z"/>
<path fill="#AEB0B4" opacity="1.000000" stroke="none" 
	d="
M133.989136,167.075500 
	C134.114151,166.701172 134.305374,166.690002 134.770233,166.590363 
	C135.080688,166.731903 135.117493,166.961945 135.145401,167.541229 
	C135.136490,167.890457 134.759445,168.104034 134.543060,168.114685 
	C134.236237,167.896439 134.145782,167.667557 133.989136,167.075500 
z"/>
<path fill="#AEB0B4" opacity="1.000000" stroke="none" 
	d="
M138.449661,168.076416 
	C138.302155,168.225281 138.338928,168.189774 138.343842,168.216919 
	C138.431564,168.138550 138.514374,168.033066 138.449661,168.076416 
z"/>
<path fill="#53BEEF" opacity="1.000000" stroke="none" 
	d="
M87.039429,49.014614 
	C85.865166,52.684582 84.797958,56.395969 83.409920,59.983219 
	C83.181953,60.572369 81.543564,60.615776 80.557030,60.911407 
	C80.290680,59.962734 79.525452,58.775463 79.845116,58.107052 
	C81.166000,55.345188 82.815491,52.740486 84.923233,49.830597 
	C86.014618,49.393639 86.527023,49.204124 87.039429,49.014614 
z"/>
<path fill="#D6BC5C" opacity="1.000000" stroke="none" 
	d="
M87.393158,48.977291 
	C86.527023,49.204124 86.014618,49.393639 85.226875,49.653137 
	C86.050339,46.912319 87.049706,44.054527 88.336220,41.332447 
	C88.578262,40.820320 90.217064,40.422802 90.757896,40.741611 
	C91.373001,41.104195 91.999039,42.617771 91.715408,43.129715 
	C90.583755,45.172386 89.100197,47.020096 87.393158,48.977291 
z"/>
<path fill="#284457" opacity="1.000000" stroke="none" 
	d="
M194.043213,100.013130 
	C193.314178,98.891357 192.585159,97.769592 191.520386,96.131218 
	C192.953934,95.195923 194.383926,94.262932 195.720474,93.390923 
	C195.516541,91.500877 195.315750,89.640152 195.123779,87.861023 
	C198.515518,87.645218 201.284912,87.256439 204.025574,87.403519 
	C205.062485,87.459160 206.414566,88.540825 206.956909,89.522713 
	C208.207474,91.786720 209.050171,94.276024 210.357391,97.385223 
	C210.260101,97.607864 209.672913,98.951653 208.844147,100.725876 
	C208.351425,101.296974 208.159149,101.494827 208.025726,101.749878 
	C203.994186,101.788193 199.962631,101.826508 195.443481,101.543541 
	C194.651657,100.819221 194.347427,100.416176 194.043213,100.013130 
M198.855865,92.497894 
	C198.432999,92.198395 198.010117,91.898888 197.587250,91.599388 
	C197.473694,92.042236 197.360123,92.485077 197.246552,92.927925 
	C197.740845,92.980865 198.235123,93.033798 198.855865,92.497894 
M199.462769,96.437355 
	C198.719986,96.303452 197.977219,96.169556 197.234436,96.035652 
	C197.193314,96.351448 197.152176,96.667244 197.111038,96.983047 
	C197.743469,96.926178 198.375916,96.869308 199.462769,96.437355 
M204.872223,95.188599 
	C204.477036,95.413429 204.053589,95.604721 203.711685,95.892822 
	C203.647217,95.947136 203.907593,96.386971 204.018097,96.648903 
	C204.313248,96.324127 204.608398,95.999344 204.872223,95.188599 
z"/>
<path fill="#304655" opacity="1.000000" stroke="none" 
	d="
M193.875961,100.200104 
	C194.347427,100.416176 194.651657,100.819221 194.984131,101.485352 
	C194.577820,101.294655 194.143265,100.840866 193.875961,100.200104 
z"/>
<path fill="#304655" opacity="1.000000" stroke="none" 
	d="
M208.282761,101.785370 
	C208.159149,101.494827 208.351425,101.296974 208.796936,101.078629 
	C208.840790,101.274254 208.690292,101.547554 208.282761,101.785370 
z"/>
<path fill="#3D3C47" opacity="1.000000" stroke="none" 
	d="
M90.053207,131.079468 
	C90.729202,131.809235 91.884018,132.476852 91.988358,133.280807 
	C92.263771,135.402863 92.085739,137.584061 92.084297,139.741714 
	C92.078812,147.941666 89.389893,150.062729 81.405602,147.821381 
	C80.395706,147.537872 79.151833,145.840836 79.108963,144.755524 
	C78.939598,140.467743 79.205544,136.162766 79.646286,131.962799 
	C80.567741,137.536789 81.840836,138.045731 91.070496,136.165466 
	C90.732040,134.473328 90.392624,132.776398 90.053207,131.079468 
z"/>
<path fill="#55ABD3" opacity="1.000000" stroke="none" 
	d="
M89.773560,130.776825 
	C90.392624,132.776398 90.732040,134.473328 91.070496,136.165466 
	C81.840836,138.045731 80.567741,137.536789 79.910034,131.665527 
	C83.056328,131.004471 86.275124,130.739319 89.773560,130.776825 
z"/>
<path fill="#46494B" opacity="1.000000" stroke="none" 
	d="
M177.090088,52.770020 
	C177.974197,46.102489 181.595825,42.600933 186.570068,43.172653 
	C191.242462,43.709671 194.644211,47.909370 194.046356,52.700367 
	C193.540955,56.750488 191.229111,59.398087 187.101654,60.047665 
	C182.243973,60.812164 179.415222,58.782822 177.090088,52.770020 
M187.838440,45.435001 
	C187.188660,45.409859 186.536575,45.336536 185.889450,45.367294 
	C181.193954,45.590446 178.825989,48.098724 179.176773,52.449802 
	C179.493790,56.381897 182.619980,58.940121 186.860428,57.895699 
	C188.761917,57.427361 191.115433,55.523754 191.710449,53.750275 
	C192.729309,50.713501 192.075714,47.456070 187.838440,45.435001 
z"/>
<path fill="#163B58" opacity="1.000000" stroke="none" 
	d="
M77.147369,99.109673 
	C77.120033,99.515724 77.092697,99.921768 77.018745,100.810875 
	C76.972130,101.293930 76.969337,101.654747 76.969337,101.654747 
	C72.629677,101.700569 68.290024,101.746399 63.533783,101.423988 
	C63.752640,100.033440 64.388077,99.011124 65.323502,97.968864 
	C66.091133,97.618408 66.558792,97.287903 67.276154,96.757431 
	C67.003906,95.666039 66.481956,94.774590 65.936935,93.562073 
	C65.605881,92.221138 65.297913,91.201286 65.442184,90.103165 
	C68.300354,90.012657 70.729683,89.801819 73.101219,90.081360 
	C74.116074,90.200981 75.010536,91.341919 75.977219,91.992172 
	C75.994743,91.965553 76.055496,91.986961 75.757149,91.833427 
	C75.030647,92.347778 74.602493,93.015663 74.131096,94.000366 
	C74.061546,94.528740 74.035255,94.740288 73.761795,94.967072 
	C73.514633,94.982307 73.020081,95.009048 72.904068,94.789398 
	C72.582550,94.295845 72.317734,94.103645 71.902908,93.830177 
	C71.541779,93.786163 71.271362,93.905121 70.867027,94.323524 
	C70.825981,95.748825 70.918846,96.874680 71.357300,97.999985 
	C72.164772,97.987740 72.626648,97.976044 73.343323,98.105614 
	C74.781204,98.534477 75.964287,98.822075 77.147369,99.109673 
z"/>
<path fill="#0C3458" opacity="1.000000" stroke="none" 
	d="
M64.989944,90.181427 
	C65.297913,91.201286 65.605881,92.221138 65.775970,93.762367 
	C66.100883,95.174957 66.563675,96.066177 67.026459,96.957397 
	C66.558792,97.287903 66.091133,97.618408 65.027313,97.923637 
	C63.948238,96.507034 63.465324,95.115707 63.024811,93.846558 
	C61.974781,95.728790 61.070473,97.349800 60.166168,98.970810 
	C60.339916,96.247475 60.513660,93.524132 61.281223,90.405243 
	C62.913342,90.066933 63.951645,90.124184 64.989944,90.181427 
z"/>
<path fill="#D6BC5C" opacity="1.000000" stroke="none" 
	d="
M65.442184,90.103165 
	C63.951645,90.124184 62.913342,90.066933 61.488037,90.053436 
	C61.689537,89.426933 62.256977,88.198753 62.869915,88.175613 
	C67.355583,88.006248 71.851799,88.031990 76.339348,88.169937 
	C76.670273,88.180115 76.959450,89.548393 77.071968,90.881287 
	C76.570503,91.657791 76.265099,91.838287 75.959702,92.018791 
	C75.010536,91.341919 74.116074,90.200981 73.101219,90.081360 
	C70.729683,89.801819 68.300354,90.012657 65.442184,90.103165 
z"/>
<path fill="#284457" opacity="1.000000" stroke="none" 
	d="
M74.008965,94.951828 
	C74.035255,94.740288 74.061546,94.528740 74.313538,93.983246 
	C74.846489,93.462395 75.153740,93.275482 75.782059,93.129623 
	C76.694290,93.435196 77.285439,93.699722 77.876595,93.964256 
	C77.923927,94.736076 77.971260,95.507896 77.714035,96.844482 
	C77.297859,97.981842 77.186249,98.554428 77.074638,99.127022 
	C77.074638,99.127022 77.097717,99.065697 77.122543,99.087685 
	C75.964287,98.822075 74.781204,98.534477 73.175262,97.892792 
	C72.172165,97.692642 71.591934,97.846588 71.011711,98.000534 
	C70.918846,96.874680 70.825981,95.748825 71.115135,94.313225 
	C71.497154,94.003479 71.993622,93.993149 71.993622,93.993149 
	C72.317734,94.103645 72.582550,94.295845 72.995758,94.960403 
	C73.471954,95.217987 73.740456,95.084908 74.008965,94.951828 
z"/>
<path fill="#284457" opacity="1.000000" stroke="none" 
	d="
M60.201981,99.295898 
	C61.070473,97.349800 61.974781,95.728790 63.024811,93.846558 
	C63.465324,95.115707 63.948238,96.507034 64.727341,97.943588 
	C64.388077,99.011124 63.752640,100.033440 63.076431,101.355148 
	C62.103035,100.976700 61.170414,100.298843 60.201981,99.295898 
z"/>
<path fill="#0C3458" opacity="1.000000" stroke="none" 
	d="
M77.925858,93.611862 
	C77.285439,93.699722 76.694290,93.435196 75.970291,92.874908 
	C75.910133,92.381760 75.982819,92.184357 76.055496,91.986961 
	C76.055496,91.986961 75.994743,91.965553 75.977219,91.992172 
	C76.265099,91.838287 76.570503,91.657791 76.922958,91.204697 
	C77.305046,91.707893 77.640083,92.483681 77.925858,93.611862 
z"/>
<path fill="#0C3458" opacity="1.000000" stroke="none" 
	d="
M77.361359,98.993904 
	C77.186249,98.554428 77.297859,97.981842 77.643089,97.226120 
	C77.800499,97.648926 77.724289,98.254852 77.361359,98.993904 
z"/>
<path fill="#284457" opacity="1.000000" stroke="none" 
	d="
M77.181274,101.705666 
	C76.969337,101.654747 76.972130,101.293930 77.001205,101.115852 
	C77.253593,101.107819 77.476913,101.277863 77.700233,101.447906 
	C77.597893,101.550797 77.495560,101.653694 77.181274,101.705666 
z"/>
<path fill="#FFFDFD" opacity="1.000000" stroke="none" 
	d="
M179.063995,145.396332 
	C179.063995,140.311478 179.063995,135.226639 179.063995,130.560242 
	C183.801926,130.560242 188.081406,130.560242 193.021439,130.560242 
	C193.021439,134.865601 193.021439,139.603333 192.494598,144.813690 
	C187.666519,145.322983 183.365250,145.359650 179.063995,145.396332 
z"/>
<path fill="#575A62" opacity="1.000000" stroke="none" 
	d="
M179.011597,145.790985 
	C183.365250,145.359650 187.666519,145.322983 192.420105,145.294556 
	C192.918335,145.957947 193.074417,147.171951 192.994278,147.187759 
	C189.666946,147.843811 186.333725,148.533325 182.966537,148.899017 
	C181.099228,149.101822 178.683746,149.446884 179.011597,145.790985 
z"/>
<path fill="#43A1CE" opacity="1.000000" stroke="none" 
	d="
M127.169472,32.263592 
	C125.467537,29.154943 126.117706,24.985975 128.337585,22.629025 
	C129.160614,21.755161 129.489899,20.416260 129.738464,19.911108 
	C135.981918,17.238365 141.123199,18.470661 145.184799,22.890963 
	C148.042389,31.151222 145.525803,37.563492 136.872589,39.153461 
	C133.675690,39.740871 128.400818,37.839306 127.169472,32.263592 
M138.623581,34.248569 
	C142.691956,31.119030 143.483170,26.676184 140.394684,23.913115 
	C138.009171,21.778940 135.016312,21.205418 132.860336,23.537197 
	C131.322983,25.199890 130.053085,28.178829 130.402496,30.281483 
	C131.018433,33.988174 134.044617,35.517025 138.623581,34.248569 
z"/>
<path fill="#304655" opacity="1.000000" stroke="none" 
	d="
M198.792633,92.792313 
	C198.235123,93.033798 197.740845,92.980865 197.246552,92.927925 
	C197.360123,92.485077 197.473694,92.042236 197.587250,91.599388 
	C198.010117,91.898888 198.432999,92.198395 198.792633,92.792313 
z"/>
<path fill="#304655" opacity="1.000000" stroke="none" 
	d="
M199.235565,96.624901 
	C198.375916,96.869308 197.743469,96.926178 197.111038,96.983047 
	C197.152176,96.667244 197.193314,96.351448 197.234436,96.035652 
	C197.977219,96.169556 198.719986,96.303452 199.235565,96.624901 
z"/>
<path fill="#304655" opacity="1.000000" stroke="none" 
	d="
M204.887878,95.431580 
	C204.608398,95.999344 204.313248,96.324127 204.018097,96.648911 
	C203.907593,96.386971 203.647217,95.947136 203.711685,95.892822 
	C204.053589,95.604721 204.477036,95.413429 204.887878,95.431580 
z"/>
<path fill="#55ABD3" opacity="1.000000" stroke="none" 
	d="
M188.190979,45.613457 
	C192.075714,47.456070 192.729309,50.713501 191.710449,53.750275 
	C191.115433,55.523754 188.761917,57.427361 186.860428,57.895699 
	C182.619980,58.940121 179.493790,56.381897 179.176773,52.449802 
	C178.825989,48.098724 181.193954,45.590446 185.889450,45.367294 
	C186.536575,45.336536 187.188660,45.409859 188.190979,45.613457 
z"/>
<path fill="#284457" opacity="1.000000" stroke="none" 
	d="
M67.276154,96.757439 
	C66.563675,96.066177 66.100883,95.174957 65.799057,94.083443 
	C66.481956,94.774590 67.003906,95.666039 67.276154,96.757439 
z"/>
<path fill="#D6BC5C" opacity="1.000000" stroke="none" 
	d="
M75.757149,91.833427 
	C75.982819,92.184357 75.910133,92.381760 75.649216,92.833870 
	C75.153740,93.275482 74.846489,93.462395 74.356789,93.666428 
	C74.602493,93.015663 75.030647,92.347778 75.757149,91.833427 
z"/>
<path fill="#0C3458" opacity="1.000000" stroke="none" 
	d="
M71.357300,97.999977 
	C71.591934,97.846588 72.172165,97.692642 72.920456,97.751526 
	C72.626648,97.976044 72.164772,97.987740 71.357300,97.999977 
z"/>
<path fill="#0C3458" opacity="1.000000" stroke="none" 
	d="
M73.761795,94.967072 
	C73.740456,95.084908 73.471954,95.217987 73.111771,95.180061 
	C73.020081,95.009048 73.514633,94.982307 73.761795,94.967072 
z"/>
<path fill="#0C3458" opacity="1.000000" stroke="none" 
	d="
M71.902908,93.830177 
	C71.993622,93.993149 71.497154,94.003479 71.249046,94.013779 
	C71.271362,93.905121 71.541779,93.786163 71.902908,93.830177 
z"/>
<path fill="#3B4653" opacity="1.000000" stroke="none" 
	d="
M138.272461,34.421852 
	C134.044617,35.517025 131.018433,33.988174 130.402496,30.281483 
	C130.053085,28.178829 131.322983,25.199890 132.860336,23.537197 
	C135.016312,21.205418 138.009171,21.778940 140.394684,23.913115 
	C143.483170,26.676184 142.691956,31.119030 138.272461,34.421852 
z"/>
</svg>