<svg version="1.1" id="Layer_1" xmlns="http://www.w3.org/2000/svg" xmlns:xlink="http://www.w3.org/1999/xlink" x="0px" y="0px"
	 width="100%" viewBox="0 0 295 171" enable-background="new 0 0 295 171" xml:space="preserve">
<path fill="#FDFEFE" opacity="1.000000" stroke="none" 
	d="
M190.000000,172.000000 
	C126.666672,172.000000 63.833347,172.000000 1.000017,172.000000 
	C1.000011,115.000015 1.000011,58.000031 1.000006,1.000032 
	C99.333305,1.000021 197.666611,1.000021 295.999939,1.000011 
	C295.999939,57.999969 295.999939,114.999939 295.999969,171.999954 
	C260.833344,172.000000 225.666672,172.000000 190.000000,172.000000 
M132.374863,58.824783 
	C132.626541,58.320305 132.878235,57.815823 133.129929,57.311344 
	C132.338852,57.247032 131.547775,57.182720 130.075409,57.243046 
	C129.000061,57.499550 127.924706,57.756050 126.546570,58.185352 
	C126.487991,58.285000 126.356812,58.417015 126.384155,58.478352 
	C126.473999,58.679874 126.621361,58.855755 126.941452,59.055901 
	C126.941452,59.055901 127.122589,58.982704 126.996452,59.669624 
	C126.918877,60.126251 126.841301,60.582882 126.294006,61.617577 
	C126.028114,63.329166 125.762222,65.040756 125.434166,67.152481 
	C123.235321,66.327057 121.534866,65.688736 119.330376,64.861198 
	C119.610008,66.943993 119.799690,68.356842 119.324547,69.946121 
	C118.874687,69.884247 118.424835,69.822372 117.795845,69.487007 
	C117.464302,69.302231 117.206612,69.390259 116.430275,70.010277 
	C116.030617,70.170464 115.630966,70.330643 115.080284,69.811531 
	C114.653641,69.349907 114.226990,68.888283 113.435585,68.032005 
	C113.312286,70.195282 112.973289,71.689095 113.284813,73.032013 
	C113.397728,73.518723 115.066261,73.644569 116.694389,73.922829 
	C117.133949,73.990578 117.573509,74.058319 118.362762,74.714088 
	C119.557053,75.474388 120.751343,76.234688 121.898872,76.965218 
	C121.407150,78.616150 120.986656,80.027977 120.566147,81.439796 
	C121.837463,81.172493 123.108780,80.905182 125.182663,80.469131 
	C124.609253,83.292213 124.088470,85.856194 123.201103,90.225037 
	C125.509117,88.537186 126.745735,87.632843 128.608185,86.538094 
	C129.655228,86.054604 130.702255,85.571114 132.404160,84.838318 
	C133.569443,85.620560 134.734741,86.402802 135.680420,87.037628 
	C136.547104,86.766541 137.774155,86.382729 139.072021,86.566437 
	C139.375961,86.888741 139.679886,87.211052 139.983826,87.533356 
	C140.164917,87.324257 140.346008,87.115158 140.527100,86.906059 
	C140.017654,86.604362 139.508224,86.302666 138.984909,85.270836 
	C138.107193,83.610397 137.229477,81.949966 136.587570,80.735626 
	C134.572205,81.238327 133.051971,81.617531 131.347382,81.432693 
	C131.279236,81.045006 131.211090,80.657326 131.437714,79.914658 
	C131.503723,79.610504 131.621078,79.327660 132.528778,78.934044 
	C134.687668,77.329407 136.846558,75.724770 139.670670,73.957581 
	C140.118256,73.880753 140.565842,73.803917 141.499817,73.933296 
	C141.670486,73.976646 141.841171,74.019997 142.376938,74.558144 
	C143.091751,74.857071 143.806580,75.155991 144.590530,75.483818 
	C144.963974,73.082344 145.294113,70.959373 145.639862,68.735924 
	C141.201248,66.359055 137.073608,67.933975 133.019012,69.971252 
	C133.019012,69.971252 133.045883,70.196617 132.536850,70.005722 
	C132.356232,70.020386 132.175598,70.035057 131.730743,69.690140 
	C131.538086,69.463531 131.349899,69.233261 131.306168,68.525513 
	C131.306168,68.525513 131.137268,68.061218 131.034622,68.012352 
	C131.034622,68.012352 131.103333,68.102921 131.402878,67.487701 
	C131.533859,66.347168 131.664841,65.206635 132.440735,63.968014 
	C132.790649,63.535942 133.140549,63.103870 133.490463,62.671795 
	C132.922287,62.424717 132.354126,62.177639 131.597900,61.225605 
	C131.664429,60.505825 131.730957,59.786041 132.374863,58.824783 
M156.069626,67.574402 
	C156.374741,67.893806 156.679855,68.213211 156.984970,68.532616 
	C157.165695,68.324203 157.346405,68.115791 157.527115,67.907379 
	C157.021851,67.601364 156.516586,67.295341 155.990540,66.418106 
	C155.973022,66.228386 155.955505,66.038658 155.914551,64.968224 
	C155.980774,62.315620 156.046997,59.663017 156.858246,57.190315 
	C157.505951,59.612240 158.153656,62.034168 158.801361,64.456093 
	C159.113220,64.420189 159.425079,64.384277 159.736938,64.348373 
	C159.899734,61.697010 160.062546,59.045647 160.238388,56.181633 
	C158.700623,56.109974 157.413010,56.049976 155.970123,55.328625 
	C156.016129,54.882339 156.062119,54.436058 156.612411,53.782761 
	C157.746567,53.333820 158.880737,52.884880 160.856125,52.218563 
	C162.593277,52.271580 164.330414,52.324596 166.150406,52.934307 
	C166.781326,53.058025 167.412231,53.181744 168.043152,53.305462 
	C168.037186,52.540119 168.031219,51.774773 167.995941,50.337025 
	C167.994492,49.888435 167.993042,49.439846 168.390503,48.536430 
	C167.260010,48.194016 166.129517,47.851604 164.256134,47.364792 
	C163.503418,47.410461 162.750702,47.456127 161.206696,47.174358 
	C159.816040,47.305759 158.425385,47.437160 156.444901,47.213703 
	C156.220245,46.817211 155.995590,46.420715 155.973358,45.111214 
	C155.973358,41.204983 155.973358,37.298756 155.973358,32.654259 
	C153.873001,33.235600 152.455856,33.627842 150.873367,34.931362 
	C150.608688,47.895187 150.608688,47.895187 137.421082,48.459648 
	C137.511047,49.864380 137.867172,51.315735 137.631119,52.663364 
	C137.236511,54.916050 137.484390,56.972645 140.108475,56.484016 
	C141.258453,56.269882 141.993027,53.824917 143.646683,52.289494 
	C144.132492,52.354660 144.618317,52.419827 145.045975,53.401894 
	C145.364059,55.345478 146.060120,57.316692 145.920486,59.226818 
	C145.641617,63.041924 147.300690,65.126534 150.933685,66.020821 
	C150.933685,66.020821 150.941010,66.134422 150.967407,66.880882 
	C150.392593,68.640717 149.817780,70.400543 149.229279,72.202293 
	C155.665466,72.327499 155.665466,72.327499 153.531815,67.282066 
	C154.405228,67.185738 155.197418,67.098373 156.069626,67.574402 
M107.047653,162.174728 
	C107.047653,162.174728 107.279457,162.251144 107.935547,162.775696 
	C114.548126,164.499039 121.092354,165.332520 127.063652,161.313248 
	C127.063652,161.313248 127.261864,161.337570 127.696869,161.275436 
	C127.696869,161.275436 127.978256,160.937912 128.634369,160.739456 
	C129.615051,159.634949 130.760544,158.636322 131.549301,157.408508 
	C136.168900,150.217346 133.870468,139.017563 126.911972,135.319977 
	C126.297310,135.147919 125.682655,134.975861 124.825806,134.197388 
	C124.219788,134.083206 123.613770,133.969009 122.314194,133.488571 
	C119.207741,133.731827 116.101280,133.975082 112.537697,133.998993 
	C112.371254,133.969620 112.204811,133.940231 112.021431,132.995041 
	C111.955833,128.991699 111.890236,124.988350 112.040062,120.329834 
	C111.697670,119.865799 111.355278,119.401764 110.385605,118.670425 
	C109.939430,118.713173 109.493248,118.755928 108.544952,118.499451 
	C107.743645,119.016624 106.942329,119.533791 105.636162,120.678040 
	C105.758980,132.788376 105.881805,144.898727 105.816139,157.638336 
	C106.216805,159.069702 106.617470,160.501083 107.047653,162.174728 
M135.860229,29.083527 
	C138.258896,29.083527 140.657578,29.083527 143.642822,29.083527 
	C141.848602,23.048794 137.886017,25.845560 134.303574,25.338434 
	C133.833496,25.384758 133.363434,25.431082 132.186646,24.881535 
	C131.989578,21.763752 131.990799,18.613401 131.486984,15.546000 
	C131.312546,14.483910 129.884262,13.627755 129.028687,12.677539 
	C128.344284,13.588787 127.148315,14.458197 127.069733,15.418993 
	C126.816628,18.513592 126.975464,21.641882 126.975464,25.197250 
	C123.744530,25.197250 121.094032,24.989500 118.503830,25.294281 
	C117.387947,25.425585 116.396950,26.618372 115.349213,27.328930 
	C116.348618,27.921686 117.290321,28.863346 118.358543,29.039997 
	C121.249825,29.518135 124.194847,29.671267 126.991570,30.638876 
	C126.948624,31.098736 126.905678,31.558596 126.461807,32.316296 
	C126.588882,32.869797 126.715965,33.423294 126.960190,34.834286 
	C126.921265,36.562778 126.882347,38.291275 126.218498,40.333920 
	C125.098946,40.946556 123.979385,41.559193 122.344460,42.453850 
	C129.179810,45.935650 130.248856,45.691708 131.252090,40.217091 
	C131.180588,37.837566 131.109085,35.458042 131.396393,32.498558 
	C131.927505,31.308739 132.458633,30.118917 133.653305,29.064152 
	C134.100540,29.021431 134.547775,28.978708 135.860229,29.083527 
M117.821068,48.462078 
	C117.693497,48.277634 117.527786,48.138680 117.178574,47.158890 
	C117.001343,44.765980 116.824112,42.373070 116.646881,39.980160 
	C116.000839,39.980625 115.354797,39.981087 114.708748,39.981548 
	C114.382164,42.575294 114.055573,45.169041 113.740700,47.669746 
	C111.018173,48.117386 108.629799,48.510082 106.241425,48.902779 
	C106.238670,49.443245 106.235916,49.983711 106.233154,50.524174 
	C108.643951,51.055439 111.054749,51.586700 113.674278,52.163963 
	C114.045883,54.660431 114.428185,57.228722 114.810486,59.797012 
	C115.342926,59.804272 115.875374,59.811535 116.407814,59.818794 
	C116.709610,58.528355 117.011414,57.237911 117.541801,55.762459 
	C117.687500,55.460709 117.605553,55.221775 117.177177,54.272091 
	C117.241096,53.497456 117.305023,52.722824 117.609932,51.802990 
	C117.759796,51.683369 117.873543,51.535881 118.642372,51.184948 
	C119.114983,51.211491 119.587585,51.238033 120.361206,51.615452 
	C120.887650,51.500042 121.414101,51.384632 122.601273,51.124954 
	C123.393120,50.433998 124.184967,49.743042 124.887123,48.352463 
	C123.768051,47.158947 122.648979,45.965431 120.723106,43.911438 
	C120.346146,46.400646 120.166054,47.589916 119.316833,48.884514 
	C118.869301,48.840420 118.421776,48.796326 117.821068,48.462078 
M157.773666,87.375648 
	C159.598770,86.907776 161.423859,86.439896 163.508911,85.774773 
	C163.662888,85.433289 163.555298,85.181114 163.027939,84.560059 
	C163.027939,84.560059 162.968246,84.079010 163.059311,83.356888 
	C163.315598,82.093636 163.571899,80.830391 163.945374,78.989532 
	C158.399612,81.598175 157.659256,81.372162 155.231354,76.395798 
	C154.482010,75.893166 153.732666,75.390533 152.772415,74.580856 
	C152.514481,74.737152 152.256561,74.893456 151.625641,75.727745 
	C151.411423,78.153297 151.197189,80.578857 150.606094,83.122475 
	C150.359894,83.241035 150.173187,83.421242 149.165909,83.830750 
	C147.226883,84.664886 145.287842,85.499023 143.158218,86.700012 
	C143.705597,86.952629 144.252991,87.205246 145.665329,87.256775 
	C147.136795,87.333061 148.608246,87.409340 150.289093,87.731064 
	C150.459610,87.871689 150.654327,87.957283 151.231888,88.711464 
	C151.231033,90.165871 151.024887,91.660141 151.296951,93.061562 
	C151.499542,94.105110 152.321167,95.028481 152.867096,96.005371 
	C153.714188,95.302025 154.561264,94.598686 155.797623,93.315277 
	C156.208252,91.412521 156.618881,89.509758 157.773666,87.375648 
M163.793488,26.531729 
	C164.953857,27.387897 166.060318,28.892721 167.283417,28.994406 
	C174.918442,29.629169 174.927444,29.525255 175.053406,37.387436 
	C175.061401,37.886894 174.861740,38.519867 175.094833,38.861191 
	C175.801437,39.895981 176.673370,40.817883 177.480911,41.783756 
	C178.221008,40.758060 179.494965,39.783638 179.599350,38.696880 
	C179.891785,35.652313 179.701218,32.561356 179.701218,29.180458 
	C182.929047,29.180458 185.317825,29.535107 187.517761,29.043976 
	C188.784668,28.761147 189.746124,27.110155 190.675873,25.491383 
	C190.108978,25.458576 189.542099,25.425770 188.062027,25.288185 
	C185.464859,25.288185 182.867691,25.288185 179.693222,25.288185 
	C179.693222,22.877573 179.981018,21.046625 179.621674,19.352991 
	C179.153900,17.148464 181.589294,13.120155 177.202835,13.165824 
	C173.159607,13.207919 175.569901,17.013178 175.134567,19.087278 
	C174.747574,20.931074 175.053345,22.920275 175.053345,25.023531 
	C171.599136,25.178440 168.809662,25.303539 165.440414,25.175892 
	C164.958054,25.449200 164.475708,25.722507 163.793488,26.531729 
M167.482361,69.324432 
	C166.320709,69.546150 165.159042,69.767876 163.812302,70.804543 
	C163.208542,73.529236 164.772675,74.172905 167.473343,74.612396 
	C168.984360,74.458450 170.495392,74.304504 172.664291,73.992126 
	C173.111359,74.034744 173.558441,74.077362 174.196503,74.491241 
	C174.364990,74.724297 174.584198,74.890411 174.998306,75.680351 
	C174.889023,76.839058 174.779739,77.997757 173.847031,78.641624 
	C173.159958,78.286369 172.472885,77.931114 171.785797,77.575859 
	C171.435654,77.917923 171.085495,78.259979 170.735352,78.602043 
	C172.108490,80.070038 173.481644,81.538025 174.986328,83.736542 
	C175.070526,84.720490 175.154724,85.704430 174.640808,86.919006 
	C174.274429,87.356461 173.908066,87.793915 173.541687,88.231369 
	C173.781021,88.389267 174.020370,88.547165 174.259720,88.705055 
	C174.609695,88.056580 174.959671,87.408104 176.038879,86.504868 
	C178.767838,86.820496 179.972336,85.844116 179.693451,82.882202 
	C179.423004,80.009872 179.634796,77.092133 179.634796,73.970985 
	C183.164948,73.970985 185.822632,74.148689 188.433533,73.876884 
	C189.377670,73.778587 190.209702,72.603348 191.092880,71.919533 
	C190.184265,71.261772 189.320450,70.127205 188.358505,70.036804 
	C185.615646,69.779030 182.832840,69.946243 180.658112,69.946243 
	C177.674698,65.795990 183.180191,59.210255 175.251007,57.119827 
	C175.104660,60.105408 174.984894,62.548656 174.153122,65.019135 
	C173.612854,65.307976 173.072601,65.596809 172.532349,65.885651 
	C173.311203,66.283852 174.090057,66.682053 174.984573,67.714226 
	C174.926712,68.136711 174.868851,68.559204 174.010101,68.957634 
	C173.023438,69.224373 172.036758,69.491112 170.285522,69.929169 
	C169.509476,69.874672 168.733414,69.820168 167.482361,69.324432 
M42.245991,139.831390 
	C38.210068,139.819412 34.168190,139.668152 30.140158,139.840546 
	C27.054977,139.972610 25.962509,138.660065 26.023474,135.718735 
	C26.125536,130.794510 26.051365,125.866608 26.051365,120.811958 
	C23.644495,120.811958 21.888124,120.811958 19.334927,120.811958 
	C19.334927,127.256294 19.334927,133.450119 19.334927,139.032303 
	C13.223476,139.305862 7.935106,139.542572 2.295842,139.794983 
	C2.499386,141.820679 2.639911,143.219208 2.826025,145.071442 
	C8.620743,145.071442 14.032744,145.071442 19.673546,145.071442 
	C19.673546,150.225143 19.660316,154.882095 19.677021,159.538940 
	C19.696285,164.909302 20.276871,165.287827 26.191053,163.537415 
	C26.191053,157.532425 26.191053,151.418335 26.191053,144.837158 
	C31.936876,144.837158 37.351681,144.837158 42.992638,144.837158 
	C42.992638,142.906616 42.992638,141.456863 42.956455,139.894073 
	C42.956455,139.894073 42.997089,140.022018 42.245991,139.831390 
M201.561035,142.457794 
	C198.527237,135.262085 193.072113,132.014191 185.898117,133.132355 
	C179.026825,134.203339 174.338989,139.536362 173.755798,146.945816 
	C172.789429,159.223969 181.542969,166.221863 194.990982,164.067780 
	C199.427338,163.357178 202.212173,161.752075 200.471481,156.571884 
	C199.312576,156.781387 198.179977,156.986130 197.010590,156.441101 
	C196.912750,153.460098 195.301544,154.469910 193.697296,155.120316 
	C190.737488,156.320282 187.813873,156.797989 184.600494,154.547958 
	C187.764008,152.580612 193.286453,156.986786 193.855850,149.982681 
	C195.576828,150.037369 197.297791,150.092056 199.451996,150.658188 
	C200.939255,151.469315 202.426529,152.280457 203.913788,153.091583 
	C204.152802,152.630753 204.391830,152.169937 204.630844,151.709106 
	C203.730988,151.129303 202.831131,150.549484 202.160156,149.270645 
	C202.296860,148.799728 202.433563,148.328812 202.872513,147.327377 
	C203.416977,146.068192 203.961456,144.808990 204.634766,143.251831 
	C203.582535,143.151077 202.792389,143.075424 201.561035,142.457794 
M245.937317,141.579773 
	C245.937317,138.803391 245.937317,136.027008 245.937317,133.514603 
	C242.382202,133.514603 239.229065,134.013107 236.295776,133.421539 
	C227.344650,131.616302 219.995667,135.598663 218.070572,143.739441 
	C215.715500,153.698547 220.191559,162.091385 229.414597,163.631622 
	C233.720032,164.350632 238.349869,163.659821 242.739655,162.994415 
	C243.950027,162.810944 245.615677,160.474564 245.714752,159.032730 
	C246.090591,153.562881 245.909683,148.054779 245.937317,141.579773 
M66.717850,163.157349 
	C71.801895,163.157608 76.897026,163.334534 81.961151,163.017044 
	C83.043953,162.949173 84.873077,161.110367 84.901329,160.048615 
	C85.138687,151.128830 85.036469,142.199997 85.036469,132.819138 
	C81.746513,133.127319 78.696503,134.053619 75.899559,133.556412 
	C67.071693,131.987091 60.646175,134.761154 57.983601,142.014801 
	C55.278313,149.384781 57.088970,159.878494 66.717850,163.157349 
M262.068939,153.929871 
	C263.965088,161.609314 269.135376,164.903885 277.761719,163.929520 
	C285.341919,163.073318 288.738220,159.214859 288.791382,151.309036 
	C288.829285,145.668442 288.798737,140.027420 288.798737,134.068756 
	C286.518250,134.068756 284.424988,134.068756 282.080444,134.068756 
	C282.080444,139.894699 282.111633,145.521072 282.071686,151.146912 
	C282.031494,156.803787 280.144501,159.090881 275.563416,159.178635 
	C271.103882,159.264053 268.890930,156.742691 268.835297,151.324142 
	C268.776337,145.582718 268.822052,139.840225 268.822052,134.033112 
	C266.304504,134.033112 264.354645,134.033112 262.036377,134.033112 
	C262.036377,140.489075 262.036377,146.765778 262.068939,153.929871 
M156.227448,161.451797 
	C156.227448,145.331635 156.227448,129.211456 156.227448,112.832642 
	C153.927795,112.832642 152.045486,112.832642 150.193192,112.832642 
	C150.193192,132.005325 150.193192,150.894089 150.193192,170.006714 
	C152.332977,169.902954 154.087967,169.817841 156.226562,169.714142 
	C156.226562,167.032608 156.226562,164.732254 156.227448,161.451797 
M188.133850,57.057266 
	C187.984314,59.998650 189.173416,60.971165 192.247238,59.694420 
	C192.247238,57.184986 192.247238,54.732677 192.247238,51.955967 
	C194.159317,51.865444 195.811279,51.968815 197.374420,51.644318 
	C198.294601,51.453293 199.073822,50.583141 199.916443,50.018433 
	C199.011688,49.348091 198.193314,48.352165 197.181900,48.083790 
	C195.668457,47.682205 194.019287,47.792168 192.303970,47.676167 
	C192.135468,44.607964 191.993622,42.025127 191.826324,38.978699 
	C185.444473,39.855091 189.745499,45.218899 186.957642,47.968231 
	C185.968262,47.968231 184.311050,47.751781 182.753922,48.052883 
	C181.879807,48.221912 181.171173,49.246750 180.387985,49.886013 
	C181.191635,50.498329 181.920013,51.448418 182.815628,51.648026 
	C184.366501,51.993656 186.020996,51.874229 187.886444,51.961811 
	C187.975967,53.598618 188.046860,54.894932 188.133850,57.057266 
M154.295258,4.325217 
	C148.915100,4.977373 154.012283,9.937828 150.559097,11.934732 
	C148.873779,12.167196 146.453354,12.501052 144.032944,12.834908 
	C144.029388,13.386134 144.025833,13.937361 144.022278,14.488587 
	C146.443954,14.834176 148.865616,15.179766 151.558517,15.564061 
	C151.677765,17.164894 151.728485,18.626858 151.911728,20.072016 
	C152.074524,21.355793 152.384354,22.620926 152.629288,23.894289 
	C153.182541,23.888536 153.735809,23.882782 154.289062,23.877029 
	C154.672562,21.011290 155.056046,18.145550 155.412231,15.483740 
	C158.063721,15.125528 160.323975,14.820170 162.584244,14.514812 
	C162.596756,13.989121 162.609283,13.463432 162.621811,12.937742 
	C160.167282,12.542447 157.712769,12.147152 155.152756,11.734868 
	C155.025223,9.311325 154.912659,7.172549 154.295258,4.325217 
M138.516830,65.413521 
	C138.516830,65.413521 138.581970,65.523170 138.516830,65.413521 
M141.517700,79.413025 
	C141.517700,79.413025 141.583374,79.523056 141.517700,79.413025 
M144.412720,79.483093 
	C144.412720,79.483093 144.522339,79.418098 144.412720,79.483093 
M132.588364,88.516617 
	C132.588364,88.516617 132.476685,88.583221 132.588364,88.516617 
z"/>
<path fill="#294D85" opacity="1.000000" stroke="none" 
	d="
M245.937149,142.070374 
	C245.909683,148.054779 246.090591,153.562881 245.714752,159.032730 
	C245.615677,160.474564 243.950027,162.810944 242.739655,162.994415 
	C238.349869,163.659821 233.720032,164.350632 229.414597,163.631622 
	C220.191559,162.091385 215.715500,153.698547 218.070572,143.739441 
	C219.995667,135.598663 227.344650,131.616302 236.295776,133.421539 
	C239.229065,134.013107 242.382202,133.514603 245.937317,133.514603 
	C245.937317,136.027008 245.937317,138.803391 245.937149,142.070374 
M230.348312,157.764069 
	C239.163986,158.674820 239.166397,158.674866 239.310669,150.001694 
	C239.343903,148.004044 239.216873,145.992844 239.407227,144.011276 
	C239.695908,141.006119 237.976608,139.855240 235.468689,139.245026 
	C231.064026,138.173340 226.947998,140.160355 225.205917,144.218521 
	C223.054626,149.229950 224.673050,154.149963 230.348312,157.764069 
z"/>
<path fill="#274B83" opacity="1.000000" stroke="none" 
	d="
M199.018768,150.146744 
	C197.297791,150.092056 195.576828,150.037369 192.973953,149.974579 
	C188.382553,149.966476 184.673035,149.966476 180.963531,149.966476 
	C180.635269,150.485870 180.307022,151.005249 179.978775,151.524643 
	C181.949417,153.597260 183.611374,156.846542 185.963821,157.463669 
	C189.398148,158.364624 193.328476,157.374756 197.047379,157.190887 
	C198.179977,156.986130 199.312576,156.781387 200.471481,156.571884 
	C202.212173,161.752075 199.427338,163.357178 194.990982,164.067780 
	C181.542969,166.221863 172.789429,159.223969 173.755798,146.945816 
	C174.338989,139.536362 179.026825,134.203339 185.898117,133.132355 
	C193.072113,132.014191 198.527237,135.262085 201.754639,143.139465 
	C202.155594,145.166718 202.362930,146.512314 202.570267,147.857895 
	C202.433563,148.328812 202.296860,148.799728 201.679169,149.604843 
	C200.471710,150.008270 199.745239,150.077515 199.018768,150.146744 
M187.054245,139.197189 
	C184.948807,140.709396 182.843369,142.221588 180.737930,143.733780 
	C180.981308,144.216965 181.224686,144.700134 181.468063,145.183304 
	C183.717056,145.183304 185.966064,145.183289 188.215057,145.183289 
	C190.440735,145.183289 192.666397,145.183304 195.151474,145.183304 
	C194.586578,140.026398 191.776245,138.809509 187.054245,139.197189 
z"/>
<path fill="#224781" opacity="1.000000" stroke="none" 
	d="
M66.329079,163.045868 
	C57.088970,159.878494 55.278313,149.384781 57.983601,142.014801 
	C60.646175,134.761154 67.071693,131.987091 75.899559,133.556412 
	C78.696503,134.053619 81.746513,133.127319 85.036469,132.819138 
	C85.036469,142.199997 85.138687,151.128830 84.901329,160.048615 
	C84.873077,161.110367 83.043953,162.949173 81.961151,163.017044 
	C76.897026,163.334534 71.801895,163.157608 66.329079,163.045868 
M78.751846,150.419312 
	C78.752350,148.266220 79.124107,146.024017 78.635490,143.988327 
	C78.247078,142.370132 77.136208,140.263062 75.774986,139.658142 
	C70.563744,137.342270 65.178200,140.382675 63.975163,145.896606 
	C61.991058,154.990417 68.207268,159.929749 78.752647,157.043930 
	C78.752647,155.258499 78.752647,153.304138 78.751846,150.419312 
z"/>
<path fill="#2C4F87" opacity="1.000000" stroke="none" 
	d="
M262.052673,153.486176 
	C262.036377,146.765778 262.036377,140.489075 262.036377,134.033112 
	C264.354645,134.033112 266.304504,134.033112 268.822052,134.033112 
	C268.822052,139.840225 268.776337,145.582718 268.835297,151.324142 
	C268.890930,156.742691 271.103882,159.264053 275.563416,159.178635 
	C280.144501,159.090881 282.031494,156.803787 282.071686,151.146912 
	C282.111633,145.521072 282.080444,139.894699 282.080444,134.068756 
	C284.424988,134.068756 286.518250,134.068756 288.798737,134.068756 
	C288.798737,140.027420 288.829285,145.668442 288.791382,151.309036 
	C288.738220,159.214859 285.341919,163.073318 277.761719,163.929520 
	C269.135376,164.903885 263.965088,161.609314 262.052673,153.486176 
z"/>
<path fill="#254983" opacity="1.000000" stroke="none" 
	d="
M42.992638,140.007111 
	C42.992638,141.456863 42.992638,142.906616 42.992638,144.837158 
	C37.351681,144.837158 31.936876,144.837158 26.191053,144.837158 
	C26.191053,151.418335 26.191053,157.532425 26.191053,163.537415 
	C20.276871,165.287827 19.696285,164.909302 19.677021,159.538940 
	C19.660316,154.882095 19.673546,150.225143 19.673546,145.071442 
	C14.032744,145.071442 8.620743,145.071442 2.826025,145.071442 
	C2.639911,143.219208 2.499386,141.820679 2.295842,139.794983 
	C7.935106,139.542572 13.223476,139.305862 19.334927,139.032303 
	C19.334927,133.450119 19.334927,127.256294 19.334927,120.811958 
	C21.888124,120.811958 23.644495,120.811958 26.051365,120.811958 
	C26.051365,125.866608 26.125536,130.794510 26.023474,135.718735 
	C25.962509,138.660065 27.054977,139.972610 30.140158,139.840546 
	C34.168190,139.668152 38.210068,139.819412 42.619576,139.922882 
	C42.993164,140.014389 42.992638,140.007111 42.992638,140.007111 
M22.138397,135.635925 
	C22.513496,135.860977 22.888596,136.086014 23.263691,136.311066 
	C23.532290,131.436356 23.800888,126.561653 24.069487,121.686951 
	C23.387157,121.692856 22.704826,121.698761 22.022497,121.704666 
	C22.022497,126.073044 22.022497,130.441422 22.138397,135.635925 
z"/>
<path fill="#19407D" opacity="1.000000" stroke="none" 
	d="
M156.227005,161.941849 
	C156.226562,164.732254 156.226562,167.032608 156.226562,169.714142 
	C154.087967,169.817841 152.332977,169.902954 150.193192,170.006714 
	C150.193192,150.894089 150.193192,132.005325 150.193192,112.832642 
	C152.045486,112.832642 153.927795,112.832642 156.227448,112.832642 
	C156.227448,129.211456 156.227448,145.331635 156.227005,161.941849 
z"/>
<path fill="#36578A" opacity="1.000000" stroke="none" 
	d="
M175.238922,86.688377 
	C175.154724,85.704430 175.070526,84.720490 174.997513,83.068771 
	C174.895950,81.319481 174.783203,80.237976 174.670471,79.156464 
	C174.779739,77.997757 174.889023,76.839058 174.955658,75.065231 
	C174.610504,74.340065 174.307999,74.230019 174.005508,74.119972 
	C173.558441,74.077362 173.111359,74.034744 171.925842,73.986824 
	C169.800690,74.038925 168.414001,74.096336 167.027298,74.153748 
	C164.772675,74.172905 163.208542,73.529236 164.302948,70.383499 
	C165.848190,69.896858 166.902771,69.831268 167.957367,69.765671 
	C168.733414,69.820168 169.509476,69.874672 170.978394,69.942780 
	C172.717834,69.631493 173.764404,69.306587 174.810989,68.981689 
	C174.868851,68.559204 174.926712,68.136711 175.008331,67.142784 
	C174.976425,66.044861 174.920776,65.518387 174.865128,64.991905 
	C174.984894,62.548656 175.104660,60.105408 175.251007,57.119827 
	C183.180191,59.210255 177.674698,65.795990 180.658112,69.946243 
	C182.832840,69.946243 185.615646,69.779030 188.358505,70.036804 
	C189.320450,70.127205 190.184265,71.261772 191.092880,71.919533 
	C190.209702,72.603348 189.377670,73.778587 188.433533,73.876884 
	C185.822632,74.148689 183.164948,73.970985 179.634796,73.970985 
	C179.634796,77.092133 179.423004,80.009872 179.693451,82.882202 
	C179.972336,85.844116 178.767838,86.820496 175.581360,86.689079 
	C175.123840,86.873291 175.238922,86.688377 175.238922,86.688377 
z"/>
<path fill="#1E4582" opacity="1.000000" stroke="none" 
	d="
M109.047073,118.798676 
	C109.493248,118.755928 109.939430,118.713173 110.707130,119.094902 
	C111.293983,120.007919 111.559319,120.496460 111.824646,120.985008 
	C111.890236,124.988350 111.955833,128.991699 112.003853,133.739655 
	C111.992203,134.676086 111.998123,134.867889 112.001358,135.498550 
	C112.045998,137.399200 112.093330,138.860992 112.118713,140.613632 
	C111.986877,141.277466 111.876991,141.650482 111.559776,142.222900 
	C111.499474,143.273300 111.646492,144.124298 111.867752,145.416351 
	C111.875999,148.235245 111.810013,150.613083 111.361397,152.996078 
	C109.623421,154.479446 108.268066,155.957687 106.779991,157.580673 
	C107.007927,157.748718 106.506279,157.378891 106.004623,157.009064 
	C105.881805,144.898727 105.758980,132.788376 106.182961,120.399185 
	C107.502197,119.679787 108.274635,119.239235 109.047073,118.798676 
z"/>
<path fill="#5F899C" opacity="1.000000" stroke="none" 
	d="
M166.020203,25.428638 
	C168.809662,25.303539 171.599136,25.178440 175.053345,25.023531 
	C175.053345,22.920275 174.747574,20.931074 175.134567,19.087278 
	C175.569901,17.013178 173.159607,13.207919 177.202835,13.165824 
	C181.589294,13.120155 179.153900,17.148464 179.621674,19.352991 
	C179.981018,21.046625 179.693222,22.877573 179.693222,25.288185 
	C182.867691,25.288185 185.464859,25.288185 188.707458,25.512768 
	C189.850281,25.849901 190.347672,25.962452 190.845078,26.075001 
	C189.746124,27.110155 188.784668,28.761147 187.517761,29.043976 
	C185.317825,29.535107 182.929047,29.180458 179.701218,29.180458 
	C179.701218,32.561356 179.891785,35.652313 179.599350,38.696880 
	C179.494965,39.783638 178.221008,40.758060 177.480911,41.783760 
	C176.673370,40.817883 175.801437,39.895981 175.094833,38.861191 
	C174.861740,38.519867 175.061401,37.886894 175.053406,37.387436 
	C174.927444,29.525255 174.918442,29.629169 167.283417,28.994406 
	C166.060318,28.892721 164.953857,27.387897 164.165527,26.249580 
	C165.031769,25.787832 165.525986,25.608236 166.020203,25.428638 
z"/>
<path fill="#E7742B" opacity="1.000000" stroke="none" 
	d="
M167.991577,48.991257 
	C167.993042,49.439846 167.994492,49.888435 167.690460,50.752712 
	C166.945831,51.571468 166.506699,51.974537 166.067566,52.377609 
	C164.330414,52.324596 162.593277,52.271580 160.066284,52.235748 
	C158.083817,52.496254 156.891205,52.739571 155.403320,53.163322 
	C153.761383,53.563431 152.414688,53.783104 150.940445,53.692928 
	C148.909958,53.083717 147.007050,52.784355 145.104126,52.484997 
	C144.618317,52.419827 144.132492,52.354660 143.015305,52.186298 
	C140.907532,50.719971 139.431152,49.356834 137.954758,47.993698 
	C150.608688,47.895187 150.608688,47.895187 151.373108,34.474602 
	C152.926331,35.099323 154.612457,36.033867 154.904709,37.292141 
	C155.560928,40.117489 155.525055,43.103573 155.770935,46.024223 
	C155.995590,46.420715 156.220245,46.817211 157.017914,47.548637 
	C159.059937,47.756310 160.528961,47.629051 161.997986,47.501793 
	C162.750702,47.456127 163.503418,47.410461 164.860229,47.607265 
	C166.306732,48.230247 167.149155,48.610752 167.991577,48.991257 
z"/>
<path fill="#254985" opacity="1.000000" stroke="none" 
	d="
M123.007751,133.854813 
	C123.613770,133.969009 124.219788,134.083206 124.926003,134.812515 
	C125.076721,136.009308 125.127235,136.590973 125.194244,137.362579 
	C125.998245,136.785110 126.603630,136.350296 127.209015,135.915482 
	C133.870468,139.017563 136.168900,150.217346 131.549301,157.408508 
	C130.760544,158.636322 129.615051,159.634949 128.187286,160.686218 
	C127.580750,160.867844 127.421310,161.102707 127.261864,161.337570 
	C127.261864,161.337570 127.063652,161.313248 126.833969,161.199951 
	C122.382759,160.695221 118.161224,160.303787 113.655724,159.886032 
	C114.256325,159.097275 114.626701,158.610855 115.415840,158.093750 
	C118.818504,157.351486 121.802414,156.639923 125.164825,155.901093 
	C125.952446,154.832718 126.361565,153.791611 126.798180,152.821594 
	C126.825676,152.892670 126.673401,152.885559 127.003830,152.746796 
	C127.287773,151.086334 127.241280,149.564667 127.112602,147.704330 
	C127.051567,146.904434 127.072716,146.443207 127.353821,145.721375 
	C127.750061,143.979721 127.886345,142.498672 128.160156,140.957230 
	C128.192566,140.923752 128.087448,140.950668 127.558105,140.981232 
	C126.287262,141.034912 125.440651,141.084930 124.418365,141.154083 
	C124.242699,141.173218 123.983658,140.932800 123.851387,140.717316 
	C123.415947,140.367340 123.112785,140.232834 122.841324,140.096893 
	C122.873024,140.095459 122.822792,140.135986 122.881905,139.691116 
	C122.963264,137.449097 122.985504,135.651962 123.007751,133.854813 
z"/>
<path fill="#6D7598" opacity="1.000000" stroke="none" 
	d="
M188.125809,56.624256 
	C188.046860,54.894932 187.975967,53.598618 187.886444,51.961811 
	C186.020996,51.874229 184.366501,51.993656 182.815628,51.648026 
	C181.920013,51.448418 181.191635,50.498329 180.387985,49.886013 
	C181.171173,49.246750 181.879807,48.221912 182.753922,48.052883 
	C184.311050,47.751781 185.968262,47.968231 186.957642,47.968231 
	C189.745499,45.218899 185.444473,39.855091 191.826324,38.978699 
	C191.993622,42.025127 192.135468,44.607964 192.303970,47.676167 
	C194.019287,47.792168 195.668457,47.682205 197.181900,48.083790 
	C198.193314,48.352165 199.011688,49.348091 199.916443,50.018433 
	C199.073822,50.583141 198.294601,51.453293 197.374420,51.644318 
	C195.811279,51.968815 194.159317,51.865444 192.247238,51.955967 
	C192.247238,54.732677 192.247238,57.184986 192.247238,59.694420 
	C189.173416,60.971165 187.984314,59.998650 188.125809,56.624256 
z"/>
<path fill="#ED9C42" opacity="1.000000" stroke="none" 
	d="
M127.118561,29.953302 
	C124.194847,29.671267 121.249825,29.518135 118.358543,29.039997 
	C117.290321,28.863346 116.348618,27.921686 115.349213,27.328930 
	C116.396950,26.618372 117.387947,25.425585 118.503830,25.294281 
	C121.094032,24.989500 123.744530,25.197250 126.975464,25.197250 
	C126.975464,21.641882 126.816628,18.513592 127.069733,15.418993 
	C127.148315,14.458197 128.344284,13.588787 129.028687,12.677538 
	C129.884262,13.627755 131.312546,14.483910 131.486984,15.546000 
	C131.990799,18.613401 131.989578,21.763752 132.393707,25.386518 
	C132.730438,26.904034 132.860092,27.916567 132.989761,28.929096 
	C132.458633,30.118917 131.927505,31.308739 131.163696,32.449944 
	C130.300766,30.587694 129.995804,28.267523 127.118561,29.953302 
z"/>
<path fill="#646B92" opacity="1.000000" stroke="none" 
	d="
M150.982971,83.004410 
	C151.197189,80.578857 151.411423,78.153297 152.065338,75.391113 
	C152.664459,74.998955 152.823883,74.943428 152.983322,74.887909 
	C153.732666,75.390533 154.482010,75.893166 155.233688,77.161530 
	C155.236023,79.817856 155.236023,81.708458 155.236023,83.716118 
	C158.361008,83.862778 160.664627,83.970894 162.968246,84.079010 
	C162.968246,84.079010 163.027939,84.560059 163.050354,85.032349 
	C163.072784,85.504646 163.248962,85.972023 163.248962,85.972015 
	C161.423859,86.439896 159.598770,86.907776 156.983231,87.528336 
	C155.931320,89.752464 155.669846,91.823906 155.408356,93.895340 
	C154.561264,94.598686 153.714188,95.302025 152.867096,96.005371 
	C152.321167,95.028481 151.499542,94.105110 151.296951,93.061562 
	C151.024887,91.660141 151.231033,90.165871 151.020386,88.151886 
	C150.596436,87.348137 150.353378,87.312576 150.079712,87.485619 
	C148.608246,87.409340 147.136795,87.333061 145.157898,87.001930 
	C144.216599,86.609108 143.782700,86.471130 143.348816,86.333153 
	C145.287842,85.499023 147.226883,84.664886 149.842270,83.795700 
	C150.890274,83.641808 151.045059,83.389725 150.982971,83.004410 
z"/>
<path fill="#CB2A41" opacity="1.000000" stroke="none" 
	d="
M126.763725,61.039509 
	C126.841301,60.582882 126.918877,60.126251 127.341652,59.462700 
	C128.844467,59.119392 130.002075,58.983002 131.135300,58.855602 
	C131.110916,58.864594 131.140244,58.837990 131.068329,59.266682 
	C131.042404,60.561378 131.088394,61.427387 131.218079,62.529266 
	C131.251938,63.090416 131.202103,63.415684 131.015869,64.036819 
	C130.954102,65.589424 131.028717,66.846176 131.103333,68.102921 
	C131.103333,68.102921 131.034622,68.012352 130.898193,68.105530 
	C130.896591,68.465584 131.031387,68.732460 131.166183,68.999336 
	C131.349899,69.233261 131.538086,69.463531 131.938751,70.042404 
	C132.446472,70.328659 132.746170,70.262634 133.045883,70.196617 
	C133.045883,70.196617 133.019012,69.971252 133.319214,69.968628 
	C134.069229,70.055885 134.519028,70.145767 134.973938,70.547165 
	C133.979034,71.862610 132.979050,72.866539 131.830505,74.062675 
	C131.486923,74.513756 131.282272,74.764771 130.806656,74.908401 
	C129.973663,74.662643 129.401993,74.516426 128.830338,74.370216 
	C129.196976,74.905876 129.563599,75.441528 129.930069,76.238419 
	C129.931473,76.673790 129.933029,76.847939 129.595062,77.080826 
	C126.221107,80.216011 129.833450,81.249680 131.162109,83.335579 
	C131.207306,84.093277 131.151978,84.531494 130.702515,84.984802 
	C129.257004,84.993599 128.205643,84.987312 127.082146,84.524597 
	C127.010002,80.789505 127.010002,77.510857 127.010002,74.126068 
	C123.597282,74.126068 120.805176,74.126068 118.013069,74.126068 
	C117.573509,74.058319 117.133949,73.990578 116.250282,73.651176 
	C115.614555,72.416626 115.422928,71.453728 115.231308,70.490829 
	C115.630966,70.330643 116.030617,70.170464 116.963791,69.962051 
	C117.656532,69.862724 117.815758,69.811607 117.974976,69.760498 
	C118.424835,69.822372 118.874687,69.884247 120.068146,69.972122 
	C122.918739,69.664299 125.025734,69.330482 127.392113,68.843933 
	C127.479050,67.461838 127.306610,66.232483 127.074722,64.608139 
	C126.931427,63.155270 126.847572,62.097389 126.763725,61.039509 
z"/>
<path fill="#83A2AC" opacity="1.000000" stroke="none" 
	d="
M154.547684,4.679495 
	C154.912659,7.172549 155.025223,9.311325 155.152756,11.734868 
	C157.712769,12.147152 160.167282,12.542447 162.621811,12.937742 
	C162.609283,13.463432 162.596756,13.989121 162.584244,14.514812 
	C160.323975,14.820170 158.063721,15.125528 155.412231,15.483740 
	C155.056046,18.145550 154.672562,21.011290 154.289062,23.877029 
	C153.735809,23.882782 153.182541,23.888536 152.629288,23.894289 
	C152.384354,22.620926 152.074524,21.355793 151.911728,20.072016 
	C151.728485,18.626858 151.677765,17.164894 151.558517,15.564061 
	C148.865616,15.179766 146.443954,14.834176 144.022278,14.488587 
	C144.025833,13.937361 144.029388,13.386134 144.032944,12.834908 
	C146.453354,12.501052 148.873779,12.167196 150.559097,11.934732 
	C154.012283,9.937828 148.915100,4.977373 154.547684,4.679495 
z"/>
<path fill="#86A6AF" opacity="1.000000" stroke="none" 
	d="
M124.976814,49.052086 
	C124.184967,49.743042 123.393120,50.433998 121.960388,51.127747 
	C120.899727,51.175217 120.479965,51.219898 120.060196,51.264576 
	C119.587585,51.238033 119.114983,51.211491 118.116150,51.262070 
	C117.315811,51.469307 117.242149,51.672306 117.368942,51.948189 
	C117.305023,52.722824 117.241096,53.497456 117.181305,54.885368 
	C117.185425,55.498642 117.313217,55.947472 117.313217,55.947472 
	C117.011414,57.237911 116.709610,58.528355 116.407814,59.818794 
	C115.875374,59.811535 115.342926,59.804272 114.810486,59.797012 
	C114.428185,57.228722 114.045883,54.660431 113.674278,52.163963 
	C111.054749,51.586700 108.643951,51.055439 106.233154,50.524174 
	C106.235916,49.983711 106.238670,49.443245 106.241425,48.902779 
	C108.629799,48.510082 111.018173,48.117386 113.740700,47.669746 
	C114.055573,45.169041 114.382164,42.575294 114.708748,39.981548 
	C115.354797,39.981087 116.000839,39.980625 116.646881,39.980160 
	C116.824112,42.373070 117.001343,44.765980 117.237892,47.802555 
	C117.437958,48.735870 117.663635,48.837872 117.974243,48.752232 
	C118.421776,48.796326 118.869301,48.840420 120.064301,48.890297 
	C122.200119,48.948086 123.588463,49.000088 124.976814,49.052086 
z"/>
<path fill="#F4F8F9" opacity="1.000000" stroke="none" 
	d="
M197.028992,156.815994 
	C193.328476,157.374756 189.398148,158.364624 185.963821,157.463669 
	C183.611374,156.846542 181.949417,153.597260 179.978775,151.524643 
	C180.307022,151.005249 180.635269,150.485870 180.963531,149.966476 
	C184.673035,149.966476 188.382553,149.966476 192.549408,150.051102 
	C193.286453,156.986786 187.764008,152.580612 184.600494,154.547958 
	C187.813873,156.797989 190.737488,156.320282 193.697296,155.120316 
	C195.301544,154.469910 196.912750,153.460098 197.028992,156.815994 
z"/>
<path fill="#F8F6F5" opacity="1.000000" stroke="none" 
	d="
M118.187912,74.420074 
	C120.805176,74.126068 123.597282,74.126068 127.010002,74.126068 
	C127.010002,77.510857 127.010002,80.789505 127.037895,84.783432 
	C127.371307,85.908638 127.676826,86.318565 127.982346,86.728500 
	C126.745735,87.632843 125.509117,88.537186 123.201103,90.225037 
	C124.088470,85.856194 124.609253,83.292213 125.182663,80.469131 
	C123.108780,80.905182 121.837463,81.172493 120.566147,81.439796 
	C120.986656,80.027977 121.407150,78.616150 121.898872,76.965218 
	C120.751343,76.234688 119.557053,75.474388 118.187912,74.420074 
z"/>
<path fill="#F8F6F5" opacity="1.000000" stroke="none" 
	d="
M145.075043,52.943443 
	C147.007050,52.784355 148.909958,53.083717 150.819717,54.140450 
	C150.824875,58.612045 150.823212,62.326271 150.821548,66.040497 
	C147.300690,65.126534 145.641617,63.041924 145.920486,59.226818 
	C146.060120,57.316692 145.364059,55.345478 145.075043,52.943443 
z"/>
<path fill="#EC7B37" opacity="1.000000" stroke="none" 
	d="
M150.877625,66.030655 
	C150.823212,62.326271 150.824875,58.612045 150.947281,54.450298 
	C152.414688,53.783104 153.761383,53.563431 155.502441,53.416374 
	C155.967270,53.655922 156.037704,53.822845 156.108124,53.989773 
	C156.062119,54.436058 156.016129,54.882339 155.984711,55.913712 
	C156.037277,56.669334 156.075256,56.839874 156.113220,57.010414 
	C156.046997,59.663017 155.980774,62.315620 155.513336,65.474991 
	C153.721756,66.032646 152.331390,66.083534 150.941010,66.134422 
	C150.941010,66.134422 150.933685,66.020821 150.877625,66.030655 
z"/>
<path fill="#1E4178" opacity="1.000000" stroke="none" 
	d="
M122.660973,133.671692 
	C122.985504,135.651962 122.963264,137.449097 122.542282,139.564270 
	C118.621056,135.755524 115.456764,139.762802 112.140663,140.322800 
	C112.093330,138.860992 112.045998,137.399200 112.214081,135.418655 
	C112.716812,134.754730 112.905258,134.527542 112.994827,134.218338 
	C116.101280,133.975082 119.207741,133.731827 122.660973,133.671692 
z"/>
<path fill="#24467A" opacity="1.000000" stroke="none" 
	d="
M114.997086,158.124451 
	C114.626701,158.610855 114.256325,159.097275 113.655724,159.886032 
	C118.161224,160.303787 122.382759,160.695221 126.933205,161.188889 
	C121.092354,165.332520 114.548126,164.499039 108.040604,162.452377 
	C109.506371,161.985596 110.867088,161.842133 112.199501,161.701645 
	C112.120499,159.912994 112.057121,158.478104 112.295158,157.152893 
	C113.396744,157.549866 114.196922,157.837158 114.997086,158.124451 
z"/>
<path fill="#EA9737" opacity="1.000000" stroke="none" 
	d="
M127.055069,30.296089 
	C129.995804,28.267523 130.300766,30.587694 130.984283,32.739922 
	C131.109085,35.458042 131.180588,37.837566 130.938934,40.699207 
	C129.365005,40.794140 128.104218,40.406952 126.843430,40.019768 
	C126.882347,38.291275 126.921265,36.562778 126.967979,34.081779 
	C126.938087,32.892338 126.900414,32.455395 126.862732,32.018456 
	C126.905678,31.558596 126.948624,31.098736 127.055069,30.296089 
z"/>
<path fill="#F8F6F5" opacity="1.000000" stroke="none" 
	d="
M134.968826,70.235641 
	C134.519028,70.145767 134.069229,70.055885 133.291458,69.858597 
	C137.073608,67.933975 141.201248,66.359055 145.639862,68.735924 
	C145.294113,70.959373 144.963974,73.082344 144.590530,75.483818 
	C143.806580,75.155991 143.091751,74.857071 142.293945,74.110291 
	C142.210938,73.662445 142.274765,73.219437 142.265579,73.209938 
	C142.256393,73.200439 142.238022,73.188950 142.504868,72.918167 
	C141.982132,71.755409 141.309784,70.285858 140.377548,70.096603 
	C138.655045,69.746902 136.780197,70.147568 134.968826,70.235641 
z"/>
<path fill="#F8F6F5" opacity="1.000000" stroke="none" 
	d="
M163.013779,83.717949 
	C160.664627,83.970894 158.361008,83.862778 155.236023,83.716118 
	C155.236023,81.708458 155.236023,79.817856 155.330688,77.514893 
	C157.659256,81.372162 158.399612,81.598175 163.945374,78.989532 
	C163.571899,80.830391 163.315598,82.093636 163.013779,83.717949 
z"/>
<path fill="#ED9C42" opacity="1.000000" stroke="none" 
	d="
M134.987564,25.544020 
	C137.886017,25.845560 141.848602,23.048794 143.642822,29.083527 
	C140.657578,29.083527 138.258896,29.083527 135.430756,28.669445 
	C134.996704,27.351583 134.992142,26.447802 134.987564,25.544020 
z"/>
<path fill="#F8F6F5" opacity="1.000000" stroke="none" 
	d="
M126.528870,61.328545 
	C126.847572,62.097389 126.931427,63.155270 126.990807,65.002014 
	C127.021805,66.859482 127.077271,67.928078 127.132736,68.996674 
	C125.025734,69.330482 122.918739,69.664299 120.400558,69.883904 
	C119.799690,68.356842 119.610008,66.943993 119.330376,64.861198 
	C121.534866,65.688736 123.235321,66.327057 125.434166,67.152481 
	C125.762222,65.040756 126.028114,63.329166 126.528870,61.328545 
z"/>
<path fill="#F8F6F5" opacity="1.000000" stroke="none" 
	d="
M137.687927,48.226673 
	C139.431152,49.356834 140.907532,50.719971 142.650085,52.238014 
	C141.993027,53.824917 141.258453,56.269882 140.108475,56.484016 
	C137.484390,56.972645 137.236511,54.916050 137.631119,52.663364 
	C137.867172,51.315735 137.511047,49.864380 137.687927,48.226673 
z"/>
<path fill="#24467A" opacity="1.000000" stroke="none" 
	d="
M105.910385,157.323700 
	C106.506279,157.378891 107.007927,157.748718 106.779991,157.580673 
	C108.268066,155.957687 109.623421,154.479446 111.461212,153.366150 
	C111.861855,154.484909 111.780052,155.238754 111.361305,156.091309 
	C109.688950,158.104172 108.353546,160.018311 107.018143,161.932449 
	C106.617470,160.501083 106.216805,159.069702 105.910385,157.323700 
z"/>
<path fill="#F8F6F5" opacity="1.000000" stroke="none" 
	d="
M131.096664,84.969704 
	C131.151978,84.531494 131.207306,84.093277 131.278076,83.080017 
	C131.372925,82.335564 131.452332,82.166145 131.531723,81.996735 
	C133.051971,81.617531 134.572205,81.238327 136.587570,80.735626 
	C137.229477,81.949966 138.107193,83.610397 138.992462,85.635422 
	C139.000000,86.000000 139.001205,85.998924 139.001205,85.998917 
	C137.774155,86.382729 136.547104,86.766541 135.680420,87.037628 
	C134.734741,86.402802 133.569443,85.620560 131.911438,84.945557 
	C131.418701,85.052803 131.096664,84.969704 131.096664,84.969704 
z"/>
<path fill="#F8F6F5" opacity="1.000000" stroke="none" 
	d="
M126.530960,40.176842 
	C128.104218,40.406952 129.365005,40.794140 130.952240,41.148064 
	C130.248856,45.691708 129.179810,45.935650 122.344460,42.453850 
	C123.979385,41.559193 125.098946,40.946556 126.530960,40.176842 
M125.587723,42.517067 
	C125.587723,42.517067 125.476868,42.583172 125.587723,42.517067 
z"/>
<path fill="#F8F6F5" opacity="1.000000" stroke="none" 
	d="
M150.954208,66.507652 
	C152.331390,66.083534 153.721756,66.032646 155.525055,65.915344 
	C155.955505,66.038658 155.973022,66.228386 155.995300,66.709015 
	C156.000076,66.999916 155.989609,67.011002 155.989609,67.011002 
	C155.197418,67.098373 154.405228,67.185738 153.531815,67.282066 
	C155.665466,72.327499 155.665466,72.327499 149.229279,72.202293 
	C149.817780,70.400543 150.392593,68.640717 150.954208,66.507652 
z"/>
<path fill="#F8F6F5" opacity="1.000000" stroke="none" 
	d="
M131.067993,75.007935 
	C131.282272,74.764771 131.486923,74.513756 132.262970,74.096916 
	C134.572144,73.865707 136.300293,73.792465 138.273254,73.818054 
	C138.680542,73.984627 138.842987,74.052376 139.005447,74.120132 
	C136.846558,75.724770 134.687668,77.329407 131.985672,78.940262 
	C131.442566,78.946487 131.119110,78.772232 131.188812,78.447937 
	C131.081985,77.744965 130.905426,77.366287 130.912109,76.917023 
	C130.947281,76.569885 130.799210,76.293335 130.873566,75.813416 
	C131.086670,75.409355 131.077332,75.208649 131.067993,75.007935 
z"/>
<path fill="#F8F6F5" opacity="1.000000" stroke="none" 
	d="
M156.485733,57.100365 
	C156.075256,56.839874 156.037277,56.669334 156.062347,56.244385 
	C157.413010,56.049976 158.700623,56.109974 160.238388,56.181633 
	C160.062546,59.045647 159.899734,61.697010 159.736938,64.348373 
	C159.425079,64.384277 159.113220,64.420189 158.801361,64.456093 
	C158.153656,62.034168 157.505951,59.612240 156.485733,57.100365 
z"/>
<path fill="#ED976C" opacity="1.000000" stroke="none" 
	d="
M155.872131,45.567719 
	C155.525055,43.103573 155.560928,40.117489 154.904709,37.292141 
	C154.612457,36.033867 152.926331,35.099323 151.455780,34.018967 
	C152.455856,33.627842 153.873001,33.235600 155.973358,32.654259 
	C155.973358,37.298756 155.973358,41.204983 155.872131,45.567719 
z"/>
<path fill="#F8F6F5" opacity="1.000000" stroke="none" 
	d="
M124.931969,48.702278 
	C123.588463,49.000088 122.200119,48.948086 120.398865,48.837631 
	C120.166054,47.589916 120.346146,46.400646 120.723106,43.911438 
	C122.648979,45.965431 123.768051,47.158947 124.931969,48.702278 
z"/>
<path fill="#1E4582" opacity="1.000000" stroke="none" 
	d="
M107.032898,162.053589 
	C108.353546,160.018311 109.688950,158.104172 111.473198,156.343338 
	C111.945946,156.678848 111.969849,156.861038 111.993744,157.043228 
	C112.057121,158.478104 112.120499,159.912994 112.199501,161.701645 
	C110.867088,161.842133 109.506371,161.985596 107.712555,162.190094 
	C107.279457,162.251144 107.047653,162.174728 107.032898,162.053589 
z"/>
<path fill="#F8F6F5" opacity="1.000000" stroke="none" 
	d="
M115.155792,70.151184 
	C115.422928,71.453728 115.614555,72.416626 115.915581,73.657303 
	C115.066261,73.644569 113.397728,73.518723 113.284813,73.032013 
	C112.973289,71.689095 113.312286,70.195282 113.435585,68.032005 
	C114.226990,68.888283 114.653641,69.349907 115.155792,70.151184 
z"/>
<path fill="#C02337" opacity="1.000000" stroke="none" 
	d="
M130.728867,76.987610 
	C130.905426,77.366287 131.081985,77.744965 131.140625,78.823456 
	C131.062805,79.772049 131.102875,80.020844 131.142960,80.269638 
	C131.211090,80.657326 131.279236,81.045006 131.439545,81.714714 
	C131.452332,82.166145 131.372925,82.335564 131.177551,82.760529 
	C129.833450,81.249680 126.221107,80.216011 129.794891,77.093582 
	C130.334229,77.047615 130.728867,76.987610 130.728867,76.987610 
z"/>
<path fill="#F8F6F5" opacity="1.000000" stroke="none" 
	d="
M174.258759,78.899048 
	C174.783203,80.237976 174.895950,81.319481 174.931732,82.703506 
	C173.481644,81.538025 172.108490,80.070038 170.735352,78.602043 
	C171.085495,78.259979 171.435654,77.917923 171.785797,77.575859 
	C172.472885,77.931114 173.159958,78.286369 174.258759,78.899048 
z"/>
<path fill="#CB2A41" opacity="1.000000" stroke="none" 
	d="
M139.338058,74.038849 
	C138.842987,74.052376 138.680542,73.984627 138.228287,73.558975 
	C137.393860,72.752853 136.849243,72.304626 136.304611,71.856407 
	C136.517715,71.396721 136.730820,70.937027 136.943924,70.477341 
	C138.708633,71.381210 140.473328,72.285080 142.238022,73.188950 
	C142.238022,73.188950 142.256393,73.200439 142.021210,73.188309 
	C141.443802,73.241127 141.186279,73.424759 141.013428,73.727089 
	C140.565842,73.803917 140.118256,73.880753 139.338058,74.038849 
z"/>
<path fill="#F4F8F9" opacity="1.000000" stroke="none" 
	d="
M199.235382,150.402466 
	C199.745239,150.077515 200.471710,150.008270 201.564728,149.954361 
	C202.831131,150.549484 203.730988,151.129303 204.630844,151.709106 
	C204.391830,152.169937 204.152802,152.630753 203.913788,153.091583 
	C202.426529,152.280457 200.939255,151.469315 199.235382,150.402466 
z"/>
<path fill="#EA9737" opacity="1.000000" stroke="none" 
	d="
M134.645569,25.441227 
	C134.992142,26.447802 134.996704,27.351583 134.998138,28.595676 
	C134.547775,28.978708 134.100540,29.021431 133.321533,28.996624 
	C132.860092,27.916567 132.730438,26.904034 132.747070,25.684456 
	C133.363434,25.431082 133.833496,25.384758 134.645569,25.441227 
z"/>
<path fill="#C93D52" opacity="1.000000" stroke="none" 
	d="
M131.159683,58.846611 
	C130.002075,58.983002 128.844467,59.119392 127.404724,59.119240 
	C127.122589,58.982704 126.941452,59.055901 126.908829,58.795410 
	C126.867256,58.360794 126.858299,58.186676 126.849350,58.012558 
	C127.924706,57.756050 129.000061,57.499550 130.534454,57.460228 
	C131.048889,58.067142 131.104279,58.456879 131.159683,58.846611 
z"/>
<path fill="#C93D52" opacity="1.000000" stroke="none" 
	d="
M130.702515,84.984802 
	C131.096664,84.969704 131.418701,85.052803 131.583984,85.070221 
	C130.702255,85.571114 129.655228,86.054604 128.295258,86.633293 
	C127.676826,86.318565 127.371307,85.908638 127.110039,85.239868 
	C128.205643,84.987312 129.257004,84.993599 130.702515,84.984802 
z"/>
<path fill="#F4F8F9" opacity="1.000000" stroke="none" 
	d="
M202.721390,147.592636 
	C202.362930,146.512314 202.155594,145.166718 201.975250,143.410461 
	C202.792389,143.075424 203.582535,143.151077 204.634766,143.251831 
	C203.961456,144.808990 203.416977,146.068192 202.721390,147.592636 
z"/>
<path fill="#F8F6F5" opacity="1.000000" stroke="none" 
	d="
M166.108978,52.655960 
	C166.506699,51.974537 166.945831,51.571468 167.705109,51.088913 
	C168.031219,51.774773 168.037186,52.540119 168.043152,53.305462 
	C167.412231,53.181744 166.781326,53.058025 166.108978,52.655960 
z"/>
<path fill="#2E558C" opacity="1.000000" stroke="none" 
	d="
M108.796013,118.649063 
	C108.274635,119.239235 107.502197,119.679787 106.435387,120.085648 
	C106.942329,119.533791 107.743645,119.016624 108.796013,118.649063 
z"/>
<path fill="#F8F6F5" opacity="1.000000" stroke="none" 
	d="
M156.360260,53.886269 
	C156.037704,53.822845 155.967270,53.655922 155.797699,53.235943 
	C156.891205,52.739571 158.083817,52.496254 159.645660,52.344437 
	C158.880737,52.884880 157.746567,53.333820 156.360260,53.886269 
z"/>
<path fill="#F8F6F5" opacity="1.000000" stroke="none" 
	d="
M155.602997,93.605309 
	C155.669846,91.823906 155.931320,89.752464 156.611145,87.644012 
	C156.618881,89.509758 156.208252,91.412521 155.602997,93.605309 
z"/>
<path fill="#F8F6F5" opacity="1.000000" stroke="none" 
	d="
M174.509125,65.005524 
	C174.920776,65.518387 174.976425,66.044861 174.950500,66.825798 
	C174.090057,66.682053 173.311203,66.283852 172.532349,65.885651 
	C173.072601,65.596809 173.612854,65.307976 174.509125,65.005524 
z"/>
<path fill="#F8F6F5" opacity="1.000000" stroke="none" 
	d="
M131.152267,63.740955 
	C131.202103,63.415684 131.251938,63.090416 131.372299,62.422798 
	C131.442825,62.080456 131.785950,61.930565 131.785950,61.930565 
	C132.354126,62.177639 132.922287,62.424717 133.490463,62.671795 
	C133.140549,63.103870 132.790649,63.535942 131.949738,63.950943 
	C131.458755,63.933876 131.152267,63.740955 131.152267,63.740955 
z"/>
<path fill="#F8F6F5" opacity="1.000000" stroke="none" 
	d="
M167.250320,74.383072 
	C168.414001,74.096336 169.800690,74.038925 171.596893,74.066040 
	C170.495392,74.304504 168.984360,74.458450 167.250320,74.383072 
z"/>
<path fill="#ED976C" opacity="1.000000" stroke="none" 
	d="
M168.191040,48.763844 
	C167.149155,48.610752 166.306732,48.230247 165.231659,47.679466 
	C166.129517,47.851604 167.260010,48.194016 168.191040,48.763844 
z"/>
<path fill="#ED976C" opacity="1.000000" stroke="none" 
	d="
M161.602341,47.338074 
	C160.528961,47.629051 159.059937,47.756310 157.312820,47.726067 
	C158.425385,47.437160 159.816040,47.305759 161.602341,47.338074 
z"/>
<path fill="#C93D52" opacity="1.000000" stroke="none" 
	d="
M131.015869,64.036819 
	C131.152267,63.740955 131.458755,63.933876 131.627289,63.999989 
	C131.664841,65.206635 131.533859,66.347168 131.253113,67.795311 
	C131.028717,66.846176 130.954102,65.589424 131.015869,64.036819 
z"/>
<path fill="#F8F6F5" opacity="1.000000" stroke="none" 
	d="
M131.135300,58.855606 
	C131.104279,58.456879 131.048889,58.067142 130.875092,57.397907 
	C131.547775,57.182720 132.338852,57.247032 133.129929,57.311340 
	C132.878235,57.815823 132.626541,58.320305 131.917908,58.899940 
	C131.460938,58.975098 131.140244,58.837990 131.140244,58.837990 
	C131.140244,58.837990 131.110916,58.864594 131.135300,58.855606 
z"/>
<path fill="#1E4178" opacity="1.000000" stroke="none" 
	d="
M127.060493,135.617737 
	C126.603630,136.350296 125.998245,136.785110 125.194244,137.362579 
	C125.127235,136.590973 125.076721,136.009308 125.047096,135.115723 
	C125.682655,134.975861 126.297310,135.147919 127.060493,135.617737 
z"/>
<path fill="#F8F6F5" opacity="1.000000" stroke="none" 
	d="
M156.005707,66.994614 
	C156.516586,67.295341 157.021851,67.601364 157.527115,67.907379 
	C157.346405,68.115791 157.165695,68.324203 156.984970,68.532616 
	C156.679855,68.213211 156.374741,67.893806 156.029617,67.292702 
	C155.989609,67.011002 156.000076,66.999916 156.005707,66.994614 
z"/>
<path fill="#F8F6F5" opacity="1.000000" stroke="none" 
	d="
M175.216736,86.816460 
	C174.959671,87.408104 174.609695,88.056580 174.259720,88.705055 
	C174.020370,88.547165 173.781021,88.389267 173.541687,88.231369 
	C173.908066,87.793915 174.274429,87.356461 174.939865,86.803696 
	C175.238922,86.688377 175.123840,86.873291 175.216736,86.816460 
z"/>
<path fill="#F8F6F5" opacity="1.000000" stroke="none" 
	d="
M174.410553,68.969658 
	C173.764404,69.306587 172.717834,69.631493 171.360672,69.857124 
	C172.036758,69.491112 173.023438,69.224373 174.410553,68.969658 
z"/>
<path fill="#F8F6F5" opacity="1.000000" stroke="none" 
	d="
M143.253510,86.516586 
	C143.782700,86.471130 144.216599,86.609108 144.725433,87.102478 
	C144.252991,87.205246 143.705597,86.952629 143.253510,86.516586 
z"/>
<path fill="#F8F6F5" opacity="1.000000" stroke="none" 
	d="
M167.719864,69.545052 
	C166.902771,69.831268 165.848190,69.896858 164.395493,69.976028 
	C165.159042,69.767876 166.320709,69.546150 167.719864,69.545052 
z"/>
<path fill="#F8F6F5" opacity="1.000000" stroke="none" 
	d="
M138.999390,86.000488 
	C139.508224,86.302666 140.017654,86.604362 140.527100,86.906059 
	C140.346008,87.115158 140.164917,87.324257 139.983826,87.533356 
	C139.679886,87.211052 139.375961,86.888741 139.036621,86.282684 
	C139.001205,85.998924 139.000000,86.000000 138.999390,86.000488 
z"/>
<path fill="#C93D52" opacity="1.000000" stroke="none" 
	d="
M131.068329,59.266682 
	C131.140244,58.837990 131.460938,58.975098 131.629211,59.020679 
	C131.730957,59.786041 131.664429,60.505825 131.691925,61.578087 
	C131.785950,61.930565 131.442825,62.080456 131.288605,62.186924 
	C131.088394,61.427387 131.042404,60.561378 131.068329,59.266682 
z"/>
<path fill="#8FAEBA" opacity="1.000000" stroke="none" 
	d="
M190.760468,25.783192 
	C190.347672,25.962452 189.850281,25.849901 189.164032,25.565159 
	C189.542099,25.425770 190.108978,25.458576 190.760468,25.783192 
z"/>
<path fill="#2E558C" opacity="1.000000" stroke="none" 
	d="
M111.932358,120.657425 
	C111.559319,120.496460 111.293983,120.007919 111.020775,119.228554 
	C111.355278,119.401764 111.697670,119.865799 111.932358,120.657425 
z"/>
<path fill="#F8F6F5" opacity="1.000000" stroke="none" 
	d="
M126.662270,32.167374 
	C126.900414,32.455395 126.938087,32.892338 126.909409,33.653038 
	C126.715965,33.423294 126.588882,32.869797 126.662270,32.167374 
z"/>
<path fill="#F8F6F5" opacity="1.000000" stroke="none" 
	d="
M120.210701,51.440014 
	C120.479965,51.219898 120.899727,51.175217 121.630020,51.199883 
	C121.414101,51.384632 120.887650,51.500042 120.210701,51.440014 
z"/>
<path fill="#8FAEBA" opacity="1.000000" stroke="none" 
	d="
M165.730316,25.302265 
	C165.525986,25.608236 165.031769,25.787832 164.265442,25.981625 
	C164.475708,25.722507 164.958054,25.449200 165.730316,25.302265 
z"/>
<path fill="#C93D52" opacity="1.000000" stroke="none" 
	d="
M132.791367,70.101166 
	C132.746170,70.262634 132.446472,70.328659 132.070862,70.222206 
	C132.175598,70.035057 132.356232,70.020386 132.791367,70.101166 
z"/>
<path fill="#24467A" opacity="1.000000" stroke="none" 
	d="
M127.479370,161.306503 
	C127.421310,161.102707 127.580750,160.867844 127.859222,160.785446 
	C127.978256,160.937912 127.696869,161.275436 127.479370,161.306503 
z"/>
<path fill="#C93D52" opacity="1.000000" stroke="none" 
	d="
M141.256622,73.830193 
	C141.186279,73.424759 141.443802,73.241127 142.030396,73.197815 
	C142.274765,73.219437 142.210938,73.662445 142.111389,73.862900 
	C141.841171,74.019997 141.670486,73.976646 141.256622,73.830193 
z"/>
<path fill="#F8F6F5" opacity="1.000000" stroke="none" 
	d="
M138.549408,65.468346 
	C138.581970,65.523170 138.516830,65.413521 138.549408,65.468346 
z"/>
<path fill="#F8F6F5" opacity="1.000000" stroke="none" 
	d="
M174.101013,74.305603 
	C174.307999,74.230019 174.610504,74.340065 174.883575,74.719856 
	C174.584198,74.890411 174.364990,74.724297 174.101013,74.305603 
z"/>
<path fill="#C93D52" opacity="1.000000" stroke="none" 
	d="
M131.236176,68.762421 
	C131.031387,68.732460 130.896591,68.465584 130.949524,68.129959 
	C131.137268,68.061218 131.306168,68.525513 131.236176,68.762421 
z"/>
<path fill="#F8F6F5" opacity="1.000000" stroke="none" 
	d="
M117.885406,69.623749 
	C117.815758,69.811607 117.656532,69.862724 117.260040,69.832458 
	C117.206612,69.390259 117.464302,69.302231 117.885406,69.623749 
z"/>
<path fill="#F8F6F5" opacity="1.000000" stroke="none" 
	d="
M152.877869,74.734383 
	C152.823883,74.943428 152.664459,74.998955 152.251831,75.052109 
	C152.256561,74.893456 152.514481,74.737152 152.877869,74.734383 
z"/>
<path fill="#254983" opacity="1.000000" stroke="none" 
	d="
M42.995125,140.018204 
	C42.997089,140.022018 42.956455,139.894073 42.974548,139.950592 
	C42.992638,140.007111 42.993164,140.014389 42.995125,140.018204 
z"/>
<path fill="#F8F6F5" opacity="1.000000" stroke="none" 
	d="
M117.897659,48.607155 
	C117.663635,48.837872 117.437958,48.735870 117.310562,48.245720 
	C117.527786,48.138680 117.693497,48.277634 117.897659,48.607155 
z"/>
<path fill="#C93D52" opacity="1.000000" stroke="none" 
	d="
M131.290344,80.092148 
	C131.102875,80.020844 131.062805,79.772049 131.070923,79.147751 
	C131.119110,78.772232 131.442566,78.946487 131.616180,79.006317 
	C131.621078,79.327660 131.503723,79.610504 131.290344,80.092148 
z"/>
<path fill="#2E558C" opacity="1.000000" stroke="none" 
	d="
M112.766266,134.108673 
	C112.905258,134.527542 112.716812,134.754730 112.216766,134.979813 
	C111.998123,134.867889 111.992203,134.676086 112.012329,134.197571 
	C112.204811,133.940231 112.371254,133.969620 112.766266,134.108673 
z"/>
<path fill="#F8F6F5" opacity="1.000000" stroke="none" 
	d="
M117.489441,51.875587 
	C117.242149,51.672306 117.315811,51.469307 117.770554,51.349857 
	C117.873543,51.535881 117.759796,51.683369 117.489441,51.875587 
z"/>
<path fill="#F8F6F5" opacity="1.000000" stroke="none" 
	d="
M141.550537,79.468040 
	C141.583374,79.523056 141.517700,79.413025 141.550537,79.468040 
z"/>
<path fill="#F8F6F5" opacity="1.000000" stroke="none" 
	d="
M144.467529,79.450592 
	C144.522339,79.418098 144.412720,79.483093 144.467529,79.450592 
z"/>
<path fill="#F8F6F5" opacity="1.000000" stroke="none" 
	d="
M117.427505,55.854965 
	C117.313217,55.947472 117.185425,55.498642 117.240692,55.272148 
	C117.605553,55.221775 117.687500,55.460709 117.427505,55.854965 
z"/>
<path fill="#F8F6F5" opacity="1.000000" stroke="none" 
	d="
M126.697960,58.098953 
	C126.858299,58.186676 126.867256,58.360794 126.811417,58.788200 
	C126.621361,58.855755 126.473999,58.679874 126.384155,58.478352 
	C126.356812,58.417015 126.487991,58.285000 126.697960,58.098953 
z"/>
<path fill="#F8F6F5" opacity="1.000000" stroke="none" 
	d="
M150.794525,83.063446 
	C151.045059,83.389725 150.890274,83.641808 150.282303,83.711868 
	C150.173187,83.421242 150.359894,83.241035 150.794525,83.063446 
z"/>
<path fill="#F8F6F5" opacity="1.000000" stroke="none" 
	d="
M163.378937,85.873398 
	C163.248962,85.972023 163.072784,85.504646 163.129456,85.261452 
	C163.555298,85.181114 163.662888,85.433289 163.378937,85.873398 
z"/>
<path fill="#F8F6F5" opacity="1.000000" stroke="none" 
	d="
M132.532532,88.549919 
	C132.476685,88.583221 132.588364,88.516617 132.532532,88.549919 
z"/>
<path fill="#F8F6F5" opacity="1.000000" stroke="none" 
	d="
M150.184402,87.608337 
	C150.353378,87.312576 150.596436,87.348137 150.841064,87.790070 
	C150.654327,87.957283 150.459610,87.871689 150.184402,87.608337 
z"/>
<path fill="#F5F7F8" opacity="1.000000" stroke="none" 
	d="
M229.959274,157.625000 
	C224.673050,154.149963 223.054626,149.229950 225.205917,144.218521 
	C226.947998,140.160355 231.064026,138.173340 235.468689,139.245026 
	C237.976608,139.855240 239.695908,141.006119 239.407227,144.011276 
	C239.216873,145.992844 239.343903,148.004044 239.310669,150.001694 
	C239.166397,158.674866 239.163986,158.674820 229.959274,157.625000 
z"/>
<path fill="#EDF2F6" opacity="1.000000" stroke="none" 
	d="
M187.442413,139.129883 
	C191.776245,138.809509 194.586578,140.026398 195.151474,145.183304 
	C192.666397,145.183304 190.440735,145.183289 188.215057,145.183289 
	C185.966064,145.183289 183.717056,145.183304 181.468063,145.183304 
	C181.224686,144.700134 180.981308,144.216965 180.737930,143.733780 
	C182.843369,142.221588 184.948807,140.709396 187.442413,139.129883 
z"/>
<path fill="#F2F5F7" opacity="1.000000" stroke="none" 
	d="
M78.752243,150.884537 
	C78.752647,153.304138 78.752647,155.258499 78.752647,157.043930 
	C68.207268,159.929749 61.991058,154.990417 63.975163,145.896606 
	C65.178200,140.382675 70.563744,137.342270 75.774986,139.658142 
	C77.136208,140.263062 78.247078,142.370132 78.635490,143.988327 
	C79.124107,146.024017 78.752350,148.266220 78.752243,150.884537 
z"/>
<path fill="#194578" opacity="1.000000" stroke="none" 
	d="
M22.080448,135.222870 
	C22.022497,130.441422 22.022497,126.073044 22.022497,121.704666 
	C22.704826,121.698761 23.387157,121.692856 24.069487,121.686951 
	C23.800888,126.561653 23.532290,131.436356 23.263693,136.311066 
	C22.888596,136.086014 22.513496,135.860977 22.080448,135.222870 
z"/>
<path fill="#F4F6F9" opacity="1.000000" stroke="none" 
	d="
M112.295158,157.152893 
	C111.969849,156.861038 111.945946,156.678848 111.810143,156.244614 
	C111.780052,155.238754 111.861855,154.484909 111.843842,153.361008 
	C111.810013,150.613083 111.875999,148.235245 111.964951,145.053070 
	C111.914299,143.506989 111.840698,142.765228 111.767105,142.023483 
	C111.876991,141.650482 111.986877,141.277466 112.118713,140.613632 
	C115.456764,139.762802 118.621056,135.755524 122.483170,140.009155 
	C122.822792,140.135986 122.873024,140.095459 122.947380,140.345459 
	C123.342377,140.707886 123.663017,140.820343 123.983658,140.932800 
	C123.983658,140.932800 124.242699,141.173218 124.524811,141.483765 
	C125.569229,143.190201 126.331543,144.586075 127.093857,145.981964 
	C127.072716,146.443207 127.051567,146.904434 127.034416,148.102966 
	C126.916748,150.188705 126.795074,151.537125 126.673401,152.885559 
	C126.673401,152.885559 126.825676,152.892670 126.521545,152.993332 
	C125.740387,154.038788 125.263351,154.983582 124.786324,155.928375 
	C121.802414,156.639923 118.818504,157.351486 115.415848,158.093750 
	C114.196922,157.837158 113.396744,157.549866 112.295158,157.152893 
z"/>
<path fill="#2E558C" opacity="1.000000" stroke="none" 
	d="
M111.559776,142.222900 
	C111.840698,142.765228 111.914299,143.506989 111.890701,144.612015 
	C111.646492,144.124298 111.499474,143.273300 111.559776,142.222900 
z"/>
<path fill="#1E4178" opacity="1.000000" stroke="none" 
	d="
M127.353821,145.721375 
	C126.331543,144.586075 125.569229,143.190201 124.700470,141.464630 
	C125.440651,141.084930 126.287262,141.034912 127.567101,140.992310 
	C128.000320,140.999725 128.022614,141.017609 128.022614,141.017609 
	C127.886345,142.498672 127.750061,143.979721 127.353821,145.721375 
z"/>
<path fill="#1E4178" opacity="1.000000" stroke="none" 
	d="
M127.003838,152.746796 
	C126.795074,151.537125 126.916748,150.188705 127.116600,148.441620 
	C127.241280,149.564667 127.287773,151.086334 127.003838,152.746796 
z"/>
<path fill="#1E4178" opacity="1.000000" stroke="none" 
	d="
M125.164825,155.901093 
	C125.263351,154.983582 125.740387,154.038788 126.494049,152.922241 
	C126.361565,153.791611 125.952446,154.832718 125.164825,155.901093 
z"/>
<path fill="#1E4178" opacity="1.000000" stroke="none" 
	d="
M123.851387,140.717316 
	C123.663017,140.820343 123.342377,140.707886 122.915680,140.346893 
	C123.112785,140.232834 123.415947,140.367340 123.851387,140.717316 
z"/>
<path fill="#1E4178" opacity="1.000000" stroke="none" 
	d="
M127.991325,140.988647 
	C128.087448,140.950668 128.192566,140.923752 128.160156,140.957230 
	C128.022614,141.017609 128.000320,140.999725 127.991325,140.988647 
z"/>
<path fill="#C93D52" opacity="1.000000" stroke="none" 
	d="
M142.504868,72.918167 
	C140.473328,72.285080 138.708633,71.381210 136.943924,70.477341 
	C136.730820,70.937027 136.517715,71.396721 136.304611,71.856407 
	C136.849243,72.304626 137.393860,72.752853 137.983459,73.460159 
	C136.300293,73.792465 134.572144,73.865707 132.411530,73.904709 
	C132.979050,72.866539 133.979034,71.862610 134.973938,70.547165 
	C136.780197,70.147568 138.655045,69.746902 140.377548,70.096603 
	C141.309784,70.285858 141.982132,71.755409 142.504868,72.918167 
z"/>
<path fill="#C93D52" opacity="1.000000" stroke="none" 
	d="
M127.392120,68.843933 
	C127.077271,67.928078 127.021805,66.859482 127.050255,65.397003 
	C127.306610,66.232483 127.479050,67.461838 127.392120,68.843933 
z"/>
<path fill="#C02337" opacity="1.000000" stroke="none" 
	d="
M130.806656,74.908401 
	C131.077332,75.208649 131.086670,75.409355 130.694611,75.780243 
	C130.293213,75.950439 129.930237,75.977188 129.930237,75.977188 
	C129.563599,75.441528 129.196976,74.905876 128.830338,74.370216 
	C129.401993,74.516426 129.973663,74.662643 130.806656,74.908401 
z"/>
<path fill="#C93D52" opacity="1.000000" stroke="none" 
	d="
M129.930069,76.238419 
	C129.930237,75.977188 130.293213,75.950439 130.472168,75.983612 
	C130.799210,76.293335 130.947281,76.569885 130.912109,76.917023 
	C130.728867,76.987610 130.334229,77.047615 130.134415,77.034851 
	C129.933029,76.847939 129.931473,76.673790 129.930069,76.238419 
z"/>
<path fill="#FDFEFE" opacity="1.000000" stroke="none" 
	d="
M125.532295,42.550117 
	C125.476868,42.583172 125.587723,42.517067 125.532295,42.550117 
z"/>
</svg>