<svg xmlns="http://www.w3.org/2000/svg" xmlns:xlink="http://www.w3.org/1999/xlink" version="1.1" width="1000" height="1000" viewBox="0 0 1000 1000" xml:space="preserve">
<desc>Created with Fabric.js 3.5.0</desc>
<defs>
</defs>
<rect x="0" y="0" width="100%" height="100%" fill="#ffffff"/>
<g transform="matrix(3.0303 0 0 3.0303 499.9995 499.9995)" id="819552">
<g style="" vector-effect="non-scaling-stroke">
		<g transform="matrix(0.1333 0 0 -0.1333 50.8193 -88.1709)">
<path style="stroke: none; stroke-width: 1; stroke-dasharray: none; stroke-linecap: butt; stroke-dashoffset: 0; stroke-linejoin: miter; stroke-miterlimit: 4; is-custom-font: none; font-file-url: none; fill: rgb(255,130,0); fill-rule: nonzero; opacity: 1;" transform=" translate(-1506.1805, -1786.2456)" d="M 1441 1912 c -48 -24 -73 -62 -78 -119 c -8 -91 60 -157 155 -150 c 79 6 132 64 132 145 c 0 72 -71 142 -145 142 c -16 0 -45 -8 -64 -18 z" stroke-linecap="round"/>
</g>
		<g transform="matrix(0.1333 0 0 -0.1333 24.0512 -45.7211)">
<path style="stroke: none; stroke-width: 1; stroke-dasharray: none; stroke-linecap: butt; stroke-dashoffset: 0; stroke-linejoin: miter; stroke-miterlimit: 4; is-custom-font: none; font-file-url: none; fill: rgb(255,130,0); fill-rule: nonzero; opacity: 1;" transform=" translate(-1305.5, -1467.8339)" d="M 1000 1760 c -25 -5 -71 -19 -102 -31 l -57 -21 l 37 -67 c 67 -122 61 -117 117 -98 c 30 11 80 17 131 17 c 142 0 264 -60 349 -172 c 37 -48 85 -160 85 -198 c 0 -19 7 -20 105 -20 c 77 0 105 3 105 13 c 0 6 -7 42 -14 78 c -18 85 -62 179 -119 256 l -47 63 l -59 -7 c -82 -8 -160 28 -202 95 c -16 25 -29 54 -29 63 c 0 9 -10 20 -22 23 c -39 12 -231 16 -278 6 z" stroke-linecap="round"/>
</g>
		<g transform="matrix(0.1333 0 0 -0.1333 -58.8062 -0.938)">
<path style="stroke: none; stroke-width: 1; stroke-dasharray: none; stroke-linecap: butt; stroke-dashoffset: 0; stroke-linejoin: miter; stroke-miterlimit: 4; is-custom-font: none; font-file-url: none; fill: rgb(255,130,0); fill-rule: nonzero; opacity: 1;" transform=" translate(-684, -1131.9021)" d="M 709 1618 c -69 -56 -149 -168 -184 -257 l -28 -70 l 31 -35 c 67 -77 67 -185 0 -262 l -31 -35 l 27 -69 c 33 -83 109 -193 168 -244 c 73 -63 68 -64 126 32 l 51 86 l -44 42 c -94 90 -135 188 -135 320 c 0 132 62 267 152 334 l 29 21 l -27 47 c -15 26 -40 67 -54 90 l -27 44 l -54 -44 z" stroke-linecap="round"/>
</g>
		<g transform="matrix(0.1333 0 0 -0.1333 -101.4443 -0.099)">
<path style="stroke: none; stroke-width: 1; stroke-dasharray: none; stroke-linecap: butt; stroke-dashoffset: 0; stroke-linejoin: miter; stroke-miterlimit: 4; is-custom-font: none; font-file-url: none; fill: rgb(255,130,0); fill-rule: nonzero; opacity: 1;" transform=" translate(-364.2042, -1125.7063)" d="M 292 1250 c -68 -42 -92 -132 -52 -198 c 60 -98 201 -94 252 8 c 64 127 -79 263 -200 190 z" stroke-linecap="round"/>
</g>
		<g transform="matrix(0.1333 0 0 -0.1333 24.0512 45.8847)">
<path style="stroke: none; stroke-width: 1; stroke-dasharray: none; stroke-linecap: butt; stroke-dashoffset: 0; stroke-linejoin: miter; stroke-miterlimit: 4; is-custom-font: none; font-file-url: none; fill: rgb(255,130,0); fill-rule: nonzero; opacity: 1;" transform=" translate(-1305.5, -780.7895)" d="M 1560 1060 c 0 -38 -48 -150 -85 -198 c -85 -112 -207 -172 -349 -172 c -51 0 -101 6 -131 17 c -56 19 -50 24 -117 -97 l -37 -67 l 55 -21 c 83 -32 177 -45 273 -39 c 106 8 131 15 131 36 c 0 9 13 38 29 63 c 42 67 120 103 202 95 l 59 -7 l 47 63 c 57 77 101 171 119 256 c 7 36 14 72 14 79 c 0 9 -28 12 -105 12 c -98 0 -105 -1 -105 -20 z" stroke-linecap="round"/>
</g>
		<g transform="matrix(0.1333 0 0 -0.1333 50.7394 87.9398)">
<path style="stroke: none; stroke-width: 1; stroke-dasharray: none; stroke-linecap: butt; stroke-dashoffset: 0; stroke-linejoin: miter; stroke-miterlimit: 4; is-custom-font: none; font-file-url: none; fill: rgb(255,130,0); fill-rule: nonzero; opacity: 1;" transform=" translate(-1505.5817, -465.4156)" d="M 1432 591 c -67 -43 -90 -121 -54 -190 c 50 -100 186 -106 249 -12 c 40 59 27 136 -31 190 c -36 34 -118 40 -164 12 z" stroke-linecap="round"/>
</g>
</g>
</g>
</svg>