<svg id="svg" version="1.1" xmlns="http://www.w3.org/2000/svg" xmlns:xlink="http://www.w3.org/1999/xlink" width="400" height="269.5970695970696" viewBox="0, 0, 400,269.5970695970696"><g id="svgg"><path id="path0" d="M202.225 44.256 C 201.823 44.490,201.753 44.950,201.753 47.350 C 201.753 51.609,202.831 51.247,190.128 51.247 L 179.583 51.247 178.800 52.085 C 177.934 53.013,177.856 53.394,178.355 54.286 C 179.280 55.941,178.478 55.833,189.841 55.833 C 196.772 55.833,200.507 55.932,201.060 56.132 L 201.888 56.431 201.796 59.239 C 201.743 60.838,201.831 62.411,202.000 62.895 C 202.239 63.581,202.216 63.832,201.879 64.204 C 201.522 64.598,201.480 65.525,201.580 70.700 C 201.645 74.020,201.700 76.918,201.704 77.141 C 201.707 77.363,201.652 79.171,201.581 81.158 C 201.497 83.506,201.552 84.870,201.738 85.055 C 202.882 86.200,201.886 86.965,199.207 86.999 C 197.809 87.017,197.027 87.138,196.957 87.348 C 196.729 88.032,196.012 88.469,195.119 88.469 C 194.364 88.469,194.137 88.602,193.921 89.170 C 193.775 89.555,193.425 89.930,193.144 90.004 C 192.863 90.077,192.570 90.378,192.493 90.672 C 192.416 90.966,192.120 91.268,191.835 91.342 C 191.468 91.438,191.245 91.846,191.073 92.738 C 190.903 93.618,190.657 94.074,190.259 94.249 C 189.146 94.738,189.139 100.501,190.251 100.659 C 190.731 100.728,190.842 100.949,190.905 101.955 C 191.021 103.805,191.215 104.119,191.631 103.136 C 191.987 102.297,191.997 102.293,194.389 102.179 C 196.370 102.084,196.888 101.966,197.354 101.500 C 197.695 101.158,198.453 100.862,199.271 100.749 C 200.284 100.610,200.657 100.434,200.758 100.046 C 200.920 99.428,201.819 99.361,202.292 99.931 C 202.561 100.256,202.541 100.464,202.190 101.001 C 201.534 102.001,201.533 117.822,202.189 118.823 C 202.592 119.438,202.590 119.541,202.157 120.201 C 201.425 121.318,201.690 125.167,202.563 126.096 C 203.127 126.697,203.152 126.812,202.783 127.109 C 201.701 127.980,201.499 129.809,201.475 138.937 C 201.450 148.784,201.324 148.206,203.593 148.620 L 204.585 148.802 203.776 148.991 C 201.576 149.506,201.627 149.395,201.544 153.930 C 201.471 157.954,201.478 158.015,202.117 158.517 L 202.764 159.026 202.124 159.771 C 201.461 160.542,201.181 162.913,201.753 162.913 C 201.902 162.913,202.023 163.391,202.023 163.974 C 202.023 164.558,202.143 165.353,202.291 165.740 C 202.494 166.273,202.457 166.600,202.138 167.086 C 201.756 167.670,201.759 167.806,202.176 168.612 C 202.620 169.470,202.616 169.509,202.059 169.879 C 201.242 170.421,201.230 172.658,202.040 173.197 L 202.597 173.567 202.046 174.781 C 201.351 176.314,201.351 176.628,202.051 177.373 C 202.638 177.997,202.544 178.888,201.712 180.604 C 201.383 181.283,201.823 183.180,202.427 183.681 C 202.772 183.968,202.736 184.085,202.155 184.541 C 201.356 185.170,201.180 187.410,201.883 187.993 C 202.236 188.286,202.236 188.391,201.883 188.895 C 201.225 189.835,201.342 193.444,202.072 194.712 L 202.660 195.734 202.072 196.560 C 201.402 197.501,201.315 198.945,201.883 199.696 C 202.214 200.132,202.212 200.254,201.874 200.592 C 201.287 201.179,201.300 212.163,201.890 212.814 C 202.220 213.179,202.239 213.426,201.990 214.139 C 201.811 214.653,201.755 215.616,201.855 216.466 C 202.051 218.134,201.851 218.347,199.831 218.616 C 197.162 218.973,196.898 219.047,196.898 219.438 C 196.898 219.657,196.625 219.962,196.291 220.117 C 195.335 220.558,193.931 223.795,193.931 225.556 C 193.931 229.036,197.038 232.771,199.933 232.771 C 201.780 232.771,202.003 233.126,201.822 235.773 C 201.601 238.996,199.760 238.705,220.384 238.705 L 238.103 238.705 240.244 237.634 C 241.421 237.045,242.607 236.317,242.879 236.016 C 243.151 235.715,243.537 235.469,243.737 235.469 C 243.937 235.469,244.100 235.332,244.100 235.164 C 244.100 234.997,244.525 234.389,245.044 233.815 C 245.563 233.240,245.988 232.544,245.988 232.268 C 245.988 231.991,246.261 231.418,246.595 230.994 L 247.202 230.222 247.345 168.449 C 247.454 121.704,247.567 106.413,247.811 105.597 C 248.267 104.069,248.265 93.228,247.808 92.430 C 247.580 92.031,247.471 90.538,247.471 87.795 C 247.471 85.052,247.580 83.559,247.808 83.160 C 248.243 82.402,248.255 71.881,247.824 70.128 C 247.658 69.456,247.453 65.084,247.363 60.331 C 247.217 52.546,247.158 51.724,246.731 51.485 C 246.472 51.340,246.187 50.767,246.098 50.211 C 245.920 49.099,242.933 45.583,242.167 45.583 C 241.941 45.583,241.543 45.348,241.283 45.060 C 241.022 44.773,240.209 44.409,239.474 44.251 C 237.677 43.866,202.888 43.870,202.225 44.256 M206.273 97.681 C 205.659 98.060,205.274 97.633,205.595 96.928 L 205.899 96.262 206.231 96.882 C 206.463 97.316,206.476 97.555,206.273 97.681 M212.315 101.299 C 212.387 101.907,212.287 102.103,211.868 102.184 C 211.174 102.317,211.010 102.598,210.797 104.017 C 210.646 105.025,210.115 105.969,210.115 105.229 C 210.115 105.083,209.797 104.586,209.408 104.124 C 208.608 103.173,208.859 102.609,210.451 101.786 C 210.859 101.575,211.194 101.292,211.194 101.157 C 211.194 99.347,212.097 99.462,212.315 101.299 M211.313 107.493 C 211.600 107.711,211.696 107.889,211.525 107.889 C 211.354 107.889,210.967 108.155,210.665 108.480 L 210.115 109.070 210.115 108.075 C 210.115 106.995,210.443 106.836,211.313 107.493 M272.327 114.051 L 271.314 115.088 271.396 131.381 C 271.470 146.381,271.514 147.729,271.949 148.369 C 272.209 148.751,272.553 149.783,272.714 150.662 C 272.874 151.540,273.236 152.507,273.517 152.810 C 273.798 153.113,274.162 153.745,274.326 154.215 C 274.490 154.685,274.838 155.137,275.100 155.220 C 275.361 155.303,275.713 155.672,275.880 156.040 C 276.048 156.408,276.322 156.709,276.489 156.709 C 276.657 156.709,277.148 157.008,277.582 157.373 C 278.016 157.738,278.822 158.118,279.374 158.219 C 279.926 158.319,280.861 158.644,281.453 158.942 C 283.164 159.802,292.066 159.807,293.519 158.948 C 294.071 158.622,294.947 158.275,295.466 158.178 C 295.984 158.081,296.746 157.713,297.159 157.360 C 299.363 155.476,300.197 154.654,300.199 154.365 C 300.201 154.188,300.433 153.881,300.715 153.684 C 300.997 153.486,301.366 152.810,301.536 152.181 C 301.705 151.552,302.112 150.584,302.439 150.030 C 303.152 148.823,303.553 116.210,302.875 114.573 C 302.140 112.798,298.393 112.298,297.763 113.891 C 297.572 114.373,297.224 114.992,296.989 115.267 C 296.612 115.707,296.545 117.654,296.426 131.463 C 296.297 146.547,296.270 147.190,295.756 147.956 C 295.462 148.394,295.019 149.194,294.772 149.733 C 294.525 150.272,293.946 150.935,293.486 151.207 C 293.026 151.479,292.650 151.802,292.650 151.926 C 292.650 152.778,287.288 153.369,284.247 152.852 C 282.532 152.560,280.200 150.541,279.669 148.887 C 279.502 148.368,279.195 147.748,278.987 147.509 C 278.237 146.647,278.088 143.685,278.087 129.591 L 278.085 115.285 277.096 114.150 C 275.678 112.522,273.857 112.485,272.327 114.051 M311.901 114.026 C 310.996 115.209,310.843 116.957,311.573 117.773 C 311.819 118.049,312.163 118.820,312.339 119.488 C 312.514 120.155,312.887 120.949,313.168 121.252 C 313.448 121.555,313.820 122.223,313.993 122.736 C 314.166 123.249,314.533 123.885,314.808 124.151 C 315.082 124.416,315.307 124.865,315.307 125.148 C 315.307 125.432,315.610 125.991,315.981 126.391 C 316.352 126.791,316.655 127.327,316.655 127.582 C 316.655 127.836,317.020 128.503,317.465 129.063 C 317.910 129.623,318.274 130.302,318.274 130.573 C 318.274 130.843,318.506 131.282,318.790 131.547 C 319.073 131.813,319.522 132.576,319.787 133.243 C 320.052 133.911,320.427 134.618,320.620 134.814 C 321.094 135.295,321.062 135.799,320.530 136.241 C 320.287 136.442,319.879 137.096,319.622 137.694 C 319.366 138.291,318.958 138.945,318.715 139.147 C 318.472 139.348,318.274 139.671,318.274 139.864 C 318.274 140.057,317.989 140.558,317.640 140.977 C 317.292 141.397,316.925 142.077,316.824 142.489 C 316.724 142.902,316.341 143.500,315.974 143.819 C 315.607 144.138,315.307 144.611,315.307 144.869 C 315.307 145.128,315.003 145.700,314.633 146.141 C 314.262 146.582,313.958 147.067,313.958 147.220 C 313.958 147.372,313.671 147.840,313.321 148.260 C 312.970 148.679,312.592 149.326,312.481 149.697 C 312.370 150.067,312.002 150.674,311.663 151.045 C 311.324 151.416,310.959 152.266,310.852 152.933 C 310.745 153.601,310.490 154.475,310.285 154.875 C 309.455 156.497,310.478 159.286,312.008 159.573 C 313.843 159.917,316.386 158.429,316.386 157.012 C 316.386 156.755,316.689 156.133,317.060 155.630 C 317.431 155.128,317.734 154.576,317.734 154.404 C 317.734 154.232,318.026 153.776,318.383 153.391 C 318.740 153.006,319.171 152.270,319.340 151.757 C 319.510 151.243,319.813 150.760,320.015 150.683 C 320.216 150.605,320.464 150.164,320.565 149.703 C 320.666 149.241,321.042 148.547,321.400 148.162 C 321.757 147.776,322.050 147.252,322.050 146.997 C 322.050 146.742,322.414 146.076,322.859 145.516 C 323.304 144.956,323.668 144.346,323.668 144.160 C 323.668 142.200,326.092 142.376,327.069 144.407 C 328.029 146.403,328.505 147.284,329.201 148.348 C 329.540 148.867,329.906 149.595,330.013 149.966 C 330.121 150.337,330.432 150.853,330.704 151.114 C 330.977 151.374,331.328 152.059,331.483 152.637 C 331.639 153.214,331.934 153.752,332.140 153.831 C 332.346 153.910,332.666 154.438,332.852 155.005 C 333.211 156.105,333.742 156.900,335.297 158.667 L 336.272 159.775 337.835 159.523 C 341.001 159.014,340.744 152.862,337.407 149.279 C 337.125 148.975,336.814 148.334,336.718 147.853 C 336.622 147.373,336.327 146.864,336.062 146.722 C 335.797 146.580,335.503 146.114,335.409 145.686 C 335.315 145.258,334.941 144.505,334.578 144.013 C 334.215 143.521,333.918 142.969,333.918 142.787 C 333.918 142.605,333.614 142.095,333.243 141.654 C 332.873 141.213,332.569 140.737,332.569 140.595 C 332.569 140.453,332.207 139.803,331.765 139.151 C 331.323 138.498,330.958 137.768,330.956 137.528 C 330.953 137.288,330.698 136.771,330.389 136.378 L 329.827 135.664 330.375 134.521 C 330.676 133.893,331.047 133.045,331.200 132.637 C 331.352 132.229,331.592 131.895,331.732 131.895 C 331.873 131.895,332.133 131.440,332.310 130.883 C 332.487 130.327,332.910 129.604,333.251 129.276 C 333.591 128.949,333.951 128.311,334.050 127.860 C 334.149 127.409,334.340 127.040,334.475 127.040 C 334.610 127.040,334.909 126.586,335.141 126.032 C 335.372 125.478,335.782 124.780,336.051 124.481 C 336.320 124.182,336.681 123.518,336.853 123.006 C 337.025 122.493,337.390 121.825,337.664 121.522 C 337.938 121.219,338.248 120.607,338.353 120.162 C 338.457 119.717,338.788 119.090,339.087 118.770 C 340.087 117.698,339.941 114.792,338.836 113.803 C 337.419 112.534,334.938 112.771,334.460 114.220 C 334.301 114.700,333.872 115.374,333.505 115.719 C 333.139 116.063,332.839 116.539,332.839 116.777 C 332.839 117.015,332.626 117.505,332.367 117.866 C 331.851 118.582,331.050 120.025,330.117 121.915 C 329.788 122.583,329.374 123.250,329.197 123.399 C 329.021 123.547,328.717 124.093,328.521 124.612 C 328.326 125.131,327.938 125.812,327.659 126.125 C 327.380 126.438,327.028 127.143,326.877 127.691 C 326.549 128.877,326.122 129.099,325.101 128.611 C 324.338 128.247,324.175 127.979,321.434 122.586 C 320.724 121.190,320.035 119.980,319.902 119.898 C 319.770 119.817,319.514 119.296,319.333 118.742 C 319.153 118.188,318.719 117.391,318.370 116.972 C 318.020 116.553,317.734 116.002,317.734 115.747 C 317.734 113.341,313.401 112.062,311.901 114.026 M204.720 118.258 C 204.720 118.882,204.255 118.993,204.102 118.406 C 204.011 118.058,204.095 117.869,204.341 117.869 C 204.549 117.869,204.720 118.044,204.720 118.258 M205.053 124.985 C 205.611 125.408,205.406 125.691,204.540 125.691 C 203.853 125.691,203.834 125.665,204.075 125.039 C 204.271 124.527,204.438 124.518,205.053 124.985 M218.418 141.116 C 218.787 141.485,218.123 142.414,217.490 142.414 C 217.291 142.414,217.127 142.592,217.127 142.809 C 217.127 143.274,216.155 143.860,215.773 143.624 C 215.228 143.287,215.532 142.666,216.318 142.508 C 216.924 142.387,217.127 142.197,217.127 141.751 C 217.127 140.790,217.775 140.472,218.418 141.116 M215.382 144.044 C 215.833 144.774,214.456 145.391,213.621 144.832 C 213.271 144.598,213.287 144.508,213.740 144.162 C 214.350 143.697,215.132 143.641,215.382 144.044 M212.812 145.757 C 212.812 146.185,212.240 146.460,211.351 146.460 C 210.560 146.460,210.315 146.194,210.689 145.743 C 211.097 145.251,212.812 145.262,212.812 145.757 M209.693 147.241 C 209.913 147.597,209.163 147.808,207.681 147.808 C 206.366 147.808,205.648 147.418,206.537 147.186 C 207.408 146.959,209.541 146.996,209.693 147.241 M222.183 166.070 C 222.132 167.226,222.091 166.352,222.090 164.127 C 222.090 161.902,222.131 160.955,222.182 162.024 C 222.234 163.093,222.234 164.913,222.183 166.070 M222.183 180.769 C 222.133 182.000,222.092 181.065,222.092 178.692 C 222.091 176.318,222.132 175.311,222.183 176.454 C 222.233 177.596,222.233 179.538,222.183 180.769 M203.232 232.509 C 203.151 232.640,202.896 232.676,202.666 232.587 C 202.339 232.462,202.323 232.380,202.594 232.212 C 203.003 231.959,203.445 232.164,203.232 232.509 " stroke="none" fill="#11455d" fill-rule="evenodd"></path><path id="path1" d="M0.000 134.862 L 0.000 269.724 200.000 269.724 L 400.000 269.724 400.000 134.862 L 400.000 0.000 200.000 0.000 L 0.000 0.000 0.000 134.862 M239.419 42.917 C 239.694 43.157,240.278 43.439,240.716 43.543 C 242.055 43.862,244.568 45.647,245.165 46.701 C 245.471 47.242,245.887 47.748,246.089 47.826 C 246.292 47.904,246.543 48.311,246.647 48.731 C 246.752 49.151,247.075 49.749,247.365 50.060 C 248.139 50.890,248.464 53.875,248.596 61.362 C 248.683 66.257,248.806 68.043,249.102 68.685 C 249.592 69.748,249.677 82.566,249.202 83.799 C 248.641 85.258,248.568 89.338,249.071 91.205 C 249.650 93.355,249.611 106.695,249.024 107.402 C 248.760 107.720,248.668 120.456,248.593 167.659 C 248.491 231.087,248.475 231.841,247.196 232.332 C 246.993 232.410,246.745 232.911,246.644 233.447 C 246.534 234.036,246.208 234.586,245.820 234.841 C 245.467 235.072,245.179 235.426,245.179 235.628 C 245.179 235.829,244.829 236.175,244.402 236.396 C 243.975 236.617,243.557 236.977,243.472 237.197 C 243.388 237.416,242.827 237.744,242.226 237.924 C 241.625 238.104,241.133 238.360,241.133 238.492 C 241.133 239.443,239.665 239.514,220.271 239.514 C 198.629 239.514,200.652 239.793,200.643 236.809 C 200.634 234.014,200.458 233.694,198.831 233.501 C 197.235 233.312,195.180 231.901,194.336 230.413 C 194.039 229.891,193.646 229.206,193.463 228.892 C 192.771 227.706,193.165 221.443,193.931 221.443 C 194.051 221.443,194.279 221.068,194.439 220.610 C 194.598 220.152,194.959 219.717,195.241 219.643 C 195.523 219.570,195.882 219.228,196.038 218.884 C 196.312 218.282,198.113 217.667,199.598 217.667 C 200.289 217.667,200.878 215.792,200.513 214.753 L 200.257 214.026 180.843 213.891 C 159.674 213.744,160.498 213.807,159.665 212.252 C 159.255 211.484,159.318 65.763,159.729 64.860 C 160.550 63.058,160.042 63.099,181.181 63.123 C 199.316 63.142,200.262 63.120,200.445 62.657 C 200.702 62.004,200.718 58.207,200.464 57.808 C 200.317 57.577,197.449 57.468,189.852 57.404 L 179.441 57.316 178.288 56.197 C 176.564 54.524,176.552 52.601,178.254 50.916 L 179.417 49.764 189.835 49.684 C 197.593 49.625,200.306 49.522,200.460 49.280 C 200.573 49.101,200.668 47.659,200.670 46.075 C 200.673 43.804,200.765 43.103,201.104 42.765 C 201.761 42.108,238.658 42.254,239.419 42.917 M187.907 101.056 C 186.866 102.098,188.029 107.080,189.313 107.080 C 190.036 107.080,190.323 107.545,190.683 109.301 C 190.858 110.151,191.104 110.911,191.232 110.990 C 191.359 111.068,191.659 111.724,191.899 112.446 C 192.139 113.169,192.573 113.975,192.863 114.238 C 193.154 114.501,193.392 114.868,193.392 115.054 C 193.392 115.240,194.029 115.963,194.808 116.662 C 195.587 117.360,196.308 118.153,196.412 118.425 C 196.515 118.696,197.087 119.064,197.683 119.243 C 198.279 119.421,199.027 119.843,199.344 120.181 L 199.921 120.795 199.151 121.760 C 198.685 122.344,198.146 122.724,197.784 122.724 C 196.548 122.724,196.485 123.708,197.618 125.341 C 198.186 126.160,198.939 127.312,199.290 127.901 C 200.206 129.435,200.522 128.911,200.503 125.890 C 200.494 124.520,200.475 118.784,200.461 113.143 C 200.433 101.879,200.415 101.696,199.436 102.466 C 199.082 102.745,198.244 103.054,197.574 103.155 C 196.904 103.255,196.023 103.511,195.616 103.724 C 195.208 103.936,194.371 104.111,193.755 104.112 C 192.753 104.113,192.606 104.199,192.352 104.926 C 191.794 106.526,190.477 106.279,190.020 104.489 C 189.789 103.585,188.399 100.877,188.166 100.877 C 188.123 100.877,188.006 100.958,187.907 101.056 M276.410 112.179 C 279.140 113.579,279.149 113.634,279.160 129.602 C 279.168 140.547,279.239 143.047,279.574 144.150 C 279.796 144.882,280.096 146.217,280.241 147.117 C 280.385 148.016,280.659 148.874,280.849 149.022 C 281.039 149.171,281.408 149.626,281.669 150.034 C 281.930 150.442,282.284 150.775,282.457 150.775 C 282.629 150.775,283.061 151.049,283.416 151.382 C 284.013 151.943,284.312 151.989,287.345 151.989 C 290.389 151.989,290.671 151.945,291.234 151.382 C 291.568 151.049,291.950 150.775,292.084 150.775 C 292.569 150.775,294.269 148.818,294.274 148.254 C 294.278 147.935,294.550 147.127,294.880 146.460 C 295.473 145.259,295.481 145.078,295.616 129.961 C 295.750 114.905,295.760 114.666,296.319 114.047 C 296.630 113.701,296.961 113.204,297.054 112.941 C 297.147 112.679,297.592 112.390,298.044 112.300 C 298.495 112.209,298.930 112.030,299.010 111.900 C 299.743 110.715,302.957 112.347,303.990 114.428 L 304.798 116.058 304.797 130.381 C 304.797 141.924,304.722 144.966,304.414 146.054 C 304.204 146.796,303.910 148.218,303.761 149.214 C 303.608 150.243,303.247 151.366,302.926 151.818 C 302.615 152.255,302.360 152.811,302.360 153.055 C 302.360 153.298,302.057 153.801,301.686 154.172 C 301.315 154.542,301.011 154.908,301.011 154.984 C 301.011 155.316,298.977 157.519,298.671 157.519 C 298.485 157.519,298.209 157.751,298.056 158.036 C 297.904 158.321,297.420 158.633,296.981 158.729 C 296.541 158.826,295.874 159.147,295.498 159.443 C 294.427 160.285,291.704 160.566,285.985 160.425 L 280.804 160.297 278.973 159.387 C 277.965 158.886,276.898 158.271,276.601 158.019 C 275.288 156.903,273.500 155.066,273.500 154.832 C 273.500 154.691,273.196 154.273,272.825 153.902 C 272.454 153.531,272.151 152.972,272.151 152.659 C 272.151 152.346,271.855 151.461,271.493 150.691 C 270.189 147.920,269.641 116.705,270.850 114.041 C 271.718 112.126,274.494 111.196,276.410 112.179 M315.172 111.935 C 315.264 112.084,315.580 112.205,315.876 112.205 C 316.428 112.205,318.270 113.991,318.272 114.528 C 318.273 114.693,318.638 115.286,319.083 115.846 C 319.528 116.406,319.894 117.060,319.897 117.299 C 319.900 117.539,320.264 118.268,320.706 118.921 C 321.149 119.574,321.510 120.320,321.510 120.578 C 321.510 120.837,321.680 121.113,321.887 121.193 C 322.094 121.272,322.464 121.942,322.710 122.681 C 322.956 123.421,323.326 124.091,323.532 124.170 C 323.739 124.249,324.057 124.813,324.240 125.423 C 324.716 127.013,326.365 127.662,326.365 126.260 C 326.365 125.970,326.650 125.389,326.999 124.970 C 327.347 124.551,327.708 123.895,327.801 123.512 C 327.895 123.130,328.277 122.486,328.652 122.082 C 329.026 121.678,329.335 121.202,329.337 121.025 C 329.340 120.847,329.704 120.167,330.147 119.514 C 330.589 118.862,330.951 118.110,330.951 117.844 C 330.951 117.578,331.175 117.202,331.449 117.008 C 331.723 116.814,332.096 116.201,332.279 115.645 C 332.461 115.089,332.826 114.482,333.091 114.296 C 333.355 114.110,333.654 113.693,333.757 113.369 C 334.529 110.924,339.701 111.535,340.409 114.155 C 340.883 115.912,340.281 120.297,339.566 120.297 C 339.438 120.297,339.207 120.764,339.053 121.336 C 338.899 121.907,338.470 122.703,338.099 123.103 C 337.728 123.503,337.424 123.997,337.424 124.201 C 337.424 124.404,337.129 124.922,336.767 125.351 C 336.406 125.781,336.028 126.460,335.927 126.862 C 335.827 127.263,335.540 127.741,335.291 127.923 C 335.042 128.105,334.688 128.767,334.504 129.395 C 334.319 130.024,333.946 130.656,333.674 130.802 C 333.402 130.947,333.107 131.431,333.018 131.877 C 332.929 132.322,332.590 132.953,332.265 133.278 C 331.154 134.389,331.208 136.738,332.373 137.902 C 332.639 138.168,332.929 138.750,333.018 139.195 C 333.107 139.641,333.397 140.122,333.662 140.264 C 333.927 140.406,334.293 140.978,334.474 141.535 C 334.655 142.093,334.959 142.641,335.149 142.753 C 335.340 142.866,335.644 143.412,335.825 143.967 C 336.006 144.522,336.440 145.319,336.789 145.739 C 337.138 146.158,337.424 146.714,337.424 146.973 C 337.424 147.232,337.717 147.720,338.076 148.057 C 338.434 148.393,338.806 148.983,338.902 149.367 C 338.999 149.751,339.356 150.396,339.696 150.800 C 340.036 151.204,340.394 152.031,340.491 152.638 C 340.588 153.246,340.778 153.742,340.913 153.742 C 341.323 153.742,341.811 155.631,341.670 156.676 C 341.527 157.745,340.010 160.215,339.495 160.217 C 339.320 160.218,338.831 160.400,338.408 160.620 C 337.086 161.310,334.401 160.244,333.782 158.784 C 333.581 158.310,333.165 157.712,332.858 157.454 C 332.551 157.196,332.299 156.750,332.299 156.463 C 332.299 156.176,332.013 155.598,331.662 155.179 C 331.311 154.760,330.935 154.131,330.826 153.782 C 330.716 153.433,330.336 152.718,329.980 152.193 C 329.624 151.669,329.332 151.036,329.332 150.786 C 329.332 150.537,329.032 150.072,328.665 149.753 C 328.298 149.434,327.918 148.836,327.821 148.423 C 327.723 148.011,327.431 147.431,327.172 147.134 C 326.914 146.837,326.556 146.140,326.378 145.583 C 326.200 145.027,325.972 144.570,325.873 144.568 C 325.773 144.566,325.435 144.496,325.122 144.412 C 324.658 144.287,324.524 144.405,324.395 145.052 C 324.308 145.488,323.945 146.196,323.589 146.625 C 323.233 147.053,322.865 147.717,322.772 148.099 C 322.679 148.482,322.296 149.125,321.922 149.529 C 321.547 149.933,321.241 150.452,321.241 150.683 C 321.241 150.914,320.937 151.463,320.566 151.904 C 320.196 152.344,319.892 152.868,319.892 153.068 C 319.892 153.268,319.611 153.774,319.267 154.194 C 318.923 154.613,318.477 155.381,318.276 155.900 C 318.075 156.419,317.689 157.061,317.418 157.327 C 317.147 157.592,316.925 157.964,316.925 158.153 C 316.925 159.554,313.426 161.116,311.608 160.527 C 309.087 159.710,307.888 155.248,309.575 152.967 C 309.909 152.515,310.182 151.908,310.182 151.616 C 310.182 151.325,310.478 150.735,310.839 150.306 C 311.200 149.877,311.578 149.197,311.679 148.796 C 311.780 148.394,312.072 147.917,312.329 147.735 C 312.586 147.553,312.946 146.949,313.128 146.393 C 313.311 145.837,313.676 145.231,313.940 145.045 C 314.204 144.859,314.515 144.403,314.631 144.032 C 314.746 143.661,315.128 143.015,315.479 142.596 C 315.829 142.176,316.116 141.604,316.116 141.325 C 316.116 141.045,316.354 140.595,316.646 140.323 C 316.937 140.052,317.365 139.374,317.598 138.818 C 317.831 138.261,318.198 137.737,318.414 137.654 C 319.427 137.266,319.443 133.543,318.433 133.155 C 318.227 133.076,317.907 132.548,317.722 131.981 C 317.538 131.414,317.101 130.608,316.751 130.188 C 316.402 129.769,316.116 129.210,316.116 128.947 C 316.116 128.683,315.818 128.146,315.454 127.753 C 315.089 127.360,314.713 126.618,314.616 126.104 C 314.513 125.554,314.244 125.108,313.963 125.018 C 313.682 124.929,313.347 124.375,313.152 123.678 C 312.969 123.024,312.657 122.427,312.459 122.351 C 312.261 122.275,311.961 121.703,311.794 121.080 C 311.626 120.458,311.245 119.619,310.948 119.217 C 310.342 118.397,310.002 115.814,310.294 114.253 C 310.570 112.783,314.533 110.901,315.172 111.935 M70.215 113.881 C 71.969 115.923,71.867 114.923,72.027 131.625 L 72.173 146.864 72.914 148.569 C 74.279 151.711,76.721 153.191,80.556 153.199 C 84.740 153.208,87.076 151.520,88.388 147.539 L 89.144 145.246 89.278 130.399 C 89.425 114.296,89.310 115.512,90.869 113.554 C 92.209 111.872,96.110 113.112,96.813 115.442 C 97.615 118.102,97.045 149.052,96.170 150.389 C 95.951 150.722,95.628 151.568,95.451 152.269 C 95.004 154.047,91.655 158.030,90.223 158.487 C 89.926 158.582,89.440 158.874,89.144 159.135 C 87.574 160.520,80.067 161.119,75.620 160.214 C 72.555 159.591,68.555 157.579,68.021 156.392 C 67.975 156.289,67.553 155.681,67.083 155.041 C 65.699 153.157,64.764 150.485,64.325 147.169 C 63.846 143.540,63.742 117.322,64.201 115.671 C 64.980 112.867,68.456 111.833,70.215 113.881 M112.828 113.901 C 114.432 115.733,114.363 114.682,114.363 137.109 L 114.363 157.714 113.543 158.746 C 111.463 161.363,108.359 161.476,107.080 158.982 C 106.563 157.973,106.321 118.473,106.818 116.081 C 107.477 112.903,110.876 111.671,112.828 113.901 M192.085 126.663 C 191.338 127.186,191.352 127.424,192.152 127.788 C 192.765 128.067,193.661 127.576,193.661 126.961 C 193.661 126.472,192.635 126.278,192.085 126.663 M184.042 137.357 C 183.638 138.004,183.690 138.538,184.103 137.979 C 184.483 137.467,184.608 137.020,184.372 137.020 C 184.307 137.020,184.158 137.171,184.042 137.357 M184.519 158.352 C 169.692 158.504,169.022 158.532,168.656 159.026 C 168.092 159.785,168.259 168.921,168.847 169.490 C 169.566 170.185,200.020 170.448,200.233 169.760 C 200.771 168.032,200.389 166.419,199.442 166.419 C 198.475 166.419,198.505 164.637,199.492 163.464 C 200.039 162.814,200.227 162.246,200.326 160.948 C 200.559 157.885,202.292 158.169,184.519 158.352 M186.835 161.789 C 187.736 163.025,187.773 163.416,187.047 164.047 C 186.205 164.780,186.198 165.285,187.027 165.600 C 188.599 166.198,188.028 167.052,186.180 166.869 C 185.399 166.792,184.866 166.553,184.502 166.116 L 183.967 165.475 183.278 166.336 C 182.650 167.120,182.518 167.171,181.787 166.916 C 180.774 166.563,180.779 166.333,181.819 165.592 L 182.654 164.998 181.805 164.158 C 180.929 163.292,180.175 163.555,180.175 164.727 C 180.175 165.234,178.396 166.959,177.874 166.959 C 176.231 166.959,175.074 163.281,176.223 161.710 C 176.831 160.879,177.208 161.480,177.208 163.280 C 177.208 166.085,178.664 166.733,178.959 164.059 C 179.053 163.206,179.154 162.326,179.183 162.104 C 179.220 161.825,179.670 161.656,180.634 161.558 C 181.402 161.481,182.117 161.331,182.222 161.226 C 182.565 160.883,183.125 161.942,183.134 162.947 C 183.144 164.068,183.671 164.704,184.174 164.201 C 184.348 164.027,184.491 163.402,184.491 162.813 C 184.491 160.861,185.756 160.308,186.835 161.789 M191.623 161.624 C 192.286 162.570,191.988 166.689,191.258 166.689 C 189.734 166.689,187.944 162.666,188.966 161.537 C 189.624 160.810,191.086 160.858,191.623 161.624 M196.574 161.832 C 196.826 162.277,197.115 162.641,197.216 162.642 C 197.818 162.647,198.247 163.610,198.247 164.955 C 198.247 166.815,197.393 167.032,196.206 165.475 C 195.810 164.956,195.257 164.531,194.978 164.531 C 194.554 164.531,194.471 164.325,194.471 163.271 C 194.471 161.172,195.714 160.322,196.574 161.832 M178.655 173.095 C 170.261 173.161,169.135 173.220,168.810 173.611 C 168.257 174.276,168.120 182.548,168.645 183.550 L 169.028 184.281 184.567 184.423 L 200.106 184.565 200.279 183.786 C 200.374 183.358,200.484 182.886,200.524 182.738 C 200.678 182.167,198.940 178.862,198.473 178.837 C 198.375 178.831,198.212 179.315,198.111 179.911 C 197.776 181.892,197.011 182.165,196.080 180.635 L 195.575 179.804 195.321 180.473 C 194.403 182.885,192.709 181.303,193.459 178.735 C 193.682 177.970,193.682 177.573,193.458 177.215 C 193.192 176.788,193.295 176.690,194.324 176.402 C 195.686 176.021,196.533 176.212,196.768 176.952 C 196.987 177.643,197.249 177.617,197.576 176.871 C 197.884 176.169,198.900 175.934,199.496 176.429 C 200.306 177.101,200.704 175.566,200.256 173.500 L 200.125 172.893 194.128 172.957 C 190.830 172.992,183.867 173.054,178.655 173.095 M183.412 177.113 C 183.412 177.460,183.655 177.895,183.951 178.080 C 184.292 178.293,184.491 178.709,184.491 179.207 C 184.491 180.677,185.200 181.088,186.295 180.253 L 187.225 179.544 186.397 178.896 C 185.288 178.028,185.226 176.643,186.274 176.165 C 187.321 175.688,187.827 176.206,187.615 177.538 C 187.355 179.160,189.299 180.993,190.259 180.033 C 190.781 179.511,190.553 178.883,189.804 178.775 C 189.067 178.668,188.513 176.751,189.110 176.373 C 189.606 176.058,191.037 176.068,191.887 176.391 L 192.575 176.652 191.888 177.339 L 191.201 178.026 191.768 178.746 C 193.286 180.676,190.578 183.026,188.839 181.287 C 188.342 180.790,188.322 180.790,187.897 181.287 C 187.418 181.846,186.614 181.939,185.837 181.523 C 185.486 181.335,185.111 181.352,184.613 181.579 C 183.956 181.878,183.834 181.835,183.181 181.069 C 182.486 180.253,181.794 180.138,181.794 180.839 C 181.794 182.279,180.543 181.682,180.400 180.174 C 180.268 178.785,179.277 178.699,178.646 180.022 C 177.903 181.582,176.740 180.615,177.209 178.827 C 177.306 178.456,177.267 177.883,177.122 177.554 C 176.701 176.594,177.323 176.088,178.803 176.184 C 179.910 176.256,180.081 176.357,180.429 177.146 C 180.867 178.143,181.344 178.161,181.481 177.187 C 181.722 175.477,183.412 175.412,183.412 177.113 M198.157 192.223 C 198.058 192.322,197.976 192.838,197.975 193.369 C 197.974 193.901,197.791 194.686,197.568 195.113 C 197.167 195.883,197.522 196.588,198.329 196.620 C 199.003 196.647,200.405 195.093,200.405 194.319 C 200.405 193.134,198.770 191.610,198.157 192.223 M187.522 192.592 C 186.952 192.821,186.935 192.896,187.262 193.699 C 188.055 195.640,189.459 195.369,188.809 193.400 C 188.422 192.226,188.427 192.229,187.522 192.592 M190.831 192.650 C 190.768 192.835,190.680 193.411,190.638 193.929 C 190.577 194.657,190.387 194.954,189.803 195.232 C 188.887 195.669,189.177 196.204,190.469 196.462 C 192.179 196.804,193.133 194.948,192.078 193.336 C 191.381 192.271,191.028 192.077,190.831 192.650 M193.759 192.717 C 193.666 192.960,193.715 193.284,193.868 193.437 C 194.280 193.848,195.327 193.431,195.225 192.897 C 195.109 192.288,193.977 192.149,193.759 192.717 M193.568 195.316 C 192.842 195.738,194.489 197.438,195.625 197.438 C 196.516 197.438,196.510 196.929,195.613 196.477 C 195.300 196.320,194.824 195.929,194.555 195.609 C 194.164 195.142,193.967 195.084,193.568 195.316 M187.795 196.808 C 187.206 197.044,187.431 197.438,188.155 197.438 C 188.573 197.438,188.809 197.309,188.745 197.117 C 188.618 196.738,188.261 196.622,187.795 196.808 " stroke="none" fill="#ebecec" fill-rule="evenodd"></path><path id="path2" d="M194.471 78.086 C 191.933 78.701,189.713 79.420,189.310 79.755 C 189.097 79.932,188.381 80.330,187.719 80.639 C 186.520 81.198,184.428 82.453,182.987 83.476 C 180.858 84.988,177.148 89.170,175.865 91.504 C 175.560 92.060,175.200 92.515,175.066 92.515 C 174.932 92.515,174.677 92.970,174.499 93.527 C 174.321 94.083,173.955 94.781,173.685 95.078 C 173.416 95.374,173.078 96.142,172.934 96.783 C 172.790 97.424,172.491 98.152,172.271 98.401 C 172.050 98.650,171.722 99.582,171.542 100.472 C 171.362 101.362,170.986 102.694,170.708 103.432 C 169.428 106.823,169.420 119.556,170.696 122.454 C 170.989 123.122,171.317 124.275,171.423 125.017 C 171.529 125.759,171.903 126.911,172.254 127.577 C 172.605 128.243,172.893 129.046,172.893 129.361 C 172.893 129.676,173.140 130.248,173.442 130.632 C 173.744 131.016,174.127 131.730,174.294 132.219 C 174.460 132.708,174.911 133.492,175.296 133.961 C 175.680 134.430,176.298 135.259,176.669 135.803 C 177.911 137.626,180.094 140.125,181.325 141.134 C 182.773 142.320,183.016 142.177,183.294 139.980 C 183.397 139.168,183.696 138.018,183.958 137.424 C 184.221 136.831,184.589 135.829,184.776 135.199 C 184.963 134.568,185.220 134.053,185.347 134.053 C 185.474 134.053,185.789 133.597,186.046 133.041 C 187.188 130.572,191.016 126.905,193.221 126.168 C 193.686 126.013,194.393 125.538,194.793 125.114 C 195.192 124.690,195.711 124.343,195.946 124.343 C 196.554 124.343,196.898 123.225,196.898 121.254 C 196.898 119.035,196.519 118.204,194.805 116.662 C 194.028 115.964,193.392 115.240,193.392 115.054 C 193.392 114.868,193.154 114.501,192.863 114.238 C 192.573 113.975,192.139 113.169,191.899 112.446 C 191.659 111.724,191.359 111.068,191.232 110.990 C 191.104 110.911,190.858 110.151,190.683 109.301 C 190.323 107.545,190.036 107.080,189.313 107.080 C 188.051 107.080,187.682 106.159,187.820 103.353 C 188.145 96.736,188.718 93.424,189.749 92.198 C 190.121 91.756,190.425 91.280,190.425 91.140 C 190.425 89.251,195.567 86.310,199.454 85.976 C 199.999 85.929,200.366 85.690,200.597 85.233 C 201.051 84.330,201.070 78.454,200.620 78.004 C 200.187 77.571,196.384 77.621,194.471 78.086 M65.586 113.682 C 63.929 115.179,63.927 115.194,63.928 130.411 C 63.929 148.318,64.306 151.258,67.083 155.041 C 67.553 155.681,67.975 156.289,68.021 156.392 C 68.555 157.579,72.555 159.591,75.620 160.214 C 80.067 161.119,87.574 160.520,89.144 159.135 C 89.440 158.874,89.926 158.582,90.223 158.487 C 91.655 158.030,95.004 154.047,95.451 152.269 C 95.628 151.568,95.951 150.722,96.170 150.389 C 97.045 149.052,97.615 118.102,96.813 115.442 C 96.110 113.112,92.209 111.872,90.869 113.554 C 89.310 115.512,89.425 114.296,89.278 130.399 L 89.144 145.246 88.388 147.539 C 85.989 154.817,75.919 155.488,72.914 148.569 L 72.173 146.864 72.027 131.625 C 71.897 118.038,71.832 116.298,71.429 115.577 C 69.775 112.617,67.559 111.899,65.586 113.682 M108.213 113.672 C 106.528 115.194,106.541 115.017,106.541 137.020 C 106.541 158.973,106.547 159.066,108.117 160.050 C 110.197 161.353,111.772 160.975,113.543 158.746 L 114.363 157.714 114.363 137.109 C 114.363 119.767,114.301 116.366,113.975 115.635 C 112.697 112.776,110.161 111.912,108.213 113.672 M185.836 189.483 C 182.444 191.986,182.391 197.076,185.734 199.370 C 187.430 200.534,188.362 200.674,194.419 200.674 C 201.026 200.674,200.947 200.707,200.940 197.984 C 200.933 195.210,200.668 194.866,199.375 195.954 C 198.462 196.722,198.296 196.751,197.637 196.251 C 197.204 195.923,197.198 195.822,197.568 195.113 C 197.791 194.686,197.974 193.877,197.975 193.316 C 197.978 191.960,198.577 191.742,199.602 192.724 L 200.386 193.475 200.665 192.742 C 201.045 191.743,201.017 189.527,200.620 189.130 C 200.386 188.896,198.432 188.806,193.525 188.806 L 186.753 188.806 185.836 189.483 M188.809 193.400 C 189.459 195.369,188.055 195.640,187.262 193.699 C 186.935 192.896,186.952 192.821,187.522 192.592 C 188.427 192.229,188.422 192.226,188.809 193.400 M192.078 193.336 C 193.133 194.948,192.179 196.804,190.469 196.462 C 189.177 196.204,188.887 195.669,189.803 195.232 C 190.387 194.954,190.577 194.657,190.638 193.929 C 190.798 191.984,191.109 191.856,192.078 193.336 M195.225 192.897 C 195.327 193.431,194.280 193.848,193.868 193.437 C 193.715 193.284,193.666 192.960,193.759 192.717 C 193.977 192.149,195.109 192.288,195.225 192.897 M195.613 196.477 C 196.510 196.929,196.516 197.438,195.625 197.438 C 194.489 197.438,192.842 195.738,193.568 195.316 C 193.967 195.084,194.164 195.142,194.555 195.609 C 194.824 195.929,195.300 196.320,195.613 196.477 M188.745 197.117 C 188.809 197.309,188.573 197.438,188.155 197.438 C 187.431 197.438,187.206 197.044,187.795 196.808 C 188.261 196.622,188.618 196.738,188.745 197.117 " stroke="none" fill="#d47558" fill-rule="evenodd"></path><path id="path3" d="M201.104 42.765 C 200.765 43.103,200.673 43.804,200.670 46.075 C 200.668 47.659,200.573 49.101,200.460 49.280 C 200.306 49.522,197.593 49.625,189.835 49.684 L 179.417 49.764 178.254 50.916 C 176.552 52.601,176.564 54.524,178.288 56.197 L 179.441 57.316 189.852 57.404 C 197.449 57.468,200.317 57.577,200.464 57.808 C 200.718 58.207,200.702 62.004,200.445 62.657 C 200.262 63.120,199.316 63.142,181.181 63.123 C 160.042 63.099,160.550 63.058,159.729 64.860 C 159.318 65.763,159.255 211.484,159.665 212.252 C 160.498 213.807,159.674 213.744,180.843 213.891 L 200.257 214.026 200.513 214.753 C 200.878 215.792,200.289 217.667,199.598 217.667 C 198.113 217.667,196.312 218.282,196.038 218.884 C 195.882 219.228,195.523 219.570,195.241 219.643 C 194.959 219.717,194.598 220.152,194.439 220.610 C 194.279 221.068,194.051 221.443,193.931 221.443 C 193.165 221.443,192.771 227.706,193.463 228.892 C 193.646 229.206,194.039 229.891,194.336 230.413 C 195.180 231.901,197.235 233.312,198.831 233.501 C 200.458 233.694,200.634 234.014,200.643 236.809 C 200.652 239.793,198.629 239.514,220.271 239.514 C 239.665 239.514,241.133 239.443,241.133 238.492 C 241.133 238.360,241.625 238.104,242.226 237.924 C 242.827 237.744,243.388 237.416,243.472 237.197 C 243.557 236.977,243.975 236.617,244.402 236.396 C 244.829 236.175,245.179 235.829,245.179 235.628 C 245.179 235.426,245.467 235.072,245.820 234.841 C 246.208 234.586,246.534 234.036,246.644 233.447 C 246.745 232.911,246.993 232.410,247.196 232.332 C 248.475 231.841,248.491 231.087,248.593 167.659 C 248.668 120.456,248.760 107.720,249.024 107.402 C 249.611 106.695,249.650 93.355,249.071 91.205 C 248.568 89.338,248.641 85.258,249.202 83.799 C 249.677 82.566,249.592 69.748,249.102 68.685 C 248.806 68.043,248.683 66.257,248.596 61.362 C 248.464 53.875,248.139 50.890,247.365 50.060 C 247.075 49.749,246.752 49.151,246.647 48.731 C 246.543 48.311,246.292 47.904,246.089 47.826 C 245.887 47.748,245.471 47.242,245.165 46.701 C 244.568 45.647,242.055 43.862,240.716 43.543 C 240.278 43.439,239.694 43.157,239.419 42.917 C 238.658 42.254,201.761 42.108,201.104 42.765 M238.550 43.123 C 238.630 43.253,239.239 43.496,239.902 43.663 C 242.765 44.384,245.032 46.556,246.966 50.432 L 247.972 52.448 248.086 60.412 C 248.175 66.617,248.283 68.507,248.577 68.972 C 249.132 69.851,249.109 82.907,248.550 83.884 C 248.002 84.843,248.002 90.218,248.550 91.530 C 249.139 92.939,249.146 106.185,248.559 106.961 C 248.214 107.418,248.160 115.124,248.140 167.094 C 248.116 228.277,248.083 230.376,247.112 231.689 C 246.804 232.106,246.473 232.760,246.377 233.141 C 246.150 234.045,242.994 237.196,241.871 237.639 C 241.391 237.828,240.715 238.237,240.370 238.547 C 239.641 239.200,202.663 239.606,201.482 238.974 C 201.007 238.720,200.944 238.408,200.944 236.322 C 200.944 233.646,200.763 233.311,199.316 233.311 C 198.632 233.311,197.879 233.006,196.828 232.303 C 191.279 228.594,192.697 218.947,198.921 218.069 C 199.663 217.965,200.406 217.708,200.572 217.499 C 200.873 217.121,200.824 203.557,200.515 201.551 L 200.380 200.674 194.301 200.674 L 188.221 200.674 186.523 199.829 C 182.543 197.849,182.013 193.165,185.382 189.751 L 186.181 188.941 193.360 188.806 L 200.539 188.672 200.739 185.705 C 200.866 183.830,200.833 182.241,200.650 181.389 C 200.317 179.838,200.311 179.542,200.566 177.343 C 200.962 173.934,200.843 166.305,200.383 165.612 C 199.998 165.032,199.997 164.890,200.372 164.144 C 200.900 163.094,200.869 148.931,200.337 147.973 C 200.163 147.660,200.074 147.283,200.141 147.134 C 200.457 146.427,200.780 125.486,200.712 110.106 C 200.671 100.855,200.662 100.812,199.126 101.905 C 198.282 102.507,195.846 103.034,193.914 103.034 C 192.765 103.034,192.617 103.108,192.317 103.835 C 191.536 105.719,190.644 105.446,190.282 103.212 C 190.167 102.503,189.797 101.772,189.276 101.224 C 188.076 99.964,187.876 100.406,188.912 102.033 C 189.404 102.806,189.888 103.882,189.988 104.423 C 190.320 106.226,191.610 106.543,192.294 104.990 C 192.638 104.208,192.799 104.113,193.778 104.112 C 194.381 104.111,195.208 103.936,195.616 103.724 C 196.023 103.511,196.904 103.255,197.574 103.155 C 198.244 103.054,199.082 102.745,199.436 102.466 C 200.415 101.696,200.433 101.879,200.461 113.143 C 200.475 118.784,200.494 124.520,200.503 125.890 C 200.522 128.911,200.206 129.435,199.290 127.902 C 197.046 124.144,196.659 123.786,196.034 124.884 C 195.777 125.335,195.349 125.691,195.063 125.691 C 193.854 125.691,192.796 126.265,193.310 126.641 C 194.182 127.278,193.041 128.230,192.032 127.708 C 190.770 127.056,187.273 130.140,186.132 132.913 C 185.932 133.398,185.622 133.884,185.442 133.992 C 185.012 134.249,184.206 136.666,184.390 137.144 C 184.468 137.350,184.298 137.751,184.012 138.038 C 183.702 138.348,183.414 139.143,183.300 140.007 C 183.012 142.177,182.769 142.316,181.325 141.134 C 180.094 140.125,177.911 137.626,176.669 135.803 C 176.298 135.259,175.680 134.430,175.296 133.961 C 174.911 133.492,174.460 132.708,174.294 132.219 C 174.127 131.730,173.744 131.016,173.442 130.632 C 173.140 130.248,172.893 129.676,172.893 129.361 C 172.893 129.046,172.605 128.243,172.254 127.577 C 171.903 126.911,171.529 125.759,171.423 125.017 C 171.317 124.275,170.989 123.122,170.694 122.454 C 169.482 119.710,169.391 106.547,170.564 103.811 C 170.795 103.273,171.164 101.965,171.386 100.902 C 171.607 99.840,172.037 98.655,172.341 98.269 C 172.644 97.883,172.893 97.229,172.893 96.815 C 172.893 96.401,173.179 95.720,173.528 95.301 C 173.877 94.881,174.312 94.083,174.493 93.527 C 174.674 92.970,174.932 92.515,175.066 92.515 C 175.200 92.515,175.560 92.060,175.865 91.504 C 177.148 89.170,180.858 84.988,182.987 83.476 C 184.320 82.529,186.476 81.226,187.862 80.529 C 188.604 80.156,189.393 79.736,189.616 79.595 C 190.923 78.766,195.535 77.680,197.749 77.680 C 199.283 77.680,200.159 77.566,200.335 77.343 C 200.704 76.877,201.002 58.063,200.651 57.408 C 200.401 56.940,199.822 56.912,190.407 56.912 C 179.865 56.912,179.293 56.852,178.212 55.637 C 176.906 54.170,177.121 52.354,178.749 51.111 L 179.983 50.169 189.992 50.164 C 195.810 50.162,200.169 50.054,200.405 49.905 C 200.712 49.711,200.842 48.901,200.944 46.528 C 201.047 44.155,201.176 43.344,201.483 43.150 C 202.002 42.823,238.348 42.796,238.550 43.123 M272.603 112.368 C 270.354 113.538,270.411 113.157,270.309 127.714 C 270.203 142.910,270.494 148.568,271.493 150.691 C 271.855 151.461,272.151 152.346,272.151 152.659 C 272.151 152.972,272.454 153.531,272.825 153.902 C 273.196 154.273,273.500 154.691,273.500 154.832 C 273.500 155.066,275.288 156.903,276.601 158.019 C 276.898 158.271,277.965 158.886,278.973 159.387 L 280.804 160.297 285.985 160.425 C 291.704 160.566,294.427 160.285,295.498 159.443 C 295.874 159.147,296.541 158.826,296.981 158.729 C 297.420 158.633,297.904 158.321,298.056 158.036 C 298.209 157.751,298.485 157.519,298.671 157.519 C 298.977 157.519,301.011 155.316,301.011 154.984 C 301.011 154.908,301.315 154.542,301.686 154.172 C 302.057 153.801,302.360 153.298,302.360 153.055 C 302.360 152.811,302.615 152.255,302.926 151.818 C 303.247 151.366,303.608 150.243,303.761 149.214 C 303.910 148.218,304.204 146.796,304.414 146.054 C 304.722 144.966,304.797 141.924,304.797 130.381 L 304.798 116.058 303.990 114.428 C 302.957 112.347,299.743 110.715,299.010 111.900 C 298.930 112.030,298.495 112.209,298.044 112.300 C 297.592 112.390,297.147 112.679,297.054 112.941 C 296.961 113.204,296.630 113.701,296.319 114.047 C 295.760 114.666,295.750 114.905,295.616 129.961 C 295.481 145.078,295.473 145.259,294.880 146.460 C 294.550 147.127,294.278 147.935,294.274 148.254 C 294.269 148.818,292.569 150.775,292.084 150.775 C 291.950 150.775,291.568 151.049,291.234 151.382 C 290.671 151.945,290.389 151.989,287.345 151.989 C 284.312 151.989,284.013 151.943,283.416 151.382 C 283.061 151.049,282.629 150.775,282.457 150.775 C 282.284 150.775,281.930 150.442,281.669 150.034 C 281.408 149.626,281.039 149.171,280.849 149.022 C 280.659 148.874,280.385 148.016,280.241 147.117 C 280.096 146.217,279.796 144.882,279.574 144.150 C 279.239 143.047,279.168 140.547,279.160 129.602 C 279.149 113.634,279.140 113.579,276.410 112.179 C 275.091 111.502,274.179 111.548,272.603 112.368 M312.015 112.486 C 310.678 113.176,310.453 113.407,310.294 114.253 C 310.002 115.814,310.342 118.397,310.948 119.217 C 311.245 119.619,311.626 120.458,311.794 121.080 C 311.961 121.703,312.261 122.275,312.459 122.351 C 312.657 122.427,312.969 123.024,313.152 123.678 C 313.347 124.375,313.682 124.929,313.963 125.018 C 314.244 125.108,314.513 125.554,314.616 126.104 C 314.713 126.618,315.089 127.360,315.454 127.753 C 315.818 128.146,316.116 128.683,316.116 128.947 C 316.116 129.210,316.402 129.769,316.751 130.188 C 317.101 130.608,317.538 131.414,317.722 131.981 C 317.907 132.548,318.227 133.076,318.433 133.155 C 319.443 133.543,319.427 137.266,318.414 137.654 C 318.198 137.737,317.831 138.261,317.598 138.818 C 317.365 139.374,316.937 140.052,316.646 140.323 C 316.354 140.595,316.116 141.045,316.116 141.325 C 316.116 141.604,315.829 142.176,315.479 142.596 C 315.128 143.015,314.746 143.661,314.631 144.032 C 314.515 144.403,314.204 144.859,313.940 145.045 C 313.676 145.231,313.311 145.837,313.128 146.393 C 312.946 146.949,312.586 147.553,312.329 147.735 C 312.072 147.917,311.780 148.394,311.679 148.796 C 311.578 149.197,311.200 149.877,310.839 150.306 C 310.478 150.735,310.182 151.325,310.182 151.616 C 310.182 151.908,309.909 152.515,309.575 152.967 C 307.888 155.248,309.087 159.710,311.608 160.527 C 313.426 161.116,316.925 159.554,316.925 158.153 C 316.925 157.964,317.147 157.592,317.418 157.327 C 317.689 157.061,318.075 156.419,318.276 155.900 C 318.477 155.381,318.923 154.613,319.267 154.194 C 319.611 153.774,319.892 153.268,319.892 153.068 C 319.892 152.868,320.196 152.344,320.566 151.904 C 320.937 151.463,321.241 150.914,321.241 150.683 C 321.241 150.452,321.547 149.933,321.922 149.529 C 322.296 149.125,322.679 148.482,322.772 148.099 C 322.865 147.717,323.233 147.053,323.589 146.625 C 323.945 146.196,324.308 145.488,324.395 145.052 C 324.524 144.405,324.658 144.287,325.122 144.412 C 325.435 144.496,325.773 144.566,325.873 144.568 C 325.972 144.570,326.200 145.027,326.378 145.583 C 326.556 146.140,326.914 146.837,327.172 147.134 C 327.431 147.431,327.723 148.011,327.821 148.423 C 327.918 148.836,328.298 149.434,328.665 149.753 C 329.032 150.072,329.332 150.537,329.332 150.786 C 329.332 151.036,329.624 151.669,329.980 152.193 C 330.336 152.718,330.716 153.433,330.826 153.782 C 330.935 154.131,331.311 154.760,331.662 155.179 C 332.013 155.598,332.299 156.176,332.299 156.463 C 332.299 156.750,332.551 157.196,332.858 157.454 C 333.165 157.712,333.581 158.310,333.782 158.784 C 334.401 160.244,337.086 161.310,338.408 160.620 C 338.831 160.400,339.320 160.218,339.495 160.217 C 340.010 160.215,341.527 157.745,341.670 156.676 C 341.811 155.631,341.323 153.742,340.913 153.742 C 340.778 153.742,340.588 153.246,340.491 152.638 C 340.394 152.031,340.036 151.204,339.696 150.800 C 339.356 150.396,338.999 149.751,338.902 149.367 C 338.806 148.983,338.434 148.393,338.076 148.057 C 337.717 147.720,337.424 147.232,337.424 146.973 C 337.424 146.714,337.138 146.158,336.789 145.739 C 336.440 145.319,336.006 144.522,335.825 143.967 C 335.644 143.412,335.340 142.866,335.149 142.753 C 334.959 142.641,334.655 142.093,334.474 141.535 C 334.293 140.978,333.927 140.406,333.662 140.264 C 333.397 140.122,333.107 139.641,333.018 139.195 C 332.929 138.750,332.639 138.168,332.373 137.902 C 331.208 136.738,331.154 134.389,332.265 133.278 C 332.590 132.953,332.929 132.322,333.018 131.877 C 333.107 131.431,333.402 130.947,333.674 130.802 C 333.946 130.656,334.319 130.024,334.504 129.395 C 334.688 128.767,335.042 128.105,335.291 127.923 C 335.540 127.741,335.827 127.263,335.927 126.862 C 336.028 126.460,336.406 125.781,336.767 125.351 C 337.129 124.922,337.424 124.404,337.424 124.201 C 337.424 123.997,337.728 123.503,338.099 123.103 C 338.470 122.703,338.899 121.907,339.053 121.336 C 339.207 120.764,339.438 120.297,339.566 120.297 C 340.281 120.297,340.883 115.912,340.409 114.155 C 339.701 111.535,334.529 110.924,333.757 113.369 C 333.654 113.693,333.355 114.110,333.091 114.296 C 332.826 114.482,332.461 115.089,332.279 115.645 C 332.096 116.201,331.723 116.814,331.449 117.008 C 331.175 117.202,330.951 117.578,330.951 117.844 C 330.951 118.110,330.589 118.862,330.147 119.514 C 329.704 120.167,329.340 120.847,329.337 121.025 C 329.335 121.202,329.026 121.678,328.652 122.082 C 328.277 122.486,327.895 123.130,327.801 123.512 C 327.708 123.895,327.347 124.551,326.999 124.970 C 326.650 125.389,326.365 125.970,326.365 126.260 C 326.365 127.662,324.716 127.013,324.240 125.423 C 324.057 124.813,323.739 124.249,323.532 124.170 C 323.326 124.091,322.956 123.421,322.710 122.681 C 322.464 121.942,322.094 121.272,321.887 121.193 C 321.680 121.113,321.510 120.837,321.510 120.578 C 321.510 120.320,321.149 119.574,320.706 118.921 C 320.264 118.268,319.900 117.539,319.897 117.299 C 319.894 117.060,319.528 116.406,319.083 115.846 C 318.638 115.286,318.273 114.693,318.272 114.528 C 318.270 113.991,316.428 112.205,315.876 112.205 C 315.580 112.205,315.264 112.084,315.172 111.935 C 314.873 111.451,313.584 111.676,312.015 112.486 M275.966 112.481 C 276.589 112.654,277.232 113.123,277.720 113.761 L 278.490 114.767 278.637 129.467 C 278.763 142.123,278.845 144.336,279.223 145.381 C 279.465 146.049,279.803 147.130,279.975 147.784 C 280.289 148.980,281.714 151.045,282.226 151.045 C 282.377 151.045,282.791 151.318,283.146 151.652 C 283.749 152.218,284.031 152.259,287.366 152.259 L 290.940 152.259 292.449 151.045 C 293.681 150.054,294.122 149.460,294.855 147.808 L 295.752 145.786 295.887 130.539 L 296.022 115.293 296.628 114.522 C 296.962 114.098,297.235 113.589,297.235 113.392 C 297.235 111.408,302.537 112.206,303.535 114.340 C 305.013 117.501,304.385 147.852,302.775 151.045 C 302.438 151.713,302.069 152.562,301.955 152.933 C 301.462 154.529,298.398 157.599,296.426 158.472 C 295.907 158.702,295.010 159.145,294.432 159.457 C 291.105 161.254,279.532 160.071,276.794 157.653 C 274.394 155.535,272.609 153.146,272.287 151.624 C 272.182 151.126,271.835 150.155,271.517 149.466 C 270.948 148.236,270.409 117.045,270.922 115.003 C 271.425 112.999,273.713 111.855,275.966 112.481 M316.813 113.410 C 318.076 114.755,318.370 115.254,321.712 121.731 C 322.463 123.187,323.256 124.583,323.474 124.832 C 323.692 125.082,324.007 125.715,324.175 126.240 C 324.697 127.867,325.871 128.073,326.595 126.666 C 326.909 126.056,327.593 124.828,328.115 123.938 C 328.637 123.048,329.314 121.834,329.620 121.241 C 329.925 120.647,330.531 119.555,330.966 118.813 C 331.402 118.071,332.005 116.954,332.306 116.329 C 332.608 115.705,332.974 115.120,333.120 115.030 C 333.266 114.940,333.621 114.406,333.907 113.844 C 334.325 113.024,334.662 112.757,335.612 112.491 C 339.954 111.276,341.725 115.354,339.028 120.361 C 338.448 121.438,337.725 122.830,337.421 123.455 C 337.118 124.079,336.745 124.667,336.593 124.761 C 336.441 124.855,336.016 125.558,335.648 126.323 C 334.355 129.014,333.704 130.164,333.274 130.521 C 333.034 130.720,332.839 131.025,332.839 131.201 C 332.839 131.376,332.476 132.092,332.032 132.792 C 330.900 134.576,330.786 135.778,331.605 137.289 C 331.967 137.957,332.466 138.928,332.715 139.447 C 332.963 139.966,333.327 140.483,333.522 140.595 C 333.717 140.708,334.023 141.254,334.200 141.809 C 334.378 142.364,334.736 143.061,334.997 143.358 C 335.257 143.655,335.612 144.343,335.786 144.887 C 335.961 145.432,336.280 146.024,336.497 146.204 C 336.714 146.384,337.136 147.031,337.436 147.642 C 337.735 148.253,338.277 149.238,338.641 149.831 C 342.367 155.921,341.734 160.216,337.110 160.216 C 335.409 160.216,333.105 157.980,332.319 155.567 C 332.138 155.013,331.868 154.483,331.718 154.391 C 331.568 154.298,331.215 153.720,330.933 153.106 C 330.651 152.492,330.036 151.322,329.567 150.506 C 327.898 147.603,327.192 146.310,326.657 145.179 C 326.359 144.548,325.938 144.032,325.723 144.032 C 325.507 144.032,325.155 143.965,324.939 143.882 C 324.671 143.779,324.414 144.069,324.120 144.803 C 323.884 145.392,323.558 145.957,323.396 146.057 C 323.233 146.158,322.799 146.866,322.431 147.631 C 321.389 149.800,320.939 150.597,320.430 151.180 C 320.171 151.477,319.816 152.165,319.642 152.709 C 319.468 153.254,319.142 153.851,318.918 154.037 C 318.694 154.223,318.290 154.809,318.019 155.340 C 316.043 159.218,315.327 159.971,313.446 160.152 C 310.800 160.406,309.312 159.037,309.281 156.321 C 309.267 155.022,310.655 150.893,311.233 150.516 C 311.354 150.436,311.714 149.825,312.031 149.157 C 312.349 148.490,312.969 147.397,313.409 146.730 C 314.681 144.801,316.231 142.142,317.772 139.245 C 318.107 138.614,318.473 138.098,318.585 138.098 C 319.748 138.098,319.919 133.522,318.783 132.820 C 318.640 132.732,318.242 132.093,317.899 131.401 C 317.555 130.708,316.710 129.153,316.021 127.945 C 315.331 126.737,314.767 125.667,314.767 125.567 C 314.767 125.467,314.478 124.999,314.124 124.527 C 313.771 124.055,313.390 123.365,313.278 122.994 C 313.166 122.623,312.849 122.030,312.572 121.676 C 312.296 121.323,312.070 120.886,312.070 120.705 C 312.070 120.525,311.773 119.819,311.411 119.137 C 308.872 114.363,313.300 109.670,316.813 113.410 M196.851 120.935 L 196.938 122.918 197.691 122.753 C 199.757 122.303,200.207 120.179,198.382 119.493 C 196.671 118.850,196.755 118.770,196.851 120.935 M200.326 160.948 C 200.227 162.246,200.039 162.814,199.492 163.464 C 198.505 164.637,198.475 166.419,199.442 166.419 C 200.389 166.419,200.771 168.032,200.233 169.760 C 200.020 170.448,169.566 170.185,168.847 169.490 C 168.259 168.921,168.092 159.785,168.656 159.026 C 169.022 158.532,169.692 158.504,184.519 158.352 C 202.292 158.169,200.559 157.885,200.326 160.948 M184.911 161.278 C 184.679 161.534,184.491 162.222,184.491 162.813 C 184.491 163.402,184.348 164.027,184.174 164.201 C 183.671 164.704,183.144 164.068,183.134 162.947 C 183.125 161.942,182.565 160.883,182.222 161.226 C 182.117 161.331,181.402 161.481,180.634 161.558 C 179.670 161.656,179.220 161.825,179.183 162.104 C 179.154 162.326,179.053 163.206,178.959 164.059 C 178.664 166.733,177.208 166.085,177.208 163.280 C 177.208 161.480,176.831 160.879,176.223 161.710 C 175.074 163.281,176.231 166.959,177.874 166.959 C 178.396 166.959,180.175 165.234,180.175 164.727 C 180.175 163.555,180.929 163.292,181.805 164.158 L 182.654 164.998 181.819 165.592 C 180.779 166.333,180.774 166.563,181.787 166.916 C 182.518 167.171,182.650 167.120,183.278 166.336 L 183.967 165.475 184.502 166.116 C 184.866 166.553,185.399 166.792,186.180 166.869 C 188.028 167.052,188.599 166.198,187.027 165.600 C 186.198 165.285,186.205 164.780,187.047 164.047 C 187.773 163.416,187.736 163.025,186.835 161.789 C 186.170 160.876,185.448 160.684,184.911 161.278 M188.966 161.537 C 187.944 162.666,189.734 166.689,191.258 166.689 C 191.988 166.689,192.286 162.570,191.623 161.624 C 191.086 160.858,189.624 160.810,188.966 161.537 M194.917 161.518 C 194.249 162.256,194.295 164.531,194.978 164.531 C 195.257 164.531,195.810 164.956,196.206 165.475 C 197.393 167.032,198.247 166.815,198.247 164.955 C 198.247 163.610,197.818 162.647,197.216 162.642 C 197.115 162.641,196.826 162.277,196.574 161.832 C 196.047 160.907,195.555 160.813,194.917 161.518 M185.690 163.385 C 185.464 165.249,185.301 165.547,185.296 164.104 C 185.294 163.523,185.220 162.775,185.130 162.441 C 185.008 161.987,185.082 161.834,185.423 161.834 C 185.819 161.834,185.854 162.035,185.690 163.385 M196.085 162.306 C 196.081 162.804,195.563 163.782,195.550 163.318 C 195.546 163.169,195.469 162.775,195.380 162.441 C 195.260 161.995,195.332 161.834,195.653 161.834 C 195.893 161.834,196.087 162.047,196.085 162.306 M191.234 163.024 C 191.234 163.935,191.226 163.942,190.425 163.640 C 189.852 163.423,189.616 163.155,189.616 162.719 C 189.616 162.215,189.762 162.104,190.425 162.104 C 191.166 162.104,191.234 162.181,191.234 163.024 M197.438 164.952 C 197.438 165.349,197.116 165.469,196.827 165.179 C 196.584 164.936,196.919 164.242,197.196 164.414 C 197.329 164.496,197.438 164.738,197.438 164.952 M200.256 173.500 C 200.704 175.566,200.306 177.101,199.496 176.429 C 198.900 175.934,197.884 176.169,197.576 176.871 C 197.249 177.617,196.987 177.643,196.768 176.952 C 196.533 176.212,195.686 176.021,194.324 176.402 C 193.295 176.690,193.192 176.788,193.458 177.215 C 193.682 177.573,193.682 177.970,193.459 178.735 C 192.709 181.303,194.403 182.885,195.321 180.473 L 195.575 179.804 196.080 180.635 C 197.011 182.165,197.776 181.892,198.111 179.911 C 198.212 179.315,198.375 178.831,198.473 178.837 C 198.940 178.862,200.678 182.167,200.524 182.738 C 200.484 182.886,200.374 183.358,200.279 183.786 L 200.106 184.565 184.567 184.423 L 169.028 184.281 168.645 183.550 C 168.120 182.548,168.257 174.276,168.810 173.611 C 169.135 173.220,170.261 173.161,178.655 173.095 C 183.867 173.054,190.830 172.992,194.128 172.957 L 200.125 172.893 200.256 173.500 M181.997 176.060 C 181.764 176.321,181.532 176.828,181.481 177.187 C 181.344 178.161,180.867 178.143,180.429 177.146 C 180.081 176.357,179.910 176.256,178.803 176.184 C 177.323 176.088,176.701 176.594,177.122 177.554 C 177.267 177.883,177.306 178.456,177.209 178.827 C 176.740 180.615,177.903 181.582,178.646 180.022 C 179.277 178.699,180.268 178.785,180.400 180.174 C 180.543 181.682,181.794 182.279,181.794 180.839 C 181.794 180.138,182.486 180.253,183.181 181.069 C 183.834 181.835,183.956 181.878,184.613 181.579 C 185.111 181.352,185.486 181.335,185.837 181.523 C 186.614 181.939,187.418 181.846,187.897 181.287 C 188.322 180.790,188.342 180.790,188.839 181.287 C 190.578 183.026,193.286 180.676,191.768 178.746 L 191.201 178.026 191.888 177.339 L 192.575 176.652 191.887 176.391 C 191.037 176.068,189.606 176.058,189.110 176.373 C 188.513 176.751,189.067 178.668,189.804 178.775 C 190.553 178.883,190.781 179.511,190.259 180.033 C 189.299 180.993,187.355 179.160,187.615 177.538 C 187.827 176.206,187.321 175.688,186.274 176.165 C 185.226 176.643,185.288 178.028,186.397 178.896 L 187.225 179.544 186.295 180.253 C 185.200 181.088,184.491 180.677,184.491 179.207 C 184.491 178.709,184.292 178.293,183.951 178.080 C 183.655 177.895,183.412 177.460,183.412 177.113 C 183.412 176.105,182.538 175.455,181.997 176.060 M182.738 177.208 C 182.607 177.420,182.452 177.435,182.272 177.255 C 182.124 177.107,182.091 176.843,182.198 176.669 C 182.329 176.458,182.484 176.442,182.664 176.622 C 182.812 176.770,182.845 177.034,182.738 177.208 M179.599 177.546 C 179.568 178.288,179.543 178.319,179.437 177.748 C 179.368 177.377,179.172 176.984,179.002 176.875 C 178.803 176.748,178.861 176.676,179.164 176.673 C 179.525 176.670,179.627 176.875,179.599 177.546 M189.802 177.950 C 189.734 178.210,189.678 177.997,189.678 177.478 C 189.678 176.959,189.734 176.746,189.802 177.006 C 189.869 177.266,189.869 177.690,189.802 177.950 M195.735 177.950 C 195.668 178.210,195.612 177.997,195.612 177.478 C 195.612 176.959,195.668 176.746,195.735 177.006 C 195.803 177.266,195.803 177.690,195.735 177.950 M197.271 180.339 L 197.074 181.119 196.863 180.333 C 196.627 179.455,196.814 178.905,197.213 179.304 C 197.353 179.443,197.379 179.909,197.271 180.339 M190.897 181.170 C 190.637 181.238,190.212 181.238,189.953 181.170 C 189.693 181.103,189.906 181.047,190.425 181.047 C 190.944 181.047,191.156 181.103,190.897 181.170 M200.467 194.471 C 200.467 194.990,200.523 195.202,200.591 194.943 C 200.658 194.683,200.658 194.258,200.591 193.999 C 200.523 193.739,200.467 193.951,200.467 194.471 " stroke="none" fill="#8cc6e6" fill-rule="evenodd"></path><path id="path4" d="M201.483 43.150 C 201.176 43.344,201.047 44.155,200.944 46.528 C 200.842 48.901,200.712 49.711,200.405 49.905 C 200.169 50.054,195.810 50.162,189.992 50.164 L 179.983 50.169 178.749 51.111 C 177.121 52.354,176.906 54.170,178.212 55.637 C 179.293 56.852,179.865 56.912,190.407 56.912 C 199.822 56.912,200.401 56.940,200.651 57.408 C 200.981 58.023,200.709 76.869,200.365 77.307 C 200.219 77.493,200.285 77.739,200.536 77.947 C 200.858 78.214,200.943 78.948,200.940 81.422 C 200.935 85.051,200.668 85.872,199.454 85.976 C 195.567 86.310,190.425 89.251,190.425 91.140 C 190.425 91.280,190.121 91.756,189.749 92.198 C 189.274 92.763,188.950 93.668,188.655 95.253 C 187.799 99.856,187.789 99.698,189.012 100.963 C 189.788 101.766,190.154 102.413,190.283 103.212 C 190.643 105.446,191.536 105.719,192.317 103.835 C 192.617 103.108,192.765 103.034,193.914 103.034 C 195.846 103.034,198.282 102.507,199.126 101.905 C 200.662 100.812,200.671 100.855,200.712 110.106 C 200.780 125.486,200.457 146.427,200.141 147.134 C 200.074 147.283,200.163 147.660,200.337 147.973 C 200.869 148.931,200.900 163.094,200.372 164.144 C 199.997 164.890,199.998 165.032,200.383 165.612 C 200.843 166.305,200.962 173.934,200.566 177.343 C 200.310 179.545,200.317 179.839,200.653 181.392 C 200.846 182.288,200.869 183.788,200.719 185.842 C 200.579 187.767,200.591 189.069,200.751 189.278 C 200.897 189.468,200.933 190.347,200.835 191.301 C 200.740 192.228,200.649 193.169,200.633 193.392 C 200.617 193.614,200.692 195.071,200.800 196.628 C 200.959 198.932,200.922 199.559,200.598 199.985 C 200.324 200.346,200.268 200.725,200.417 201.199 C 200.780 202.346,200.917 217.067,200.570 217.503 C 200.405 217.710,199.663 217.965,198.921 218.069 C 192.697 218.947,191.279 228.594,196.828 232.303 C 197.879 233.006,198.632 233.311,199.316 233.311 C 200.763 233.311,200.944 233.646,200.944 236.322 C 200.944 238.408,201.007 238.720,201.482 238.974 C 202.663 239.606,239.641 239.200,240.370 238.547 C 240.715 238.237,241.391 237.828,241.871 237.639 C 242.994 237.196,246.150 234.045,246.377 233.141 C 246.473 232.760,246.804 232.106,247.112 231.689 C 248.083 230.376,248.116 228.277,248.140 167.094 C 248.160 115.124,248.214 107.418,248.559 106.961 C 249.146 106.185,249.139 92.939,248.550 91.530 C 248.002 90.218,248.002 84.843,248.550 83.884 C 249.109 82.907,249.132 69.851,248.577 68.972 C 248.283 68.507,248.175 66.617,248.086 60.412 L 247.972 52.448 246.966 50.432 C 245.032 46.556,242.765 44.384,239.902 43.663 C 239.239 43.496,238.630 43.253,238.550 43.123 C 238.348 42.796,202.002 42.823,201.483 43.150 M239.474 44.251 C 240.209 44.409,241.022 44.773,241.283 45.060 C 241.543 45.348,241.941 45.583,242.167 45.583 C 242.933 45.583,245.920 49.099,246.098 50.211 C 246.187 50.767,246.472 51.340,246.731 51.485 C 247.158 51.724,247.217 52.546,247.363 60.331 C 247.453 65.084,247.658 69.456,247.824 70.128 C 248.255 71.881,248.243 82.402,247.808 83.160 C 247.580 83.559,247.471 85.052,247.471 87.795 C 247.471 90.538,247.580 92.031,247.808 92.430 C 248.265 93.228,248.267 104.069,247.811 105.597 C 247.567 106.413,247.454 121.704,247.345 168.449 L 247.202 230.222 246.595 230.994 C 246.261 231.418,245.988 231.991,245.988 232.268 C 245.988 232.544,245.563 233.240,245.044 233.815 C 244.525 234.389,244.100 234.997,244.100 235.164 C 244.100 235.332,243.937 235.469,243.737 235.469 C 243.537 235.469,243.151 235.715,242.879 236.016 C 242.607 236.317,241.421 237.045,240.244 237.634 L 238.103 238.705 220.384 238.705 C 199.760 238.705,201.601 238.996,201.822 235.773 C 202.003 233.126,201.780 232.771,199.933 232.771 C 197.038 232.771,193.931 229.036,193.931 225.556 C 193.931 223.795,195.335 220.558,196.291 220.117 C 196.625 219.962,196.898 219.657,196.898 219.438 C 196.898 219.047,197.162 218.973,199.831 218.616 C 201.851 218.347,202.051 218.134,201.855 216.466 C 201.755 215.616,201.811 214.653,201.990 214.139 C 202.239 213.426,202.220 213.179,201.890 212.814 C 201.300 212.163,201.287 201.179,201.874 200.592 C 202.212 200.254,202.214 200.132,201.883 199.696 C 201.315 198.945,201.402 197.501,202.072 196.560 L 202.660 195.734 202.072 194.712 C 201.342 193.444,201.225 189.835,201.883 188.895 C 202.236 188.391,202.236 188.286,201.883 187.993 C 201.180 187.410,201.356 185.170,202.155 184.541 C 202.736 184.085,202.772 183.968,202.427 183.681 C 201.823 183.180,201.383 181.283,201.712 180.604 C 202.544 178.888,202.638 177.997,202.051 177.373 C 201.351 176.628,201.351 176.314,202.046 174.781 L 202.597 173.567 202.040 173.197 C 201.230 172.658,201.242 170.421,202.059 169.879 C 202.616 169.509,202.620 169.470,202.176 168.612 C 201.759 167.806,201.756 167.670,202.138 167.086 C 202.457 166.600,202.494 166.273,202.291 165.740 C 202.143 165.353,202.023 164.558,202.023 163.974 C 202.023 163.391,201.902 162.913,201.753 162.913 C 201.181 162.913,201.461 160.542,202.124 159.771 L 202.764 159.026 202.117 158.517 C 201.478 158.015,201.471 157.954,201.544 153.930 C 201.627 149.395,201.576 149.506,203.776 148.991 L 204.585 148.802 203.593 148.620 C 201.324 148.206,201.450 148.784,201.475 138.937 C 201.499 129.809,201.701 127.980,202.783 127.109 C 203.152 126.812,203.127 126.697,202.563 126.096 C 201.690 125.167,201.425 121.318,202.157 120.201 C 202.590 119.541,202.592 119.438,202.189 118.823 C 201.533 117.822,201.534 102.001,202.190 101.001 C 202.541 100.464,202.561 100.256,202.292 99.931 C 201.819 99.361,200.920 99.428,200.758 100.046 C 200.657 100.434,200.284 100.610,199.271 100.749 C 198.453 100.862,197.695 101.158,197.354 101.500 C 196.888 101.966,196.370 102.084,194.389 102.179 C 191.997 102.293,191.987 102.297,191.631 103.136 C 191.215 104.119,191.021 103.805,190.905 101.955 C 190.842 100.949,190.731 100.728,190.251 100.659 C 189.139 100.501,189.146 94.738,190.259 94.249 C 190.657 94.074,190.903 93.618,191.073 92.738 C 191.245 91.846,191.468 91.438,191.835 91.342 C 192.120 91.268,192.416 90.966,192.493 90.672 C 192.570 90.378,192.863 90.077,193.144 90.004 C 193.425 89.930,193.775 89.555,193.921 89.170 C 194.137 88.602,194.364 88.469,195.119 88.469 C 196.012 88.469,196.729 88.032,196.957 87.348 C 197.027 87.138,197.809 87.017,199.207 86.999 C 201.886 86.965,202.882 86.200,201.738 85.055 C 201.552 84.870,201.497 83.506,201.581 81.158 C 201.652 79.171,201.707 77.363,201.704 77.141 C 201.700 76.918,201.645 74.020,201.580 70.700 C 201.480 65.525,201.522 64.598,201.879 64.204 C 202.216 63.832,202.239 63.581,202.000 62.895 C 201.831 62.411,201.743 60.838,201.796 59.239 L 201.888 56.431 201.060 56.132 C 200.507 55.932,196.772 55.833,189.841 55.833 C 178.478 55.833,179.280 55.941,178.355 54.286 C 177.856 53.394,177.934 53.013,178.800 52.085 L 179.583 51.247 190.128 51.247 C 202.831 51.247,201.753 51.609,201.753 47.350 C 201.753 44.950,201.823 44.490,202.225 44.256 C 202.888 43.870,237.677 43.866,239.474 44.251 M205.595 96.928 C 205.360 97.444,205.370 97.624,205.637 97.727 C 206.286 97.976,206.587 97.547,206.231 96.882 L 205.899 96.262 205.595 96.928 M211.491 100.152 C 211.327 100.570,211.194 101.022,211.194 101.157 C 211.194 101.292,210.859 101.575,210.451 101.786 C 208.859 102.609,208.608 103.173,209.408 104.124 C 209.797 104.586,210.115 105.083,210.115 105.229 C 210.115 105.969,210.646 105.025,210.797 104.017 C 211.010 102.598,211.174 102.317,211.868 102.184 C 212.432 102.076,212.486 101.203,212.005 99.956 C 211.800 99.422,211.773 99.433,211.491 100.152 M210.115 108.075 L 210.115 109.070 210.665 108.480 C 210.967 108.155,211.354 107.889,211.525 107.889 C 211.941 107.889,210.882 107.100,210.452 107.089 C 210.241 107.083,210.115 107.454,210.115 108.075 M273.320 112.501 C 272.389 112.770,271.160 114.052,270.922 115.003 C 270.409 117.045,270.948 148.236,271.517 149.466 C 271.835 150.155,272.182 151.126,272.287 151.624 C 272.609 153.146,274.394 155.535,276.794 157.653 C 279.532 160.071,291.105 161.254,294.432 159.457 C 295.010 159.145,295.907 158.702,296.426 158.472 C 298.398 157.599,301.462 154.529,301.955 152.933 C 302.069 152.562,302.438 151.713,302.775 151.045 C 304.385 147.852,305.013 117.501,303.535 114.340 C 302.537 112.206,297.235 111.408,297.235 113.392 C 297.235 113.589,296.962 114.098,296.628 114.522 L 296.022 115.293 295.887 130.539 L 295.752 145.786 294.855 147.808 C 294.122 149.460,293.681 150.054,292.449 151.045 L 290.940 152.259 287.366 152.259 C 284.031 152.259,283.749 152.218,283.146 151.652 C 282.791 151.318,282.377 151.045,282.226 151.045 C 281.714 151.045,280.289 148.980,279.975 147.784 C 279.803 147.130,279.465 146.049,279.223 145.381 C 278.845 144.336,278.763 142.123,278.637 129.467 L 278.490 114.767 277.720 113.761 C 276.667 112.385,275.185 111.961,273.320 112.501 M313.098 112.391 C 310.604 112.791,309.782 116.074,311.411 119.137 C 311.773 119.819,312.070 120.525,312.070 120.705 C 312.070 120.886,312.296 121.323,312.572 121.676 C 312.849 122.030,313.166 122.623,313.278 122.994 C 313.390 123.365,313.771 124.055,314.124 124.527 C 314.478 124.999,314.767 125.467,314.767 125.567 C 314.767 125.667,315.331 126.737,316.021 127.945 C 316.710 129.153,317.555 130.708,317.899 131.401 C 318.242 132.093,318.640 132.732,318.783 132.820 C 319.919 133.522,319.748 138.098,318.585 138.098 C 318.473 138.098,318.107 138.614,317.772 139.245 C 316.231 142.142,314.681 144.801,313.409 146.730 C 312.969 147.397,312.349 148.490,312.031 149.157 C 311.714 149.825,311.354 150.436,311.233 150.516 C 310.655 150.893,309.267 155.022,309.281 156.321 C 309.335 161.062,314.612 161.748,316.982 157.323 C 317.282 156.763,317.749 155.871,318.019 155.340 C 318.290 154.809,318.694 154.223,318.918 154.037 C 319.142 153.851,319.468 153.254,319.642 152.709 C 319.816 152.165,320.171 151.477,320.430 151.180 C 320.939 150.597,321.389 149.800,322.431 147.631 C 322.799 146.866,323.233 146.158,323.396 146.057 C 323.558 145.957,323.884 145.392,324.120 144.803 C 324.414 144.069,324.671 143.779,324.939 143.882 C 325.155 143.965,325.507 144.032,325.723 144.032 C 325.938 144.032,326.359 144.548,326.657 145.179 C 327.192 146.310,327.898 147.603,329.567 150.506 C 330.036 151.322,330.651 152.492,330.933 153.106 C 331.215 153.720,331.568 154.298,331.718 154.391 C 331.868 154.483,332.138 155.013,332.319 155.567 C 333.105 157.980,335.409 160.216,337.110 160.216 C 341.734 160.216,342.367 155.921,338.641 149.831 C 338.277 149.238,337.735 148.253,337.436 147.642 C 337.136 147.031,336.714 146.384,336.497 146.204 C 336.280 146.024,335.961 145.432,335.786 144.887 C 335.612 144.343,335.257 143.655,334.997 143.358 C 334.736 143.061,334.378 142.364,334.200 141.809 C 334.023 141.254,333.717 140.708,333.522 140.595 C 333.327 140.483,332.963 139.966,332.715 139.447 C 332.466 138.928,331.967 137.957,331.605 137.289 C 330.786 135.778,330.900 134.576,332.032 132.792 C 332.476 132.092,332.839 131.376,332.839 131.201 C 332.839 131.025,333.034 130.720,333.274 130.521 C 333.704 130.164,334.355 129.014,335.648 126.323 C 336.016 125.558,336.441 124.855,336.593 124.761 C 336.745 124.667,337.118 124.079,337.421 123.455 C 337.725 122.830,338.448 121.438,339.028 120.361 C 341.725 115.354,339.954 111.276,335.612 112.491 C 334.662 112.757,334.325 113.024,333.907 113.844 C 333.621 114.406,333.266 114.940,333.120 115.030 C 332.974 115.120,332.608 115.705,332.306 116.329 C 332.005 116.954,331.402 118.071,330.966 118.813 C 330.531 119.555,329.925 120.647,329.620 121.241 C 329.314 121.834,328.637 123.048,328.115 123.938 C 327.593 124.828,326.909 126.056,326.595 126.666 C 325.871 128.073,324.697 127.867,324.175 126.240 C 324.007 125.715,323.692 125.082,323.474 124.832 C 323.256 124.583,322.463 123.187,321.712 121.731 C 318.370 115.254,318.076 114.755,316.813 113.410 C 315.955 112.496,314.659 112.141,313.098 112.391 M277.096 114.150 L 278.085 115.285 278.087 129.591 C 278.088 143.685,278.237 146.647,278.987 147.509 C 279.195 147.748,279.502 148.368,279.669 148.887 C 280.200 150.541,282.532 152.560,284.247 152.852 C 287.288 153.369,292.650 152.778,292.650 151.926 C 292.650 151.802,293.026 151.479,293.486 151.207 C 293.946 150.935,294.525 150.272,294.772 149.733 C 295.019 149.194,295.462 148.394,295.756 147.956 C 296.270 147.190,296.297 146.547,296.426 131.463 C 296.545 117.654,296.612 115.707,296.989 115.267 C 297.224 114.992,297.572 114.373,297.763 113.891 C 298.393 112.298,302.140 112.798,302.875 114.573 C 303.553 116.210,303.152 148.823,302.439 150.030 C 302.112 150.584,301.705 151.552,301.536 152.181 C 301.366 152.810,300.997 153.486,300.715 153.684 C 300.433 153.881,300.201 154.188,300.199 154.365 C 300.197 154.654,299.363 155.476,297.159 157.360 C 296.746 157.713,295.984 158.081,295.466 158.178 C 294.947 158.275,294.071 158.622,293.519 158.948 C 292.066 159.807,283.164 159.802,281.453 158.942 C 280.861 158.644,279.926 158.319,279.374 158.219 C 278.822 158.118,278.016 157.738,277.582 157.373 C 277.148 157.008,276.657 156.709,276.489 156.709 C 276.322 156.709,276.048 156.408,275.880 156.040 C 275.713 155.672,275.361 155.303,275.100 155.220 C 274.838 155.137,274.490 154.685,274.326 154.215 C 274.162 153.745,273.798 153.113,273.517 152.810 C 273.236 152.507,272.874 151.540,272.714 150.662 C 272.553 149.783,272.209 148.751,271.949 148.369 C 271.514 147.729,271.470 146.381,271.396 131.381 L 271.314 115.088 272.327 114.051 C 273.857 112.485,275.678 112.522,277.096 114.150 M316.707 114.150 C 317.272 114.774,317.734 115.493,317.734 115.747 C 317.734 116.002,318.020 116.553,318.370 116.972 C 318.719 117.391,319.153 118.188,319.333 118.742 C 319.514 119.296,319.770 119.817,319.902 119.898 C 320.035 119.980,320.724 121.190,321.434 122.586 C 324.175 127.979,324.338 128.247,325.101 128.611 C 326.122 129.099,326.549 128.877,326.877 127.691 C 327.028 127.143,327.380 126.438,327.659 126.125 C 327.938 125.812,328.326 125.131,328.521 124.612 C 328.717 124.093,329.021 123.547,329.197 123.399 C 329.374 123.250,329.788 122.583,330.117 121.915 C 331.050 120.025,331.851 118.582,332.367 117.866 C 332.626 117.505,332.839 117.015,332.839 116.777 C 332.839 116.539,333.139 116.063,333.505 115.719 C 333.872 115.374,334.301 114.700,334.460 114.220 C 334.938 112.771,337.419 112.534,338.836 113.803 C 339.941 114.792,340.087 117.698,339.087 118.770 C 338.788 119.090,338.457 119.717,338.353 120.162 C 338.248 120.607,337.938 121.219,337.664 121.522 C 337.390 121.825,337.025 122.493,336.853 123.006 C 336.681 123.518,336.320 124.182,336.051 124.481 C 335.782 124.780,335.372 125.478,335.141 126.032 C 334.909 126.586,334.610 127.040,334.475 127.040 C 334.340 127.040,334.149 127.409,334.050 127.860 C 333.951 128.311,333.591 128.949,333.251 129.276 C 332.910 129.604,332.487 130.327,332.310 130.883 C 332.133 131.440,331.873 131.895,331.732 131.895 C 331.592 131.895,331.352 132.229,331.200 132.637 C 331.047 133.045,330.676 133.893,330.375 134.521 L 329.827 135.664 330.389 136.378 C 330.698 136.771,330.953 137.288,330.956 137.528 C 330.958 137.768,331.323 138.498,331.765 139.151 C 332.207 139.803,332.569 140.453,332.569 140.595 C 332.569 140.737,332.873 141.213,333.243 141.654 C 333.614 142.095,333.918 142.605,333.918 142.787 C 333.918 142.969,334.215 143.521,334.578 144.013 C 334.941 144.505,335.315 145.258,335.409 145.686 C 335.503 146.114,335.797 146.580,336.062 146.722 C 336.327 146.864,336.622 147.373,336.718 147.853 C 336.814 148.334,337.125 148.975,337.407 149.279 C 340.744 152.862,341.001 159.014,337.835 159.523 L 336.272 159.775 335.297 158.667 C 333.742 156.900,333.211 156.105,332.852 155.005 C 332.666 154.438,332.346 153.910,332.140 153.831 C 331.934 153.752,331.639 153.214,331.483 152.637 C 331.328 152.059,330.977 151.374,330.704 151.114 C 330.432 150.853,330.121 150.337,330.013 149.966 C 329.906 149.595,329.540 148.867,329.201 148.348 C 328.505 147.284,328.029 146.403,327.069 144.407 C 326.092 142.376,323.668 142.200,323.668 144.160 C 323.668 144.346,323.304 144.956,322.859 145.516 C 322.414 146.076,322.050 146.742,322.050 146.997 C 322.050 147.252,321.757 147.776,321.400 148.162 C 321.042 148.547,320.666 149.241,320.565 149.703 C 320.464 150.164,320.216 150.605,320.015 150.683 C 319.813 150.760,319.510 151.243,319.340 151.757 C 319.171 152.270,318.740 153.006,318.383 153.391 C 318.026 153.776,317.734 154.232,317.734 154.404 C 317.734 154.576,317.431 155.128,317.060 155.630 C 316.689 156.133,316.386 156.755,316.386 157.012 C 316.386 158.429,313.843 159.917,312.008 159.573 C 310.478 159.286,309.455 156.497,310.285 154.875 C 310.490 154.475,310.745 153.601,310.852 152.933 C 310.959 152.266,311.324 151.416,311.663 151.045 C 312.002 150.674,312.370 150.067,312.481 149.697 C 312.592 149.326,312.970 148.679,313.321 148.260 C 313.671 147.840,313.958 147.372,313.958 147.220 C 313.958 147.067,314.262 146.582,314.633 146.141 C 315.003 145.700,315.307 145.128,315.307 144.869 C 315.307 144.611,315.607 144.138,315.974 143.819 C 316.341 143.500,316.724 142.902,316.824 142.489 C 316.925 142.077,317.292 141.397,317.640 140.977 C 317.989 140.558,318.274 140.057,318.274 139.864 C 318.274 139.671,318.472 139.348,318.715 139.147 C 318.958 138.945,319.366 138.291,319.622 137.694 C 319.879 137.096,320.287 136.442,320.530 136.241 C 321.062 135.799,321.094 135.295,320.620 134.814 C 320.427 134.618,320.052 133.911,319.787 133.243 C 319.522 132.576,319.073 131.813,318.790 131.547 C 318.506 131.282,318.274 130.843,318.274 130.573 C 318.274 130.302,317.910 129.623,317.465 129.063 C 317.020 128.503,316.655 127.836,316.655 127.582 C 316.655 127.327,316.352 126.791,315.981 126.391 C 315.610 125.991,315.307 125.432,315.307 125.148 C 315.307 124.865,315.082 124.416,314.808 124.151 C 314.533 123.885,314.166 123.249,313.993 122.736 C 313.820 122.223,313.448 121.555,313.168 121.252 C 312.887 120.949,312.514 120.155,312.339 119.488 C 312.163 118.820,311.819 118.049,311.573 117.773 C 311.309 117.478,311.126 116.816,311.127 116.155 C 311.129 113.036,314.577 111.796,316.707 114.150 M204.102 118.406 C 204.179 118.701,204.350 118.876,204.481 118.794 C 204.862 118.559,204.758 117.869,204.341 117.869 C 204.095 117.869,204.011 118.058,204.102 118.406 M194.960 124.933 C 194.566 125.326,194.479 125.559,194.699 125.632 C 195.205 125.801,195.753 125.509,196.081 124.897 C 196.497 124.120,195.749 124.143,194.960 124.933 M204.075 125.039 C 203.834 125.665,203.853 125.691,204.540 125.691 C 205.406 125.691,205.611 125.408,205.053 124.985 C 204.438 124.518,204.271 124.527,204.075 125.039 M217.307 140.976 C 217.208 141.074,217.127 141.423,217.127 141.751 C 217.127 142.197,216.924 142.387,216.318 142.508 C 215.532 142.666,215.228 143.287,215.773 143.624 C 216.155 143.860,217.127 143.274,217.127 142.809 C 217.127 142.592,217.291 142.414,217.490 142.414 C 218.123 142.414,218.787 141.485,218.418 141.116 C 218.064 140.761,217.583 140.700,217.307 140.976 M213.740 144.162 C 213.287 144.508,213.271 144.598,213.621 144.832 C 214.200 145.220,214.852 145.173,215.230 144.718 C 215.936 143.867,214.721 143.413,213.740 144.162 M210.689 145.743 C 210.315 146.194,210.560 146.460,211.351 146.460 C 212.240 146.460,212.812 146.185,212.812 145.757 C 212.812 145.262,211.097 145.251,210.689 145.743 M206.537 147.186 C 205.648 147.418,206.366 147.808,207.681 147.808 C 209.163 147.808,209.913 147.597,209.693 147.241 C 209.541 146.996,207.408 146.959,206.537 147.186 M222.090 164.127 C 222.091 166.352,222.132 167.226,222.183 166.070 C 222.234 164.913,222.234 163.093,222.182 162.024 C 222.131 160.955,222.090 161.902,222.090 164.127 M185.130 162.441 C 185.220 162.775,185.294 163.523,185.296 164.104 C 185.301 165.547,185.464 165.249,185.690 163.385 C 185.854 162.035,185.819 161.834,185.423 161.834 C 185.082 161.834,185.008 161.987,185.130 162.441 M195.380 162.441 C 195.469 162.775,195.546 163.169,195.550 163.318 C 195.554 163.466,195.675 163.405,195.819 163.183 C 196.225 162.555,196.136 161.834,195.653 161.834 C 195.332 161.834,195.260 161.995,195.380 162.441 M189.616 162.719 C 189.616 163.155,189.852 163.423,190.425 163.640 C 191.226 163.942,191.234 163.935,191.234 163.024 C 191.234 162.181,191.166 162.104,190.425 162.104 C 189.762 162.104,189.616 162.215,189.616 162.719 M196.810 164.641 C 196.658 165.037,196.833 165.341,197.213 165.341 C 197.514 165.341,197.501 164.602,197.196 164.414 C 197.063 164.332,196.890 164.434,196.810 164.641 M222.092 178.692 C 222.092 181.065,222.133 182.000,222.183 180.769 C 222.233 179.538,222.233 177.596,222.183 176.454 C 222.132 175.311,222.091 176.318,222.092 178.692 M182.198 176.669 C 182.091 176.843,182.124 177.107,182.272 177.255 C 182.452 177.435,182.607 177.420,182.738 177.208 C 182.845 177.034,182.812 176.770,182.664 176.622 C 182.484 176.442,182.329 176.458,182.198 176.669 M179.002 176.875 C 179.172 176.984,179.368 177.377,179.437 177.748 C 179.543 178.319,179.568 178.288,179.599 177.546 C 179.627 176.875,179.525 176.670,179.164 176.673 C 178.861 176.676,178.803 176.748,179.002 176.875 M189.678 177.478 C 189.678 177.997,189.734 178.210,189.802 177.950 C 189.869 177.690,189.869 177.266,189.802 177.006 C 189.734 176.746,189.678 176.959,189.678 177.478 M195.612 177.478 C 195.612 177.997,195.668 178.210,195.735 177.950 C 195.803 177.690,195.803 177.266,195.735 177.006 C 195.668 176.746,195.612 176.959,195.612 177.478 M196.805 179.298 C 196.721 179.435,196.746 179.901,196.863 180.333 L 197.074 181.119 197.271 180.339 C 197.464 179.572,197.116 178.795,196.805 179.298 M189.953 181.170 C 190.212 181.238,190.637 181.238,190.897 181.170 C 191.156 181.103,190.944 181.047,190.425 181.047 C 189.906 181.047,189.693 181.103,189.953 181.170 M202.594 232.212 C 202.323 232.380,202.339 232.462,202.666 232.587 C 202.896 232.676,203.151 232.640,203.232 232.509 C 203.445 232.164,203.003 231.959,202.594 232.212 " stroke="none" fill="#688494" fill-rule="evenodd"></path></g></svg>